<svg width="21" height="16" viewBox="0 0 21 16" fill="none" xmlns="http://www.w3.org/2000/svg">
<path d="M19.995 0.712677L15.4324 14.852C15.3195 15.2016 14.8866 15.3231 14.6085 15.083L10.832 11.9315L8.61123 14.3704C8.34152 14.6667 7.84865 14.4759 7.84865 14.0752V9.55826C7.84865 9.48452 7.88139 9.41459 7.93795 9.36735L13.6976 4.56092C13.7073 4.55286 13.6976 4.53767 13.6863 4.54305L5.93509 8.18019C5.70193 8.28962 5.43197 8.28874 5.1995 8.17782L0.575229 5.97161C0.255896 5.80432 0.308827 5.33182 0.657219 5.23921L19.5306 0.223304C19.8246 0.145189 20.0885 0.423278 19.995 0.712739V0.712677Z" fill="white"/>
</svg>
