<svg width="18" height="17" viewBox="0 0 18 17" fill="none" xmlns="http://www.w3.org/2000/svg">
<path d="M9.87634 16.4425C9.94278 16.4418 10.0007 16.3939 10.0138 16.3292L10.4331 14.2827L10.5461 14.2525C11.0985 14.1054 11.6304 13.8802 12.1268 13.5824L12.228 13.5217L13.9657 14.6501C14.0212 14.686 14.0986 14.6774 14.1448 14.6302L15.362 13.3842C15.4093 13.3359 15.4157 13.2605 15.3777 13.2048L14.2123 11.5011L14.272 11.3981C14.5616 10.8982 14.7776 10.3603 14.9147 9.80035L14.9428 9.68488L16.9832 9.25107C17.0493 9.23721 17.0966 9.17788 17.0959 9.11037L17.0749 7.36909C17.0742 7.30158 17.0252 7.24367 16.9591 7.23123L14.9105 6.84681L14.8796 6.73241C14.7314 6.18668 14.5079 5.66404 14.2152 5.17907L14.154 5.07781L15.2846 3.34008C15.3215 3.28359 15.313 3.20827 15.2647 3.16101L14.0187 1.94343C13.9714 1.8976 13.894 1.89049 13.8393 1.9278L12.1339 3.09351L12.0308 3.03382C11.532 2.74497 10.9952 2.52895 10.4345 2.39074L10.3194 2.36232L9.88486 0.322588C9.87101 0.25757 9.81274 0.209961 9.74595 0.209961L8.00289 0.230568C7.93538 0.231278 7.87747 0.279953 7.86503 0.346393L7.48096 2.39607L7.3662 2.42698C6.81301 2.57656 6.28256 2.8043 5.78977 3.10417L5.68816 3.16599L3.92769 2.0223C3.87226 1.98606 3.79481 1.99495 3.74862 2.0422L2.57332 3.24557C2.52713 3.29318 2.51967 3.36779 2.55626 3.42322L3.71913 5.18547L3.66087 5.28672C3.37486 5.78307 3.16061 6.31671 3.02418 6.87239L2.99576 6.9875L0.956385 7.41989C0.890301 7.43375 0.843047 7.49308 0.843758 7.56059L0.862944 9.24325C0.863654 9.30969 0.911263 9.36725 0.976282 9.38075L3.02347 9.8007L3.05367 9.91369C3.20361 10.4782 3.43383 11.0172 3.73761 11.5157L3.79943 11.6173L2.65539 13.3778C2.61844 13.4343 2.62697 13.5096 2.67529 13.5568L3.87901 14.7322C3.92556 14.7776 4.00195 14.7851 4.0563 14.7492L5.81855 13.5867L5.91946 13.645C6.41615 13.931 6.94945 14.1452 7.50477 14.2813L7.61988 14.3097L8.05334 16.3502C8.06719 16.4152 8.12582 16.4628 8.19226 16.4628L8.19616 16.6518L8.19403 16.4628L9.87598 16.4429L9.87634 16.4425ZM5.27709 8.37989C5.25435 6.34407 6.89011 4.66852 8.92345 4.64471H8.97141C10.9824 4.64471 12.6377 6.28083 12.6615 8.29178C12.6853 10.3276 11.0495 12.0039 9.01511 12.0284H8.96963C6.95762 12.0284 5.3016 10.3919 5.27744 8.37989H5.27709Z" fill="#0C3388"/>
</svg>
