<svg width="28" height="29" viewBox="0 0 28 29" fill="none" xmlns="http://www.w3.org/2000/svg">
<path d="M5.07988 15.1119V27.1249C5.07988 27.5578 4.72924 27.9084 4.29636 27.9084H1.24447C0.811587 27.9084 0.460938 27.5578 0.460938 27.1249V15.1119C0.460938 14.679 0.811587 14.3284 1.24447 14.3284H4.29636C4.72924 14.3284 5.07988 14.679 5.07988 15.1119ZM24.8456 26.7432C25.1124 25.9486 24.5545 25.1831 24.9422 24.5433C25.3995 23.7882 26.177 23.7177 26.3198 22.6022C26.4174 21.8384 25.8712 21.209 26.159 20.5639C26.4892 19.8234 27.1561 19.6423 27.225 18.5917C27.3102 17.293 26.6106 17.5491 27.2457 16.4704C27.6331 15.8125 27.9995 15.1918 27.8544 14.3822C27.2216 10.852 20.9103 12.7165 18.6235 12.5577C16.0062 12.3759 18.0359 10.5013 18.8391 9.09571C19.6604 7.65835 20.2103 5.64838 20.0712 4.03018C19.9459 2.56975 19.2499 0.618947 17.7287 0.439779C15.5081 0.178379 15.8942 2.55738 15.2584 4.06995C13.688 7.80643 10.9898 9.84982 8.07094 12.4896C6.89297 13.5549 5.95099 14.5142 5.95099 15.8617C5.95099 18.3025 5.92191 21.8501 5.92191 24.172C5.92191 26.7315 6.76695 27.3713 9.45649 27.5895C13.0439 27.8807 16.6507 28.7645 20.2451 28.7645C21.9124 28.7645 24.2058 28.6492 24.8456 26.7428V26.7432Z" fill="#F5C341"/>
</svg>
