<svg width="17" height="17" viewBox="0 0 17 17" fill="none" xmlns="http://www.w3.org/2000/svg">
<path d="M2.53711 7.8942V16.1649C2.53711 16.3704 2.65091 16.5441 2.78561 16.5441H7.34942V11.4931H10.4811V16.5441H15.0449C15.1796 16.5441 15.2934 16.3704 15.2934 16.1649V7.8942L8.91528 3.42822L2.53711 7.8942Z" fill="white"/>
<path d="M16.7015 5.93074L9.30717 0.752783L9.30406 0.750229C9.19816 0.664603 9.06984 0.61752 8.9329 0.614089L8.91519 0.61377L8.89915 0.614089C8.76205 0.61744 8.63317 0.664603 8.52719 0.750309L8.51427 0.760045L1.12965 5.93074C0.995186 6.02491 0.90533 6.16608 0.876762 6.32831C0.848113 6.49055 0.884263 6.65398 0.978428 6.78852L1.38805 7.37354C1.5688 7.63178 1.9133 7.7119 2.18917 7.55996C2.20904 7.54903 2.22811 7.53722 2.24583 7.52477L8.91559 2.85442L15.5853 7.52469C15.601 7.53562 15.6191 7.54671 15.6423 7.55956C15.7647 7.62715 15.9079 7.65109 16.0456 7.62675C16.2076 7.59818 16.3488 7.50825 16.4432 7.37346L16.8528 6.78844C17.0476 6.51026 16.9797 6.12554 16.7015 5.93074Z" fill="white"/>
</svg>
