<svg width="1921" height="350" viewBox="0 0 1921 350" fill="none" xmlns="http://www.w3.org/2000/svg">
<path d="M1920.36 0.421875L1779.45 23.8618V112.165L1676.92 123.986V69.1627L1643.58 62.0477L1631.75 69.1627V127.803L1621.52 128.667V109.499L1588.19 102.386L1576.35 109.499V132.485L1550.94 134.633V181.441L1478.73 181.434V144.791L1418.22 147.569V70.3266L1395.1 56.4277L1333.66 69.5395V152.866H1313.19V276.976H1262.57V207.715H1225.31V230.416H1193.46V159.681H1170.35V187.555H1157.11V206.5H1124.69V129.538H1074.86V62.5372H1006.78V251.533H975.719V215.979H975.399L966.285 90.8845H958.695V85.8692H942.949L941.43 47.6089H939.822L938.303 85.8692H922.556V90.8821H914.966L905.852 215.977H905.533V251.53H896.614L887.644 146.492L881.452 143.622L879.878 93.7209H878.071L876.497 143.622L870.306 146.492L861.336 251.53H770.441V210.117H741.528V238.174H725.28V295H698.929V229.472H691.749V179.3H650.398V221.251H620.383V211.134H593.464V242.851H537.22V169.284L515.467 167.451C513.356 124.984 505.691 87.309 494.525 59.9936C492.942 56.1205 488.041 56.1205 486.458 59.9936C475.662 86.4067 468.139 122.507 465.744 163.258L396.482 158.382V170.179L371.154 170.186V149.163L330.028 145.22V88.9768L318.191 81.8642L284.859 88.9768V143.279L113.722 130.918V28.5508L0.625977 0.421875V349.269H1920.36V0.421875Z" fill="#EAEBF1"/>
</svg>
