<svg width="1921" height="147" viewBox="0 0 1921 147" fill="none" xmlns="http://www.w3.org/2000/svg">
<path d="M652.409 97.6611L636.847 31.7883L622.944 90.6435L614.313 54.1107L603.048 101.804L597.465 78.1827L589.742 110.88H669.477L659.381 68.1459L652.409 97.6611Z" fill="#F5F6FF"/>
<path d="M176.419 94.4812C179.299 93.8476 181.601 91.6372 182.325 88.7404L187.502 68.0404C188.589 63.694 188.573 59.146 187.452 54.8068L186.715 51.9556C185.541 47.4052 181.473 44.1988 176.774 44.1172C173.241 44.0572 169.915 45.7852 167.935 48.7132L164.753 53.4196C159.516 61.1668 158.683 71.0788 162.554 79.5917L167.34 90.1156C168.753 93.2212 172.013 95.0452 175.392 94.6396L176.414 94.4788L176.419 94.4812Z" fill="#E1E3F1"/>
<path d="M171.617 125.813C171.598 125.813 171.579 125.813 171.557 125.813C171.027 125.78 170.626 125.326 170.657 124.796L175.042 53.2301C175.075 52.6997 175.529 52.2989 176.059 52.3301C176.59 52.3637 176.991 52.8173 176.959 53.3477L172.575 124.913C172.543 125.422 172.121 125.816 171.617 125.816V125.813Z" fill="#E1E3F1"/>
<path d="M172.582 110.069C172.337 110.069 172.095 109.976 171.907 109.791L163.805 101.768C163.428 101.396 163.426 100.786 163.798 100.409C164.17 100.032 164.779 100.03 165.156 100.402L173.259 108.425C173.635 108.797 173.638 109.407 173.266 109.784C173.079 109.973 172.831 110.069 172.584 110.069H172.582Z" fill="#E1E3F1"/>
<path d="M250.478 85.498C255.628 85.678 260.474 82.2604 261.777 76.9372L269.294 46.2124C270.753 40.2508 267.155 34.2244 261.218 32.674L254.716 30.9772C250.653 29.9164 246.34 31.2124 243.532 34.3324L241.773 36.286C239.853 38.4196 238.823 41.206 238.893 44.074L239.637 74.5396C239.747 79.0924 242.596 83.1268 246.849 84.7564C247.706 85.0852 248.577 85.2964 249.446 85.4092L250.478 85.4956V85.498Z" fill="#E1E3F1"/>
<path d="M243.228 130.335C243.187 130.335 243.146 130.332 243.103 130.328C242.577 130.26 242.205 129.778 242.275 129.252L253.301 43.9973C253.368 43.4717 253.848 43.0997 254.376 43.1693C254.901 43.2365 255.273 43.7189 255.204 44.2445L244.178 129.5C244.116 129.984 243.703 130.337 243.228 130.337V130.335Z" fill="#E1E3F1"/>
<path d="M246.146 107.77C246.091 107.77 246.033 107.765 245.978 107.756C245.712 107.708 245.479 107.552 245.335 107.324L235.951 92.5085C235.668 92.0597 235.8 91.4669 236.248 91.1837C236.697 90.9005 237.29 91.0325 237.573 91.4813L246.396 105.408L258.969 95.7581C259.389 95.4341 259.992 95.5133 260.316 95.9357C260.64 96.3557 260.56 96.9581 260.138 97.2821L246.732 107.573C246.564 107.703 246.357 107.773 246.146 107.773V107.77Z" fill="#E1E3F1"/>
<path d="M218.443 84.9653C219.804 85.0925 221.193 85.0109 222.561 84.6965C226.862 83.7029 230.361 80.5853 231.84 76.4261L243.494 43.6469C245.064 39.2357 244.125 34.3205 241.041 30.7973L237.845 27.1421C234.098 22.8605 227.993 21.5285 222.804 23.8637L217.577 26.2157C213.396 28.0973 210.523 32.0525 210.026 36.6125L206.364 70.3061C205.915 74.4389 207.48 78.5357 210.569 81.3173L211.001 81.7061C212.829 83.3525 215.059 84.4133 217.416 84.8261L218.443 84.9653V84.9653Z" fill="#F5F6FF"/>
<path d="M207.254 130.82C207.187 130.82 207.12 130.812 207.052 130.798C206.534 130.688 206.203 130.176 206.313 129.658L227.016 32.5876C227.126 32.0692 227.637 31.738 228.156 31.8484C228.674 31.9588 229.005 32.47 228.895 32.9884L208.192 130.059C208.096 130.51 207.698 130.82 207.254 130.82Z" fill="#E1E3F1"/>
<path d="M212.17 107.77C211.843 107.77 211.524 107.604 211.344 107.304C211.071 106.848 211.219 106.26 211.673 105.987L224.033 98.578C224.489 98.3044 225.077 98.4532 225.351 98.9092C225.624 99.3652 225.475 99.9532 225.022 100.227L212.662 107.636C212.508 107.729 212.338 107.772 212.17 107.772V107.77Z" fill="#E1E3F1"/>
<path d="M296.026 100.927C299.568 101.158 302.856 98.9643 303.967 95.5443L310.495 75.4587C312.504 69.2811 306.542 63.4899 300.425 65.6739L291.612 68.8227C288.499 69.9339 286.421 72.8835 286.421 76.1883V92.8227C286.421 96.7443 289.322 100.059 293.21 100.577L294.998 100.815L296.028 100.927H296.026Z" fill="#E1E3F1"/>
<path d="M281.76 106.81C281.981 106.798 282.201 106.784 282.422 106.75C285.986 106.241 288.741 103.366 289.099 99.7852L290.861 82.1716C291.273 78.046 288.393 74.314 284.297 73.666L281.503 73.2244C276.576 72.4468 272.189 76.4164 272.474 81.3964L273.506 99.4516C273.734 103.445 276.905 106.522 280.723 106.805H281.757L281.76 106.81Z" fill="#F5F6FF"/>
<path d="M281.241 126.965C280.701 126.96 280.276 126.526 280.281 125.996L280.721 81.9292C280.725 81.3988 281.16 80.9836 281.69 80.9788C282.22 80.9836 282.645 81.418 282.641 81.9484L282.201 126.015C282.196 126.543 281.767 126.965 281.241 126.965Z" fill="#E1E3F1"/>
<path d="M289.55 128.554C289.505 128.554 289.459 128.551 289.414 128.544C288.888 128.47 288.523 127.983 288.6 127.459L295.805 76.9443C295.879 76.4187 296.364 76.0539 296.89 76.1283C297.415 76.2027 297.78 76.6899 297.703 77.2131L290.498 127.728C290.431 128.208 290.018 128.554 289.548 128.554H289.55Z" fill="#E1E3F1"/>
<path d="M292.049 111.034C291.713 111.034 291.389 110.859 291.211 110.544C290.952 110.084 291.115 109.498 291.576 109.236L299.299 104.885C299.762 104.626 300.345 104.789 300.607 105.25C300.869 105.711 300.703 106.296 300.242 106.558L292.519 110.909C292.37 110.993 292.209 111.034 292.049 111.034Z" fill="#E1E3F1"/>
<path d="M1446.51 105.18C1446.73 105.168 1446.95 105.154 1447.17 105.12C1450.73 104.612 1453.49 101.736 1453.85 98.1556L1455.61 80.542C1456.02 76.4164 1453.14 72.6844 1449.04 72.0364L1446.25 71.5948C1441.32 70.8172 1436.93 74.7868 1437.22 79.7668L1438.25 97.822C1438.48 101.816 1441.65 104.892 1445.47 105.176H1446.5L1446.51 105.18Z" fill="#F5F6FF"/>
<path d="M1445.99 125.335C1445.45 125.331 1445.02 124.896 1445.03 124.366L1445.47 80.2995C1445.47 79.7715 1445.9 79.3491 1446.43 79.3491C1446.97 79.3539 1447.39 79.7883 1447.39 80.3187L1446.95 124.385C1446.94 124.913 1446.51 125.335 1445.99 125.335Z" fill="#E1E3F1"/>
<path d="M1470.37 94.498C1473.91 94.7284 1477.2 92.5348 1478.31 89.1148L1484.84 69.0292C1486.85 62.8516 1480.89 57.0604 1474.77 59.2444L1465.96 62.3932C1462.85 63.5044 1460.77 66.454 1460.77 69.7588V86.3932C1460.77 90.3148 1463.67 93.6292 1467.56 94.1476L1469.34 94.3852L1470.37 94.498H1470.37Z" fill="#E1E3F1"/>
<path d="M1463.9 122.124C1463.85 122.124 1463.8 122.122 1463.76 122.115C1463.23 122.04 1462.87 121.553 1462.94 121.03L1470.15 70.5148C1470.22 69.9892 1470.71 69.6244 1471.23 69.6988C1471.76 69.7732 1472.12 70.2604 1472.05 70.7836L1464.84 121.299C1464.78 121.779 1464.36 122.124 1463.89 122.124H1463.9Z" fill="#E1E3F1"/>
<path d="M1466.39 104.602C1466.06 104.602 1465.73 104.427 1465.56 104.112C1465.3 103.652 1465.46 103.066 1465.92 102.804L1473.64 98.4532C1474.11 98.194 1474.69 98.3572 1474.95 98.818C1475.21 99.2788 1475.05 99.8644 1474.59 100.126L1466.86 104.477C1466.72 104.561 1466.56 104.602 1466.39 104.602Z" fill="#E1E3F1"/>
<path d="M1317.71 98.9067C1238.33 98.9067 1166.92 117.168 1117.31 146.268H1518.11C1468.51 117.166 1397.09 98.9067 1317.71 98.9067V98.9067Z" fill="#F2F4FF"/>
<path d="M1262.31 139.8C1262.31 117.696 1271.54 99.7778 1282.92 99.7778C1294.31 99.7778 1303.54 117.696 1303.54 139.8C1303.54 142.003 1303.44 144.163 1303.27 146.268H1262.58C1262.41 144.163 1262.31 142.003 1262.31 139.8Z" fill="#E1E3F1"/>
<path d="M1189.58 141.392C1189.58 124.726 1196.54 111.216 1205.12 111.216C1213.7 111.216 1220.66 124.726 1220.66 141.392C1220.66 143.052 1220.59 144.679 1220.45 146.268H1189.78C1189.65 144.679 1189.58 143.052 1189.58 141.392H1189.58Z" fill="#E1E3F1"/>
<path d="M1282.78 134.34C1282.78 93.5836 1265.76 60.5452 1244.77 60.5452C1223.78 60.5452 1206.77 93.5836 1206.77 134.34C1206.77 138.401 1206.94 142.385 1207.26 146.268H1282.28C1282.61 142.385 1282.78 138.404 1282.78 134.34H1282.78Z" fill="#F5F6FF"/>
<path d="M1484.51 145.702C1484.51 143.806 1482.97 142.267 1481.08 142.267C1480.91 142.267 1480.74 142.284 1480.58 142.308C1480.58 138.475 1477.51 135.401 1473.71 135.401C1470.38 135.401 1467.6 137.777 1466.98 140.928C1466.77 140.897 1466.56 140.875 1466.35 140.875C1465.59 140.875 1464.88 141.084 1464.27 141.444C1463.45 139.325 1461.4 137.82 1458.99 137.82C1455.86 137.82 1453.33 140.355 1453.33 143.48C1453.33 143.681 1453.34 143.88 1453.36 144.077C1452.88 143.703 1452.28 143.48 1451.63 143.48C1450.08 143.48 1448.82 144.725 1448.8 146.268H1484.46C1484.5 146.083 1484.51 145.896 1484.51 145.704L1484.51 145.702Z" fill="#EDF0FF"/>
<path d="M1386.82 145.145C1386.82 141.351 1389.9 138.276 1393.69 138.276C1394.03 138.276 1394.36 138.31 1394.68 138.356C1394.68 138.329 1394.68 138.303 1394.68 138.276C1394.68 130.69 1400.83 124.539 1408.42 124.539C1415.09 124.539 1420.65 129.291 1421.89 135.593C1422.3 135.531 1422.72 135.488 1423.15 135.488C1424.67 135.488 1426.09 135.905 1427.32 136.623C1428.95 132.384 1433.06 129.375 1437.88 129.375C1444.13 129.375 1449.19 134.441 1449.19 140.693C1449.19 141.096 1449.17 141.497 1449.13 141.891C1450.09 141.144 1451.29 140.693 1452.6 140.693C1455.7 140.693 1458.21 143.182 1458.26 146.268H1386.93C1386.87 145.901 1386.83 145.527 1386.83 145.143L1386.82 145.145Z" fill="#E1E3F1"/>
<path d="M1390.43 146.268H1360.13L1375.28 99.7756L1390.43 146.268Z" fill="#EDF0FF"/>
<path d="M1679.71 85.4065C1682.52 84.5137 1684.61 82.1041 1685.07 79.1544L1688.35 58.0729C1689.04 53.6473 1688.61 49.1185 1687.1 44.8993L1686.11 42.1272C1684.53 37.7016 1680.19 34.8768 1675.5 35.22C1671.98 35.4792 1668.82 37.5024 1667.12 40.5984L1664.37 45.5736C1659.86 53.7624 1659.93 63.7105 1664.56 71.8369L1670.27 81.8832C1671.96 84.8496 1675.37 86.3688 1678.7 85.6584L1679.71 85.4041L1679.71 85.4065Z" fill="#E1E3F1"/>
<path d="M1677.68 117.048C1677.16 117.048 1676.74 116.637 1676.72 116.117L1674.6 44.4478C1674.59 43.9174 1675 43.4758 1675.54 43.459C1676.06 43.4374 1676.51 43.8598 1676.52 44.3902L1678.64 116.059C1678.66 116.589 1678.24 117.031 1677.71 117.048C1677.7 117.048 1677.69 117.048 1677.68 117.048Z" fill="#E1E3F1"/>
<path d="M1677.21 101.28C1677 101.28 1676.78 101.208 1676.6 101.062L1667.81 93.8039C1667.4 93.4655 1667.34 92.8607 1667.68 92.4527C1668.02 92.0447 1668.62 91.9871 1669.03 92.3231L1677.82 99.5807C1678.23 99.9191 1678.29 100.524 1677.95 100.932C1677.76 101.162 1677.49 101.28 1677.21 101.28Z" fill="#E1E3F1"/>
<path d="M1746.94 67.1333C1752.09 67.3133 1756.93 63.8957 1758.24 58.5725L1765.75 27.8477C1767.21 21.8861 1763.62 15.8597 1757.68 14.3093L1751.18 12.6125C1747.11 11.5517 1742.8 12.8477 1739.99 15.9677L1738.23 17.9213C1736.31 20.0549 1735.28 22.8413 1735.35 25.7093L1736.1 56.1749C1736.21 60.7277 1739.06 64.7621 1743.31 66.3917C1744.17 66.7205 1745.04 66.9317 1745.91 67.0445L1746.94 67.1309V67.1333Z" fill="#E1E3F1"/>
<path d="M1739.69 111.968C1739.65 111.968 1739.61 111.965 1739.56 111.96C1739.04 111.893 1738.67 111.411 1738.74 110.885L1749.76 25.6301C1749.83 25.1045 1750.31 24.7349 1750.84 24.8021C1751.36 24.8693 1751.74 25.3517 1751.67 25.8773L1740.64 111.132C1740.58 111.617 1740.16 111.97 1739.69 111.97V111.968Z" fill="#E1E3F1"/>
<path d="M1742.61 89.4029C1742.57 89.4029 1742.54 89.4029 1742.51 89.3981C1742.21 89.3669 1741.95 89.2061 1741.79 88.9565L1732.41 74.1413C1732.13 73.6925 1732.26 73.0997 1732.71 72.8165C1733.16 72.5333 1733.75 72.6653 1734.03 73.1141L1742.77 86.9045L1752.45 77.0021C1752.82 76.6229 1753.43 76.6157 1753.8 76.9877C1754.18 77.3573 1754.19 77.9669 1753.82 78.3461L1743.29 89.1173C1743.11 89.3021 1742.86 89.4053 1742.61 89.4053V89.4029Z" fill="#E1E3F1"/>
<path d="M1713.24 64.0276C1714.61 63.9628 1715.97 63.6844 1717.28 63.178C1721.4 61.5868 1724.42 58.006 1725.3 53.6788L1732.2 19.582C1733.13 14.9932 1731.5 10.2604 1727.95 7.20758L1724.27 4.04199C1719.95 0.333991 1713.72 -0.119615 1708.92 2.92599L1704.08 5.99319C1700.2 8.44839 1697.92 12.7708 1698.07 17.3524L1699.21 51.226C1699.35 55.3804 1701.48 59.2156 1704.93 61.5316L1705.42 61.8556C1707.46 63.226 1709.82 63.9604 1712.21 64.0372L1713.24 64.03V64.0276Z" fill="#F5F6FF"/>
<path d="M1708.52 111.013C1708.5 111.013 1708.47 111.013 1708.45 111.013C1707.92 110.977 1707.52 110.518 1707.56 109.99L1714.32 10.9685C1714.36 10.4405 1714.82 10.0397 1715.34 10.0757C1715.87 10.1117 1716.27 10.5701 1716.24 11.0981L1709.47 110.12C1709.44 110.626 1709.02 111.015 1708.51 111.015L1708.52 111.013Z" fill="#E1E3F1"/>
<path d="M1710.12 87.4996C1709.84 87.4996 1709.57 87.3772 1709.38 87.1444C1709.04 86.7316 1709.1 86.1292 1709.52 85.7932L1720.71 76.7116C1721.12 76.378 1721.72 76.4404 1722.06 76.8508C1722.39 77.2636 1722.33 77.866 1721.92 78.202L1710.73 87.2836C1710.55 87.4276 1710.34 87.4972 1710.12 87.4972L1710.12 87.4996Z" fill="#E1E3F1"/>
<path d="M1534.44 146.268H1564.07L1553.38 101.026L1545.27 135.353L1541.14 117.884L1534.44 146.268Z" fill="#E1E3F1"/>
<path d="M1803.43 98.9067C1724.04 98.9067 1652.63 117.168 1603.02 146.268H1920.36V113.064C1884.95 103.992 1845.3 98.9067 1803.43 98.9067V98.9067Z" fill="#F2F4FF"/>
<path d="M1742.38 141.392C1742.38 124.726 1749.34 111.216 1757.92 111.216C1766.5 111.216 1773.46 124.726 1773.46 141.392C1773.46 143.052 1773.39 144.679 1773.26 146.268H1742.58C1742.45 144.679 1742.38 143.052 1742.38 141.392H1742.38Z" fill="#EDF0FF"/>
<path d="M1834.14 146.268H1788.46L1811.3 76.1641L1834.14 146.268Z" fill="#F5F6FF"/>
<path d="M1766.07 145.491C1766.07 142.875 1768.19 140.756 1770.81 140.756C1771.04 140.756 1771.27 140.777 1771.49 140.811C1771.49 140.792 1771.49 140.775 1771.49 140.756C1771.49 135.524 1775.73 131.283 1780.96 131.283C1785.56 131.283 1789.39 134.559 1790.25 138.905C1790.54 138.862 1790.82 138.833 1791.12 138.833C1792.17 138.833 1793.15 139.121 1793.99 139.616C1795.12 136.692 1797.95 134.619 1801.27 134.619C1805.58 134.619 1809.08 138.113 1809.08 142.424C1809.08 142.702 1809.06 142.978 1809.03 143.249C1809.7 142.733 1810.53 142.424 1811.43 142.424C1813.57 142.424 1815.3 144.14 1815.33 146.268H1766.15C1766.11 146.014 1766.08 145.757 1766.08 145.491H1766.07Z" fill="#E1E3F1"/>
<path d="M1040.5 143.775C1040.5 139.928 1037.38 136.808 1033.53 136.808C1031.94 136.808 1030.47 137.348 1029.3 138.248C1028.19 132.766 1023.34 128.643 1017.53 128.643C1014.43 128.643 1011.61 129.831 1009.48 131.763C1007.24 124.64 1000.59 119.473 992.725 119.473C985.398 119.473 979.122 123.963 976.492 130.34C976.057 130.297 975.616 130.273 975.169 130.273C971.999 130.273 969.09 131.398 966.822 133.27C963.94 129.303 959.267 126.718 953.987 126.718C945.846 126.718 939.143 132.855 938.24 140.753C937.799 140.693 937.35 140.65 936.889 140.65C932.968 140.65 929.591 142.949 928.007 146.269H1040.03C1040.32 145.493 1040.49 144.656 1040.49 143.775H1040.5Z" fill="#F5F6FF"/>
<path d="M913.905 146.269H943.564L928.735 100.76L913.905 146.269Z" fill="#E1E3F1"/>
<path d="M880.221 146.269H899.891L890.056 116.089L880.221 146.269Z" fill="#E1E3F1"/>
<path d="M890.057 146.269H929.395L909.727 85.9087L890.057 146.269Z" fill="#F5F6FF"/>
<path d="M73.2954 113.672C47.4138 113.672 22.7682 116.497 0.359375 121.594V146.269H211.216C177.076 126.241 127.927 113.672 73.2954 113.672V113.672Z" fill="#F2F4FF"/>
<path d="M562.418 98.9067C483.036 98.9067 411.624 117.168 362.016 146.268H762.818C713.212 117.166 641.798 98.9067 562.416 98.9067H562.418Z" fill="#F2F4FF"/>
<path d="M244.999 146.268H376.512L346.169 132.783C341.669 130.784 336.638 130.311 331.845 131.439L314.789 135.452C307.999 137.05 300.854 135.416 295.435 131.028C287.642 124.719 276.619 124.313 268.382 130.033L245.004 146.268H244.999Z" fill="#E1E3F1"/>
<path d="M105.72 146.266H281.241L240.744 128.269C234.739 125.6 228.024 124.969 221.625 126.473L198.859 131.83C189.799 133.961 180.261 131.782 173.028 125.926C162.626 117.505 147.914 116.965 136.922 124.599L105.72 146.269V146.266Z" fill="#F5F6FF"/>
<path d="M1582.04 103.534L1571.94 146.268H1651.68L1643.95 113.571L1638.37 137.191L1627.11 89.4987L1618.48 126.031L1604.57 67.1763L1589.01 133.049L1582.04 103.534Z" fill="#F5F6FF"/>
<path d="M1681.55 140.822C1681.55 122.21 1689.32 107.124 1698.9 107.124C1708.48 107.124 1716.26 122.21 1716.26 140.822C1716.26 142.678 1716.18 144.497 1716.03 146.268H1681.77C1681.62 144.494 1681.55 142.675 1681.55 140.822V140.822Z" fill="#E1E3F1"/>
<path d="M1696.43 144.754C1696.43 142.419 1694.54 140.528 1692.2 140.528C1691.24 140.528 1690.35 140.856 1689.64 141.401C1688.96 138.075 1686.02 135.574 1682.5 135.574C1680.61 135.574 1678.9 136.294 1677.61 137.465C1676.25 133.143 1672.22 130.008 1667.45 130.008C1663 130.008 1659.19 132.732 1657.6 136.604C1657.33 136.577 1657.07 136.563 1656.8 136.563C1654.87 136.563 1653.11 137.247 1651.73 138.382C1649.98 135.975 1647.15 134.408 1643.94 134.408C1639 134.408 1634.94 138.13 1634.39 142.923C1634.12 142.887 1633.85 142.86 1633.57 142.86C1631.19 142.86 1629.14 144.255 1628.18 146.268H1696.15C1696.33 145.798 1696.43 145.289 1696.43 144.756L1696.43 144.754Z" fill="#F5F6FF"/>
<path d="M1707.63 145.145C1707.63 141.351 1710.7 138.276 1714.5 138.276C1714.84 138.276 1715.16 138.31 1715.49 138.355C1715.49 138.329 1715.49 138.303 1715.49 138.276C1715.49 130.69 1721.64 124.539 1729.23 124.539C1735.89 124.539 1741.45 129.291 1742.7 135.593C1743.11 135.531 1743.53 135.487 1743.95 135.487C1745.47 135.487 1746.9 135.905 1748.12 136.623C1749.75 132.384 1753.86 129.375 1758.68 129.375C1764.93 129.375 1770 134.441 1770 140.693C1770 141.096 1769.98 141.497 1769.94 141.891C1770.9 141.144 1772.1 140.693 1773.41 140.693C1776.51 140.693 1779.02 143.182 1779.06 146.268H1707.73C1707.67 145.901 1707.63 145.527 1707.63 145.143L1707.63 145.145Z" fill="#F5F6FF"/>
<path d="M725.797 137.871C725.797 109.174 713.817 85.9087 699.037 85.9087C684.258 85.9087 672.277 109.172 672.277 137.871C672.277 140.732 672.397 143.535 672.628 146.269H725.449C725.677 143.535 725.8 140.729 725.8 137.871H725.797Z" fill="#E1E3F1"/>
<path d="M724.819 145.145C724.819 141.351 721.744 138.277 717.95 138.277C717.612 138.277 717.283 138.31 716.959 138.356C716.959 138.329 716.959 138.303 716.959 138.277C716.959 130.69 710.808 124.539 703.221 124.539C696.554 124.539 690.996 129.291 689.748 135.593C689.337 135.531 688.922 135.488 688.492 135.488C686.971 135.488 685.55 135.905 684.326 136.623C682.692 132.385 678.58 129.375 673.766 129.375C667.514 129.375 662.448 134.441 662.448 140.693C662.448 141.097 662.469 141.497 662.51 141.891C661.55 141.145 660.348 140.693 659.037 140.693C655.939 140.693 653.428 143.182 653.383 146.269H724.713C724.773 145.901 724.814 145.527 724.814 145.143L724.819 145.145Z" fill="#EDF0FF"/>
</svg>
