<svg width="645" height="420" viewBox="0 0 645 420" fill="none" xmlns="http://www.w3.org/2000/svg">
<g clip-path="url(#clip0_393_21)">
<g opacity="0.7">
<path d="M378.757 2.56973L182.739 237.159L175.784 220.719L76.5102 341.491L55.6438 253.599L257.985 2.56973H378.757ZM108.758 2.56973V419.898H0V2.56973H108.758ZM218.149 140.415L386.345 419.898H263.043L136.58 201.117L218.149 140.415Z" fill="white" fill-opacity="0.1"/>
<path d="M644.651 206.808V294.7H413.223V206.808H644.651Z" fill="white" fill-opacity="0.1"/>
<path d="M929.396 -3.75342C971.55 -3.75342 1007.8 4.88823 1038.15 22.1715C1068.93 39.0333 1092.53 63.4828 1108.97 95.5202C1125.41 127.558 1133.63 166.129 1133.63 211.234C1133.63 256.339 1125.41 294.911 1108.97 326.948C1092.53 358.985 1068.93 383.646 1038.15 400.929C1007.8 417.791 971.55 426.222 929.396 426.222C887.242 426.222 850.778 417.791 820.005 400.929C789.233 383.646 765.626 358.985 749.186 326.948C732.746 294.911 724.526 256.339 724.526 211.234C724.526 166.129 732.746 127.558 749.186 95.5202C765.626 63.4828 789.233 39.0333 820.005 22.1715C850.778 4.88823 887.242 -3.75342 929.396 -3.75342ZM929.396 81.6093C909.162 81.6093 892.089 86.457 878.178 96.1525C864.267 105.848 853.729 120.391 846.563 139.782C839.396 158.752 835.813 182.569 835.813 211.234C835.813 239.478 839.396 263.295 846.563 282.686C853.729 302.077 864.267 316.62 878.178 326.316C892.089 336.011 909.162 340.859 929.396 340.859C949.63 340.859 966.492 336.011 979.981 326.316C993.892 316.62 1004.43 302.077 1011.6 282.686C1018.76 263.295 1022.35 239.478 1022.35 211.234C1022.35 182.569 1018.76 158.752 1011.6 139.782C1004.43 120.391 993.892 105.848 979.981 96.1525C966.492 86.457 949.63 81.6093 929.396 81.6093Z" fill="white" fill-opacity="0.1"/>
<path d="M1584.67 2.56973V419.898H1463.9L1334.27 194.161L1302.66 132.195H1302.02L1304.55 209.337V419.898H1208.44V2.56973H1329.21L1458.84 228.307L1490.45 290.274H1491.09L1488.56 213.131V2.56973H1584.67Z" fill="white" fill-opacity="0.1"/>
<path d="M1677.12 419.898V2.56973H2002.13V86.6678H1785.88V171.398H1957.87V250.438H1785.88V335.8H2010.35V419.898H1677.12Z" fill="white" fill-opacity="0.1"/>
</g>
</g>
<defs>
<clipPath id="clip0_393_21">
<rect width="645" height="420" fill="white"/>
</clipPath>
</defs>
</svg>
