<svg width="102" height="108" viewBox="0 0 102 108" fill="none" xmlns="http://www.w3.org/2000/svg">
<path d="M9.36672 9.55127H0.000976562V14.2994H9.36672V9.55127Z" fill="#C5C4C1"/>
<path d="M8.42683 31.9348H0.939453V36.6829H8.42683V31.9348Z" fill="#C5C4C1"/>
<path d="M2.85766 0.694092H0.000976562V107.278H2.85766V0.694092Z" fill="#888783"/>
<path d="M1.4228 0.694092H0.000976562V107.278H1.4228V0.694092Z" fill="#C5C4C1"/>
<path d="M2.84461 103.887H0.000976562V107.278H2.84461V103.887Z" fill="#575654"/>
<path d="M2.34837 34.3092C2.34837 34.8179 1.93096 35.2353 1.42223 35.2353C0.913509 35.2353 0.496094 34.8179 0.496094 34.3092C0.496094 33.8005 0.913509 33.3831 1.42223 33.3831C1.93096 33.3831 2.34837 33.8005 2.34837 34.3092Z" fill="#575654"/>
<path d="M2.34837 11.9252C2.34837 12.4339 1.93096 12.8513 1.42223 12.8513C0.913509 12.8513 0.496094 12.4339 0.496094 11.9252C0.496094 11.4164 0.913509 10.999 1.42223 10.999C1.93096 10.999 2.34837 11.4164 2.34837 11.9252Z" fill="#575654"/>
<path d="M3.90096 9.55127H2.85742V14.2994H3.90096V9.55127Z" fill="#575654"/>
<path d="M3.90096 31.9348H2.85742V36.6829H3.90096V31.9348Z" fill="#575654"/>
<path d="M97.2106 3.34204H13.0339C10.5026 3.34204 8.42773 4.63342 8.42773 6.23786V40.8702C8.42773 41.6398 8.90495 42.3703 9.77639 42.9182C10.6478 43.466 11.789 43.7661 13.0339 43.7661H97.2106C98.4348 43.7661 99.5967 43.466 100.468 42.9182C101.34 42.3703 101.817 41.6398 101.817 40.8702V6.23786C101.817 4.64646 99.742 3.34204 97.2106 3.34204Z" fill="#FDD11D"/>
<path d="M97.8543 41.2616C97.7298 41.3399 97.5223 41.4312 97.2318 41.4312H13.0343C12.7024 41.4312 12.4949 41.3268 12.4119 41.2616C12.3081 41.1964 12.1422 41.0659 12.1629 40.8703V6.2379C12.1629 6.04224 12.3081 5.9118 12.4119 5.84658C12.5364 5.76831 12.7439 5.677 13.0343 5.677H97.2111C97.709 5.677 98.1033 5.92484 98.1033 6.2379V40.8703C98.1033 41.0659 97.958 41.1964 97.8335 41.2616H97.8543Z" fill="white"/>
<path d="M95.0322 7.62085H15.2334V39.4879H95.0322V7.62085Z" fill="#FDD11D"/>
<path d="M38.9954 28.5544H41.7254L38.4214 23.0664L41.5574 19.3144H38.8834L35.5794 23.4164V19.3144H33.1714V28.5544H35.5794V25.9504L36.6994 24.5784L38.9954 28.5544ZM47.4445 23.8364H42.3205V25.7824H47.4445V23.8364ZM53.749 19.1744C50.935 19.1744 49.213 20.9524 49.213 23.9344C49.213 26.9164 50.935 28.6944 53.749 28.6944C56.563 28.6944 58.271 26.9164 58.271 23.9344C58.271 20.9524 56.563 19.1744 53.749 19.1744ZM53.749 21.0644C55.079 21.0644 55.807 22.0444 55.807 23.9344C55.807 25.8244 55.079 26.8044 53.749 26.8044C52.405 26.8044 51.677 25.8244 51.677 23.9344C51.677 22.0444 52.405 21.0644 53.749 21.0644ZM68.2573 19.3144H66.1293V23.9764L66.1853 25.7124H66.1713L65.4713 24.3124L62.6013 19.3144H59.9273V28.5544H62.0553V23.8924L61.9993 22.1564H62.0133L62.7133 23.5564L65.5833 28.5544H68.2573V19.3144ZM72.7122 26.6924V24.8024H76.5202V23.0524H72.7122V21.1764H77.5002V19.3144H70.3042V28.5544H77.6822V26.6924H72.7122Z" fill="white"/>
</svg>
