<svg width="42" height="90" viewBox="0 0 42 90" fill="none" xmlns="http://www.w3.org/2000/svg">
<path d="M0.750977 85.4549C0.750977 85.4549 24.6043 88.3333 41.9633 85.4549L23.1811 80.1176C23.1811 80.1176 2.95589 82.8944 0.750977 85.4549Z" fill="#FFC702"/>
<path d="M22.066 0.779297H20.6475V75.5846H22.066V0.779297Z" fill="#3B3635"/>
<path d="M25.2669 85.6499C25.588 83.4917 24.0986 81.4819 21.9404 81.1609C19.7822 80.8399 17.7724 82.3293 17.4514 84.4875C17.1303 86.6457 18.6197 88.6555 20.7779 88.9765C22.9361 89.2975 24.9459 87.8082 25.2669 85.6499Z" fill="white"/>
<path d="M41.9633 85.4547C35.6731 84.7812 28.6614 84.3419 21.0364 84.3551C13.6635 84.3673 6.86811 84.8 0.750977 85.4547C1.16487 84.4181 1.65307 83.421 2.21183 82.4691C6.06196 75.9004 13.1941 71.4897 21.3571 71.4897C21.5537 71.4897 21.7485 71.4915 21.9441 71.4981C31.0375 71.7333 38.7688 77.4441 41.9642 85.4547H41.9633Z" fill="#FFC702"/>
<path d="M41.9633 85.4549C35.6731 84.7814 28.6614 84.3421 21.0364 84.3553C13.6635 84.3675 6.86811 84.8002 0.750977 85.4549C1.16487 84.4183 1.65307 83.4212 2.21183 82.4692C40.43 82.3959 34.9845 80.2371 34.375 79.7385C31.2238 77.1658 26.972 72.8726 21.9451 71.4974C31.0384 71.7325 38.7698 77.4433 41.9652 85.454L41.9633 85.4549Z" fill="#F2B20E"/>
<path d="M14.5146 0.779297C14.5598 4.52125 17.6066 7.54078 21.3589 7.54078C25.1112 7.54078 28.1571 4.52125 28.2022 0.779297H14.5146Z" fill="#3B3635"/>
</svg>
