<svg width="147" height="27" viewBox="0 0 147 27" fill="none" xmlns="http://www.w3.org/2000/svg">
<path d="M71.756 2.49512H63.0953L53.9731 8.62734L54.9943 2.57858H46.1813L42.8477 22.35H51.6606L53.2562 12.9037L59.9187 22.35H68.8151L60.2526 10.2574L71.756 2.49512Z" fill="#231815"/>
<path d="M8.75848 26.9294H8.3608L1.14844 1.85059H1.55103L8.75848 26.9294Z" fill="#0C3388"/>
<path d="M10.2323 26.9294H9.82973L1.87109 1.85059H2.27369L10.2323 26.9294Z" fill="#0C3388"/>
<path d="M0.815005 2.1215C0.710786 2.12477 0.606955 2.10739 0.509482 2.07036C0.41201 2.03332 0.322822 1.97737 0.247066 1.90572C0.17131 1.83407 0.11048 1.74815 0.0680763 1.65289C0.0256726 1.55763 0.00253932 1.45491 0 1.35067C0.00122667 1.22942 0.0317843 1.11027 0.0890678 1.0034C0.146351 0.896528 0.228657 0.805112 0.328949 0.736961L0.378042 0.702597C0.690473 0.507504 1.03432 0.367974 1.39435 0.290184C1.66486 0.229182 1.94202 0.202783 2.21918 0.211626H2.26337C2.36784 0.208352 2.47191 0.2257 2.56967 0.262674C2.66742 0.299649 2.75694 0.355528 2.83308 0.427115C2.90923 0.498703 2.97052 0.584594 3.01345 0.679882C3.05638 0.775171 3.08012 0.877981 3.08329 0.982446C3.07971 1.10567 3.04718 1.22633 2.98832 1.33465C2.92947 1.44297 2.84596 1.53592 2.74452 1.60598H2.71015C2.12099 1.96626 1.43567 2.13759 0.74627 2.09695L0.815005 2.1215ZM0.99667 1.64526C1.20994 1.64554 1.4225 1.62082 1.63002 1.57162C1.85789 1.51944 2.07874 1.44033 2.28792 1.33595C2.35136 1.30559 2.40644 1.26021 2.44836 1.20374C2.49029 1.14727 2.5178 1.08143 2.5285 1.01191C2.5285 0.800794 2.32229 0.638768 2.03752 0.653497H2.00807C1.82801 0.660676 1.64894 0.683677 1.47291 0.722233C1.23921 0.772886 1.01309 0.853761 0.800277 0.962811H0.765913C0.703748 0.992977 0.64983 1.03778 0.608784 1.09336C0.567737 1.14894 0.540782 1.21365 0.530242 1.28194C0.530242 1.49306 0.741359 1.65508 1.02121 1.64035" fill="#0C3388"/>
<path d="M2.52831 2.8723L2.35156 2.5139C2.6396 2.51549 2.92719 2.49083 3.21076 2.44025C4.4829 2.25533 5.76502 2.14713 7.05016 2.11621C7.05016 2.11621 10.32 2.15548 10.8208 2.22422C12.1968 2.41709 13.5619 2.68093 14.9106 3.01468C14.9106 3.01468 15.5194 3.19634 18.534 3.33872C19.7662 3.41632 21.0028 3.39169 22.231 3.26508C22.231 3.26508 26.8265 2.69065 27.2929 2.62191C27.2929 2.62191 30.2731 2.5139 31.525 2.62191C31.7845 3.97444 32.1455 5.30547 32.6052 6.60368C33.0859 7.6842 33.687 8.70698 34.3972 9.65261C34.3972 9.65261 36.0174 12.6573 36.3611 13.7817C36.7359 15.0908 37.0359 16.4202 37.2596 17.7634C37.7209 19.3729 38.4086 20.9086 39.302 22.3246C39.302 22.3246 35.1386 21.6421 33.5233 21.6765C31.8801 21.6841 30.2431 21.8768 28.643 22.2509C26.9173 22.8431 25.0938 23.0982 23.2718 23.0021C21.7431 22.9199 20.2212 22.7395 18.7156 22.462C16.875 22.344 15.0292 22.3325 13.1873 22.4277C13.1873 22.4277 9.92233 22.7861 8.98949 23.3212L8.73909 23.0021L8.63107 22.7468L9.00912 22.7861C8.87165 11.5674 3.0782 3.14724 3.0782 3.14724C3.01381 3.05492 2.93152 2.97648 2.83621 2.91659C2.7409 2.85671 2.63453 2.81661 2.52341 2.79866L2.52831 2.8723ZM30.4253 17.9107L22.8201 12.0191L28.7511 7.66417H23.7284L18.8187 11.2924L17.9595 7.80656H13.1235L15.6912 18.0924H20.4733L19.4914 14.0861L24.3078 17.9009L30.4253 17.9107Z" fill="#0C3388"/>
<path d="M94.3148 2.31543C88.0279 2.31543 83.3984 6.60196 83.3984 12.4888C83.3984 18.4042 88.0279 22.7765 94.3148 22.7765C100.602 22.7765 105.231 18.3756 105.231 12.4888C105.231 6.63054 100.602 2.31543 94.3148 2.31543ZM94.4005 7.28781C97.0296 7.28781 99.1443 9.48822 99.1443 12.5174C99.1443 15.5465 97.0296 17.8041 94.4005 17.8041C91.7715 17.8041 89.4853 15.5465 89.4853 12.5174C89.4853 9.48822 91.7429 7.28781 94.4005 7.28781Z" fill="#231815"/>
<path d="M126.457 22.5193V2.48689H121.027V13.689L112.54 2.48689H107.453V22.5193H112.911V11.3743L121.399 22.5193H126.457Z" fill="#231815"/>
<path d="M146.209 7.05919V2.48689H129.835V22.5193H146.495V17.947H135.779V14.7749H145.238V10.2026H135.779V7.05919H146.209Z" fill="#231815"/>
<path fill-rule="evenodd" clip-rule="evenodd" d="M79.7349 15.7483H71.7656V11.4014H79.7349V15.7483Z" fill="#231815"/>
</svg>
