<svg width="394" height="345" viewBox="0 0 394 345" fill="none" xmlns="http://www.w3.org/2000/svg">
<g opacity="0.5">
<path d="M393.203 156.267H331.32V345H393.203V156.267Z" fill="white"/>
<path d="M346.67 163.628H338.805V171.493H346.67V163.628Z" fill="#E1E6F2"/>
<path d="M356.435 163.628H348.57V171.493H356.435V163.628Z" fill="#E1E6F2"/>
<path d="M366.197 163.628H358.332V171.493H366.197V163.628Z" fill="#E1E6F2"/>
<path d="M375.959 163.628H368.094V171.493H375.959V163.628Z" fill="#E1E6F2"/>
<path d="M385.72 163.628H377.855V171.493H385.72V163.628Z" fill="#E1E6F2"/>
<path d="M346.67 175.655H338.805V183.519H346.67V175.655Z" fill="#E1E6F2"/>
<path d="M356.435 175.655H348.57V183.519H356.435V175.655Z" fill="#E1E6F2"/>
<path d="M366.197 175.655H358.332V183.519H366.197V175.655Z" fill="#E1E6F2"/>
<path d="M375.959 175.655H368.094V183.519H375.959V175.655Z" fill="#E1E6F2"/>
<path d="M385.72 175.655H377.855V183.519H385.72V175.655Z" fill="#E1E6F2"/>
<path d="M346.67 187.666H338.805V195.531H346.67V187.666Z" fill="#E1E6F2"/>
<path d="M356.435 187.666H348.57V195.531H356.435V187.666Z" fill="#E1E6F2"/>
<path d="M366.197 187.666H358.332V195.531H366.197V187.666Z" fill="#E1E6F2"/>
<path d="M375.959 187.666H368.094V195.531H375.959V187.666Z" fill="#E1E6F2"/>
<path d="M385.72 187.666H377.855V195.531H385.72V187.666Z" fill="#E1E6F2"/>
<path d="M346.67 199.693H338.805V207.558H346.67V199.693Z" fill="#E1E6F2"/>
<path d="M356.435 199.693H348.57V207.558H356.435V199.693Z" fill="#E1E6F2"/>
<path d="M366.197 199.693H358.332V207.558H366.197V199.693Z" fill="#E1E6F2"/>
<path d="M375.959 199.693H368.094V207.558H375.959V199.693Z" fill="#E1E6F2"/>
<path d="M385.72 199.693H377.855V207.558H385.72V199.693Z" fill="#E1E6F2"/>
<path d="M346.67 211.708H338.805V219.573H346.67V211.708Z" fill="#E1E6F2"/>
<path d="M356.435 211.708H348.57V219.573H356.435V211.708Z" fill="#E1E6F2"/>
<path d="M366.197 211.708H358.332V219.573H366.197V211.708Z" fill="#E1E6F2"/>
<path d="M375.959 211.708H368.094V219.573H375.959V211.708Z" fill="#E1E6F2"/>
<path d="M385.72 211.708H377.855V219.573H385.72V211.708Z" fill="#E1E6F2"/>
<path d="M346.67 223.734H338.805V231.599H346.67V223.734Z" fill="#E1E6F2"/>
<path d="M356.435 223.734H348.57V231.599H356.435V223.734Z" fill="#E1E6F2"/>
<path d="M366.197 223.734H358.332V231.599H366.197V223.734Z" fill="#E1E6F2"/>
<path d="M375.959 223.734H368.094V231.599H375.959V223.734Z" fill="#E1E6F2"/>
<path d="M385.72 223.734H377.855V231.599H385.72V223.734Z" fill="#E1E6F2"/>
<path d="M346.67 235.753H338.805V243.618H346.67V235.753Z" fill="#E1E6F2"/>
<path d="M356.435 235.753H348.57V243.618H356.435V235.753Z" fill="#E1E6F2"/>
<path d="M366.197 235.753H358.332V243.618H366.197V235.753Z" fill="#E1E6F2"/>
<path d="M375.959 235.753H368.094V243.618H375.959V235.753Z" fill="#E1E6F2"/>
<path d="M385.72 235.753H377.855V243.618H385.72V235.753Z" fill="#E1E6F2"/>
<path d="M346.67 247.768H338.805V255.633H346.67V247.768Z" fill="#E1E6F2"/>
<path d="M356.435 247.768H348.57V255.633H356.435V247.768Z" fill="#E1E6F2"/>
<path d="M366.197 247.768H358.332V255.633H366.197V247.768Z" fill="#E1E6F2"/>
<path d="M375.959 247.768H368.094V255.633H375.959V247.768Z" fill="#E1E6F2"/>
<path d="M385.72 247.768H377.855V255.633H385.72V247.768Z" fill="#E1E6F2"/>
</g>
<path opacity="0.5" d="M198.005 80.3953V53.4004H117.603V80.3953H94.1016V343.921H221.507V80.3953H198.005Z" fill="white"/>
<g opacity="0.5">
<path d="M125.699 91.3193H109.508V107.511H125.699V91.3193Z" fill="#E1E6F2"/>
<path d="M145.801 91.3193H129.609V107.511H145.801V91.3193Z" fill="#E1E6F2"/>
<path d="M165.898 91.3191H149.707V107.51H165.898V91.3191Z" fill="#E1E6F2"/>
<path d="M186 91.3193H169.809V107.511H186V91.3193Z" fill="#E1E6F2"/>
<path d="M206.101 91.3191H189.91V107.51H206.101V91.3191Z" fill="#E1E6F2"/>
<path d="M125.699 116.066H109.508V132.257H125.699V116.066Z" fill="#E1E6F2"/>
<path d="M145.801 116.066H129.609V132.257H145.801V116.066Z" fill="#E1E6F2"/>
<path d="M165.898 116.066H149.707V132.257H165.898V116.066Z" fill="#E1E6F2"/>
<path d="M186 116.066H169.809V132.257H186V116.066Z" fill="#E1E6F2"/>
<path d="M206.101 116.066H189.91V132.257H206.101V116.066Z" fill="#E1E6F2"/>
<path d="M125.699 140.816H109.508V157.007H125.699V140.816Z" fill="#E1E6F2"/>
<path d="M145.801 140.816H129.609V157.007H145.801V140.816Z" fill="#E1E6F2"/>
<path d="M165.898 140.816H149.707V157.007H165.898V140.816Z" fill="#E1E6F2"/>
<path d="M186 140.816H169.809V157.007H186V140.816Z" fill="#E1E6F2"/>
<path d="M206.101 140.816H189.91V157.007H206.101V140.816Z" fill="#E1E6F2"/>
<path d="M125.699 165.563H109.508V181.754H125.699V165.563Z" fill="#E1E6F2"/>
<path d="M145.801 165.563H129.609V181.754H145.801V165.563Z" fill="#E1E6F2"/>
<path d="M165.898 165.563H149.707V181.754H165.898V165.563Z" fill="#E1E6F2"/>
<path d="M186 165.563H169.809V181.754H186V165.563Z" fill="#E1E6F2"/>
<path d="M206.101 165.563H189.91V181.754H206.101V165.563Z" fill="#E1E6F2"/>
<path d="M125.699 190.317H109.508V206.508H125.699V190.317Z" fill="#E1E6F2"/>
<path d="M145.801 190.317H129.609V206.508H145.801V190.317Z" fill="#E1E6F2"/>
<path d="M165.898 190.317H149.707V206.508H165.898V190.317Z" fill="#E1E6F2"/>
<path d="M186 190.317H169.809V206.508H186V190.317Z" fill="#E1E6F2"/>
<path d="M206.101 190.317H189.91V206.508H206.101V190.317Z" fill="#E1E6F2"/>
<path d="M125.699 215.06H109.508V231.251H125.699V215.06Z" fill="#E1E6F2"/>
<path d="M145.801 215.06H129.609V231.251H145.801V215.06Z" fill="#E1E6F2"/>
<path d="M165.898 215.06H149.707V231.251H165.898V215.06Z" fill="#E1E6F2"/>
<path d="M186 215.06H169.809V231.251H186V215.06Z" fill="#E1E6F2"/>
<path d="M206.101 215.06H189.91V231.251H206.101V215.06Z" fill="#E1E6F2"/>
<path d="M125.699 239.806H109.508V255.997H125.699V239.806Z" fill="#E1E6F2"/>
<path d="M145.801 239.806H129.609V255.997H145.801V239.806Z" fill="#E1E6F2"/>
<path d="M165.898 239.806H149.707V255.997H165.898V239.806Z" fill="#E1E6F2"/>
<path d="M186 239.806H169.809V255.997H186V239.806Z" fill="#E1E6F2"/>
<path d="M206.101 239.806H189.91V255.997H206.101V239.806Z" fill="#E1E6F2"/>
<path d="M125.699 264.553H109.508V280.744H125.699V264.553Z" fill="#E1E6F2"/>
<path d="M145.801 264.553H129.609V280.744H145.801V264.553Z" fill="#E1E6F2"/>
<path d="M165.898 264.553H149.707V280.744H165.898V264.553Z" fill="#E1E6F2"/>
<path d="M186 264.553H169.809V280.744H186V264.553Z" fill="#E1E6F2"/>
<path d="M206.101 264.553H189.91V280.744H206.101V264.553Z" fill="#E1E6F2"/>
</g>
<path opacity="0.5" d="M161.85 0.410889H153.754V53.4009H161.85V0.410889Z" fill="white"/>
<path opacity="0.5" d="M63.7284 158.266H0.015625V345.001H63.7284V158.266Z" fill="white"/>
<g opacity="0.5">
<path d="M15.8124 165.549H7.7168V173.329H15.8124V165.549Z" fill="#E1E6F2"/>
<path d="M25.8632 165.549H17.7676V173.329H25.8632V165.549Z" fill="#E1E6F2"/>
<path d="M35.9179 165.549H27.8223V173.329H35.9179V165.549Z" fill="#E1E6F2"/>
<path d="M45.9687 165.549H37.873V173.329H45.9687V165.549Z" fill="#E1E6F2"/>
<path d="M56.0195 165.549H47.9238V173.329H56.0195V165.549Z" fill="#E1E6F2"/>
<path d="M15.8124 177.441H7.7168V185.221H15.8124V177.441Z" fill="#E1E6F2"/>
<path d="M25.8632 177.441H17.7676V185.221H25.8632V177.441Z" fill="#E1E6F2"/>
<path d="M35.9179 177.441H27.8223V185.221H35.9179V177.441Z" fill="#E1E6F2"/>
<path d="M45.9687 177.441H37.873V185.221H45.9687V177.441Z" fill="#E1E6F2"/>
<path d="M56.0195 177.441H47.9238V185.221H56.0195V177.441Z" fill="#E1E6F2"/>
<path d="M15.8124 189.341H7.7168V197.121H15.8124V189.341Z" fill="#E1E6F2"/>
<path d="M25.8632 189.341H17.7676V197.121H25.8632V189.341Z" fill="#E1E6F2"/>
<path d="M35.9179 189.341H27.8223V197.121H35.9179V189.341Z" fill="#E1E6F2"/>
<path d="M45.9687 189.341H37.873V197.121H45.9687V189.341Z" fill="#E1E6F2"/>
<path d="M56.0195 189.341H47.9238V197.121H56.0195V189.341Z" fill="#E1E6F2"/>
<path d="M15.8124 201.233H7.7168V209.013H15.8124V201.233Z" fill="#E1E6F2"/>
<path d="M25.8632 201.233H17.7676V209.013H25.8632V201.233Z" fill="#E1E6F2"/>
<path d="M35.9179 201.233H27.8223V209.013H35.9179V201.233Z" fill="#E1E6F2"/>
<path d="M45.9687 201.233H37.873V209.013H45.9687V201.233Z" fill="#E1E6F2"/>
<path d="M56.0195 201.233H47.9238V209.013H56.0195V201.233Z" fill="#E1E6F2"/>
<path d="M15.8124 213.125H7.7168V220.905H15.8124V213.125Z" fill="#E1E6F2"/>
<path d="M25.8632 213.125H17.7676V220.905H25.8632V213.125Z" fill="#E1E6F2"/>
<path d="M35.9179 213.125H27.8223V220.905H35.9179V213.125Z" fill="#E1E6F2"/>
<path d="M45.9687 213.125H37.873V220.905H45.9687V213.125Z" fill="#E1E6F2"/>
<path d="M56.0195 213.125H47.9238V220.905H56.0195V213.125Z" fill="#E1E6F2"/>
<path d="M15.8124 225.011H7.7168V232.791H15.8124V225.011Z" fill="#E1E6F2"/>
<path d="M25.8632 225.011H17.7676V232.791H25.8632V225.011Z" fill="#E1E6F2"/>
<path d="M35.9179 225.011H27.8223V232.791H35.9179V225.011Z" fill="#E1E6F2"/>
<path d="M45.9687 225.011H37.873V232.791H45.9687V225.011Z" fill="#E1E6F2"/>
<path d="M56.0195 225.011H47.9238V232.791H56.0195V225.011Z" fill="#E1E6F2"/>
<path d="M15.8124 236.906H7.7168V244.686H15.8124V236.906Z" fill="#E1E6F2"/>
<path d="M25.8632 236.906H17.7676V244.686H25.8632V236.906Z" fill="#E1E6F2"/>
<path d="M35.9179 236.906H27.8223V244.686H35.9179V236.906Z" fill="#E1E6F2"/>
<path d="M45.9687 236.906H37.873V244.686H45.9687V236.906Z" fill="#E1E6F2"/>
<path d="M56.0195 236.906H47.9238V244.686H56.0195V236.906Z" fill="#E1E6F2"/>
<path d="M15.8124 248.799H7.7168V256.579H15.8124V248.799Z" fill="#E1E6F2"/>
<path d="M25.8632 248.799H17.7676V256.579H25.8632V248.799Z" fill="#E1E6F2"/>
<path d="M35.9179 248.799H27.8223V256.579H35.9179V248.799Z" fill="#E1E6F2"/>
<path d="M45.9687 248.799H37.873V256.579H45.9687V248.799Z" fill="#E1E6F2"/>
<path d="M56.0195 248.799H47.9238V256.579H56.0195V248.799Z" fill="#E1E6F2"/>
</g>
<g opacity="0.5">
<path d="M15.8124 259.672H7.7168V267.452H15.8124V259.672Z" fill="#E1E6F2"/>
<path d="M25.8632 259.672H17.7676V267.452H25.8632V259.672Z" fill="#E1E6F2"/>
<path d="M35.9179 259.672H27.8223V267.452H35.9179V259.672Z" fill="#E1E6F2"/>
<path d="M45.9687 259.672H37.873V267.452H45.9687V259.672Z" fill="#E1E6F2"/>
<path d="M56.0195 259.672H47.9238V267.452H56.0195V259.672Z" fill="#E1E6F2"/>
<path d="M15.8124 271.568H7.7168V279.348H15.8124V271.568Z" fill="#E1E6F2"/>
<path d="M25.8632 271.568H17.7676V279.348H25.8632V271.568Z" fill="#E1E6F2"/>
<path d="M35.9179 271.568H27.8223V279.348H35.9179V271.568Z" fill="#E1E6F2"/>
<path d="M45.9687 271.568H37.873V279.348H45.9687V271.568Z" fill="#E1E6F2"/>
<path d="M56.0195 271.568H47.9238V279.348H56.0195V271.568Z" fill="#E1E6F2"/>
<path d="M15.8124 283.46H7.7168V291.24H15.8124V283.46Z" fill="#E1E6F2"/>
<path d="M25.8632 283.46H17.7676V291.24H25.8632V283.46Z" fill="#E1E6F2"/>
<path d="M35.9179 283.46H27.8223V291.24H35.9179V283.46Z" fill="#E1E6F2"/>
<path d="M45.9687 283.46H37.873V291.24H45.9687V283.46Z" fill="#E1E6F2"/>
<path d="M56.0195 283.46H47.9238V291.24H56.0195V283.46Z" fill="#E1E6F2"/>
<path d="M15.8124 295.353H7.7168V303.132H15.8124V295.353Z" fill="#E1E6F2"/>
<path d="M25.8632 295.353H17.7676V303.132H25.8632V295.353Z" fill="#E1E6F2"/>
<path d="M35.9179 295.353H27.8223V303.132H35.9179V295.353Z" fill="#E1E6F2"/>
<path d="M45.9687 295.353H37.873V303.132H45.9687V295.353Z" fill="#E1E6F2"/>
<path d="M56.0195 295.353H47.9238V303.132H56.0195V295.353Z" fill="#E1E6F2"/>
<path d="M15.8124 307.245H7.7168V315.025H15.8124V307.245Z" fill="#E1E6F2"/>
<path d="M25.8632 307.245H17.7676V315.025H25.8632V307.245Z" fill="#E1E6F2"/>
<path d="M35.9179 307.245H27.8223V315.025H35.9179V307.245Z" fill="#E1E6F2"/>
<path d="M45.9687 307.245H37.873V315.025H45.9687V307.245Z" fill="#E1E6F2"/>
<path d="M56.0195 307.245H47.9238V315.025H56.0195V307.245Z" fill="#E1E6F2"/>
</g>
</svg>
