<svg width="99" height="90" viewBox="0 0 99 90" fill="none" xmlns="http://www.w3.org/2000/svg">
<path d="M87.279 0.59375H12.2995C6.04118 0.59375 0.967773 4.95033 0.967773 10.3244V79.86C0.967773 85.2341 6.04118 89.5907 12.2995 89.5907H87.279C93.5374 89.5907 98.6108 85.2341 98.6108 79.86V10.3244C98.6108 4.95033 93.5374 0.59375 87.279 0.59375Z" fill="white"/>
<path d="M98.6108 41.4643H0.967773V9.5311C0.967773 4.59545 6.04157 0.59375 12.2995 0.59375H87.279C93.537 0.59375 98.6108 4.59545 98.6108 9.5311V41.4643Z" fill="#FFC702"/>
<path d="M6.99759 51.8718C8.18959 51.6958 9.16559 51.1038 9.60559 50.3038C10.0456 51.1038 11.0296 51.6958 12.2216 51.8718L12.5176 51.2238C11.1416 51.0398 10.1256 50.2478 10.0776 49.4078H12.2616V48.7438H6.94159V49.4078H9.14159C9.09359 50.2478 8.07759 51.0398 6.70159 51.2238L6.99759 51.8718ZM12.8776 52.3998H6.34159V53.0638H9.17359V55.5678H9.99759V53.0638H12.8696L12.8776 52.3998ZM18.589 50.6078H15.333V49.3118H18.589V50.6078ZM19.397 48.6558H14.525V51.2638H19.397V48.6558ZM15.317 53.3358H14.493V55.4238H19.517V54.7518H15.317V53.3358ZM13.693 51.9758V52.6398H16.621V53.9918H17.445V52.6398H20.245V51.9758H13.693Z" fill="#0D0D0D"/>
<path opacity="0.5" d="M10.6676 63.5525H10.1756V67.5005H10.6676V63.5525ZM9.49159 66.2345C8.69359 65.9405 8.14759 65.2085 8.14759 64.3985V63.8525H7.65559V64.3985C7.65559 65.2385 7.11559 66.0185 6.30559 66.3305L6.56359 66.7325C7.19359 66.4685 7.67959 65.9465 7.90759 65.2925C8.14759 65.9045 8.62159 66.3905 9.23359 66.6245L9.49159 66.2345ZM7.69759 68.4125V67.1345H7.20559V68.8145H10.8296V68.4125H7.69759ZM16.6371 66.2465H15.8091C15.9711 65.3945 15.9711 64.7825 15.9711 64.2965V63.8945H12.3891V64.3025H15.4851C15.4851 64.7825 15.4851 65.3945 15.3171 66.2465H11.7771V66.6485H13.0251V68.9285H13.5171V66.6485H14.8671V68.9285H15.3531V66.6485H16.6371V66.2465ZM19.1125 66.1685C19.9465 66.0245 20.7385 65.5745 21.0685 64.9385C21.3925 65.5745 22.1905 66.0245 23.0245 66.1685L23.2165 65.7785C22.2685 65.6405 21.3385 65.0225 21.3385 64.3145V64.2845H23.0245V63.8885H19.0945V64.2845H20.7925V64.3145C20.7925 65.0225 19.8625 65.6405 18.9265 65.7785L19.1125 66.1685ZM23.4985 66.6185H18.6385V67.0205H20.8105V68.9345H21.3025V67.0205H23.5045L23.4985 66.6185ZM27.908 65.2985H25.256V64.2005H27.908V65.2985ZM28.394 63.8045H24.776V65.6945H28.394V63.8045ZM25.256 67.2785H24.764V68.8145H28.484V68.4125H25.256V67.2785ZM24.14 66.3065V66.7025H26.378V67.7885H26.87V66.7025H29.03V66.3065H24.14ZM32.1015 64.0145C32.9835 64.0145 33.4875 64.2185 33.4875 64.5785C33.4875 64.9385 32.9835 65.1425 32.1015 65.1425C31.2195 65.1425 30.7155 64.9385 30.7155 64.5785C30.7155 64.2185 31.2195 64.0145 32.1015 64.0145ZM32.1015 65.5085C33.2835 65.5085 33.9915 65.1845 33.9915 64.5785C33.9915 63.9725 33.2835 63.6425 32.1015 63.6425C30.9195 63.6425 30.2115 63.9725 30.2115 64.5785C30.2115 65.1845 30.9195 65.5085 32.1015 65.5085ZM30.7515 67.9445H33.9135V66.7325H30.2535V67.1045H33.4275V67.5845H30.2715V68.8745H34.0755V68.4905H30.7515V67.9445ZM29.6655 65.8745V66.2705H34.5375V65.8745H29.6655ZM38.3448 64.5125H39.5388V64.1045H36.6288V64.5125H37.8588V65.1965C37.8588 66.1085 37.2108 67.1285 36.4428 67.5125L36.7308 67.9025C37.3368 67.5905 37.8588 66.9065 38.1048 66.1205C38.3508 66.8405 38.8548 67.4705 39.4548 67.7705L39.7368 67.3745C38.9568 67.0085 38.3448 66.0545 38.3448 65.1965V64.5125ZM41.5608 65.7245H40.6728V63.5585H40.1808V68.9345H40.6728V66.1385H41.5608V65.7245ZM44.4884 68.5505C43.6364 68.5505 43.1384 68.3405 43.1384 67.9625C43.1384 67.5845 43.6364 67.3745 44.4884 67.3745C45.3284 67.3745 45.8264 67.5845 45.8264 67.9625C45.8264 68.3405 45.3284 68.5505 44.4884 68.5505ZM44.4884 66.9905C43.3364 66.9905 42.6404 67.3385 42.6404 67.9625C42.6404 68.5865 43.3364 68.9345 44.4884 68.9345C45.6284 68.9345 46.3244 68.5865 46.3244 67.9625C46.3244 67.3385 45.6284 66.9905 44.4884 66.9905ZM44.7344 66.2105V65.5865H46.3544V65.1905H43.1564V64.1945H46.3184V63.7985H42.6644V65.5865H44.2424V66.2105H42.0524V66.6065H46.9244V66.2105H44.7344ZM50.0019 63.8885C48.8859 63.8885 48.0459 64.4825 48.0459 65.3765C48.0459 66.2765 48.8859 66.8645 50.0019 66.8645C51.1179 66.8645 51.9579 66.2765 51.9579 65.3765C51.9579 64.4825 51.1179 63.8885 50.0019 63.8885ZM50.0019 64.2905C50.8539 64.2905 51.4899 64.7285 51.4899 65.3765C51.4899 66.0305 50.8539 66.4625 50.0019 66.4625C49.1559 66.4625 48.5139 66.0305 48.5139 65.3765C48.5139 64.7285 49.1559 64.2905 50.0019 64.2905ZM47.5659 67.8125V68.2205H52.4559V67.8125H47.5659ZM55.7734 67.8665V66.8525H57.4954V66.4565H54.1834V65.5865H57.3694V63.9485H53.6854V64.3505H56.8894V65.1905H53.6974V66.8525H55.2754V67.8665H53.0854V68.2685H57.9754V67.8665H55.7734ZM10.8836 74.6045C9.90559 74.4605 8.94559 73.7945 8.94559 73.0445V72.7445H8.42959V73.0445C8.42959 73.8125 7.48159 74.4605 6.50359 74.6045L6.70159 75.0005C7.54159 74.8565 8.35159 74.3945 8.68759 73.7405C9.03559 74.3885 9.84559 74.8565 10.6796 75.0005L10.8836 74.6045ZM11.1176 75.5825H6.25759V75.9905H8.42959V77.9405H8.92159V75.9905H11.1236L11.1176 75.5825ZM15.0651 75.0065C14.2731 74.7605 13.7091 74.1305 13.7091 73.4225V73.3025H14.9271V72.9005H11.9751V73.3025H13.2051V73.4225C13.2051 74.1605 12.6531 74.8325 11.8371 75.0905L12.0891 75.4805C12.7311 75.2585 13.2291 74.7905 13.4631 74.1965C13.7091 74.7545 14.2071 75.1865 14.8251 75.3845L15.0651 75.0065ZM15.7011 77.4605H13.2051V76.7645H15.7011V77.4605ZM15.7011 76.3805H13.2051V75.7265H12.7191V77.8625H16.1871V75.7265H15.7011V76.3805ZM15.6951 72.5525V75.4685H16.1871V72.5525H15.6951ZM20.4827 73.1045H19.1387V72.4985H18.6467V73.1045H17.3087V73.5005H20.4827V73.1045ZM18.0767 74.6945C18.0767 74.3465 18.4007 74.1245 18.8927 74.1245C19.3847 74.1245 19.7147 74.3465 19.7147 74.6945C19.7147 75.0485 19.3847 75.2645 18.8927 75.2645C18.4007 75.2645 18.0767 75.0485 18.0767 74.6945ZM20.1827 74.6945C20.1827 74.1245 19.6607 73.7585 18.8927 73.7585C18.1247 73.7585 17.6087 74.1245 17.6087 74.6945C17.6087 75.2705 18.1247 75.6365 18.8927 75.6365C19.6607 75.6365 20.1827 75.2705 20.1827 74.6945ZM20.9807 77.4665H18.5687V76.8725H20.9807V77.4665ZM20.9807 76.4885H18.5687V75.9185H18.0827V77.8625H21.4667V75.9185H20.9807V76.4885ZM22.2647 73.9205H21.4667V72.5525H20.9747V75.6785H21.4667V74.3345H22.2647V73.9205ZM23.6382 73.0745H23.1462V76.5425H23.5902C24.4482 76.5425 25.2942 76.4825 26.2302 76.2905L26.1762 75.8705C25.2822 76.0505 24.4482 76.1225 23.6382 76.1225V73.0745ZM26.7282 72.5525V77.9285H27.2202V72.5525H26.7282ZM29.0497 73.4765H31.0597V73.0685H28.5577V76.6025H28.9837C29.9977 76.6025 30.7057 76.5665 31.5277 76.4105L31.4737 76.0025C30.6937 76.1405 30.0037 76.1825 29.0497 76.1825V73.4765ZM33.3577 74.6765H32.4697V72.5525H31.9777V77.9465H32.4697V75.0845H33.3577V74.6765Z" fill="#0D0D0D"/>
<path d="M42.4668 23.5393L44.0081 30.9799C44.1225 31.5325 44.6093 31.9288 45.1737 31.9288H54.4067C54.9711 31.9288 55.4579 31.5325 55.5723 30.9799L57.1136 23.5393H42.4668ZM46.9966 30.3308C46.9748 30.3354 46.953 30.3375 46.9316 30.3375C46.788 30.3375 46.659 30.2375 46.6279 30.0914L45.5194 24.8841C45.4837 24.7162 45.5908 24.5511 45.7586 24.5154C45.9265 24.4797 46.0915 24.5868 46.1272 24.7546L47.2358 29.9619C47.2715 30.1298 47.1644 30.2949 46.9966 30.3306V30.3308ZM50.1008 30.0267C50.1008 30.1983 49.9616 30.3375 49.79 30.3375C49.6184 30.3375 49.4793 30.1983 49.4793 30.0267V24.8194C49.4793 24.6478 49.6184 24.5087 49.79 24.5087C49.9616 24.5087 50.1008 24.6478 50.1008 24.8194V30.0267ZM54.0606 24.8841L52.9521 30.0914C52.921 30.2373 52.7921 30.3375 52.6485 30.3375C52.627 30.3375 52.6052 30.3354 52.5834 30.3308C52.4155 30.295 52.3086 30.13 52.3443 29.9621L53.4528 24.7548C53.4885 24.587 53.6531 24.4797 53.8215 24.5156C53.9894 24.5513 54.0963 24.7163 54.0606 24.8843V24.8841Z" fill="#E8B500"/>
<path d="M51.2445 13.9786V10.1292H48.3358V13.9786H46.4834L49.79 17.3402L53.0969 13.9786H51.2445Z" fill="#E8B500"/>
<path d="M50.1314 21.843C50.587 21.6543 50.8034 21.1319 50.6146 20.6763C50.4259 20.2207 49.9036 20.0044 49.448 20.1931C48.9924 20.3818 48.776 20.9041 48.9648 21.3597C49.1535 21.8153 49.6758 22.0317 50.1314 21.843Z" fill="#E8B500"/>
<path d="M57.9428 19.3751H55.2274L50.5986 22.2988C50.5854 22.3069 50.5731 22.3142 50.5607 22.3209C50.5389 22.3339 50.5156 22.347 50.4916 22.3594C50.4733 22.369 50.4542 22.3785 50.4351 22.3875C50.4088 22.3999 50.3857 22.4099 50.3623 22.4194C50.3388 22.429 50.3144 22.4383 50.2901 22.447C50.2689 22.4543 50.2484 22.4609 50.2278 22.4673C50.2007 22.4754 50.1733 22.4831 50.1455 22.4898C50.126 22.4945 50.1079 22.4983 50.0896 22.502C50.0596 22.508 50.0309 22.5132 50.0021 22.5173C49.9834 22.52 49.9624 22.5223 49.9415 22.5244C49.9145 22.5271 49.8873 22.5294 49.8603 22.5306C49.8369 22.5317 49.8133 22.5319 49.7898 22.5319C49.7663 22.5319 49.7425 22.5315 49.719 22.5306C49.6921 22.5294 49.6651 22.5271 49.6379 22.5244C49.617 22.5223 49.5962 22.52 49.5754 22.5171C49.5485 22.5132 49.5198 22.5082 49.4912 22.5024C49.4715 22.4983 49.4534 22.4947 49.4352 22.4902C49.4063 22.4833 49.3789 22.4756 49.3513 22.4673C49.331 22.4613 49.3105 22.4547 49.2903 22.4476C49.265 22.4387 49.2408 22.4294 49.2165 22.4196C49.1938 22.4103 49.1706 22.4001 49.1476 22.3895C49.125 22.3789 49.1059 22.3694 49.087 22.3594C49.0644 22.3474 49.0415 22.3347 49.0189 22.3213C49.0063 22.3144 48.9942 22.3074 48.9822 22.2999L44.352 19.3754H41.6366C41.1307 19.3754 40.7207 19.7856 40.7207 20.2913V22.0021C40.7207 22.508 41.1309 22.918 41.6366 22.918H57.9428C58.4487 22.918 58.8587 22.5078 58.8587 22.0021V20.2913C58.8587 19.7854 58.4485 19.3754 57.9428 19.3754V19.3751Z" fill="#E8B500"/>
<path d="M59.5119 14.8776C59.2486 14.4607 58.697 14.3362 58.28 14.5995L50.3467 19.6101C50.9068 19.8325 51.3043 20.3795 51.3043 21.018C51.3043 21.0524 51.3027 21.0864 51.3004 21.1199L59.2336 16.1093C59.6505 15.846 59.775 15.2944 59.5117 14.8774L59.5119 14.8776Z" fill="#E8B500"/>
<path d="M48.2754 21.018C48.2754 20.3795 48.6728 19.8325 49.233 19.6101L41.2996 14.5995C40.8827 14.3362 40.3312 14.4607 40.0677 14.8776C39.8045 15.2946 39.929 15.846 40.3459 16.1095L48.279 21.1201C48.2767 21.0863 48.2752 21.0524 48.2752 21.0182L48.2754 21.018Z" fill="#E8B500"/>
</svg>
