<svg width="264" height="289" viewBox="0 0 264 289" fill="none" xmlns="http://www.w3.org/2000/svg">
<path d="M223.701 5.41602H39.2539V288.882H223.701V5.41602Z" fill="#8296C9"/>
<path d="M263.397 0.545166H224.15V288.874H263.397V0.545166Z" fill="#8296C9"/>
<path d="M230.313 0.545166H224.15V288.874H230.313V0.545166Z" fill="#CAD2EA"/>
<path d="M39.2503 0.545166H0.00390625V288.874H39.2503V0.545166Z" fill="#8296C9"/>
<path opacity="0.3" d="M39.2503 0.545166H0.00390625V288.874H39.2503V0.545166Z" fill="#0C3286"/>
<path d="M6.1665 0.545166H0.00390625V288.874H6.1665V0.545166Z" fill="#CAD2EA"/>
<path d="M224.148 0.545166H0.00390625V5.40824H224.148V0.545166Z" fill="#CAD2EA"/>
<path d="M224.15 96.8066H19.6289V101.67H224.15V96.8066Z" fill="#CAD2EA"/>
<path d="M224.15 192.517H19.6289V197.38H224.15V192.517Z" fill="#CAD2EA"/>
<path d="M138.691 31.7729H98.959V96.5588H138.691V31.7729Z" fill="#CAD2EA"/>
<path d="M158.567 31.76H138.697V96.5459H158.567V31.76Z" fill="#B2BFDF"/>
<path d="M124.279 31.7732H115.395V40.658H124.279V31.7732Z" fill="#F2F3F7"/>
<path d="M152.548 31.7732H145.893V40.658H152.548V31.7732Z" fill="#F2F3F7"/>
<path d="M79.8536 47.2878H49.6289V96.5612H79.8536V47.2878Z" fill="#CAD2EA"/>
<path d="M94.9624 47.2749H79.8535V96.5483H94.9624V47.2749Z" fill="#B2BFDF"/>
<path d="M69.3343 47.2922H61.6602V54.9664H69.3343V47.2922Z" fill="#F2F3F7"/>
<path d="M91.0014 47.2922H84.9141V54.9664H91.0014V47.2922Z" fill="#F2F3F7"/>
<path d="M194.537 47.2837H164.312V96.557H194.537V47.2837Z" fill="#CAD2EA"/>
<path d="M209.642 47.2751H194.533V96.5485H209.642V47.2751Z" fill="#B2BFDF"/>
<path d="M183.773 47.2834H176.092V54.2668H183.773V47.2834Z" fill="#F2F3F7"/>
<path d="M205.049 47.2834H200.227V54.2668H205.049V47.2834Z" fill="#F2F3F7"/>
<path d="M148.127 151.196H131.232V192.262H148.127V151.196Z" fill="#B2BFDF"/>
<path d="M131.234 151.196H102.035V192.262H131.234V151.196Z" fill="#CAD2EA"/>
<path d="M120.671 151.196H112.594V159.274H120.671V151.196Z" fill="#F2F3F7"/>
<path d="M142.969 151.196H136.93V159.274H142.969V151.196Z" fill="#F2F3F7"/>
<path d="M213.212 139.746H191.605V192.268H213.212V139.746Z" fill="#B2BFDF"/>
<path d="M191.607 139.746H154.262V192.268H191.607V139.746Z" fill="#CAD2EA"/>
<path d="M178.158 139.746H167.707V148.494H178.158V139.746Z" fill="#F2F3F7"/>
<path d="M206.617 139.746H200.133V148.494H206.617V139.746Z" fill="#F2F3F7"/>
<path d="M180.225 233.812H94.8379V288.926H180.225V233.812Z" fill="#CAD2EA"/>
<path d="M211.204 233.812H180.227V288.926H211.204V233.812Z" fill="#B2BFDF"/>
<path d="M181.976 202.935H169.021V234.432H181.976V202.935Z" fill="#B2BFDF"/>
<path d="M169.022 202.935H146.629V234.432H169.022V202.935Z" fill="#CAD2EA"/>
<path d="M162.178 202.935H155.516V206.991H162.178V202.935Z" fill="#F2F3F7"/>
<path d="M178.269 202.935H173.338V206.991H178.269V202.935Z" fill="#F2F3F7"/>
<path d="M141.036 233.812H134.996V288.926H141.036V233.812Z" fill="#F2F3F7"/>
<path d="M197.913 233.812H193.508V288.926H197.913V233.812Z" fill="#F2F3F7"/>
</svg>
