<svg width="352" height="434" viewBox="0 0 352 434" fill="none" xmlns="http://www.w3.org/2000/svg">
<path d="M225.999 138.007H86.1852L73.1137 44.8886C71.8761 36.0782 74.2964 27.1411 79.8089 20.1579C85.9932 12.3246 95.4206 7.75146 105.403 7.75146H168.913C175.948 7.75146 182.79 10.0243 188.426 14.2341L200.109 22.9587C207.075 28.1626 211.676 35.9342 212.886 44.5492L226.006 138.007H225.999ZM106.25 114.665H199.383L189.297 42.8248C188.351 36.0954 182.595 31.0868 175.797 31.0868H110.196C101.914 31.0868 95.5441 38.4128 96.6959 46.6129L106.247 114.662L106.25 114.665Z" fill="#B4C0DF"/>
<path d="M98.4984 433.93H0.203125L36.8123 85.2468H98.4984V433.93Z" fill="#F2F3F7"/>
<path d="M351.909 433.933H76.5363L49.3477 85.25H300.802L351.909 433.933Z" fill="white"/>
<path d="M255.608 130.694H115.795L102.723 37.5748C101.486 28.7645 103.906 19.8273 109.418 12.8442C115.603 5.01089 125.03 0.437744 135.013 0.437744H192.054C203.284 0.437744 214.217 4.06815 223.216 10.7907C234.343 19.104 241.69 31.5139 243.62 45.271L255.611 130.697L255.608 130.694ZM135.86 107.351H228.992L219.51 39.7929C218.221 30.6088 210.363 23.7731 201.087 23.7731H140.104C131.667 23.7731 125.177 31.2362 126.35 39.5906L135.86 107.348V107.351Z" fill="#CAD2EA"/>
</svg>
