<svg width="153" height="73" viewBox="0 0 153 73" fill="none" xmlns="http://www.w3.org/2000/svg">
<rect y="0.893311" width="152.52" height="71.27" rx="5" fill="white"/>
<path d="M15.2184 12.0975H14.3944V17.3775H15.2184V12.0975ZM13.6424 15.5855C12.5304 15.2015 11.8984 14.2335 11.8984 13.2095V12.4895H11.0584V13.2095C11.0584 14.2655 10.4264 15.2975 9.2904 15.7135L9.7144 16.3775C10.5624 16.0575 11.1624 15.4015 11.4904 14.5935C11.8024 15.3455 12.3944 15.9375 13.2184 16.2415L13.6424 15.5855ZM11.3304 18.5055V16.8815H10.4984V19.1775H15.4264V18.5055H11.3304ZM23.1618 15.6495H22.0818C22.2898 14.4895 22.2898 13.6575 22.2898 13.0255V12.5215H17.4258V13.1935H21.4738C21.4738 13.8015 21.4578 14.5935 21.2498 15.6495H16.6258V16.3295H18.2178V19.3215H19.0338V16.3295H20.6978V19.3215H21.5218V16.3295H23.1618V15.6495ZM24.6411 15.6255C25.8331 15.4495 26.8091 14.8575 27.2491 14.0575C27.6891 14.8575 28.6731 15.4495 29.8651 15.6255L30.1611 14.9775C28.7851 14.7935 27.7691 14.0015 27.7211 13.1615H29.9051V12.4975H24.5851V13.1615H26.7851C26.7371 14.0015 25.7211 14.7935 24.3451 14.9775L24.6411 15.6255ZM30.5211 16.1535H23.9851V16.8175H26.8171V19.3215H27.6411V16.8175H30.5131L30.5211 16.1535ZM36.2325 14.3615H32.9765V13.0655H36.2325V14.3615ZM37.0405 12.4095H32.1685V15.0175H37.0405V12.4095ZM32.9605 17.0895H32.1365V19.1775H37.1605V18.5055H32.9605V17.0895ZM31.3365 15.7295V16.3935H34.2645V17.7455H35.0885V16.3935H37.8885V15.7295H31.3365Z" fill="#0D0D0D"/>
<path d="M9.48228 61.3621H9.23265V60.1154L8.99178 60.292L8.87207 60.0935L9.29834 59.784H9.48228V61.3621Z" fill="#808080"/>
<path d="M9.92183 59.9751C10.0269 59.8335 10.1685 59.7634 10.3466 59.7634C10.5247 59.7634 10.6649 59.8335 10.77 59.9751C10.8751 60.1167 10.9276 60.3152 10.9276 60.5736C10.9276 60.832 10.8751 61.0291 10.77 61.1707C10.6649 61.3123 10.5233 61.3838 10.3481 61.3838C10.1729 61.3838 10.0299 61.3123 9.92329 61.1707C9.81818 61.0291 9.76562 60.8291 9.76562 60.5736C9.76562 60.3181 9.81818 60.1167 9.92329 59.9751H9.92183ZM10.3466 59.9867C10.1291 59.9867 10.0196 60.1824 10.0196 60.5736C10.0196 60.9648 10.1291 61.1604 10.3466 61.1604C10.5641 61.1604 10.6722 60.9648 10.6722 60.5736C10.6722 60.1824 10.5641 59.9867 10.3466 59.9867Z" fill="#808080"/>
<path d="M11.2871 59.975C11.3922 59.8334 11.5338 59.7634 11.7119 59.7634C11.89 59.7634 12.0301 59.8334 12.1352 59.975C12.2403 60.1166 12.2929 60.3152 12.2929 60.5736C12.2929 60.832 12.2403 61.029 12.1352 61.1706C12.0301 61.3122 11.8885 61.3838 11.7133 61.3838C11.5381 61.3838 11.3951 61.3122 11.2885 61.1706C11.1834 61.029 11.1309 60.829 11.1309 60.5736C11.1309 60.3181 11.1834 60.1166 11.2885 59.975H11.2871ZM11.7119 59.9867C11.4944 59.9867 11.3849 60.1823 11.3849 60.5736C11.3849 60.9648 11.4944 61.1604 11.7119 61.1604C11.9294 61.1604 12.0374 60.9648 12.0374 60.5736C12.0374 60.1823 11.9294 59.9867 11.7119 59.9867V59.9867Z" fill="#808080"/>
<path d="M9.09379 52.9432C9.177 52.8585 9.29233 52.8162 9.43977 52.8162C9.58721 52.8162 9.70254 52.8556 9.78429 52.9329C9.86604 53.0103 9.90691 53.1198 9.90691 53.2614C9.90691 53.3811 9.88064 53.4877 9.82954 53.5797C9.77845 53.6731 9.704 53.7709 9.60765 53.876L9.31276 54.1928H9.92151V54.4161H8.96971V54.2088L9.42371 53.7242C9.51422 53.6278 9.57553 53.5505 9.60765 53.4921C9.63977 53.4337 9.65582 53.3592 9.65582 53.2731C9.65582 53.2016 9.63685 53.1446 9.60035 53.1037C9.56385 53.0629 9.51276 53.041 9.44561 53.041C9.29525 53.041 9.21788 53.1329 9.21496 53.3154L8.96387 53.3008C8.96679 53.149 9.00912 53.0308 9.09233 52.9446L9.09379 52.9432Z" fill="#808080"/>
<path d="M10.2529 53.0278C10.358 52.8862 10.4996 52.8162 10.6777 52.8162C10.8558 52.8162 10.9959 52.8862 11.101 53.0278C11.2061 53.1694 11.2587 53.368 11.2587 53.6264C11.2587 53.8848 11.2061 54.0818 11.101 54.2234C10.9959 54.365 10.8543 54.4366 10.6791 54.4366C10.504 54.4366 10.3609 54.365 10.2543 54.2234C10.1492 54.0818 10.0967 53.8818 10.0967 53.6264C10.0967 53.3709 10.1492 53.1694 10.2543 53.0278H10.2529ZM10.6777 53.0395C10.4602 53.0395 10.3507 53.2351 10.3507 53.6264C10.3507 54.0176 10.4602 54.2132 10.6777 54.2132C10.8952 54.2132 11.0032 54.0176 11.0032 53.6264C11.0032 53.2351 10.8952 53.0395 10.6777 53.0395Z" fill="#808080"/>
<path d="M11.6181 53.0278C11.7232 52.8862 11.8648 52.8162 12.0429 52.8162C12.221 52.8162 12.3612 52.8862 12.4663 53.0278C12.5714 53.1694 12.6239 53.368 12.6239 53.6264C12.6239 53.8848 12.5714 54.0818 12.4663 54.2234C12.3612 54.365 12.2196 54.4366 12.0444 54.4366C11.8692 54.4366 11.7261 54.365 11.6196 54.2234C11.5145 54.0818 11.4619 53.8818 11.4619 53.6264C11.4619 53.3709 11.5145 53.1694 11.6196 53.0278H11.6181ZM12.0429 53.0395C11.8254 53.0395 11.7159 53.2351 11.7159 53.6264C11.7159 54.0176 11.8254 54.2132 12.0429 54.2132C12.2604 54.2132 12.3685 54.0176 12.3685 53.6264C12.3685 53.2351 12.2604 53.0395 12.0429 53.0395V53.0395Z" fill="#808080"/>
<path d="M9.44699 45.8684C9.59297 45.8684 9.7083 45.9079 9.79151 45.9881C9.87472 46.0684 9.91705 46.1765 9.91705 46.3137C9.91705 46.4743 9.84698 46.5867 9.7083 46.6509C9.77837 46.6713 9.83676 46.7122 9.88202 46.7764C9.92727 46.8407 9.95063 46.9195 9.95063 47.0115C9.95063 47.1589 9.90537 47.2757 9.8134 47.3604C9.72144 47.445 9.60027 47.4874 9.44991 47.4874C9.29955 47.4874 9.16962 47.4465 9.08203 47.3633C8.99444 47.2801 8.94773 47.1648 8.94043 47.0173L9.19152 47.0027C9.20612 47.1764 9.29079 47.264 9.44699 47.264C9.52582 47.264 9.58713 47.2421 9.63093 47.1969C9.67472 47.1516 9.69662 47.0889 9.69662 47.0071C9.69662 46.9254 9.67326 46.867 9.62509 46.8261C9.57691 46.7852 9.51268 46.7648 9.43093 46.7648H9.27327V46.5414H9.42801C9.49662 46.5414 9.55356 46.521 9.59735 46.4801C9.64114 46.4392 9.6645 46.3838 9.6645 46.3137C9.6645 46.2436 9.64552 46.1867 9.60757 46.1487C9.56961 46.1108 9.5156 46.0918 9.44699 46.0918C9.37838 46.0918 9.32144 46.1137 9.28203 46.156C9.24115 46.1984 9.21926 46.2597 9.21488 46.337L8.96525 46.3239C8.96963 46.1823 9.01342 46.0699 9.09663 45.9896C9.17984 45.9093 9.29663 45.8684 9.44553 45.8684H9.44699Z" fill="#808080"/>
<path d="M10.3046 46.0817C10.4097 45.9401 10.5513 45.87 10.7294 45.87C10.9075 45.87 11.0477 45.9401 11.1528 46.0817C11.2579 46.2233 11.3105 46.4218 11.3105 46.6802C11.3105 46.9386 11.2579 47.1357 11.1528 47.2773C11.0477 47.4189 10.9061 47.4904 10.7309 47.4904C10.5557 47.4904 10.4127 47.4189 10.3061 47.2773C10.201 47.1357 10.1484 46.9357 10.1484 46.6802C10.1484 46.4248 10.201 46.2233 10.3061 46.0817H10.3046ZM10.7294 46.0934C10.5119 46.0934 10.4024 46.289 10.4024 46.6802C10.4024 47.0715 10.5119 47.2671 10.7294 47.2671C10.947 47.2671 11.055 47.0715 11.055 46.6802C11.055 46.289 10.947 46.0934 10.7294 46.0934Z" fill="#808080"/>
<path d="M11.6718 46.0817C11.7769 45.9401 11.9185 45.8701 12.0966 45.8701C12.2747 45.8701 12.4149 45.9401 12.52 46.0817C12.6251 46.2233 12.6776 46.4219 12.6776 46.6803C12.6776 46.9386 12.6251 47.1357 12.52 47.2773C12.4149 47.4189 12.2733 47.4905 12.0981 47.4905C11.9229 47.4905 11.7799 47.4189 11.6733 47.2773C11.5682 47.1357 11.5156 46.9357 11.5156 46.6803C11.5156 46.4248 11.5682 46.2233 11.6733 46.0817H11.6718ZM12.0966 46.0934C11.8791 46.0934 11.7696 46.289 11.7696 46.6803C11.7696 47.0715 11.8791 47.2671 12.0966 47.2671C12.3141 47.2671 12.4222 47.0715 12.4222 46.6803C12.4222 46.289 12.3141 46.0934 12.0966 46.0934Z" fill="#808080"/>
<path d="M9.82646 39.9667H10.0732V40.19H9.82646V40.5214H9.57975V40.19H8.91699V39.9827L9.61479 38.9419H9.82646V39.9652V39.9667ZM9.1929 39.9667H9.57829V39.393L9.1929 39.9667V39.9667Z" fill="#808080"/>
<path d="M10.3837 39.1346C10.4888 38.993 10.6305 38.9229 10.8085 38.9229C10.9866 38.9229 11.1268 38.993 11.2319 39.1346C11.337 39.2762 11.3896 39.4748 11.3896 39.7331C11.3896 39.9915 11.337 40.1886 11.2319 40.3302C11.1268 40.4718 10.9852 40.5433 10.81 40.5433C10.6348 40.5433 10.4918 40.4718 10.3852 40.3302C10.2801 40.1886 10.2275 39.9886 10.2275 39.7331C10.2275 39.4777 10.2801 39.2762 10.3852 39.1346H10.3837ZM10.8085 39.1463C10.591 39.1463 10.4815 39.3419 10.4815 39.7331C10.4815 40.1244 10.591 40.32 10.8085 40.32C11.0261 40.32 11.1341 40.1244 11.1341 39.7331C11.1341 39.3419 11.0261 39.1463 10.8085 39.1463V39.1463Z" fill="#808080"/>
<path d="M11.748 39.1346C11.8531 38.993 11.9947 38.9229 12.1728 38.9229C12.3509 38.9229 12.491 38.993 12.5962 39.1346C12.7013 39.2762 12.7538 39.4748 12.7538 39.7331C12.7538 39.9915 12.7013 40.1886 12.5962 40.3302C12.491 40.4718 12.3494 40.5433 12.1743 40.5433C11.9991 40.5433 11.856 40.4718 11.7495 40.3302C11.6429 40.1886 11.5918 39.9886 11.5918 39.7331C11.5918 39.4777 11.6444 39.2762 11.7495 39.1346H11.748ZM12.1728 39.1463C11.9553 39.1463 11.8458 39.3419 11.8458 39.7331C11.8458 40.1244 11.9553 40.32 12.1728 40.32C12.3903 40.32 12.4983 40.1244 12.4983 39.7331C12.4983 39.3419 12.3903 39.1463 12.1728 39.1463V39.1463Z" fill="#808080"/>
<path d="M9.4757 32.5909C9.61584 32.5909 9.73117 32.6347 9.82022 32.7223C9.90927 32.8099 9.95306 32.9296 9.95306 33.0828C9.95306 33.2361 9.90781 33.3617 9.81584 33.4551C9.72387 33.5485 9.59979 33.5952 9.44213 33.5952C9.28446 33.5952 9.1706 33.5544 9.08301 33.4741C8.99542 33.3938 8.94871 33.2828 8.94141 33.1412L9.1925 33.1266C9.20709 33.2901 9.2903 33.3719 9.44359 33.3719C9.52534 33.3719 9.58811 33.3456 9.63336 33.2945C9.67862 33.242 9.70051 33.1748 9.70051 33.0901C9.70051 33.0055 9.67862 32.9383 9.63336 32.8901C9.58811 32.8405 9.5268 32.8157 9.44942 32.8157C9.36767 32.8157 9.29468 32.8405 9.22753 32.8916H8.99688V31.9967H9.89175V32.2186H9.24505V32.6493C9.30928 32.6113 9.38665 32.5923 9.4757 32.5923V32.5909Z" fill="#808080"/>
<path d="M10.3046 32.1881C10.4097 32.0465 10.5513 31.9764 10.7294 31.9764C10.9075 31.9764 11.0477 32.0465 11.1528 32.1881C11.2579 32.3297 11.3105 32.5282 11.3105 32.7866C11.3105 33.045 11.2579 33.242 11.1528 33.3836C11.0477 33.5253 10.9061 33.5968 10.7309 33.5968C10.5557 33.5968 10.4127 33.5253 10.3061 33.3836C10.201 33.242 10.1484 33.0421 10.1484 32.7866C10.1484 32.5311 10.201 32.3297 10.3061 32.1881H10.3046ZM10.7294 32.1997C10.5119 32.1997 10.4024 32.3953 10.4024 32.7866C10.4024 33.1778 10.5119 33.3734 10.7294 33.3734C10.947 33.3734 11.055 33.1778 11.055 32.7866C11.055 32.3953 10.947 32.1997 10.7294 32.1997V32.1997Z" fill="#808080"/>
<path d="M11.6699 32.188C11.775 32.0464 11.9166 31.9763 12.0947 31.9763C12.2728 31.9763 12.4129 32.0464 12.518 32.188C12.6231 32.3296 12.6757 32.5281 12.6757 32.7865C12.6757 33.0449 12.6231 33.242 12.518 33.3836C12.4129 33.5252 12.2713 33.5967 12.0961 33.5967C11.921 33.5967 11.7779 33.5252 11.6713 33.3836C11.5662 33.242 11.5137 33.042 11.5137 32.7865C11.5137 32.5311 11.5662 32.3296 11.6713 32.188H11.6699ZM12.0947 32.1997C11.8772 32.1997 11.7677 32.3953 11.7677 32.7865C11.7677 33.1778 11.8772 33.3734 12.0947 33.3734C12.3122 33.3734 12.4202 33.1778 12.4202 32.7865C12.4202 32.3953 12.3122 32.1997 12.0947 32.1997V32.1997Z" fill="#808080"/>
<path d="M143.662 35.6816H8.8584V36.0772H143.662V35.6816Z" fill="#EBECEF"/>
<path d="M143.662 43.1019H8.8584V43.4975H143.662V43.1019Z" fill="#EBECEF"/>
<path d="M143.662 50.29H8.8584V50.6856H143.662V50.29Z" fill="#EBECEF"/>
<path d="M143.662 57.4125H8.8584V57.8081H143.662V57.4125Z" fill="#EBECEF"/>
<path d="M42.3582 44.0596H39.1846V63.3263H42.3582V44.0596Z" fill="#799DD2"/>
<path d="M38.6649 56.4948H35.4912V63.3253H38.6649V56.4948Z" fill="#799DD2"/>
<path d="M34.9715 49.3286H31.7979V63.3268H34.9715V49.3286Z" fill="#799DD2"/>
<path d="M31.2801 53.6931H28.1064V63.3264H31.2801V53.6931Z" fill="#799DD2"/>
<path d="M27.5867 42.3093H24.4131V63.3249H27.5867V42.3093Z" fill="#799DD2"/>
<path d="M23.8953 46.003H20.7217V63.3252H23.8953V46.003Z" fill="#799DD2"/>
<path d="M20.202 52.5822H17.0283V63.3265H20.202V52.5822Z" fill="#799DD2"/>
<path d="M46.1365 48.1662H42.9629V63.3265H46.1365V48.1662Z" fill="#799DD2"/>
<path d="M49.9139 47.0044H46.7402V63.3266H49.9139V47.0044Z" fill="#799DD2"/>
<path d="M53.6932 54.5195H50.5195V63.3266H53.6932V54.5195Z" fill="#799DD2"/>
<path d="M57.4715 57.3866H54.2979V63.3266H57.4715V57.3866Z" fill="#799DD2"/>
<path d="M61.2489 51.4469H58.0752V63.3269H61.2489V51.4469Z" fill="#799DD2"/>
<path d="M65.0281 44.0596H61.8545V63.3263H65.0281V44.0596Z" fill="#799DD2"/>
<path d="M68.8055 39.5662H65.6318V63.3262H68.8055V39.5662Z" fill="#799DD2"/>
<path d="M72.5838 37.7063H69.4102V63.3262H72.5838V37.7063Z" fill="#799DD2"/>
<path d="M76.3631 49.6644H73.1895V63.3269H76.3631V49.6644Z" fill="#799DD2"/>
<path d="M80.1405 52.5823H76.9668V63.3266H80.1405V52.5823Z" fill="#799DD2"/>
<path d="M83.9158 47.4689H80.7422V63.3269H83.9158V47.4689Z" fill="#799DD2"/>
<path d="M87.6951 42.6658H84.5215V63.3267H87.6951V42.6658Z" fill="#799DD2"/>
<path d="M91.4715 46.6158H88.2979V63.325H91.4715V46.6158Z" fill="#799DD2"/>
<path d="M95.2508 50.3361H92.0771V63.327H95.2508V50.3361Z" fill="#799DD2"/>
<path d="M99.0311 49.6644H95.8574V63.3269H99.0311V49.6644Z" fill="#799DD2"/>
<path d="M102.806 53.4612H99.6328V63.3267H102.806V53.4612Z" fill="#799DD2"/>
<path d="M106.586 49.3286H103.412V63.3269H106.586V49.3286Z" fill="#799DD2"/>
<path d="M110.363 43.5941H107.189V63.3251H110.363V43.5941Z" fill="#799DD2"/>
<path d="M114.138 39.5662H110.965V63.3262H114.138V39.5662Z" fill="#799DD2"/>
<path d="M117.919 32.9724H114.745V63.3251H117.919V32.9724Z" fill="#799DD2"/>
<path d="M121.698 37.0714H118.524V63.3263H121.698V37.0714Z" fill="#799DD2"/>
<path d="M125.475 33.9098H122.302V63.3267H125.475V33.9098Z" fill="#799DD2"/>
<path d="M129.253 42.6658H126.079V63.3266H129.253V42.6658Z" fill="#799DD2"/>
<path d="M133.028 31.7675H129.854V63.3259H133.028V31.7675Z" fill="#799DD2"/>
<path d="M136.808 36.0016H133.635V63.3265H136.808V36.0016Z" fill="#799DD2"/>
<path d="M140.586 47.6237H137.412V63.3255H140.586V47.6237Z" fill="#799DD2"/>
</svg>
