<svg width="318" height="175" viewBox="0 0 318 175" fill="none" xmlns="http://www.w3.org/2000/svg">
<path d="M285.566 88.0876L255.014 41.7415C253.492 39.4373 250.916 38.0483 248.157 38.0483H199.672V141.852H315.13V104.24C315.13 102.12 313.865 100.202 311.915 99.3648L285.571 88.0876H285.566Z" fill="#8296C9"/>
<path d="M199.672 141.854H315.13V145.101C315.13 152.823 308.857 159.096 301.135 159.096H199.672V141.854Z" fill="#343766"/>
<path d="M284.436 151.73C284.436 138.895 274.032 128.49 261.197 128.49C248.362 128.49 237.957 138.895 237.957 151.73C237.957 164.565 248.362 174.97 261.197 174.97C274.032 174.97 284.436 164.565 284.436 151.73Z" fill="#343766"/>
<path d="M270.843 154.003C272.1 148.675 268.801 143.337 263.473 142.08C258.146 140.823 252.808 144.122 251.55 149.45C250.293 154.777 253.592 160.115 258.92 161.372C264.247 162.63 269.585 159.33 270.843 154.003Z" fill="#F2F3F7"/>
<path d="M262.767 144.468C262.767 145.328 262.068 146.027 261.208 146.027C260.348 146.027 259.648 145.328 259.648 144.468C259.648 143.608 260.348 142.909 261.208 142.909C262.068 142.909 262.767 143.608 262.767 144.468Z" fill="#343766"/>
<path d="M262.767 159.032C262.767 159.892 262.068 160.592 261.208 160.592C260.348 160.592 259.648 159.892 259.648 159.032C259.648 158.172 260.348 157.473 261.208 157.473C262.068 157.473 262.767 158.172 262.767 159.032Z" fill="#343766"/>
<path d="M266.352 148.159C267.213 148.159 267.911 147.461 267.911 146.6C267.911 145.739 267.213 145.041 266.352 145.041C265.491 145.041 264.793 145.739 264.793 146.6C264.793 147.461 265.491 148.159 266.352 148.159Z" fill="#343766"/>
<path d="M256.059 158.459C256.92 158.459 257.618 157.761 257.618 156.9C257.618 156.039 256.92 155.341 256.059 155.341C255.198 155.341 254.5 156.039 254.5 156.9C254.5 157.761 255.198 158.459 256.059 158.459Z" fill="#343766"/>
<path d="M268.489 153.308C267.629 153.308 266.93 152.609 266.93 151.748C266.93 150.888 267.629 150.189 268.489 150.189C269.349 150.189 270.048 150.888 270.048 151.748C270.048 152.609 269.349 153.308 268.489 153.308Z" fill="#343766"/>
<path d="M253.926 153.308C253.066 153.308 252.367 152.609 252.367 151.748C252.367 150.888 253.066 150.189 253.926 150.189C254.786 150.189 255.485 150.888 255.485 151.748C255.485 152.609 254.786 153.308 253.926 153.308Z" fill="#343766"/>
<path d="M266.352 158.459C267.213 158.459 267.911 157.761 267.911 156.9C267.911 156.039 267.213 155.341 266.352 155.341C265.491 155.341 264.793 156.039 264.793 156.9C264.793 157.761 265.491 158.459 266.352 158.459Z" fill="#343766"/>
<path d="M256.059 148.159C256.92 148.159 257.618 147.461 257.618 146.6C257.618 145.739 256.92 145.041 256.059 145.041C255.198 145.041 254.5 145.739 254.5 146.6C254.5 147.461 255.198 148.159 256.059 148.159Z" fill="#343766"/>
<path d="M285.855 153.312C284.669 153.312 283.703 152.35 283.703 151.159C283.703 138.76 273.612 128.669 261.213 128.669C248.813 128.669 238.723 138.76 238.723 151.159C238.723 152.346 237.757 153.312 236.57 153.312C235.384 153.312 234.418 152.35 234.418 151.159C234.418 136.387 246.436 124.364 261.213 124.364C275.99 124.364 288.008 136.387 288.008 151.159C288.008 152.346 287.042 153.312 285.855 153.312Z" fill="#F2F3F7"/>
<path d="M208.356 46.9922H243.747C245.752 46.9922 247.619 48.0178 248.696 49.7103L271.862 86.1681C272.901 87.8054 271.724 89.9486 269.783 89.9486H208.352V46.9922H208.356Z" fill="#B2BFDF"/>
<mask id="mask0_301_5151" style="mask-type:alpha" maskUnits="userSpaceOnUse" x="208" y="46" width="65" height="44">
<path d="M208.36 46.9924H243.751C245.756 46.9924 247.623 48.018 248.7 49.7105L271.866 86.1684C272.905 87.8057 271.728 89.9489 269.787 89.9489H208.355V46.9924H208.36Z" fill="#B2BFDF"/>
</mask>
<g mask="url(#mask0_301_5151)">
<path opacity="0.32" d="M238.62 96.0598H222.463L203.809 40.8833H219.97L238.62 96.0598Z" fill="#F2F3F7"/>
<path opacity="0.32" d="M252.611 96.0598H243.826L225.172 40.8833H233.096L252.611 96.0598Z" fill="#F2F3F7"/>
</g>
<path d="M221.206 94.4475H208.352V97.7957H221.206V94.4475Z" fill="#343766"/>
<path d="M223.923 137.885H204.68V43.4961H247.084C248.97 43.4961 250.704 44.4435 251.72 46.0348L280.005 89.1845C280.304 89.6398 280.461 90.1687 280.461 90.716V110.617C280.461 114.83 277.03 118.261 272.817 118.261H262.404C251.476 118.261 240.903 122.809 233.392 130.747L228.503 135.912C227.317 137.163 225.647 137.885 223.923 137.885ZM205.14 137.425H223.923C225.523 137.425 227.069 136.759 228.168 135.6L233.057 130.435C240.655 122.409 251.352 117.805 262.404 117.805H272.817C276.777 117.805 280.001 114.581 280.001 110.621V90.7206C280.001 90.2653 279.867 89.8238 279.619 89.442L251.329 46.2878C250.396 44.8299 248.809 43.9606 247.08 43.9606H205.135V137.43L205.14 137.425Z" fill="#343766"/>
<path d="M305.49 129.599H316.459C317.08 129.599 317.586 130.105 317.586 130.726V138.797C317.586 139.418 317.08 139.924 316.459 139.924H305.49C304.869 139.924 304.363 139.418 304.363 138.797V130.726C304.363 130.105 304.869 129.599 305.49 129.599Z" fill="#B2BFDF"/>
<path opacity="0.5" d="M316.37 130.535H308.56C308.382 130.535 308.238 130.679 308.238 130.857V138.667C308.238 138.844 308.382 138.989 308.56 138.989H316.37C316.547 138.989 316.692 138.844 316.692 138.667V130.857C316.692 130.679 316.547 130.535 316.37 130.535Z" fill="#8296C9"/>
<path d="M2.63127 0.588623H197.554C198.722 0.588623 199.67 1.53607 199.67 2.70427V139.737C199.67 140.905 198.722 141.853 197.554 141.853H2.63127C1.46308 141.853 0.515625 140.905 0.515625 139.737V2.70427C0.515625 1.53607 1.46308 0.588623 2.63127 0.588623Z" fill="#CAD2EA"/>
<mask id="mask1_301_5151" style="mask-type:alpha" maskUnits="userSpaceOnUse" x="0" y="0" width="200" height="142">
<path d="M2.63127 0.588867H197.554C198.722 0.588867 199.67 1.53632 199.67 2.70451V139.737C199.67 140.906 198.722 141.853 197.554 141.853H2.63127C1.46308 141.853 0.515625 140.906 0.515625 139.737V2.70451C0.515625 1.53632 1.46308 0.588867 2.63127 0.588867Z" fill="#CAD2EA"/>
</mask>
<g mask="url(#mask1_301_5151)">
<path opacity="0.5" d="M64.9779 -21.6824H-3.19141V164.13H64.9779V-21.6824Z" fill="#8296C9"/>
<path opacity="0.27" d="M162.01 -1.45691V40.9293C162.01 48.6559 158.464 55.9548 152.388 60.7288L106.162 97.067C102.639 99.8358 100.85 104.274 101.471 108.712L106.856 147.332H-17.0781V-2.38135L162.01 -1.46151V-1.45691Z" fill="#8296C9"/>
</g>
<path d="M199.665 141.854H0.515625V159.096H199.665V141.854Z" fill="#343766"/>
<path d="M56.3647 175C69.1997 175 79.6045 164.596 79.6045 151.761C79.6045 138.926 69.1997 128.521 56.3647 128.521C43.5298 128.521 33.125 138.926 33.125 151.761C33.125 164.596 43.5298 175 56.3647 175Z" fill="#343766"/>
<path d="M59.8849 161.015C65.0067 159.084 67.5931 153.366 65.6618 148.244C63.7305 143.122 58.0129 140.536 52.8911 142.467C47.7692 144.398 45.1828 150.116 47.1141 155.238C49.0454 160.36 54.7631 162.946 59.8849 161.015Z" fill="#F2F3F7"/>
<path d="M57.9464 144.466C57.9464 145.326 57.2473 146.025 56.3872 146.025C55.5272 146.025 54.8281 145.326 54.8281 144.466C54.8281 143.606 55.5272 142.907 56.3872 142.907C57.2473 142.907 57.9464 143.606 57.9464 144.466Z" fill="#343766"/>
<path d="M57.9464 159.031C57.9464 159.891 57.2473 160.59 56.3872 160.59C55.5272 160.59 54.8281 159.891 54.8281 159.031C54.8281 158.171 55.5272 157.472 56.3872 157.472C57.2473 157.472 57.9464 158.171 57.9464 159.031Z" fill="#343766"/>
<path d="M61.5396 148.154C62.4007 148.154 63.0987 147.456 63.0987 146.595C63.0987 145.733 62.4007 145.035 61.5396 145.035C60.6785 145.035 59.9805 145.733 59.9805 146.595C59.9805 147.456 60.6785 148.154 61.5396 148.154Z" fill="#343766"/>
<path d="M52.3458 157.997C51.7387 158.604 50.7499 158.604 50.1428 157.997C49.5357 157.39 49.5357 156.401 50.1428 155.794C50.7499 155.187 51.7387 155.187 52.3458 155.794C52.9529 156.401 52.9529 157.39 52.3458 157.997Z" fill="#343766"/>
<path d="M63.6685 153.31C62.8085 153.31 62.1094 152.61 62.1094 151.75C62.1094 150.89 62.8085 150.191 63.6685 150.191C64.5286 150.191 65.2276 150.89 65.2276 151.75C65.2276 152.61 64.5286 153.31 63.6685 153.31Z" fill="#343766"/>
<path d="M49.106 153.31C48.246 153.31 47.5469 152.61 47.5469 151.75C47.5469 150.89 48.246 150.191 49.106 150.191C49.9661 150.191 50.6651 150.89 50.6651 151.75C50.6651 152.61 49.9661 153.31 49.106 153.31Z" fill="#343766"/>
<path d="M61.5357 158.453C62.3968 158.453 63.0948 157.755 63.0948 156.894C63.0948 156.033 62.3968 155.335 61.5357 155.335C60.6746 155.335 59.9766 156.033 59.9766 156.894C59.9766 157.755 60.6746 158.453 61.5357 158.453Z" fill="#343766"/>
<path d="M50.135 147.702C49.5279 147.095 49.5279 146.106 50.135 145.499C50.7421 144.892 51.7309 144.892 52.338 145.499C52.9451 146.106 52.9451 147.095 52.338 147.702C51.7309 148.309 50.7421 148.309 50.135 147.702Z" fill="#343766"/>
<path d="M81.0077 153.316C79.8211 153.316 78.8553 152.355 78.8553 151.163C78.8553 138.764 68.7646 128.673 56.3652 128.673C43.9658 128.673 33.8752 138.764 33.8752 151.163C33.8752 152.35 32.9094 153.316 31.7228 153.316C30.5362 153.316 29.5703 152.355 29.5703 151.163C29.5703 136.391 41.588 124.368 56.3652 124.368C71.1424 124.368 83.1601 136.391 83.1601 151.163C83.1601 152.35 82.1943 153.316 81.0077 153.316Z" fill="#F2F3F7"/>
</svg>
