<svg width="98" height="90" viewBox="0 0 98 90" fill="none" xmlns="http://www.w3.org/2000/svg">
<path d="M86.6677 0.571533H11.6882C5.42985 0.571533 0.356445 4.92812 0.356445 10.3022V79.8378C0.356445 85.2119 5.42985 89.5685 11.6882 89.5685H86.6677C92.926 89.5685 97.9995 85.2119 97.9995 79.8378V10.3022C97.9995 4.92812 92.926 0.571533 86.6677 0.571533Z" fill="white"/>
<path d="M97.9995 41.4421H0.356445V9.50889C0.356445 4.57323 5.43024 0.571533 11.6882 0.571533H86.6677C92.9257 0.571533 97.9995 4.57323 97.9995 9.50889V41.4421Z" fill="#52B36C"/>
<path d="M12.2663 51.8416H11.2583C11.4423 50.8176 11.4423 50.0656 11.4423 49.3856V48.7536H6.51427V49.4176H10.6343C10.6343 50.0816 10.6343 50.8336 10.4263 51.8416H5.73027V52.5216H8.55427V55.5376H9.38627V52.5216H12.2663V51.8416ZM14.0976 49.7616H15.3456V53.0016H14.0976V49.7616ZM13.3296 53.6576H16.1136V49.1056H13.3296V53.6576ZM18.4736 48.3136V51.1296H17.6496V48.4496H16.8736V55.1936H17.6496V51.8016H18.4736V55.5296H19.2576V48.3136H18.4736ZM25.609 49.9376V50.6816H23.841V51.3216H25.609V51.9776H26.433V48.3136H25.609V49.2976H24.113C24.153 49.0896 24.169 48.8656 24.169 48.6336H20.937V49.2976H23.257C23.145 50.3056 22.257 51.0976 20.545 51.4656L20.833 52.1376C22.425 51.7776 23.489 51.0416 23.937 49.9376H25.609ZM22.569 54.8096V54.1456H26.433V52.2736H21.729V52.9296H25.609V53.5296H21.745V55.4736H26.633V54.8096H22.569ZM31.6884 50.1296V50.8016H32.9684V52.6176H33.7924V48.3136H32.9684V50.1296H31.6884ZM32.1044 51.7376C31.0244 51.3616 30.4084 50.4656 30.4084 49.5616V49.4656H31.9124V48.8016H28.0484V49.4656H29.5764V49.5696C29.5764 50.5616 28.9284 51.5216 27.8084 51.9216L28.2324 52.5776C29.0884 52.2736 29.6964 51.6336 30.0164 50.8416C30.3204 51.5376 30.8964 52.1056 31.6964 52.3856L32.1044 51.7376ZM31.3924 54.9056C30.3604 54.9056 29.7764 54.6496 29.7764 54.1776C29.7764 53.7056 30.3604 53.4496 31.3924 53.4496C32.4084 53.4496 33.0004 53.7056 33.0004 54.1776C33.0004 54.6496 32.4084 54.9056 31.3924 54.9056ZM31.3924 52.8096C29.8804 52.8096 28.9524 53.3216 28.9524 54.1776C28.9524 55.0416 29.8804 55.5456 31.3924 55.5456C32.8964 55.5456 33.8244 55.0416 33.8244 54.1776C33.8244 53.3216 32.8964 52.8096 31.3924 52.8096Z" fill="#0D0D0D"/>
<path opacity="0.5" d="M7.42827 67.1663H6.30027V65.7443H7.42827V67.1663ZM7.42827 65.3543H6.30027V64.0403H5.83227V67.5623H7.89027V64.0403H7.42827V65.3543ZM9.74427 63.5303V65.6603H9.01827V63.6503H8.55627V68.6483H9.01827V66.0623H9.74427V68.9123H10.2123V63.5303H9.74427ZM15.7318 65.3003C14.7718 65.1683 13.8418 64.5683 13.8418 63.8543V63.6143H13.3378V63.8543C13.3378 64.5683 12.4138 65.1683 11.4538 65.3003L11.6398 65.6903C12.4618 65.5523 13.2538 65.1263 13.5898 64.5143C13.9318 65.1263 14.7238 65.5523 15.5458 65.6903L15.7318 65.3003ZM13.5898 68.5283C12.7378 68.5283 12.2458 68.3303 12.2458 67.9763C12.2458 67.6223 12.7378 67.4243 13.5898 67.4243C14.4418 67.4243 14.9338 67.6223 14.9338 67.9763C14.9338 68.3303 14.4418 68.5283 13.5898 68.5283ZM13.5898 67.0463C12.4378 67.0463 11.7478 67.3763 11.7478 67.9763C11.7478 68.5763 12.4378 68.9063 13.5898 68.9063C14.7418 68.9063 15.4318 68.5763 15.4318 67.9763C15.4318 67.3763 14.7418 67.0463 13.5898 67.0463ZM13.8358 66.2003V65.4083H13.3438V66.2003H11.1598V66.5963H16.0258V66.2003H13.8358ZM20.5913 63.5303V68.9243H21.0833V63.5303H20.5913ZM18.2453 63.9443C17.4473 63.9443 16.8773 64.6763 16.8773 65.8223C16.8773 66.9683 17.4473 67.7003 18.2453 67.7003C19.0433 67.7003 19.6133 66.9683 19.6133 65.8223C19.6133 64.6763 19.0433 63.9443 18.2453 63.9443ZM18.2453 64.3883C18.7673 64.3883 19.1393 64.9523 19.1393 65.8223C19.1393 66.6983 18.7673 67.2623 18.2453 67.2623C17.7173 67.2623 17.3453 66.6983 17.3453 65.8223C17.3453 64.9523 17.7173 64.3883 18.2453 64.3883ZM24.3027 64.8383C24.3027 64.4303 24.6567 64.1543 25.1727 64.1543C25.6767 64.1543 26.0367 64.4303 26.0367 64.8383C26.0367 65.2523 25.6767 65.5223 25.1727 65.5223C24.6567 65.5223 24.3027 65.2523 24.3027 64.8383ZM26.8827 66.2723C26.4207 66.3443 25.9227 66.3803 25.4247 66.4103V65.8823C26.0667 65.8043 26.4987 65.4083 26.4987 64.8383C26.4987 64.2083 25.9527 63.7823 25.1727 63.7823C24.3867 63.7823 23.8467 64.2083 23.8467 64.8383C23.8467 65.4143 24.2787 65.8103 24.9327 65.8883V66.4283C24.4347 66.4463 23.9487 66.4523 23.5347 66.4523L23.6007 66.8543C24.5187 66.8543 25.7967 66.8363 26.9187 66.6323L26.8827 66.2723ZM24.8007 67.3043H24.3087V68.7863H27.9027V68.3843H24.8007V67.3043ZM27.7107 65.3543V63.5363H27.2187V67.6523H27.7107V65.7623H28.5027V65.3543H27.7107ZM30.9082 66.8243H32.1382V67.8443H30.9082V66.8243ZM32.6242 67.8443V66.8243H33.4642V66.4223H30.1522V65.5583H33.3382V63.9263H29.6542V64.3283H32.8582V65.1623H29.6662V66.8243H30.4222V67.8443H29.0542V68.2463H33.9442V67.8443H32.6242ZM38.9837 63.5303H38.4917V67.5563H38.9837V63.5303ZM38.0597 66.3263C37.5977 66.3803 37.1117 66.4103 36.6137 66.4343V65.6903H37.6817V65.2943H35.5757V64.2803H37.6457V63.8783H35.0837V65.6903H36.1217V66.4523C35.5937 66.4703 35.0717 66.4763 34.6037 66.4763L34.6757 66.8783C35.6777 66.8783 36.9557 66.8423 38.0957 66.6803L38.0597 66.3263ZM35.9957 68.3903V67.2923H35.5037V68.7923H39.1637V68.3903H35.9957ZM44.549 66.0623C43.775 65.7983 43.247 65.1263 43.247 64.4003V63.8063H42.755V64.3583C42.755 65.1803 42.233 65.9123 41.417 66.2063L41.675 66.5963C42.305 66.3563 42.785 65.8643 43.007 65.2343C43.247 65.7863 43.709 66.2303 44.291 66.4463L44.549 66.0623ZM43.907 68.5223C43.109 68.5223 42.623 68.3003 42.623 67.9283C42.623 67.5503 43.109 67.3283 43.907 67.3283C44.699 67.3283 45.185 67.5503 45.185 67.9283C45.185 68.3003 44.699 68.5223 43.907 68.5223ZM43.907 66.9443C42.809 66.9443 42.131 67.2983 42.131 67.9283C42.131 68.5523 42.809 68.9063 43.907 68.9063C44.999 68.9063 45.677 68.5523 45.677 67.9283C45.677 67.2983 44.999 66.9443 43.907 66.9443ZM45.617 64.9223V63.5363H45.125V66.7943H45.617V65.3303H46.415V64.9223H45.617ZM50.0566 65.2283H48.7186V64.1003H50.0566V65.2283ZM48.2266 65.2283H47.4346V65.6243H51.3406V65.2283H50.5486V64.1003H51.3646V63.7043H47.4166V64.1003H48.2266V65.2283ZM50.7526 68.4443H48.0406V67.5503H50.7526V68.4443ZM51.8266 66.5303V66.1343H46.9606V66.5303H49.1506V67.1603H47.5606V68.8403H51.2326V67.1603H49.6426V66.5303H51.8266ZM54.9101 63.9923C55.7921 63.9923 56.2961 64.1963 56.2961 64.5563C56.2961 64.9163 55.7921 65.1203 54.9101 65.1203C54.0281 65.1203 53.5241 64.9163 53.5241 64.5563C53.5241 64.1963 54.0281 63.9923 54.9101 63.9923ZM54.9101 65.4863C56.0921 65.4863 56.8001 65.1623 56.8001 64.5563C56.8001 63.9503 56.0921 63.6203 54.9101 63.6203C53.7281 63.6203 53.0201 63.9503 53.0201 64.5563C53.0201 65.1623 53.7281 65.4863 54.9101 65.4863ZM53.5601 67.9223H56.7221V66.7103H53.0621V67.0823H56.2361V67.5623H53.0801V68.8523H56.8841V68.4683H53.5601V67.9223ZM52.4741 65.8523V66.2483H57.3461V65.8523H52.4741ZM10.5123 75.1943H9.71427C9.86427 74.4203 9.86427 73.8503 9.86427 73.3463V72.8783H6.25227V73.2743H9.38427V73.3463C9.38427 73.8503 9.38427 74.4203 9.21627 75.1943H5.64627V75.5963H7.81827V77.9183H8.31627V75.5963H10.5123V75.1943ZM11.8138 73.5443H12.9418V76.0763H11.8138V73.5443ZM11.3518 76.4663H13.3978V73.1543H11.3518V76.4663ZM15.2638 72.5303V74.6603H14.5378V72.6503H14.0758V77.6423H14.5378V75.0623H15.2638V77.9063H15.7318V72.5303H15.2638ZM21.9571 73.6943V74.3363H20.5531V74.7203H21.9571V75.2783H22.4551V72.5303H21.9571V73.3103H20.7391C20.7751 73.1423 20.7931 72.9743 20.7931 72.7943H18.3871V73.1963H20.2591C20.1691 74.0483 19.4191 74.6903 18.1051 74.9963L18.2851 75.3983C19.4731 75.1163 20.2951 74.5403 20.6311 73.6943H21.9571ZM19.4851 77.4683V76.8443H22.4551V75.5243H18.9871V75.9203H21.9631V76.4723H18.9991V77.8583H22.6351V77.4683H19.4851ZM26.4147 73.9283V74.3303H27.4767V75.7403H27.9747V72.5363H27.4767V73.9283H26.4147ZM26.7147 75.1523C25.9347 74.8763 25.4067 74.1983 25.4067 73.5083V73.3223H26.5887V72.9263H23.7147V73.3223H24.9147V73.5083C24.9147 74.2823 24.3627 75.0083 23.5587 75.3023L23.8167 75.6923C24.4467 75.4523 24.9447 74.9483 25.1727 74.3243C25.4067 74.8763 25.8687 75.3203 26.4687 75.5363L26.7147 75.1523ZM26.1987 77.5283C25.3887 77.5283 24.8967 77.3003 24.8967 76.9103C24.8967 76.5203 25.3887 76.2863 26.1987 76.2863C27.0087 76.2863 27.5007 76.5203 27.5007 76.9103C27.5007 77.3003 27.0087 77.5283 26.1987 77.5283ZM26.1987 75.9083C25.0947 75.9083 24.4047 76.2743 24.4047 76.9103C24.4047 77.5463 25.0947 77.9123 26.1987 77.9123C27.3027 77.9123 27.9867 77.5463 27.9867 76.9103C27.9867 76.2743 27.3027 75.9083 26.1987 75.9083ZM32.2522 73.0823H30.9082V72.4763H30.4162V73.0823H29.0782V73.4783H32.2522V73.0823ZM29.8462 74.6723C29.8462 74.3243 30.1702 74.1023 30.6622 74.1023C31.1542 74.1023 31.4842 74.3243 31.4842 74.6723C31.4842 75.0263 31.1542 75.2423 30.6622 75.2423C30.1702 75.2423 29.8462 75.0263 29.8462 74.6723ZM31.9522 74.6723C31.9522 74.1023 31.4302 73.7363 30.6622 73.7363C29.8942 73.7363 29.3782 74.1023 29.3782 74.6723C29.3782 75.2483 29.8942 75.6143 30.6622 75.6143C31.4302 75.6143 31.9522 75.2483 31.9522 74.6723ZM32.7502 77.4443H30.3382V76.8503H32.7502V77.4443ZM32.7502 76.4663H30.3382V75.8963H29.8522V77.8403H33.2362V75.8963H32.7502V76.4663ZM34.0342 73.8983H33.2362V72.5303H32.7442V75.6563H33.2362V74.3123H34.0342V73.8983ZM35.4077 73.0523H34.9157V76.5203H35.3597C36.2177 76.5203 37.0637 76.4603 37.9997 76.2683L37.9457 75.8483C37.0517 76.0283 36.2177 76.1003 35.4077 76.1003V73.0523ZM38.4977 72.5303V77.9063H38.9897V72.5303H38.4977ZM40.8193 73.4543H42.8293V73.0463H40.3273V76.5803H40.7533C41.7673 76.5803 42.4753 76.5443 43.2973 76.3883L43.2433 75.9803C42.4633 76.1183 41.7733 76.1603 40.8193 76.1603V73.4543ZM45.1273 74.6543H44.2393V72.5303H43.7473V77.9243H44.2393V75.0623H45.1273V74.6543ZM46.1348 77.5463C46.3508 77.5463 46.5308 77.3783 46.5308 77.1323C46.5308 76.8863 46.3508 76.7063 46.1348 76.7063C45.9188 76.7063 45.7388 76.8863 45.7388 77.1323C45.7388 77.3783 45.9188 77.5463 46.1348 77.5463Z" fill="#0D0D0D"/>
<path d="M52.0988 18.8096C53.6685 18.8096 54.9456 17.5326 54.9456 15.9628C54.9456 14.393 53.6685 13.116 52.0988 13.116C50.529 13.116 49.252 14.393 49.252 15.9628C49.252 17.5326 50.529 18.8096 52.0988 18.8096ZM50.1985 15.5682C50.3658 15.4009 50.6371 15.4009 50.8046 15.5682L51.644 16.4076L53.3242 14.4297C53.4774 14.2493 53.7479 14.2272 53.9282 14.3805C54.1086 14.5337 54.1307 14.8042 53.9774 14.9845L51.6954 17.6709L50.1987 16.1741C50.0314 16.0068 50.0314 15.7355 50.1987 15.568L50.1985 15.5682Z" fill="#3D9655"/>
<path d="M61.3169 15.7452C61.2367 15.631 61.1059 15.5631 60.9664 15.5631H55.7824C55.7964 15.695 55.8038 15.8281 55.8038 15.9627C55.8038 16.1168 55.7944 16.2695 55.776 16.4202C55.6761 17.2363 55.3096 17.9912 54.7189 18.5817C54.0194 19.2812 53.0893 19.6666 52.0999 19.6666C51.1106 19.6666 50.1805 19.2812 49.4809 18.5817C48.8904 17.9912 48.5238 17.2363 48.424 16.4202C48.4055 16.2695 48.3963 16.1168 48.3963 15.9627C48.3963 15.8283 48.4036 15.695 48.4177 15.5631H43.202L41.2307 10.3831C41.1675 10.2168 41.0081 10.1069 40.8301 10.1069H37.3875C37.1508 10.1069 36.959 10.2987 36.959 10.5355C36.959 10.7722 37.1508 10.964 37.3875 10.964H40.5348L42.5033 16.1372L42.5062 16.1447L46.0159 25.3679C46.0791 25.5341 46.2385 25.644 46.4164 25.644H57.6538C57.8347 25.644 57.996 25.5305 58.0572 25.3603L61.3699 16.1367C61.417 16.0054 61.3973 15.8593 61.3171 15.7453L61.3169 15.7452Z" fill="#3D9655"/>
<path d="M57.2475 26.5732H46.952C46.7152 26.5732 46.5234 26.7651 46.5234 27.0018C46.5234 27.2385 46.7152 27.4303 46.952 27.4303H57.2475C57.4842 27.4303 57.676 27.2385 57.676 27.0018C57.676 26.7651 57.4842 26.5732 57.2475 26.5732Z" fill="#3D9655"/>
<path d="M48.9739 31.5516C49.855 31.5034 50.5302 30.7501 50.482 29.869C50.4338 28.9879 49.6805 28.3127 48.7994 28.3609C47.9184 28.4091 47.2432 29.1624 47.2913 30.0435C47.3395 30.9245 48.0928 31.5998 48.9739 31.5516Z" fill="#3D9655"/>
<path d="M55.6734 31.5042C56.5274 31.2819 57.0394 30.4094 56.8171 29.5555C56.5949 28.7015 55.7224 28.1895 54.8685 28.4117C54.0145 28.634 53.5025 29.5065 53.7247 30.3604C53.947 31.2144 54.8195 31.7264 55.6734 31.5042Z" fill="#3D9655"/>
</svg>
