<svg width="298" height="258" viewBox="0 0 298 258" fill="none" xmlns="http://www.w3.org/2000/svg">
<path d="M284.107 144.312H176.672V257.073H284.107V144.312Z" fill="#B2BFDF"/>
<path d="M204.992 148.609L102.699 75.7334L0.914062 148.609H29.2334V257.177H176.672V148.609H204.992Z" fill="#CAD2EA"/>
<path d="M24.9297 140.524L102.747 85.9717L177.284 140.524H24.9297Z" fill="#B2BFDF"/>
<path d="M267.477 166.05H200.059V257.174H267.477V166.05Z" fill="#CAD2EA"/>
<path d="M269.761 165.792H197.773V172.452H269.761V165.792Z" fill="#8296C9"/>
<path d="M266.059 175.299H201.601C201.361 175.299 201.164 175.103 201.164 174.862C201.164 174.622 201.361 174.425 201.601 174.425H266.059C266.299 174.425 266.496 174.622 266.496 174.862C266.496 175.103 266.299 175.299 266.059 175.299Z" fill="#B2BFDF"/>
<path d="M266.059 178.944H201.601C201.361 178.944 201.164 178.747 201.164 178.507C201.164 178.266 201.361 178.069 201.601 178.069H266.059C266.299 178.069 266.496 178.266 266.496 178.507C266.496 178.747 266.299 178.944 266.059 178.944Z" fill="#B2BFDF"/>
<path d="M266.059 182.596H201.601C201.361 182.596 201.164 182.399 201.164 182.159C201.164 181.918 201.361 181.722 201.601 181.722H266.059C266.299 181.722 266.496 181.918 266.496 182.159C266.496 182.399 266.299 182.596 266.059 182.596Z" fill="#B2BFDF"/>
<path d="M266.059 186.241H201.601C201.361 186.241 201.164 186.044 201.164 185.804C201.164 185.563 201.361 185.366 201.601 185.366H266.059C266.299 185.366 266.496 185.563 266.496 185.804C266.496 186.044 266.299 186.241 266.059 186.241Z" fill="#B2BFDF"/>
<path d="M266.059 189.885H201.601C201.361 189.885 201.164 189.689 201.164 189.448C201.164 189.208 201.361 189.011 201.601 189.011H266.059C266.299 189.011 266.496 189.208 266.496 189.448C266.496 189.689 266.299 189.885 266.059 189.885Z" fill="#B2BFDF"/>
<path d="M266.059 193.534H201.601C201.361 193.534 201.164 193.337 201.164 193.096C201.164 192.856 201.361 192.659 201.601 192.659H266.059C266.299 192.659 266.496 192.856 266.496 193.096C266.496 193.337 266.299 193.534 266.059 193.534Z" fill="#B2BFDF"/>
<path d="M266.059 197.182H201.601C201.361 197.182 201.164 196.985 201.164 196.745C201.164 196.504 201.361 196.308 201.601 196.308H266.059C266.299 196.308 266.496 196.504 266.496 196.745C266.496 196.985 266.299 197.182 266.059 197.182Z" fill="#B2BFDF"/>
<path d="M266.059 200.827H201.601C201.361 200.827 201.164 200.63 201.164 200.389C201.164 200.149 201.361 199.952 201.601 199.952H266.059C266.299 199.952 266.496 200.149 266.496 200.389C266.496 200.63 266.299 200.827 266.059 200.827Z" fill="#B2BFDF"/>
<path d="M266.059 204.471H201.601C201.361 204.471 201.164 204.274 201.164 204.034C201.164 203.793 201.361 203.597 201.601 203.597H266.059C266.299 203.597 266.496 203.793 266.496 204.034C266.496 204.274 266.299 204.471 266.059 204.471Z" fill="#B2BFDF"/>
<path d="M266.059 208.12H201.601C201.361 208.12 201.164 207.923 201.164 207.682C201.164 207.442 201.361 207.245 201.601 207.245H266.059C266.299 207.245 266.496 207.442 266.496 207.682C266.496 207.923 266.299 208.12 266.059 208.12Z" fill="#B2BFDF"/>
<path d="M266.059 211.764H201.601C201.361 211.764 201.164 211.568 201.164 211.327C201.164 211.087 201.361 210.89 201.601 210.89H266.059C266.299 210.89 266.496 211.087 266.496 211.327C266.496 211.568 266.299 211.764 266.059 211.764Z" fill="#B2BFDF"/>
<path d="M266.059 215.413H201.601C201.361 215.413 201.164 215.216 201.164 214.975C201.164 214.735 201.361 214.538 201.601 214.538H266.059C266.299 214.538 266.496 214.735 266.496 214.975C266.496 215.216 266.299 215.413 266.059 215.413Z" fill="#B2BFDF"/>
<path d="M266.059 219.061H201.601C201.361 219.061 201.164 218.864 201.164 218.624C201.164 218.383 201.361 218.187 201.601 218.187H266.059C266.299 218.187 266.496 218.383 266.496 218.624C266.496 218.864 266.299 219.061 266.059 219.061Z" fill="#B2BFDF"/>
<path d="M266.059 222.702H201.601C201.361 222.702 201.164 222.505 201.164 222.264C201.164 222.024 201.361 221.827 201.601 221.827H266.059C266.299 221.827 266.496 222.024 266.496 222.264C266.496 222.505 266.299 222.702 266.059 222.702Z" fill="#B2BFDF"/>
<path d="M266.059 226.35H201.601C201.361 226.35 201.164 226.153 201.164 225.913C201.164 225.672 201.361 225.476 201.601 225.476H266.059C266.299 225.476 266.496 225.672 266.496 225.913C266.496 226.153 266.299 226.35 266.059 226.35Z" fill="#B2BFDF"/>
<path d="M266.059 229.995H201.601C201.361 229.995 201.164 229.798 201.164 229.557C201.164 229.317 201.361 229.12 201.601 229.12H266.059C266.299 229.12 266.496 229.317 266.496 229.557C266.496 229.798 266.299 229.995 266.059 229.995Z" fill="#B2BFDF"/>
<path d="M266.059 233.643H201.601C201.361 233.643 201.164 233.446 201.164 233.206C201.164 232.965 201.361 232.769 201.601 232.769H266.059C266.299 232.769 266.496 232.965 266.496 233.206C266.496 233.446 266.299 233.643 266.059 233.643Z" fill="#B2BFDF"/>
<path d="M266.059 237.292H201.601C201.361 237.292 201.164 237.095 201.164 236.854C201.164 236.614 201.361 236.417 201.601 236.417H266.059C266.299 236.417 266.496 236.614 266.496 236.854C266.496 237.095 266.299 237.292 266.059 237.292Z" fill="#B2BFDF"/>
<path d="M266.059 240.936H201.601C201.361 240.936 201.164 240.739 201.164 240.499C201.164 240.258 201.361 240.062 201.601 240.062H266.059C266.299 240.062 266.496 240.258 266.496 240.499C266.496 240.739 266.299 240.936 266.059 240.936Z" fill="#B2BFDF"/>
<path d="M266.059 244.581H201.601C201.361 244.581 201.164 244.384 201.164 244.143C201.164 243.903 201.361 243.706 201.601 243.706H266.059C266.299 243.706 266.496 243.903 266.496 244.143C266.496 244.384 266.299 244.581 266.059 244.581Z" fill="#B2BFDF"/>
<path d="M266.059 248.225H201.601C201.361 248.225 201.164 248.028 201.164 247.788C201.164 247.547 201.361 247.351 201.601 247.351H266.059C266.299 247.351 266.496 247.547 266.496 247.788C266.496 248.028 266.299 248.225 266.059 248.225Z" fill="#B2BFDF"/>
<path d="M266.059 251.874H201.601C201.361 251.874 201.164 251.677 201.164 251.436C201.164 251.196 201.361 250.999 201.601 250.999H266.059C266.299 250.999 266.496 251.196 266.496 251.436C266.496 251.677 266.299 251.874 266.059 251.874Z" fill="#B2BFDF"/>
<path d="M45.4531 134.667L102.306 94.8115L156.758 134.667H45.4531Z" fill="#8296C9"/>
<path d="M177.281 148.608H29.2344V152.089H177.281V148.608Z" fill="#B2BFDF"/>
<path d="M297.017 148.608H204.992V150.349H297.017V148.608Z" fill="#CAD2EA"/>
<path d="M204.996 148.608H0.914062V150.349H204.996V148.608Z" fill="#CAD2EA"/>
<path d="M102.699 75.7334L204.992 148.609H297.016L209.212 75.7334H102.699Z" fill="#8296C9"/>
<path d="M69.4023 215.4H37.2305V174.753H69.4023V215.4ZM37.6678 214.962H68.965V175.19H37.6678V214.962Z" fill="#B2BFDF"/>
<path d="M67.3073 176.843H39.3203V213.304H67.3073V176.843Z" fill="#8296C9"/>
<g opacity="0.5">
<path d="M52.5765 180.468H42.4531V195.008H52.5765V180.468Z" fill="#CAD2EA"/>
<path d="M64.182 180.468H54.0586V195.008H64.182V180.468Z" fill="#CAD2EA"/>
<path d="M52.5765 196.319H42.4531V210.859H52.5765V196.319Z" fill="#CAD2EA"/>
<path d="M64.182 196.319H54.0586V210.859H64.182V196.319Z" fill="#CAD2EA"/>
</g>
<path d="M167.32 215.4H135.148V174.753H167.32V215.4ZM135.586 214.962H166.883V175.19H135.586V214.962Z" fill="#B2BFDF"/>
<path d="M165.225 176.843H137.238V213.304H165.225V176.843Z" fill="#8296C9"/>
<g opacity="0.5">
<path d="M150.495 180.468H140.371V195.008H150.495V180.468Z" fill="#CAD2EA"/>
<path d="M162.1 180.468H151.977V195.008H162.1V180.468Z" fill="#CAD2EA"/>
<path d="M150.495 196.319H140.371V210.859H150.495V196.319Z" fill="#CAD2EA"/>
<path d="M162.1 196.319H151.977V210.859H162.1V196.319Z" fill="#CAD2EA"/>
</g>
<path d="M121.902 237.291V170.394H80.005V237.291H121.902Z" fill="#B2BFDF"/>
<path d="M120.534 171.925H81.3828V235.766H120.534V171.925Z" fill="#8296C9"/>
<path d="M75.0942 237.292V247.236H70.625V257.176H117.433V247.236H121.907V237.292H75.0942Z" fill="#B2BFDF"/>
<path d="M117.433 247.019H70.625V247.456H117.433V247.019Z" fill="#CAD2EA"/>
<path d="M117.433 203.581C117.433 204.932 116.335 206.03 114.984 206.03C113.633 206.03 112.535 204.932 112.535 203.581C112.535 202.229 113.633 201.132 114.984 201.132C116.335 201.132 117.433 202.229 117.433 203.581Z" fill="#CAD2EA"/>
<path d="M184.691 0.209961C167.816 0.209961 154.133 13.8886 154.133 30.7682C154.133 63.5699 184.691 107.82 184.691 107.82C184.691 107.82 215.249 63.5699 215.249 30.7682C215.249 13.893 201.571 0.209961 184.691 0.209961ZM184.691 43.7647C176.33 43.7647 169.548 36.9866 169.548 28.6211C169.548 20.2556 176.326 13.4775 184.691 13.4775C193.057 13.4775 199.835 20.2556 199.835 28.6211C199.835 36.9866 193.057 43.7647 184.691 43.7647Z" fill="#B4C0DF"/>
</svg>
