<svg width="59" height="160" viewBox="0 0 59 160" fill="none" xmlns="http://www.w3.org/2000/svg">
<path d="M19.9433 68.0613C19.9433 68.0613 11.0474 95.428 9.35052 106.538C7.65366 117.649 9.82891 152.526 9.82891 152.526L13.3061 152.092L24.4665 110.9L38.4197 76.3342L19.9488 68.0668" fill="#0C3286"/>
<path d="M13.7087 151.657L9.37491 150.979L9.26367 153.21C9.26367 153.21 4.49042 153.482 1.74219 155.791L12.6461 157.237L13.7087 151.652V151.657Z" fill="#1F1949"/>
<path d="M50.6727 69.9411H50.1998L50.2165 69.8076L32.608 69.8799L30.3215 109.353C30.1046 120.586 36.8475 154.879 36.8475 154.879L40.2357 153.989L45.877 111.684L47.6684 94.415C53.8773 79.9722 50.6782 69.9411 50.6782 69.9411H50.6727Z" fill="#0C3286"/>
<path d="M40.6057 153.376H36.2218L36.4555 155.59C36.4555 155.59 31.7823 156.591 29.418 159.295L40.4109 159.056L40.6057 153.376Z" fill="#1F1949"/>
<path d="M58.5897 48.452C58.5897 48.452 54.0331 22.3203 34.8892 23.4163C21.7149 24.1674 19.5006 29.8755 19.5006 29.8755C19.5006 29.8755 13.3808 40.9357 11.4336 49.4757L18.0708 51.9069L16.4185 73.866C16.4185 73.866 43.0898 80.1973 52.175 70.3388L48.1247 50.5439L58.5897 48.4576V48.452Z" fill="#F9DD89"/>
<mask id="mask0_301_7624" style="mask-type:alpha" maskUnits="userSpaceOnUse" x="11" y="23" width="48" height="53">
<path d="M58.5897 48.4515C58.5897 48.4515 54.0331 22.3199 34.8892 23.4159C21.7149 24.1669 19.5006 29.8751 19.5006 29.8751C19.5006 29.8751 13.3808 40.9352 11.4336 49.4752L18.0708 51.9065L16.4185 73.8655C16.4185 73.8655 43.0898 80.1968 52.175 70.3383L48.1247 50.5434L58.5897 48.4571V48.4515Z" fill="#F9DD89"/>
</mask>
<g mask="url(#mask0_301_7624)">
<path d="M50.1221 50.0749L46.9121 38.8589C46.9121 38.8589 41.8159 60.7067 42.2665 66.9879C42.7227 73.269 48.1026 77.1801 48.1026 77.1801L56.6203 70.3537L50.1221 50.0749Z" fill="#F4C54E"/>
</g>
<path d="M27.7045 21.7523C21.568 22.4422 24.2384 10.375 24.2384 10.375C25.4902 2.41924 33.14 4.4054 35.5045 8.76717C36.2722 10.1859 36.3613 11.9773 35.9273 13.7743C36.0052 16.7118 36.3668 21.5242 37.8077 25.3018C37.8077 25.3018 33.7798 28.7623 30.77 28.8625C29.1009 28.9181 29.1731 24.8957 29.5626 21.3017C28.9673 21.5242 28.3498 21.68 27.7045 21.7523Z" fill="#F3AF9F"/>
<path d="M29.5578 21.3273C29.5578 21.3273 30.4758 21.0101 32.6621 19.0129C32.6621 19.0129 32.5342 23.369 29.3242 24.9155C29.3242 24.9155 29.4744 22.0338 29.5578 21.3273Z" fill="#DE8F7D"/>
<path d="M31.2779 36.1743H0V77.1771H31.2779V36.1743Z" fill="#F1CA89"/>
<path d="M46.9203 36.1743H31.2812V77.1771H46.9203V36.1743Z" fill="#F1B873"/>
<path d="M21.3234 36.1743H14.1523V46.2382H21.3234V36.1743Z" fill="#F2F3F7"/>
<path d="M31.2706 94.0208L30.7254 81.4028L23.9102 112.336L31.2706 94.0208Z" fill="#1F1949"/>
<path d="M56.98 48.7651L47.5221 50.5677L48.8185 57.7835L35.9334 75.8815L28.3281 77.1778L30.5424 78.4129C31.6106 79.0082 32.8179 79.3253 34.0418 79.3309C34.6983 79.3309 35.4383 79.3197 36.1448 79.2641C38.0531 79.1139 40.9128 77.1778 40.9128 77.1778C40.9128 77.1778 58.5156 60.5987 58.588 59.1188C58.6603 57.6389 56.98 48.7651 56.98 48.7651Z" fill="#F3AF9F"/>
<mask id="mask1_301_7624" style="mask-type:alpha" maskUnits="userSpaceOnUse" x="28" y="48" width="31" height="32">
<path d="M56.9761 48.7656L47.5182 50.5682L48.8146 57.784L35.9295 75.882L28.3242 77.1783L30.5385 78.4134C31.6067 79.0087 32.814 79.3258 34.0379 79.3314C34.6944 79.3314 35.4344 79.3202 36.1409 79.2646C38.0492 79.1144 40.9089 77.1783 40.9089 77.1783C40.9089 77.1783 58.5117 60.5991 58.5841 59.1193C58.6564 57.6394 56.9761 48.7656 56.9761 48.7656Z" fill="#DA8C8D"/>
</mask>
<g mask="url(#mask1_301_7624)">
<path d="M58.578 49.9907C58.578 49.9907 52.158 54.5525 47.496 55.6429L45.5156 49.2006L57.215 46.2466L58.578 49.9962V49.9907Z" fill="#DE8F7D"/>
</g>
<path d="M24.2617 3.39568C24.2617 3.39568 29.3188 -2.33444 34.487 1.0925C40.6955 5.20928 36.9347 9.50965 36.9347 9.50965C36.9347 9.50965 27.8444 5.21485 24.2673 3.39568H24.2617Z" fill="#F4C54E"/>
<path d="M35.4945 8.76827C35.4945 8.76827 21.1358 -0.03829 18.6824 2.83233C16.2291 5.69739 24.2289 10.3761 24.2289 10.3761C24.2289 10.3761 24.0954 3.67793 35.4945 8.76827Z" fill="#F9DD89"/>
<path d="M28.8829 6.87159C28.8829 6.87159 31.531 6.84933 36.9385 9.50855L36.0928 16.9132C35.1749 16.6295 33.901 16.8019 33.545 15.9118L32.8996 14.0982C32.8996 14.0982 34.3905 11.4891 33.3112 10.9049C31.4698 9.9091 31.7925 12.3569 31.7925 12.3569C31.7925 12.3569 28.5603 9.54193 28.8774 6.87159H28.8829Z" fill="#343766"/>
</svg>
