<svg width="269" height="196" viewBox="0 0 269 196" fill="none" xmlns="http://www.w3.org/2000/svg">
<path d="M184.129 101.767C183.87 101.767 183.601 101.762 183.322 101.747C180.998 101.643 178.031 101.114 174.965 100.261C173.728 99.9174 162.893 96.7961 163.831 93.4404C164.768 90.0847 175.653 93.0116 176.89 93.3556C179.951 94.2083 182.768 95.2903 184.808 96.4022C187.301 97.7584 188.353 98.995 188.024 100.177C187.724 101.244 186.448 101.767 184.129 101.767ZM165.606 93.934C166.045 94.7717 169.465 96.8659 175.449 98.5362C181.432 100.202 185.441 100.177 186.249 99.688C185.81 98.8553 182.389 96.7562 176.406 95.0908C170.423 93.4254 166.414 93.4504 165.606 93.939V93.934Z" fill="#1F1949"/>
<path d="M173.617 94.3923L169.558 94.9657L166.367 94.6815C166.367 94.6815 168.357 96.1823 172.066 97.4587H172.794L173.617 94.3923Z" fill="#DE8F7D"/>
<path d="M164.508 95.3957C164.508 95.3957 167.011 95.1963 168.172 95.7796C169.334 96.358 170.645 97.7839 170.645 97.7839L168.676 98.0233C168.676 98.0233 166.213 98.0233 165.405 97.1707C164.598 96.3181 164.508 95.4007 164.508 95.4007V95.3957Z" fill="#DE8F7D"/>
<path d="M230.851 153.481C230.457 153.481 230.068 153.491 229.679 153.516C229.29 153.496 228.901 153.481 228.507 153.481C216.785 153.481 207.281 162.985 207.281 174.707C207.281 186.43 216.785 195.933 228.507 195.933C228.901 195.933 229.29 195.923 229.679 195.898C230.068 195.918 230.457 195.933 230.851 195.933C242.573 195.933 252.077 186.43 252.077 174.707C252.077 162.985 242.573 153.481 230.851 153.481Z" fill="#1F1949"/>
<path d="M139.804 153.481C139.41 153.481 139.021 153.491 138.632 153.516C138.243 153.496 137.854 153.481 137.46 153.481C125.738 153.481 116.234 162.985 116.234 174.707C116.234 186.43 125.738 195.933 137.46 195.933C137.854 195.933 138.243 195.923 138.632 195.898C139.021 195.918 139.41 195.933 139.804 195.933C151.526 195.933 161.03 186.43 161.03 174.707C161.03 162.985 151.526 153.481 139.804 153.481Z" fill="#1F1949"/>
<path d="M149.272 56.5959H101.898V61.8962H149.272V56.5959Z" fill="#F9DD89"/>
<path d="M141.923 61.8977H127.902V183.769H141.923V61.8977Z" fill="#343766"/>
<path d="M127.906 61.8977H116.996V183.769H127.906V61.8977Z" fill="#1F1949"/>
<path d="M116.996 61.8977H111.746V183.769H116.996V61.8977Z" fill="#343766"/>
<path d="M248.163 124.07V150.741H180.281V183.614H258.728C263.854 183.614 268.012 179.456 268.012 174.33V132.611C268.012 127.894 264.188 124.07 259.471 124.07H248.163Z" fill="#F9DD89"/>
<path d="M244.445 195.933C256.167 195.933 265.671 186.43 265.671 174.707C265.671 162.984 256.167 153.481 244.445 153.481C232.722 153.481 223.219 162.984 223.219 174.707C223.219 186.43 232.722 195.933 244.445 195.933Z" fill="#1F1949"/>
<path d="M246.788 195.933C258.511 195.933 268.014 186.43 268.014 174.707C268.014 162.984 258.511 153.481 246.788 153.481C235.065 153.481 225.562 162.984 225.562 174.707C225.562 186.43 235.065 195.933 246.788 195.933Z" fill="#343766"/>
<path d="M246.791 162.735C246.502 162.735 246.218 162.75 245.933 162.769C252.141 163.208 257.047 168.384 257.047 174.706C257.047 181.029 252.146 186.204 245.933 186.643C246.218 186.663 246.502 186.678 246.791 186.678C253.403 186.678 258.763 181.318 258.763 174.706C258.763 168.095 253.403 162.735 246.791 162.735Z" fill="#8296C9"/>
<path d="M257.041 174.707C257.041 168.384 252.139 163.209 245.927 162.77C239.719 163.209 234.812 168.384 234.812 174.707C234.812 181.029 239.714 186.205 245.927 186.644C252.134 186.205 257.041 181.029 257.041 174.707Z" fill="#CAD2EA"/>
<path d="M237.365 49.0653H162.119C160.064 49.0653 158.239 50.3916 157.611 52.3462L141.785 101.43V140.985H161.032L180.278 150.743H248.16V65.355C248.16 62.8819 247.506 60.4536 246.27 58.3096L242.7 52.1367C241.598 50.232 239.564 49.0603 237.365 49.0603V49.0653ZM149.269 105.479L164.946 54.7794C165.2 53.9617 165.953 53.4032 166.811 53.4032H183.554C184.083 53.4032 184.472 53.9068 184.332 54.4154L170.635 105.474H149.264L149.269 105.479ZM210.754 126.68H174.205L191.876 55.8265C192.23 54.4055 193.506 53.4082 194.972 53.4082H201.016C201.983 53.4082 202.895 53.857 203.484 54.6248L209.078 61.8946C210.165 63.3057 210.754 65.0359 210.754 66.816V126.68ZM238.691 126.68H217.575V65.9135C217.575 64.293 217.086 62.7123 216.178 61.3761L210.759 53.4132H231.112C232.139 53.4132 233.101 53.9168 233.69 54.7645L236.547 58.893C237.943 60.9124 238.691 63.3057 238.691 65.7639V126.685V126.68Z" fill="#CAD2EA"/>
<path d="M127.903 70.2905H125.211V124.171H127.903V70.2905Z" fill="#CAD2EA"/>
<path d="M125.213 70.2905H120.586V124.171H125.213V70.2905Z" fill="#8296C9"/>
<path d="M127.906 124.172H16.4609V128.086H127.906V124.172Z" fill="#CAD2EA"/>
<path d="M170.64 105.477L161.032 140.983H141.785V105.477H170.64Z" fill="#CAD2EA"/>
<path d="M227.649 99.4631L214.242 99.9019L208.777 119.218L183.168 121.317V126.678H227.649L231.404 100.012L227.649 99.4631Z" fill="#F4C54E"/>
<path d="M227.649 99.4631L222.02 120.215L197.074 121.646V126.678H227.649L231.404 100.012L227.649 99.4631Z" fill="#F9DD89"/>
<path d="M268.004 136.641H253.445V150.746H268.004V136.641Z" fill="#F4C54E"/>
<path d="M174.203 126.676L169.008 145.034L180.277 150.744H197.07V126.676H174.203Z" fill="#343766"/>
<path d="M194.826 110.016L176.916 115.795L169.008 145.033L180.277 120.023L194.657 111.521L194.826 110.016Z" fill="#343766"/>
<path d="M211.626 96.5661L214.129 98.6303C214.129 98.6303 216.183 95.0903 216.447 93.0859C216.447 93.0859 215.799 98.9992 215.405 101.607C214.981 104.424 203.938 104.264 203.938 104.264C203.938 104.264 207.303 102.624 211.626 96.5661Z" fill="#F4C54E"/>
<path d="M204.8 92.1843C203.508 94.3682 200.133 98.5663 200.133 98.5663L203.269 92.663C203.792 91.6807 204.396 90.7384 205.074 89.8509L209.297 84.3215L204.949 91.9201C204.904 91.9998 204.859 92.0796 204.81 92.1644L204.8 92.1793V92.1843Z" fill="#F4C54E"/>
<path d="M204.69 64.0558C204.69 64.0558 199.505 72.2476 204.216 73.3745C208.928 74.5013 213.331 70.019 212.747 66.1698C212.169 62.3207 207.731 58.5164 204.69 64.0558Z" fill="#F3AF9F"/>
<path d="M212.649 68.1506C212.649 68.1506 210.63 73.7797 210.72 78.6909C210.72 78.6909 206.826 80.1717 204.577 79.4437C202.333 78.7158 207.783 69.7212 207.783 69.7212L212.644 68.1506H212.649Z" fill="#F3AF9F"/>
<path d="M203.891 68.5459C203.891 68.5459 205.735 68.8251 206.094 69.6229C206.448 70.4256 206.473 71.4676 206.473 71.4676L203.891 69.2888V68.5459Z" fill="#343766"/>
<path d="M203.89 68.5513L203.481 68.2372C203.142 67.9779 202.659 68.0378 202.399 68.3768L202.125 68.7258L203.89 69.2942V68.5513Z" fill="#343766"/>
<path d="M205.7 73.5553C205.7 73.5553 206.462 73.5652 208.606 72.6777C208.606 72.6777 207.844 74.6471 205.066 74.9313C205.066 74.9313 205.45 74.0539 205.7 73.5553Z" fill="#DE8F7D"/>
<path d="M210.017 64.2782L210.236 67.5091C210.266 67.9179 210.446 68.3018 210.745 68.581C210.745 68.581 210.929 67.6237 211.363 67.6537C211.797 67.6836 212.644 69.4486 210.69 70.1267L210.77 71.772C210.79 72.1958 211.014 72.5797 211.368 72.8091C211.368 72.8091 213.597 69.9173 213.946 68.3766C213.946 68.3766 212.285 65.7191 210.012 64.2732L210.017 64.2782Z" fill="#343766"/>
<path d="M203.631 63.1445C203.631 63.1445 203.117 65.5427 203.701 65.8319C203.701 65.8319 204.907 63.5085 205.5 62.8204C205.5 62.8204 204.409 62.6858 203.631 63.1445Z" fill="#343766"/>
<path d="M213.946 68.3835C213.946 68.3835 209.973 61.9766 204.054 62.4502C204.054 62.4502 204.827 58.0576 210.551 59.8526C216.275 61.6475 213.946 68.3835 213.946 68.3835Z" fill="#F4C54E"/>
<path d="M210.732 64.7885C210.732 64.7885 208.065 61.5975 202.904 62.0812C200.326 62.3255 203.637 63.1432 203.637 63.1432C203.637 63.1432 206.424 62.4002 210.732 64.7885Z" fill="#F9DD89"/>
<path d="M211.625 76.7287C211.625 76.7287 205.796 74.1708 200.675 77.691L192.328 86.0677L196.143 93.3973L198.082 102.841H215.913L216.446 93.0882C216.446 93.0882 222.784 81.9342 211.625 76.7287Z" fill="#F9DD89"/>
<mask id="mask0_301_7337" style="mask-type:alpha" maskUnits="userSpaceOnUse" x="192" y="75" width="27" height="28">
<path d="M211.625 76.7287C211.625 76.7287 205.796 74.1708 200.675 77.691L192.328 86.0677L196.143 93.3973L198.082 102.841H215.913L216.446 93.0882C216.446 93.0882 222.784 81.9342 211.625 76.7287Z" fill="#F9DD89"/>
</mask>
<g mask="url(#mask0_301_7337)">
<path d="M216.445 93.0898L212.366 97.1833L211.624 96.57L207.68 101.322H209.664L216.804 98.6791L216.445 93.0898Z" fill="#F4C54E"/>
</g>
<path d="M200.371 78.0967C200.371 78.0967 195.774 84.3291 194.916 91.0401C194.059 97.7511 194.916 91.0401 194.916 91.0401L196.462 94.959L198.406 84.6681L200.371 78.0967Z" fill="#F4C54E"/>
<path d="M194.825 110.015C195.084 95.8991 196.101 84.9944 200.375 78.0986C200.744 77.5002 201.312 77.0515 201.97 76.8022L202.364 76.6526C202.364 76.6526 199.462 84.6604 198.899 89.3523L202.429 89.9706C202.429 89.9706 209.031 79.2953 212.655 77.1662L214.256 78.1484C214.256 78.1484 204.049 87.7318 204.289 96.6869C204.533 105.642 216.25 96.7717 216.25 96.7717L217.208 109.865C217.288 110.932 217.218 112.004 217.013 113.056C216.106 117.639 212.606 121.269 208.063 122.346L188.597 126.035L171.684 146.379L169.012 145.023L176.88 122.266C178.465 117.684 182.115 114.109 186.728 112.618L194.825 110.005V110.015Z" fill="#0C3286"/>
<path d="M194.825 110.015C195.084 95.8991 196.101 84.9944 200.375 78.0986C200.744 77.5002 201.312 77.0515 201.97 76.8022L202.364 76.6526C202.364 76.6526 199.462 84.6604 198.899 89.3523L202.429 89.9706C202.429 89.9706 209.031 79.2953 212.655 77.1662L214.256 78.1484C214.256 78.1484 204.049 87.7318 204.289 96.6869C204.533 105.642 216.25 96.7717 216.25 96.7717L217.208 109.865C217.288 110.932 217.218 112.004 217.013 113.056C216.106 117.639 212.606 121.269 208.063 122.346L188.597 126.035L171.684 146.379L169.012 145.023L176.88 122.266C178.465 117.684 182.115 114.109 186.728 112.618L194.825 110.005V110.015Z" fill="#0C3286"/>
<path d="M194.824 110.012L201.051 110.426L188.098 112.181L194.824 110.012Z" fill="#343766"/>
<path d="M211.628 96.5648L205.286 91.1648L200.135 98.5642L182.245 94.4307L181.188 98.669L198.619 105.57C199.611 105.964 200.693 106.083 201.75 105.919C203.161 105.699 204.453 104.976 205.38 103.889L211.633 96.5648H211.628Z" fill="#F3AF9F"/>
<mask id="mask1_301_7337" style="mask-type:alpha" maskUnits="userSpaceOnUse" x="181" y="91" width="31" height="15">
<path d="M211.628 96.5648L205.286 91.1648L200.135 98.5642L182.245 94.4307L181.188 98.669L198.619 105.57C199.611 105.964 200.693 106.083 201.75 105.919C203.161 105.699 204.453 104.976 205.38 103.889L211.633 96.5648H211.628Z" fill="#DA8C8D"/>
</mask>
<g mask="url(#mask1_301_7337)">
<path d="M203.273 92.6621C203.273 92.6621 206.644 97.4736 211.166 97.324C215.688 97.1794 211.166 97.324 211.166 97.324L212.512 95.4543L205.078 89.8501L203.273 92.6621Z" fill="#DE8F7D"/>
</g>
<path d="M192.821 87.0134L185.721 92.9317L182.446 93.6447L182.246 94.4375L192.333 96.8058L195.713 94.2081L195.878 92.842L192.821 87.0134Z" fill="#DE8F7D"/>
<path d="M180.652 155.868L180.278 155.604V150.742L161.032 140.984H141.785V183.616H194.972C194.972 172.597 189.637 162.255 180.657 155.868H180.652Z" fill="#F4C54E"/>
<path d="M154.703 195.933C166.425 195.933 175.929 186.43 175.929 174.707C175.929 162.985 166.425 153.481 154.703 153.481C142.98 153.481 133.477 162.985 133.477 174.707C133.477 186.43 142.98 195.933 154.703 195.933Z" fill="#1F1949"/>
<path d="M157.046 195.933C168.769 195.933 178.272 186.43 178.272 174.707C178.272 162.984 168.769 153.481 157.046 153.481C145.324 153.481 135.82 162.984 135.82 174.707C135.82 186.43 145.324 195.933 157.046 195.933Z" fill="#343766"/>
<path d="M157.049 162.735C156.76 162.735 156.476 162.75 156.191 162.769C162.399 163.208 167.306 168.384 167.306 174.706C167.306 181.029 162.404 186.204 156.191 186.643C156.476 186.663 156.76 186.678 157.049 186.678C163.661 186.678 169.021 181.318 169.021 174.706C169.021 168.095 163.661 162.735 157.049 162.735Z" fill="#8296C9"/>
<path d="M167.302 174.707C167.302 168.384 162.401 163.209 156.188 162.77C149.981 163.209 145.074 168.384 145.074 174.707C145.074 181.029 149.976 186.205 156.188 186.644C162.396 186.205 167.302 181.029 167.302 174.707Z" fill="#CAD2EA"/>
<path d="M161.025 141.141H141.879V147.657H161.025V141.141Z" fill="#F9DD89"/>
<path d="M239.592 126.676H237.797V150.744H239.592V126.676Z" fill="#343766"/>
<path d="M40.3514 0.0187988H0.0234375V40.3468H40.3514V0.0187988Z" fill="#F1CA89"/>
<path d="M24.0024 0.0187988H16.3789V8.64442H24.0024V0.0187988Z" fill="#F1B873"/>
<path d="M80.6795 0.0185547H40.3516V40.3465H80.6795V0.0185547Z" fill="#F1CA89"/>
<path d="M64.3227 0.0185547H56.6992V8.64417H64.3227V0.0185547Z" fill="#F1B873"/>
<path d="M121.008 0.0185547H80.6797V40.3465H121.008V0.0185547Z" fill="#F1CA89"/>
<path d="M104.651 0.0185547H97.0273V8.64417H104.651V0.0185547Z" fill="#F1B873"/>
<path d="M40.8477 0.0187988H39.8555V40.3468H40.8477V0.0187988Z" fill="#F1B873"/>
<path d="M81.1719 0.0187988H80.1797V40.3468H81.1719V0.0187988Z" fill="#F1B873"/>
<path d="M40.3514 40.2373H0.0234375V80.5653H40.3514V40.2373Z" fill="#F1CA89"/>
<path d="M24.0024 40.2373H16.3789V48.8629H24.0024V40.2373Z" fill="#F1B873"/>
<path d="M80.6795 40.2371H40.3516V80.565H80.6795V40.2371Z" fill="#F1CA89"/>
<path d="M64.3227 40.2371H56.6992V48.8627H64.3227V40.2371Z" fill="#F1B873"/>
<path d="M121.008 40.2371H80.6797V80.565H121.008V40.2371Z" fill="#F1CA89"/>
<path d="M104.651 40.2371H97.0273V48.8627H104.651V40.2371Z" fill="#F1B873"/>
<path d="M40.8477 40.2373H39.8555V80.5653H40.8477V40.2373Z" fill="#F1B873"/>
<path d="M81.1719 40.2373H80.1797V80.5653H81.1719V40.2373Z" fill="#F1B873"/>
<path d="M40.3514 80.604H0.0234375V120.932H40.3514V80.604Z" fill="#F1CA89"/>
<path d="M24.0024 80.604H16.3789V89.2296H24.0024V80.604Z" fill="#F1B873"/>
<path d="M80.6795 80.6038H40.3516V120.932H80.6795V80.6038Z" fill="#F1CA89"/>
<path d="M64.3227 80.6038H56.6992V89.2294H64.3227V80.6038Z" fill="#F1B873"/>
<path d="M121.008 80.6038H80.6797V120.932H121.008V80.6038Z" fill="#F1CA89"/>
<path d="M104.651 80.6038H97.0273V89.2294H104.651V80.6038Z" fill="#F1B873"/>
<path d="M40.8477 80.604H39.8555V120.932H40.8477V80.604Z" fill="#F1B873"/>
<path d="M81.1719 80.604H80.1797V120.932H81.1719V80.604Z" fill="#F1B873"/>
<path d="M121.002 39.7441H0.0234375V40.7364H121.002V39.7441Z" fill="#F1B873"/>
<path d="M121.002 80.072H0.0234375V81.0643H121.002V80.072Z" fill="#F1B873"/>
<path d="M7.29287 124.062H0.0234375V131.411H7.29287V124.062Z" fill="#F1CA89"/>
<path d="M14.5625 124.062H7.29297V131.411H14.5625V124.062Z" fill="#F1B873"/>
<path d="M60.5116 124.066H53.2422V131.415H60.5116V124.066Z" fill="#F1CA89"/>
<path d="M67.7851 124.066H60.5156V131.415H67.7851V124.066Z" fill="#F1B873"/>
<path d="M113.734 124.062H106.465V131.411H113.734V124.062Z" fill="#F1CA89"/>
<path d="M121.004 124.062H113.734V131.411H121.004V124.062Z" fill="#F1B873"/>
<path d="M121.002 120.936H0.0234375V124.072H121.002V120.936Z" fill="#EFA856"/>
<path d="M121.002 131.418H0.0234375V134.26H121.002V131.418Z" fill="#F1B873"/>
</svg>
