<svg width="666" height="438" viewBox="0 0 666 438" fill="none" xmlns="http://www.w3.org/2000/svg">
<path d="M651.442 437.996H14.5938V133.075L333.015 15.5496L651.442 133.075V437.996Z" fill="#8296C9"/>
<path d="M23.6337 149.382H14.5938V437.996H23.6337V149.382Z" fill="#B2BFDF"/>
<path d="M651.438 149.382H642.398V438H651.438V149.382Z" fill="#B2BFDF"/>
<path opacity="0.3" d="M642.4 377.344H576.676V437.996H642.4V377.344Z" fill="#0C3286"/>
<path opacity="0.3" d="M547.257 274.27H477.705V338.417H471.572V299.135H429.314V338.417H410.507V374.592H372.391V312.247H352.369V276.202H310.111V312.247H282.379V374.592V374.806V437.996H410.507H500.006H554.963V338.417H547.257V274.27Z" fill="#0C3286"/>
<path d="M665.45 149.381V123.316L333.016 0.623779L0.585938 123.316V149.381H665.45Z" fill="#B2BFDF"/>
<path d="M244.71 197.799C249.871 197.799 254.054 193.615 254.054 188.455C254.054 183.295 249.871 179.112 244.71 179.112C239.55 179.112 235.367 183.295 235.367 188.455C235.367 193.615 239.55 197.799 244.71 197.799Z" fill="white"/>
<path d="M262.153 190.041C262.153 180.403 254.343 172.593 244.706 172.593C235.068 172.593 227.258 180.403 227.258 190.041H262.149H262.153Z" fill="#CAD2EA"/>
<mask id="mask0_301_7193" style="mask-type:alpha" maskUnits="userSpaceOnUse" x="227" y="172" width="36" height="19">
<path d="M262.153 190.041C262.153 180.403 254.343 172.593 244.706 172.593C235.068 172.593 227.258 180.403 227.258 190.041H262.149H262.153Z" fill="#CAD2EA"/>
</mask>
<g mask="url(#mask0_301_7193)">
<path d="M245.402 172.593C245.402 172.593 256.801 173.842 258.688 192.056H264.686C264.686 192.056 261.545 172.563 245.402 172.593Z" fill="#B2BFDF"/>
</g>
<path d="M244.71 174.28C243.779 174.28 243.027 173.523 243.027 172.597V150.943C243.027 150.012 243.784 149.26 244.71 149.26C245.636 149.26 246.392 150.017 246.392 150.943V172.597C246.392 173.528 245.636 174.28 244.71 174.28Z" fill="#CAD2EA"/>
<path d="M331.757 197.799C336.917 197.799 341.101 193.615 341.101 188.455C341.101 183.295 336.917 179.112 331.757 179.112C326.597 179.112 322.414 183.295 322.414 188.455C322.414 193.615 326.597 197.799 331.757 197.799Z" fill="white"/>
<path d="M349.204 190.041C349.204 180.403 341.394 172.593 331.756 172.593C322.119 172.593 314.309 180.403 314.309 190.041H349.199H349.204Z" fill="#CAD2EA"/>
<mask id="mask1_301_7193" style="mask-type:alpha" maskUnits="userSpaceOnUse" x="314" y="172" width="36" height="19">
<path d="M349.204 190.041C349.204 180.403 341.394 172.593 331.756 172.593C322.119 172.593 314.309 180.403 314.309 190.041H349.199H349.204Z" fill="#CAD2EA"/>
</mask>
<g mask="url(#mask1_301_7193)">
<path d="M332.453 172.593C332.453 172.593 343.852 173.842 345.739 192.056H351.737C351.737 192.056 348.596 172.563 332.453 172.593Z" fill="#B2BFDF"/>
</g>
<path d="M331.757 174.28C330.826 174.28 330.074 173.523 330.074 172.597V150.943C330.074 150.012 330.831 149.26 331.757 149.26C332.683 149.26 333.439 150.017 333.439 150.943V172.597C333.439 173.528 332.683 174.28 331.757 174.28Z" fill="#CAD2EA"/>
<path d="M418.804 197.799C423.964 197.799 428.147 193.615 428.147 188.455C428.147 183.295 423.964 179.112 418.804 179.112C413.644 179.112 409.461 183.295 409.461 188.455C409.461 193.615 413.644 197.799 418.804 197.799Z" fill="white"/>
<path d="M436.247 190.041C436.247 180.403 428.437 172.593 418.799 172.593C409.162 172.593 401.352 180.403 401.352 190.041H436.242H436.247Z" fill="#CAD2EA"/>
<mask id="mask2_301_7193" style="mask-type:alpha" maskUnits="userSpaceOnUse" x="401" y="172" width="36" height="19">
<path d="M436.247 190.041C436.247 180.403 428.437 172.593 418.799 172.593C409.162 172.593 401.352 180.403 401.352 190.041H436.242H436.247Z" fill="#CAD2EA"/>
</mask>
<g mask="url(#mask2_301_7193)">
<path d="M419.5 172.593C419.5 172.593 430.899 173.842 432.786 192.056H438.784C438.784 192.056 435.643 172.563 419.5 172.593Z" fill="#B2BFDF"/>
</g>
<path d="M418.808 174.28C417.877 174.28 417.125 173.523 417.125 172.597V150.943C417.125 150.012 417.882 149.26 418.808 149.26C419.733 149.26 420.49 150.017 420.49 150.943V172.597C420.49 173.528 419.733 174.28 418.808 174.28Z" fill="#CAD2EA"/>
<path d="M651.793 132.129L542.328 91.728V91.4045H541.447L333.372 14.6091C333.148 14.5245 332.899 14.5245 332.67 14.6091L124.595 91.4045H123.714V91.728L14.2483 132.129C13.7904 132.299 13.5166 132.771 13.6012 133.254C13.6859 133.737 14.109 134.086 14.5968 134.086H651.44C651.928 134.086 652.351 133.737 652.436 133.254C652.52 132.771 652.251 132.299 651.788 132.129H651.793ZM195.532 67.3757L262.027 42.8343V132.07H195.532V67.3807V67.3757ZM192.848 132.065H125.835V93.097L192.848 68.3664V132.065ZM265.183 41.6694L331.241 17.2873V132.065H265.183V41.6694ZM334.806 17.2873L400.863 41.6694V132.065H334.806V17.2873ZM404.014 42.8293L470.51 67.3708V132.06H404.014V42.8243V42.8293ZM473.198 68.3614L540.212 93.092V132.06H473.198V68.3614ZM123.719 93.8785V132.06H20.2618L123.719 93.8785ZM542.333 132.06V93.8735L645.79 132.06H542.333Z" fill="#CAD2EA"/>
</svg>
