<svg width="584" height="231" viewBox="0 0 584 231" fill="none" xmlns="http://www.w3.org/2000/svg">
<path d="M290.573 112.709H221.949L208.299 40.0843C207.475 35.6892 210.362 32.1252 214.757 32.1252H267.47C271.866 32.1252 276.099 35.6892 276.923 40.0843L290.573 112.709Z" fill="#F5F5F9"/>
<path d="M276.322 2.06012C276.322 2.06012 283.507 -1.29257 289.825 6.31434C293.691 10.9701 295.297 21.4366 295.959 28.8463C296.347 33.1991 292.853 36.911 288.486 36.7983L281.295 36.6152L276.329 2.06717L276.322 2.06012Z" fill="#343766"/>
<path d="M288.471 10.503C282.78 -2.30899 269.947 6.00226 268.066 14.4262C267.242 18.1311 268.996 22.1599 272.102 25.3576C272.884 29.9922 273.567 36.1834 273.053 41.8392C273.053 41.8392 281.244 45.8188 286.217 44.6073C288.971 43.9382 287.034 37.2399 284.759 31.3939C285.837 31.4573 286.914 31.415 287.985 31.2459C298.36 29.5907 288.464 10.5101 288.464 10.5101L288.471 10.503Z" fill="#F3AF9F"/>
<mask id="mask0_382_10" style="mask-type:alpha" maskUnits="userSpaceOnUse" x="267" y="3" width="26" height="42">
<path d="M288.471 10.5035C282.78 -2.30851 269.947 6.00275 268.066 14.4267C267.242 18.1315 268.996 22.1604 272.102 25.3581C272.884 29.9927 273.567 36.1839 273.053 41.8397C273.053 41.8397 281.244 45.8193 286.217 44.6078C288.971 43.9387 287.034 37.2404 284.759 31.3944C285.837 31.4577 286.914 31.4155 287.985 31.2464C298.36 29.5912 288.464 10.5106 288.464 10.5106L288.471 10.5035Z" fill="#DA8C8D"/>
</mask>
<g mask="url(#mask0_382_10)">
<path d="M284.761 31.3972C284.761 31.3972 282.838 31.2986 279.852 29.7983C279.852 29.7983 281.662 35.8275 287.099 35.3556L284.761 31.3972Z" fill="#DE8F7D"/>
</g>
<path d="M338.17 26.8591C338.17 26.8591 340.361 28.7679 340.276 29.3877C340.192 30.0005 338.466 30.9091 338.466 30.9091C338.466 30.9091 339.72 32.7756 339.22 33.2545C338.72 33.7335 337.515 33.9941 337.515 33.9941C337.515 33.9941 338.635 35.2549 337.776 35.6141C336.916 35.9733 336.036 36.1072 336.036 36.1072C336.036 36.1072 335.973 33.318 336.036 32.7967C336.099 32.2685 338.17 26.8661 338.17 26.8661V26.8591Z" fill="#F3AF9F"/>
<path d="M335.529 25.3318C335.529 25.3318 331.367 25.5361 330.859 25.691C330.352 25.8389 326.683 30.1214 326.683 30.1214L307.553 54.1958L320.203 60.6828L332.374 33.2839L334.881 31.9033L335.522 25.3318H335.529Z" fill="#F3AF9F"/>
<mask id="mask1_382_10" style="mask-type:alpha" maskUnits="userSpaceOnUse" x="307" y="25" width="29" height="36">
<path d="M335.529 25.3315C335.529 25.3315 331.367 25.5358 330.859 25.6908C330.352 25.8387 326.683 30.1211 326.683 30.1211L307.553 54.1956L320.203 60.6825L332.374 33.2836L334.881 31.9031L335.522 25.3315H335.529Z" fill="#DA8C8D"/>
</mask>
<g mask="url(#mask1_382_10)">
<path d="M308.418 52.0095L324.019 54.4818L318.588 63.2157L305.875 57.919L308.418 52.0095Z" fill="#DE8F7D"/>
</g>
<path d="M332.168 30.1509C332.168 30.1509 331.52 32.8978 329.484 33.7571L332.224 36.6449L332.168 30.1509" fill="#DE8F7D"/>
<path d="M307.24 53.3633L322.193 59.0332L314.234 74.1907L301.408 60.6743L307.24 53.3633Z" fill="#F4C54E"/>
<path d="M303.74 112.71L308.776 75.0907C308.776 75.0907 296.401 38.8874 284.427 36.9927C272.453 35.098 266.579 44.9941 265.417 52.763C264.254 60.5319 261.486 112.71 261.486 112.71H306.628" fill="#F9DD89"/>
<path d="M307.023 88.204L285.139 75.1455C285.139 75.1455 289.287 94.6277 306.029 97.5577L306.783 90.0212" fill="#F4C54E"/>
<path d="M341.925 22.8824L333.177 23.6853C332.712 23.7276 332.255 23.5304 331.973 23.1641L330.339 21.0722C330.092 20.7553 330.099 20.3115 330.353 20.0016C331.515 18.6 334.671 15.353 339.995 14.4021L341.925 22.8824V22.8824Z" fill="#8296C9"/>
<path d="M341.925 22.8824L333.177 23.6853C332.712 23.7276 332.255 23.5304 331.973 23.1641L330.339 21.0722C330.092 20.7553 330.099 20.3115 330.353 20.0016C331.515 18.6 334.671 15.353 339.995 14.4021L341.925 22.8824V22.8824Z" fill="#8296C9"/>
<path d="M338.91 23.1541L337.783 25.8376L338.459 27.5914L339.755 26.3166C339.896 26.1757 339.924 25.9573 339.819 25.7883L339.382 25.0769C339.276 24.9008 339.255 24.6825 339.34 24.4923L339.953 23.0625L338.91 23.1611V23.1541Z" fill="#0C3286"/>
<path d="M339.825 13.9618L341.733 23.1746C341.776 23.3718 341.952 23.5056 342.149 23.4845L343.839 23.3296C344.043 23.3084 344.198 23.1394 344.191 22.9351L344.029 13.5603C344.029 13.3349 343.832 13.1588 343.6 13.1799L340.163 13.4969C339.93 13.518 339.768 13.7364 339.817 13.9688L339.825 13.9618Z" fill="#0C3286"/>
<path d="M334.845 19.9865L340.952 19.423L340.607 17.7607L335.521 19.0286C335.085 19.1342 334.796 19.5428 334.838 19.9865H334.845Z" fill="#CAD2EA"/>
<path d="M338.911 23.1501L337.989 25.3547C337.862 25.6646 337.855 26.0098 337.975 26.3197L338.594 27.9326C338.658 28.0875 338.665 28.2566 338.622 28.4186L336.819 35.0183C336.474 36.272 336.833 37.6103 337.749 38.533L338.284 39.0683C338.63 39.4204 338.763 39.9276 338.622 40.4065L338.552 40.6319L331.91 39.0965C331.206 38.9345 330.755 38.2512 330.875 37.5398L333.298 23.6572L338.911 23.1431V23.1501Z" fill="#8296C9"/>
<path d="M333.296 23.6722L339.361 23.1299L338.91 24.1582L332.754 24.4823L333.296 23.6722Z" fill="#0C3286"/>
<path d="M333.033 25.4702C333.033 25.4702 336.717 30.7669 336.513 30.9289C336.308 31.0909 334.386 31.1331 334.062 30.9289C333.738 30.7246 331.103 29.7456 331.103 29.7456C331.103 29.7456 330.54 25.6181 333.033 25.4773V25.4702Z" fill="#F3AF9F"/>
<path d="M374.265 40.845L343.541 36.7105L360.319 23.2505L390.239 26.1594L374.265 40.845Z" fill="#F1CA89"/>
<path d="M374.265 40.8423L380.406 61.1837L352.254 57.507L343.541 36.7078L374.265 40.8423Z" fill="#ED963E"/>
<path d="M390.238 26.1582L395.485 45.3657L380.406 61.1852L374.264 40.8438L390.238 26.1582Z" fill="#F1B873"/>
<path d="M330.764 67.7002L357.493 59.0579V66.693L332.412 83.4L330.764 67.7002Z" fill="#F3AF9F"/>
<mask id="mask2_382_10" style="mask-type:alpha" maskUnits="userSpaceOnUse" x="330" y="59" width="28" height="25">
<path d="M330.762 67.7002L357.492 59.0579V66.693L332.41 83.4L330.762 67.7002Z" fill="#DA8C8D"/>
</mask>
<g mask="url(#mask2_382_10)">
<path d="M333.227 66.9055C333.227 66.9055 337.545 78.6681 336.848 81.4009C336.143 84.1338 330.051 83.4012 330.051 83.4012L328.297 67.7366L333.227 66.9126" fill="#DE8F7D"/>
</g>
<path d="M281.09 36.8959C286.007 36.5367 290.733 38.847 293.613 42.8406C299.713 51.3209 315.321 70.3945 317.35 70.3945C319.956 70.3945 331.141 66.2107 331.141 66.2107L333.036 84.27C333.036 84.27 314.251 91.56 310.609 90.7782C306.961 89.9964 279.132 72.0708 274.603 65.4711C267.412 55.0046 267.158 37.9031 281.09 36.8959V36.8959Z" fill="#F9DD89"/>
<path d="M317.344 70.3976C317.344 70.3976 312.97 73.1515 313.217 79.2159C313.217 79.2159 309.681 72.1443 315.753 69.3551C321.824 66.5659 315.753 69.3551 315.753 69.3551L317.344 70.3976Z" fill="#F4C54E"/>
<mask id="mask3_382_10" style="mask-type:alpha" maskUnits="userSpaceOnUse" x="269" y="36" width="65" height="55">
<path d="M281.088 36.8957C286.005 36.5365 290.731 38.8467 293.612 42.8404C299.711 51.3206 315.319 70.3943 317.348 70.3943C319.954 70.3943 331.139 66.2105 331.139 66.2105L333.034 84.2698C333.034 84.2698 314.249 91.5598 310.607 90.778C306.959 89.9961 279.13 72.0706 274.601 65.4709C267.41 55.0043 267.156 37.9029 281.088 36.8957V36.8957Z" fill="#F9DD89"/>
</mask>
<g mask="url(#mask3_382_10)">
<path d="M293.61 42.8433C293.61 42.8433 280.621 42.4488 274.888 53.3661C269.155 64.2835 274.888 53.3661 274.888 53.3661C274.888 53.3661 276.684 40.0259 292.722 40.0259L293.61 42.8433Z" fill="#F4C54E"/>
</g>
<path d="M354.996 29.1668L360.405 24.5322L368.012 25.4127L362.765 30.2022L354.996 29.1668Z" fill="#F2F3F7"/>
<path d="M355.027 60.2147L356.569 58.4608C357.372 57.5452 357.971 56.4746 358.323 55.3054L359.055 52.8824C359.091 52.7768 359.21 52.7275 359.302 52.7838C359.696 53.0163 360.591 53.5938 360.626 54.1503C360.675 54.8616 360.88 58.644 360.88 58.644L368.902 59.6934C368.902 59.6934 365.056 64.2083 364.056 64.9267C363.056 65.6451 355.696 67.0679 355.696 67.0679L355.02 60.2217L355.027 60.2147Z" fill="#F3AF9F"/>
<path d="M360.878 58.6384C360.864 59.3146 361.42 59.864 362.09 59.8428L368.337 59.6174L360.871 58.6455" fill="#DE8F7D"/>
<path d="M291.705 40.6743C291.705 40.6743 273.054 41.8364 274.181 60.6705C274.886 72.4119 278.133 94.4016 305.56 99.4024L303.743 112.7H261.496L264.757 53.2327C265.011 48.5558 266.849 44.0762 270.054 40.6531C274.315 36.103 282.88 32.7926 291.705 40.6672V40.6743Z" fill="#0C3388"/>
<path d="M282.935 2.60675C282.935 2.60675 283.604 13.1015 282.365 21.5677C281.914 24.6598 281.287 28.7943 280.667 32.7949C279.273 41.881 269.285 46.8184 261.206 42.4233C261.101 42.367 260.995 42.3036 260.882 42.2472L259.41 40.7681C256.994 38.3029 256.283 34.6262 257.607 31.4356L262.178 20.3844C262.178 20.3844 267.729 -5.64816 282.928 2.60675H282.935Z" fill="#343766"/>
<path d="M263.459 76.8164C263.459 76.8164 267.812 79.1618 278.94 80.8875C278.94 80.8875 281.391 85.3601 282.997 87.1632C282.997 87.1632 273.01 87.0223 263.1 83.402L263.459 76.8164V76.8164Z" fill="#F5F5F9"/>
<path d="M262.796 88.9429C262.796 88.9429 275.714 92.6829 288.301 92.2533C288.301 92.2533 292.618 95.3172 294.689 96.0638C294.689 96.0638 279.637 98.8248 262.451 95.1693L262.789 88.9499L262.796 88.9429Z" fill="#F5F5F9"/>
<path d="M407.261 112.709H134.736V230.934H407.261V112.709Z" fill="#CAD2EA"/>
<path d="M407.261 112.709H134.736V129.522H407.261V112.709Z" fill="#8296C9"/>
<path d="M226.771 45.4358H154.928C152.559 45.4358 150.639 47.3562 150.639 49.7252V89.2178C150.639 91.5868 152.559 93.5072 154.928 93.5072H226.771C229.14 93.5072 231.061 91.5868 231.061 89.2178V49.7252C231.061 47.3562 229.14 45.4358 226.771 45.4358Z" fill="#8296C9"/>
<path d="M201.575 68.054H180.121V112.639H201.575V68.054Z" fill="#CAD2EA"/>
<path d="M330.051 145.176H212.841C211.701 145.176 210.777 146.1 210.777 147.24V195.586C210.777 196.725 211.701 197.649 212.841 197.649H330.051C331.191 197.649 332.115 196.725 332.115 195.586V147.24C332.115 146.1 331.191 145.176 330.051 145.176Z" fill="#B2BFDF"/>
<path d="M403.054 75.2712H355.123V112.7H403.054V75.2712Z" fill="#F1CA89"/>
<path d="M383.362 75.271H374.805V81.4833H383.362V75.271Z" fill="#F2F3F7"/>
<path d="M270.142 164.525H264.566L258.694 168.473L259.351 164.579H253.677L251.531 177.307H257.205L258.232 171.226L262.521 177.307H268.249L262.736 169.522L270.142 164.525Z" fill="white"/>
<path d="M229.587 180.255H229.331L224.688 164.11H224.947L229.587 180.255Z" fill="white"/>
<path d="M230.537 180.255H230.278L225.154 164.11H225.413L230.537 180.255Z" fill="white"/>
<path d="M224.472 164.281C224.405 164.284 224.338 164.272 224.275 164.248C224.213 164.225 224.155 164.189 224.106 164.142C224.058 164.096 224.018 164.041 223.991 163.98C223.964 163.918 223.949 163.852 223.947 163.785C223.948 163.707 223.968 163.63 224.005 163.562C224.041 163.493 224.094 163.434 224.159 163.39L224.191 163.368C224.392 163.242 224.613 163.153 224.845 163.102C225.019 163.063 225.198 163.046 225.376 163.052H225.404C225.472 163.05 225.539 163.061 225.602 163.085C225.665 163.109 225.722 163.144 225.771 163.191C225.82 163.237 225.86 163.292 225.887 163.353C225.915 163.415 225.93 163.481 225.932 163.548C225.93 163.627 225.909 163.705 225.871 163.775C225.833 163.845 225.779 163.904 225.714 163.95H225.692C225.313 164.181 224.872 164.292 224.428 164.266L224.472 164.281ZM224.589 163.975C224.726 163.975 224.863 163.959 224.997 163.927C225.143 163.894 225.286 163.843 225.42 163.776V163.776C225.461 163.756 225.496 163.727 225.523 163.691C225.55 163.654 225.568 163.612 225.575 163.567C225.575 163.431 225.442 163.327 225.259 163.336H225.24C225.124 163.341 225.009 163.356 224.896 163.381C224.745 163.413 224.599 163.465 224.462 163.535H224.44C224.4 163.555 224.366 163.584 224.339 163.619C224.313 163.655 224.295 163.697 224.289 163.741C224.289 163.877 224.425 163.981 224.605 163.972" fill="white"/>
<path d="M225.571 164.766L225.457 164.535C225.642 164.536 225.828 164.52 226.01 164.488C226.829 164.369 227.655 164.299 228.482 164.279C228.482 164.279 230.587 164.304 230.909 164.349C231.795 164.473 232.674 164.643 233.542 164.857C233.542 164.857 233.934 164.974 235.875 165.066C236.668 165.116 237.464 165.1 238.255 165.019C238.255 165.019 241.214 164.649 241.514 164.605C241.514 164.605 243.432 164.535 244.238 164.605C244.405 165.475 244.638 166.332 244.934 167.168C245.243 167.864 245.63 168.522 246.087 169.131C246.087 169.131 247.131 171.065 247.352 171.789C247.593 172.632 247.786 173.488 247.93 174.352C248.227 175.389 248.67 176.377 249.245 177.289C249.245 177.289 246.565 176.849 245.525 176.872C244.467 176.877 243.413 177.001 242.383 177.241C241.272 177.623 240.098 177.787 238.925 177.725C237.941 177.672 236.961 177.556 235.992 177.377C234.807 177.301 233.619 177.294 232.433 177.355C232.433 177.355 230.331 177.586 229.73 177.93L229.569 177.725L229.5 177.561L229.743 177.586C229.655 170.364 225.925 164.943 225.925 164.943C225.883 164.883 225.83 164.833 225.769 164.794C225.708 164.756 225.639 164.73 225.568 164.718L225.571 164.766ZM243.53 174.447L238.634 170.654L242.453 167.851H239.219L236.058 170.187L235.505 167.942H232.392L234.045 174.564H237.123L236.491 171.985L239.592 174.441L243.53 174.447Z" fill="white"/>
<path d="M284.668 164.418C280.621 164.418 277.641 167.177 277.641 170.967C277.641 174.775 280.621 177.59 284.668 177.59C288.716 177.59 291.696 174.757 291.696 170.967C291.696 167.196 288.716 164.418 284.668 164.418ZM284.724 167.619C286.416 167.619 287.778 169.035 287.778 170.986C287.778 172.936 286.416 174.389 284.724 174.389C283.031 174.389 281.559 172.936 281.559 170.986C281.559 169.035 283.013 167.619 284.724 167.619Z" fill="white"/>
<path d="M305.361 177.425V164.528H301.865V171.74L296.401 164.528H293.127V177.425H296.641V170.25L302.105 177.425H305.361Z" fill="white"/>
<path d="M318.077 167.472V164.528H307.536V177.425H318.261V174.481H311.362V172.439H317.452V169.495H311.362V167.472H318.077Z" fill="white"/>
<path fill-rule="evenodd" clip-rule="evenodd" d="M275.275 173.054H270.145V170.255H275.275V173.054Z" fill="white"/>
<path d="M86.3658 154.417H22.498V230.932H86.3658V154.417Z" fill="#F1CA89"/>
<path d="M58.6685 154.417H50.1895V168.812H58.6685V154.417Z" fill="#F2F3F7"/>
<path d="M115.627 154.417H86.3672V230.932H115.627V154.417Z" fill="#F1B873"/>
<path d="M105.263 154.417H99.3223V168.812H105.263V154.417Z" fill="#F2F3F7"/>
<path d="M509.68 154.417H445.812V230.932H509.68V154.417Z" fill="#F1CA89"/>
<path d="M481.983 154.417H473.504V168.812H481.983V154.417Z" fill="#F2F3F7"/>
<path d="M538.941 154.417H509.682V230.932H538.941V154.417Z" fill="#F1B873"/>
<path d="M528.578 154.417H522.637V168.812H528.578V154.417Z" fill="#F2F3F7"/>
<path opacity="0.61" d="M51.0292 198.876H22.498V230.933H51.0292V198.876Z" fill="#F1B873"/>
<path d="M44.8974 191.02H28.4766V230.927H44.8974V191.02Z" fill="#F1B873"/>
<path d="M28.4783 191.02H0.101562V230.927H28.4783V191.02Z" fill="#F1CA89"/>
<path d="M18.2163 191.02H10.3672V198.869H18.2163V191.02Z" fill="#F2F3F7"/>
<path d="M39.8905 191.02H34.0176V198.869H39.8905V191.02Z" fill="#F2F3F7"/>
<path d="M468.212 191.02H451.791V230.927H468.212V191.02Z" fill="#F1B873"/>
<path d="M451.793 191.02H423.416V230.927H451.793V191.02Z" fill="#F1CA89"/>
<path d="M441.529 191.02H433.68V198.869H441.529V191.02Z" fill="#F2F3F7"/>
<path d="M463.205 191.02H457.332V198.869H463.205V191.02Z" fill="#F2F3F7"/>
<path d="M557.97 200.946H545.633V230.927H557.97V200.946Z" fill="#F1B873"/>
<path d="M545.632 200.946H524.312V230.927H545.632V200.946Z" fill="#F1CA89"/>
<path d="M537.92 200.946H532.023V206.843H537.92V200.946Z" fill="#F2F3F7"/>
<path d="M554.205 200.946H549.793V206.843H554.205V200.946Z" fill="#F2F3F7"/>
<path d="M583.448 200.946H571.111V230.927H583.448V200.946Z" fill="#F1B873"/>
<path d="M571.11 200.946H549.791V230.927H571.11V200.946Z" fill="#F1CA89"/>
<path d="M563.397 200.946H557.5V206.843H563.397V200.946Z" fill="#F2F3F7"/>
<path d="M579.682 200.946H575.27V206.843H579.682V200.946Z" fill="#F2F3F7"/>
</svg>
