<svg width="357" height="206" viewBox="0 0 357 206" fill="none" xmlns="http://www.w3.org/2000/svg">
<path d="M136.134 69.8008H124.09V105.81H136.134V69.8008Z" fill="#EFA856"/>
<path d="M60.3717 69.8008H49.9492V105.81H60.3717V69.8008Z" fill="#EFA856"/>
<path d="M49.9473 69.8008H15.3984V105.81H49.9473V69.8008Z" fill="#F1CA89"/>
<path d="M34.9254 69.8008H30.4219V74.3043H34.9254V69.8008Z" fill="#EFA856"/>
<path d="M124.092 69.8005H89.543V105.81H124.092V69.8005Z" fill="#F1CA89"/>
<path d="M109.07 69.8005H104.566V74.3041H109.07V69.8005Z" fill="#EFA856"/>
<path d="M179.268 80.2583H132.348V105.81H179.268V80.2583Z" fill="#F1CA89"/>
<path d="M158.865 80.2583H152.75V83.4534H158.865V80.2583Z" fill="#EFA856"/>
<path d="M83.5489 78.5552H57.3984V105.811H83.5489V78.5552Z" fill="#F1CA89"/>
<path d="M72.1769 78.5552H68.7693V81.9628H72.1769V78.5552Z" fill="#EFA856"/>
<path d="M215.201 74.3027H189.051V105.81H215.201V74.3027Z" fill="#F1CA89"/>
<path d="M203.829 74.3027H200.422V78.2423H203.829V74.3027Z" fill="#EFA856"/>
<path d="M89.6087 78.5554H83.5508V105.811H89.6087V78.5554Z" fill="#EFA856"/>
<path d="M189.048 80.2583H179.27V105.81H189.048V80.2583Z" fill="#EFA856"/>
<path d="M70.477 0.000488281H60.3708V36.0415H70.477V0.000488281Z" fill="#EFA856"/>
<path d="M60.3698 0.000732422H15.3984V36.0417H60.3698V0.000732422Z" fill="#F1CA89"/>
<path d="M40.2955 0.000732422H35.4805V4.81579H40.2955V0.000732422Z" fill="#EFA856"/>
<path d="M112.096 7.95337H67.125V36.0417H112.096V7.95337Z" fill="#F1CA89"/>
<path d="M92.0221 7.95337H87.207V12.7684H92.0221V7.95337Z" fill="#EFA856"/>
<path d="M163.819 0.000732422H118.848V36.0417H163.819V0.000732422Z" fill="#F1CA89"/>
<path d="M143.741 0.000732422H138.926V4.81579H143.741V0.000732422Z" fill="#EFA856"/>
<path d="M215.546 0.000732422H170.574V36.0417H215.546V0.000732422Z" fill="#F1CA89"/>
<path d="M195.467 0.000732422H190.652V4.81579H195.467V0.000732422Z" fill="#EFA856"/>
<path d="M112.094 7.95312H118.847V36.0415H112.094V7.95312Z" fill="#EFA856"/>
<path d="M170.573 0.000488281H163.82V36.0415H170.573V0.000488281Z" fill="#EFA856"/>
<path d="M4.53229 0H0V205.777H4.53229V0Z" fill="#39548B"/>
<path d="M226.403 36.0408H4.52734V41.6019H226.403V36.0408Z" fill="#39548B"/>
<path d="M226.403 105.838H4.52734V111.399H226.403V105.838Z" fill="#39548B"/>
<path d="M226.403 175.636H4.52734V181.197H226.403V175.636Z" fill="#39548B"/>
<path d="M230.939 0H226.406V205.777H230.939V0Z" fill="#39548B"/>
<path d="M65.5491 134.547H15.3984V175.636H65.5491V134.547Z" fill="#F1CA89"/>
<path d="M80.0879 134.547H65.5469V175.636H80.0879V134.547Z" fill="#EFA856"/>
<path d="M44.8266 134.547H37.5977V139.308H44.8266V134.547Z" fill="#EFA856"/>
<path d="M129.428 118.118H79.2771V175.636H129.428V118.118Z" fill="#F1CA89"/>
<path d="M142.871 118.118H129.429V175.636H142.871V118.118Z" fill="#EFA856"/>
<path d="M108.705 118.118H101.476V124.783H108.705V118.118Z" fill="#EFA856"/>
<path d="M193.018 128.571H142.867V175.636H193.018V128.571Z" fill="#F1CA89"/>
<path d="M206.977 128.571H193.02V175.636H206.977V128.571Z" fill="#EFA856"/>
<path d="M172.295 128.571H165.066V134.025H172.295V128.571Z" fill="#EFA856"/>
<path d="M222.436 0.000244141H215.543V36.0413H222.436V0.000244141Z" fill="#EFA856"/>
<path d="M223.059 74.303H215.199V105.81H223.059V74.303Z" fill="#EFA856"/>
<path d="M293.225 90.1367L289.383 92.9972L261.067 94.7255C261.067 94.7255 256.328 93.9216 255.909 93.9641C255.49 94.0066 248.149 96.906 248.401 97.3664C248.652 97.8269 249.071 98.1621 249.616 98.0783C250.16 97.9945 254.333 96.6227 254.333 96.6227C254.333 96.6227 253.983 98.6332 254.173 99.1361C254.364 99.639 257.417 101.549 258.339 101.214C259.261 100.879 262.477 99.7311 262.477 99.7311L289.287 101.601C291.27 101.739 293.251 101.293 294.983 100.317L299.701 97.6592L293.224 90.1367H293.225Z" fill="#F3AF9F"/>
<mask id="mask0_387_18" style="mask-type:alpha" maskUnits="userSpaceOnUse" x="248" y="90" width="52" height="12">
<path d="M293.225 90.1367L289.383 92.9972L261.067 94.7255C261.067 94.7255 256.328 93.9216 255.909 93.9641C255.49 94.0066 248.149 96.906 248.401 97.3664C248.652 97.8269 249.071 98.1621 249.616 98.0783C250.16 97.9945 254.333 96.6227 254.333 96.6227C254.333 96.6227 253.983 98.6332 254.173 99.1361C254.364 99.639 257.417 101.549 258.339 101.214C259.261 100.879 262.477 99.7311 262.477 99.7311L289.287 101.601C291.27 101.739 293.251 101.293 294.983 100.317L299.701 97.6592L293.224 90.1367H293.225Z" fill="#DA8C8D"/>
</mask>
<g mask="url(#mask0_387_18)">
<path d="M289.078 91.9064L291.396 102.73L299.073 99.0641L292.571 90.1367L289.078 91.9064Z" fill="#DE8F7D"/>
</g>
<path d="M307.813 75.1448L289.922 90.2205L298.456 100.132L309.233 93.1589L307.813 75.1448Z" fill="#F4C54E"/>
<path d="M354.792 192.829L350.174 194.51L351.673 197.714C351.673 197.714 347.486 199.454 345.949 203.122L356.83 199.161L354.792 192.829Z" fill="#1F1949"/>
<path d="M309.975 116.723C309.975 116.723 303.656 146.22 303.656 152.424C303.656 158.628 309.55 199.13 309.55 199.13H314.463L319.126 154.556L327.936 130.781L327.766 115.233L309.975 116.723Z" fill="#39548B"/>
<path d="M320.34 118.005C320.34 118.005 325.327 147.756 327.611 153.524C329.895 159.292 350.288 194.78 350.288 194.78L354.857 192.971L342.78 149.811L344.102 131.63C344.516 125.936 343.04 120.266 339.903 115.496L336.333 110.07L320.34 118.006V118.005Z" fill="#39548B"/>
<path d="M314.462 199.13H309.549L309.86 202.654C309.86 202.654 305.332 202.857 302.633 205.778H314.213L314.462 199.13Z" fill="#1F1949"/>
<path d="M324.418 140.337L322.809 131.736C322.809 131.736 316.853 147.945 316.715 153.764C316.575 159.583 317.433 170.738 317.433 170.738L319.126 154.556L324.418 140.336V140.337Z" fill="#1F1949"/>
<path d="M325.672 55.8687C325.672 55.8687 329.891 51.5869 333.304 56.6751C336.717 61.7632 334.731 79.8836 334.484 79.6357C334.236 79.3878 327.037 75.1673 326.354 73.1816C325.672 71.1959 326.044 59.506 326.044 59.506L325.672 55.8676V55.8687Z" fill="#343766"/>
<path d="M334.714 94.4314C335.69 87.6184 336.47 80.0617 335.517 77.9355C333.67 73.8165 326.765 67.9185 317.791 68.8086C317.791 68.8086 307.679 72.9654 306.401 77.5093C305.755 79.8055 306.515 87.1946 307.427 93.9427V119.813C318.739 121.113 339.921 114.482 339.921 114.482L334.714 94.4314Z" fill="#F9DD89"/>
<path d="M306.156 110.127L323.764 105.677L303.324 103.738L306.156 110.127Z" fill="#F4C54E"/>
<path d="M323.85 58.1411C323.885 57.9121 323.911 57.683 323.926 57.454C323.944 57.3041 323.956 57.2203 323.956 57.2203L323.935 57.2321C323.97 56.3207 323.846 55.4258 323.535 54.5959C321.703 49.7025 314.817 45.9412 312.36 54.0611C312.36 54.0611 307.829 66.2657 314.332 66.4369C315.022 66.4546 315.69 66.3861 316.332 66.2515C315.404 69.9396 314.752 74.1164 316.5 74.2994C319.654 74.6299 324.359 71.603 324.359 71.603C323.176 66.4912 323.62 60.4125 323.852 58.1399L323.85 58.1411Z" fill="#F3AF9F"/>
<mask id="mask1_387_18" style="mask-type:alpha" maskUnits="userSpaceOnUse" x="310" y="49" width="15" height="26">
<path d="M323.85 58.1408C323.885 57.9118 323.911 57.6828 323.926 57.4538C323.944 57.3038 323.956 57.22 323.956 57.22L323.935 57.2318C323.97 56.3204 323.846 55.4256 323.535 54.5956C321.703 49.7022 314.817 45.941 312.36 54.0608C312.36 54.0608 307.829 66.2654 314.332 66.4366C315.022 66.4543 315.69 66.3858 316.332 66.2513C315.404 69.9393 314.752 74.1161 316.5 74.2991C319.654 74.6297 324.359 71.6027 324.359 71.6027C323.176 66.4909 323.62 60.4122 323.852 58.1397L323.85 58.1408Z" fill="#DA8C8D"/>
</mask>
<g mask="url(#mask1_387_18)">
<path d="M316.333 66.2524L319.304 64.6729C319.304 64.6729 318.042 68.0976 315.207 69.1566C315.207 69.1566 315.187 66.864 316.333 66.2536" fill="#DE8F7D"/>
</g>
<path d="M306.993 106.877L292.012 89.9372L315.251 88.2349L327.934 104.92L306.993 106.877Z" fill="#343766"/>
<path d="M310.535 52.7249L327.247 59.5072C327.247 59.5072 329.253 51.3672 325.335 48.4418C322.017 45.9662 314.566 44.6628 310.535 52.7249Z" fill="#F4C54E"/>
<path d="M311.662 56.295C311.662 56.295 304.417 51.9647 307.66 51.4075C310.903 50.8502 319.298 56.295 319.298 56.295L312.433 53.8205L311.662 56.295Z" fill="#F9DD89"/>
<path d="M319.301 56.2948L319.686 55.4425C319.832 55.1166 320.209 54.962 320.542 55.0907L321.452 55.4413C321.785 55.57 321.959 55.9347 321.852 56.2747L321.563 57.1826L319.302 56.2948H319.301Z" fill="#F9DD89"/>
<path d="M323.568 58.0007L323.964 57.1543C324.115 56.8308 324.494 56.682 324.825 56.8154L325.729 57.179C326.06 57.3124 326.23 57.6796 326.116 58.0184L325.813 58.9227L323.566 58.0019L323.568 58.0007Z" fill="#F9DD89"/>
<path d="M316.501 74.3008L319.15 77.1318C319.15 77.1318 325.358 73.5559 325.15 69.5833L323.929 69.241L316.5 74.3008H316.501Z" fill="#F4C54E"/>
<path d="M315.854 73.9442L313.171 75.6785C313.171 75.6785 312.973 72.0187 314.654 70.2928L315.658 69.7839C315.658 69.7839 315.309 73.2217 315.854 73.9442Z" fill="#F4C54E"/>
<path d="M319.301 56.2949L319.629 58.6631C320.052 58.1744 320.611 57.956 321.042 58.1661C321.604 58.44 321.729 59.3396 321.322 60.1742C321.087 60.6559 320.727 61.0089 320.356 61.1718C320.543 61.4988 320.763 61.8069 321.018 62.0903L323.591 64.9437L326.626 59.2569L319.301 56.2961V56.2949Z" fill="#343766"/>
<path d="M323.849 58.1412L324.653 62.9496L323.589 64.9424L322.043 57.4045L323.849 58.1412Z" fill="white"/>
<path d="M335.513 77.9342L341.303 96.3226L327.932 98.9151L325.282 87.2701C324.449 83.6044 325.983 79.7346 329.222 77.8292C330.999 76.7844 333.157 76.4208 335.513 77.9342Z" fill="#F4C54E"/>
<path d="M339.532 96.6662L329.87 98.5398L330.178 99.7073L305.371 99.7711L306.157 104.696L316.281 106.438L332.38 108.907C335.309 109.357 338.194 107.864 339.52 105.213C340.138 103.975 340.366 102.578 340.174 101.208L339.534 96.665L339.532 96.6662Z" fill="#F3AF9F"/>
<mask id="mask2_387_18" style="mask-type:alpha" maskUnits="userSpaceOnUse" x="305" y="96" width="36" height="13">
<path d="M339.532 96.6662L329.87 98.5398L330.178 99.7073L305.371 99.7711L306.157 104.696L316.281 106.438L332.38 108.907C335.309 109.357 338.194 107.864 339.52 105.213C340.138 103.975 340.366 102.578 340.174 101.208L339.534 96.665L339.532 96.6662Z" fill="#DA8C8D"/>
</mask>
<g mask="url(#mask2_387_18)">
<path d="M330.18 99.7064C330.18 99.7064 337.844 102.91 340.931 103.031L340.24 94.9712L329.422 97.2969L330.179 99.7064" fill="#DE8F7D"/>
</g>
<path d="M307.044 99.8738C307.044 99.8738 302.24 97.476 300.231 97.5551C298.221 97.6354 302.574 99.6766 302.574 99.8738C302.574 100.071 299.701 98.6353 299.701 98.6353C299.701 98.6353 299.652 101.166 300.109 101.957C300.566 102.748 303.274 105.123 304.127 105.184C304.979 105.245 307.627 104.727 307.627 104.727L307.044 99.8726V99.8738Z" fill="#F3AF9F"/>
</svg>
