<svg width="179" height="94" viewBox="0 0 179 94" fill="none" xmlns="http://www.w3.org/2000/svg">
<rect x="0.171875" y="0.592285" width="178.523" height="74.8684" rx="20" fill="#52B36C"/>
<path d="M60.0536 42.9065H62.6936V29.3265H60.0536V32.5465H57.8136V34.6665H60.0536V36.2665H57.8136V38.3865H60.0536V42.9065ZM51.7536 32.7465H53.4736V38.4465C52.8936 38.4665 52.3136 38.4865 51.7536 38.4865V32.7465ZM57.6936 38.1265C57.1536 38.1865 56.5936 38.2465 56.0136 38.2865V32.7465H57.4736V30.6465H47.7536V32.7465H49.2136V38.5465C48.5336 38.5465 47.8936 38.5465 47.2936 38.5465L47.5736 40.6865C50.4736 40.6865 54.4336 40.6265 57.8536 40.0465L57.6936 38.1265ZM53.1936 45.3265V41.8865H50.5536V47.4265H63.1136V45.3265H53.1936ZM69.372 38.0065H75.352V30.8865H66.652V32.9865H72.652V35.9265H66.672V43.5065H68.332C71.672 43.5065 74.372 43.3865 77.372 42.8665L77.092 40.7265C74.492 41.1665 72.172 41.3065 69.372 41.3265V38.0065ZM78.372 29.3065V47.7865H81.012V29.3065H78.372ZM88.5105 41.5865C87.5105 41.5865 86.7905 40.7865 86.7905 39.4065C86.7905 38.0265 87.5105 37.2065 88.5105 37.2065C89.5105 37.2065 90.2305 38.0265 90.2305 39.4065C90.2305 40.7865 89.5105 41.5865 88.5105 41.5865ZM88.5105 35.0065C86.1505 35.0065 84.4705 36.8265 84.4705 39.4065C84.4705 41.9665 86.1505 43.7865 88.5105 43.7865C90.8705 43.7865 92.5505 41.9665 92.5505 39.4065C92.5505 36.8265 90.8705 35.0065 88.5105 35.0065ZM89.8105 29.8265H87.2105V32.1065H84.0705V34.2065H92.8705V32.1065H89.8105V29.8265ZM97.3905 29.3065V36.8265H95.9905V29.6665H93.5305V46.9665H95.9905V38.9465H97.3905V47.7265H99.8905V29.3065H97.3905ZM108.789 39.9465C109.429 40.0665 110.089 40.1265 110.809 40.1265C111.529 40.1265 112.209 40.0665 112.849 39.9465V43.4665H108.789V39.9465ZM110.809 32.3065C113.369 32.3065 115.089 33.3465 115.089 35.1865C115.089 37.0065 113.369 38.0665 110.809 38.0665C108.249 38.0665 106.549 37.0065 106.549 35.1865C106.549 33.3465 108.249 32.3065 110.809 32.3065ZM115.469 43.4665V38.9665C116.849 38.1065 117.689 36.7865 117.689 35.1865C117.689 32.1665 114.789 30.2265 110.809 30.2265C106.849 30.2265 103.949 32.1665 103.949 35.1865C103.929 36.7865 104.769 38.1065 106.169 38.9665V43.4665H102.489V45.6065H119.169V43.4665H115.469ZM127.299 40.9865H129.219L129.639 33.6065L129.739 30.8265H126.779L126.879 33.6065L127.299 40.9865ZM128.259 46.3065C129.299 46.3065 130.099 45.4665 130.099 44.3865C130.099 43.3065 129.299 42.4665 128.259 42.4665C127.219 42.4665 126.439 43.3065 126.439 44.3865C126.439 45.4665 127.219 46.3065 128.259 46.3065Z" fill="white"/>
<path d="M148.625 93.6787V75.4607H132.433L148.625 93.6787Z" fill="#52B36C"/>
</svg>
