<svg width="444" height="201" viewBox="0 0 444 201" fill="none" xmlns="http://www.w3.org/2000/svg">
<path d="M443.95 0.908203H120.91V135.278H443.95V0.908203Z" fill="#CAD2EA"/>
<path d="M443.95 135.267H120.91V155.866H443.95V135.267Z" fill="#343766"/>
<path d="M305.639 174.131C305.551 173.123 305.504 172.101 305.504 171.069C305.504 152.272 320.744 137.032 339.541 137.032C358.338 137.032 373.578 152.272 373.578 171.069C373.578 172.101 373.531 173.123 373.443 174.131H305.639Z" fill="#1F1949"/>
<path d="M369.225 171.246C369.225 154.851 355.934 141.56 339.538 141.56C323.143 141.56 309.852 154.851 309.852 171.246C309.852 187.642 323.143 200.933 339.538 200.933C355.934 200.933 369.225 187.642 369.225 171.246Z" fill="#343766"/>
<path d="M339.544 183.462C346.29 183.462 351.759 177.993 351.759 171.247C351.759 164.5 346.29 159.031 339.544 159.031C332.797 159.031 327.328 164.5 327.328 171.247C327.328 177.993 332.797 183.462 339.544 183.462Z" fill="#CAD2EA"/>
<path d="M339.546 164.245C340.469 164.245 341.217 163.497 341.217 162.574C341.217 161.651 340.469 160.903 339.546 160.903C338.623 160.903 337.875 161.651 337.875 162.574C337.875 163.497 338.623 164.245 339.546 164.245Z" fill="#343766"/>
<path d="M339.546 181.592C340.469 181.592 341.217 180.844 341.217 179.921C341.217 178.998 340.469 178.25 339.546 178.25C338.623 178.25 337.875 178.998 337.875 179.921C337.875 180.844 338.623 181.592 339.546 181.592Z" fill="#343766"/>
<path d="M332.233 166.293C332.886 166.947 333.941 166.947 334.594 166.293C335.248 165.64 335.248 164.585 334.594 163.931C333.941 163.278 332.886 163.278 332.233 163.931C331.579 164.585 331.579 165.64 332.233 166.293Z" fill="#343766"/>
<path d="M344.494 178.556C345.148 179.209 346.203 179.209 346.856 178.556C347.509 177.902 347.509 176.848 346.856 176.194C346.203 175.541 345.148 175.541 344.494 176.194C343.841 176.848 343.841 177.902 344.494 178.556Z" fill="#343766"/>
<path d="M332.408 171.887C332.76 171.037 332.357 170.062 331.506 169.71C330.656 169.358 329.681 169.762 329.329 170.612C328.977 171.462 329.381 172.437 330.231 172.789C331.081 173.141 332.056 172.737 332.408 171.887Z" fill="#343766"/>
<path d="M348.21 172.918C349.133 172.918 349.881 172.17 349.881 171.247C349.881 170.325 349.133 169.576 348.21 169.576C347.287 169.576 346.539 170.325 346.539 171.247C346.539 172.17 347.287 172.918 348.21 172.918Z" fill="#343766"/>
<path d="M334.586 178.556C335.24 177.902 335.24 176.848 334.586 176.194C333.933 175.541 332.878 175.541 332.225 176.194C331.571 176.848 331.571 177.902 332.225 178.556C332.878 179.209 333.933 179.209 334.586 178.556Z" fill="#343766"/>
<path d="M346.848 166.293C347.502 165.64 347.502 164.585 346.848 163.931C346.195 163.278 345.14 163.278 344.486 163.931C343.833 164.585 343.833 165.64 344.486 166.293C345.14 166.947 346.195 166.947 346.848 166.293Z" fill="#343766"/>
<path d="M339.54 175.706C342.005 175.706 344.002 173.708 344.002 171.244C344.002 168.779 342.005 166.781 339.54 166.781C337.076 166.781 335.078 168.779 335.078 171.244C335.078 173.708 337.076 175.706 339.54 175.706Z" fill="#343766"/>
<path d="M289.973 149.269V143.061H131.793V149.269H156.369V162.451H131.793V168.659H289.973V162.451H265.398V149.269H289.973ZM158.973 162.451V149.269H209.581V162.451H158.973ZM262.793 162.451H212.185V149.269H262.793V162.451Z" fill="#B2BFDF"/>
<path d="M437.16 6.948H127.055V128.099H437.16V6.948Z" fill="#B2BFDF"/>
<path d="M139.929 6.94434H135.051V128.095H139.929V6.94434Z" fill="#CAD2EA"/>
<path d="M151.987 6.94434H147.109V128.095H151.987V6.94434Z" fill="#CAD2EA"/>
<path d="M164.05 6.94434H159.172V128.095H164.05V6.94434Z" fill="#CAD2EA"/>
<path d="M176.104 6.94434H171.227V128.095H176.104V6.94434Z" fill="#CAD2EA"/>
<path d="M188.159 6.94434H183.281V128.095H188.159V6.94434Z" fill="#CAD2EA"/>
<path d="M200.226 6.94434H195.348V128.095H200.226V6.94434Z" fill="#CAD2EA"/>
<path d="M212.276 6.94434H207.398V128.095H212.276V6.94434Z" fill="#CAD2EA"/>
<path d="M224.335 6.94434H219.457V128.095H224.335V6.94434Z" fill="#CAD2EA"/>
<path d="M236.393 6.94434H231.516V128.095H236.393V6.94434Z" fill="#CAD2EA"/>
<path d="M248.456 6.94434H243.578V128.095H248.456V6.94434Z" fill="#CAD2EA"/>
<path d="M260.507 6.94434H255.629V128.095H260.507V6.94434Z" fill="#CAD2EA"/>
<path d="M272.573 6.94434H267.695V128.095H272.573V6.94434Z" fill="#CAD2EA"/>
<path d="M284.628 6.94434H279.75V128.095H284.628V6.94434Z" fill="#CAD2EA"/>
<path d="M296.686 6.94434H291.809V128.095H296.686V6.94434Z" fill="#CAD2EA"/>
<path d="M308.745 6.94434H303.867V128.095H308.745V6.94434Z" fill="#CAD2EA"/>
<path d="M320.804 6.94434H315.926V128.095H320.804V6.94434Z" fill="#CAD2EA"/>
<path d="M332.862 6.94434H327.984V128.095H332.862V6.94434Z" fill="#CAD2EA"/>
<path d="M344.921 6.94434H340.043V128.095H344.921V6.94434Z" fill="#CAD2EA"/>
<path d="M356.98 6.94434H352.102V128.095H356.98V6.94434Z" fill="#CAD2EA"/>
<path d="M369.034 6.94434H364.156V128.095H369.034V6.94434Z" fill="#CAD2EA"/>
<path d="M381.097 6.94434H376.219V128.095H381.097V6.94434Z" fill="#CAD2EA"/>
<path d="M393.151 6.94434H388.273V128.095H393.151V6.94434Z" fill="#CAD2EA"/>
<path d="M405.21 6.94434H400.332V128.095H405.21V6.94434Z" fill="#CAD2EA"/>
<path d="M417.268 6.94434H412.391V128.095H417.268V6.94434Z" fill="#CAD2EA"/>
<path d="M429.331 6.94434H424.453V128.095H429.331V6.94434Z" fill="#CAD2EA"/>
<path d="M443.951 149.27V143.062H383.695V149.27H398.455V162.451H383.695V168.659H443.951V162.451H434.004V149.27H443.951ZM401.47 162.451V149.27H430.993V162.451H401.47Z" fill="#B2BFDF"/>
<path d="M120.907 134.714H41.8359V155.859H120.907V134.714Z" fill="#1F1949"/>
<path d="M120.908 135.341V69.2223L117.916 39.1994C117.117 35.9227 114.027 33.7288 110.671 34.0649L50.3548 40.0256C46.5086 40.4037 43.0544 42.5369 40.9866 45.8043L11.6872 92.1175C9.35804 95.8004 8.12109 100.062 8.12109 104.417V160.533C8.12109 165.284 10.777 169.639 15.0013 171.819C16.7984 172.743 18.7915 173.229 20.8127 173.229H50.5461C50.5461 152.271 61.7114 135.28 82.6648 135.299L120.898 135.341H120.908Z" fill="#B2BFDF"/>
<path d="M64.5177 147.307H0.429688V178.006H64.5177V147.307Z" fill="#343766"/>
<path d="M16.6695 147.299V156.121C16.6695 161.536 21.0572 165.924 26.4718 165.924H58.9218V178.914H3.01172V147.425L16.6742 147.304L16.6695 147.299Z" fill="#1F1949"/>
<path d="M40.9921 45.7996C41.5382 49.1183 40.8054 52.5211 38.9476 55.3264L19.0164 85.3866C17.378 87.8605 14.6054 89.3495 11.6367 89.3495C11.6367 89.3495 38.3502 46.3037 40.9874 45.7996" fill="#CAD2EA"/>
<path d="M120.906 69.2231C118.208 75.0905 116.812 81.4666 116.812 87.9221V137.456H125.261V69.3025L120.906 69.2231Z" fill="#343766"/>
<path d="M47.4635 173.234C47.3748 172.226 47.3281 171.204 47.3281 170.172C47.3281 151.375 62.5683 136.135 81.3652 136.135C100.162 136.135 115.402 151.375 115.402 170.172C115.402 171.204 115.356 172.226 115.267 173.234H47.4635Z" fill="#1F1949"/>
<path d="M81.4055 200.907C97.8011 200.907 111.092 187.616 111.092 171.221C111.092 154.825 97.8011 141.534 81.4055 141.534C65.01 141.534 51.7188 154.825 51.7188 171.221C51.7188 187.616 65.01 200.907 81.4055 200.907Z" fill="#343766"/>
<path d="M81.3639 183.458C88.1103 183.458 93.5794 177.989 93.5794 171.243C93.5794 164.496 88.1103 159.027 81.3639 159.027C74.6175 159.027 69.1484 164.496 69.1484 171.243C69.1484 177.989 74.6175 183.458 81.3639 183.458Z" fill="#CAD2EA"/>
<path d="M81.3694 164.239C82.2897 164.239 83.0357 163.493 83.0357 162.572C83.0357 161.652 82.2897 160.906 81.3694 160.906C80.4492 160.906 79.7031 161.652 79.7031 162.572C79.7031 163.493 80.4492 164.239 81.3694 164.239Z" fill="#343766"/>
<path d="M81.3694 181.586C82.2897 181.586 83.0357 180.84 83.0357 179.919C83.0357 178.999 82.2897 178.253 81.3694 178.253C80.4492 178.253 79.7031 178.999 79.7031 179.919C79.7031 180.84 80.4492 181.586 81.3694 181.586Z" fill="#343766"/>
<path d="M74.0565 166.289C74.7099 166.942 75.7648 166.942 76.4183 166.289C77.0717 165.635 77.0717 164.581 76.4183 163.927C75.7648 163.274 74.7099 163.274 74.0565 163.927C73.403 164.581 73.403 165.635 74.0565 166.289Z" fill="#343766"/>
<path d="M86.3182 178.552C86.9717 179.205 88.0265 179.205 88.68 178.552C89.3334 177.898 89.3334 176.843 88.68 176.19C88.0265 175.536 86.9717 175.536 86.3182 176.19C85.6648 176.843 85.6648 177.898 86.3182 178.552Z" fill="#343766"/>
<path d="M72.6975 172.912C73.6178 172.912 74.3638 172.166 74.3638 171.246C74.3638 170.326 73.6178 169.58 72.6975 169.58C71.7773 169.58 71.0312 170.326 71.0312 171.246C71.0312 172.166 71.7773 172.912 72.6975 172.912Z" fill="#343766"/>
<path d="M90.0413 172.912C90.9616 172.912 91.7076 172.166 91.7076 171.246C91.7076 170.326 90.9616 169.58 90.0413 169.58C89.121 169.58 88.375 170.326 88.375 171.246C88.375 172.166 89.121 172.912 90.0413 172.912Z" fill="#343766"/>
<path d="M76.4144 178.552C77.0678 177.898 77.0678 176.843 76.4144 176.19C75.7609 175.536 74.706 175.536 74.0526 176.19C73.3991 176.843 73.3991 177.898 74.0526 178.552C74.706 179.205 75.7609 179.205 76.4144 178.552Z" fill="#343766"/>
<path d="M88.68 166.289C89.3334 165.635 89.3334 164.581 88.68 163.927C88.0265 163.274 86.9717 163.274 86.3182 163.927C85.6648 164.581 85.6648 165.635 86.3182 166.289C86.9717 166.942 88.0265 166.942 88.68 166.289Z" fill="#343766"/>
<path d="M81.3645 175.706C83.8289 175.706 85.8266 173.708 85.8266 171.244C85.8266 168.78 83.8289 166.782 81.3645 166.782C78.9001 166.782 76.9023 168.78 76.9023 171.244C76.9023 173.708 78.9001 175.706 81.3645 175.706Z" fill="#343766"/>
<path d="M6.17082 125.89H10.3529C12.2806 125.89 13.8442 127.454 13.8442 129.381V139.337C13.8442 141.265 12.2806 142.829 10.3529 142.829H6.17082C5.63406 142.829 5.19531 142.39 5.19531 141.853V126.866C5.19531 126.329 5.63406 125.89 6.17082 125.89Z" fill="white"/>
<path d="M104.569 49.4575C104.569 47.161 102.575 45.3732 100.293 45.6253L56.7429 50.3724C53.5455 50.7551 50.6842 52.5476 48.9478 55.2642L28.2884 87.6209C27.0888 89.502 28.8438 91.8732 30.991 91.2711L62.1388 91.3037C63.6931 91.3037 65.2148 90.865 66.5311 90.0388L101.292 68.1238C103.327 66.8402 104.564 64.5996 104.564 62.1911V49.4575H104.569Z" fill="#CAD2EA"/>
<path d="M90.0421 43.9424L69.154 96.025H48.7419L66.2273 47.5926L90.0421 43.9424Z" fill="url(#paint0_linear_301_7231)"/>
<path opacity="0.54" d="M104.566 49.4577L59.9934 54.8116C57.0667 55.1617 54.4435 56.7767 52.8098 59.2273L30.0592 93.3531H23.2537L52.5437 48.9396L104.57 43.2683V49.4577" fill="#8296C9"/>
<path d="M47.5964 143.148H22.0593C20.0101 143.148 18.3438 141.482 18.3438 139.433V94.0342C18.3438 92.2278 18.8759 90.4821 19.8794 88.9837L44.9172 51.7072C47.265 48.211 51.0132 45.9425 55.1955 45.4804L106.008 39.8651C107.371 39.7157 108.744 40.1545 109.766 41.0694C110.788 41.9843 111.376 43.3006 111.376 44.6729V125.929C111.376 128.491 109.29 130.573 106.732 130.573H84.9477C74.6786 130.573 64.6944 133.519 56.0731 139.087L51.6387 141.953C50.4298 142.733 49.0341 143.143 47.5964 143.143V143.148ZM106.545 40.4673C106.391 40.4673 106.237 40.4766 106.083 40.4906L55.2702 46.1059C51.27 46.5493 47.6898 48.7152 45.4446 52.0573L20.4069 89.3338C19.4687 90.7294 18.9739 92.3491 18.9739 94.0295V139.428C18.9739 141.127 20.3555 142.513 22.0593 142.513H47.5964C48.9128 142.513 50.1917 142.135 51.2933 141.421L55.7276 138.555C64.4516 132.916 74.5573 129.938 84.9477 129.938H106.732C108.945 129.938 110.746 128.137 110.746 125.924V44.6682C110.746 43.4733 110.237 42.3343 109.346 41.5362C108.571 40.8407 107.568 40.4626 106.541 40.4626L106.545 40.4673Z" fill="#343766"/>
<path d="M95.4764 99.4533H86.8836C85.6373 99.4533 84.6292 98.7859 84.6292 97.9644V96.0273H101.862L100.685 97.4276C99.6352 98.6785 97.6422 99.4533 95.4764 99.4533Z" fill="#CAD2EA"/>
<path d="M100.956 92.5112H85.5346C85.0346 92.5112 84.6292 92.9166 84.6292 93.4167V95.8532C84.6292 96.3533 85.0346 96.7587 85.5346 96.7587H100.956C101.456 96.7587 101.862 96.3533 101.862 95.8532V93.4167C101.862 92.9166 101.456 92.5112 100.956 92.5112Z" fill="#343766"/>
<path d="M36.0049 125.89H27.7947C26.3743 125.89 25.2229 127.042 25.2229 128.462V128.975C25.2229 130.396 26.3743 131.547 27.7947 131.547H36.0049C37.4252 131.547 38.5767 130.396 38.5767 128.975V128.462C38.5767 127.042 37.4252 125.89 36.0049 125.89Z" fill="white"/>
<path d="M29.8957 91.9826C31.5533 91.9826 32.897 90.639 32.897 88.9814C32.897 87.3239 31.5533 85.9802 29.8957 85.9802C28.2382 85.9802 26.8945 87.3239 26.8945 88.9814C26.8945 90.639 28.2382 91.9826 29.8957 91.9826Z" fill="#1F1949"/>
<path d="M32.0667 77.9404H33.5371V100.019H32.0667C30.6104 100.019 29.4294 98.8379 29.4294 97.3816V80.5777C29.4294 79.1214 30.6104 77.9404 32.0667 77.9404Z" fill="#343766"/>
<path d="M87.0178 119.81H84.8615L82.5903 121.337L82.8445 119.831H80.6503L79.8203 124.753H82.0145L82.4118 122.402L84.0706 124.753H86.2856L84.1537 121.743L87.0178 119.81Z" fill="white"/>
<path d="M71.3322 125.897H71.2332L69.4375 119.653H69.5377L71.3322 125.897Z" fill="white"/>
<path d="M71.6989 125.897H71.5987L69.6172 119.653H69.7174L71.6989 125.897Z" fill="white"/>
<path d="M69.3553 119.718C69.3293 119.719 69.3035 119.715 69.2792 119.706C69.2549 119.696 69.2327 119.682 69.2139 119.665C69.195 119.647 69.1799 119.625 69.1693 119.602C69.1587 119.578 69.153 119.552 69.1523 119.526C69.1526 119.496 69.1603 119.467 69.1745 119.44C69.1888 119.413 69.2093 119.391 69.2342 119.374L69.2465 119.365C69.3243 119.317 69.4099 119.282 69.4995 119.262C69.5669 119.247 69.6359 119.241 69.7049 119.243H69.7159C69.7419 119.242 69.7678 119.246 69.7921 119.256C69.8165 119.265 69.8388 119.279 69.8577 119.296C69.8767 119.314 69.8919 119.336 69.9026 119.359C69.9133 119.383 69.9192 119.409 69.92 119.435C69.9191 119.465 69.911 119.495 69.8964 119.522C69.8817 119.549 69.8609 119.573 69.8357 119.59H69.8271C69.6804 119.68 69.5098 119.722 69.3381 119.712L69.3553 119.718ZM69.4005 119.6C69.4536 119.6 69.5065 119.594 69.5582 119.581C69.6149 119.568 69.6699 119.549 69.722 119.523C69.7378 119.515 69.7515 119.504 69.7619 119.49C69.7724 119.476 69.7792 119.459 69.7819 119.442C69.7819 119.39 69.7305 119.349 69.6596 119.353H69.6523C69.6075 119.355 69.5629 119.36 69.5191 119.37C69.4609 119.383 69.4046 119.403 69.3516 119.43H69.343C69.3276 119.437 69.3141 119.449 69.3039 119.462C69.2937 119.476 69.287 119.492 69.2844 119.509C69.2844 119.562 69.3369 119.602 69.4066 119.599" fill="white"/>
<path d="M69.7823 119.907L69.7383 119.818C69.81 119.818 69.8816 119.812 69.9522 119.799C70.2689 119.753 70.5881 119.726 70.9081 119.719C70.9081 119.719 71.7222 119.728 71.8469 119.745C72.1895 119.793 72.5294 119.859 72.8652 119.942C72.8652 119.942 73.0167 119.987 73.7673 120.023C74.0741 120.042 74.382 120.036 74.6878 120.005C74.6878 120.005 75.8319 119.862 75.9481 119.844C75.9481 119.844 76.69 119.818 77.0018 119.844C77.0663 120.181 77.1562 120.513 77.2707 120.836C77.3904 121.105 77.54 121.359 77.7169 121.595C77.7169 121.595 78.1202 122.343 78.2058 122.623C78.2991 122.949 78.3738 123.28 78.4295 123.614C78.5444 124.015 78.7156 124.397 78.938 124.75C78.938 124.75 77.9014 124.58 77.4993 124.589C77.0902 124.59 76.6826 124.638 76.2842 124.732C75.8545 124.879 75.4005 124.942 74.9469 124.919C74.5663 124.898 74.1874 124.853 73.8125 124.784C73.3543 124.755 72.8947 124.752 72.4361 124.776C72.4361 124.776 71.6232 124.865 71.391 124.998L71.3286 124.919L71.3017 124.855L71.3958 124.865C71.3616 122.072 69.9192 119.975 69.9192 119.975C69.9032 119.952 69.8827 119.933 69.8589 119.918C69.8352 119.903 69.8087 119.893 69.7811 119.888L69.7823 119.907ZM76.7279 123.651L74.8344 122.184L76.3111 121.1H75.0606L73.8382 122.003L73.6243 121.135H72.4202L73.0595 123.696H74.2501L74.0057 122.699L75.2048 123.649L76.7279 123.651Z" fill="white"/>
<path d="M92.6359 119.766C91.0706 119.766 89.918 120.833 89.918 122.299C89.918 123.772 91.0706 124.86 92.6359 124.86C94.2012 124.86 95.3538 123.764 95.3538 122.299C95.3538 120.84 94.2012 119.766 92.6359 119.766ZM92.6572 121.004C93.3118 121.004 93.8383 121.552 93.8383 122.306C93.8383 123.06 93.3118 123.622 92.6572 123.622C92.0026 123.622 91.4335 123.06 91.4335 122.306C91.4335 121.552 91.9955 121.004 92.6572 121.004Z" fill="white"/>
<path d="M100.638 124.796V119.809H99.2866V122.598L97.1735 119.809H95.907V124.796H97.266V122.021L99.3791 124.796H100.638Z" fill="white"/>
<path d="M105.556 120.947V119.809H101.479V124.796H105.627V123.658H102.959V122.868H105.314V121.73H102.959V120.947H105.556Z" fill="white"/>
<path fill-rule="evenodd" clip-rule="evenodd" d="M89.0037 123.112H87.0195V122.03H89.0037V123.112Z" fill="white"/>
<defs>
<linearGradient id="paint0_linear_301_7231" x1="48.7419" y1="69.9837" x2="90.0421" y2="69.9837" gradientUnits="userSpaceOnUse">
<stop stop-color="#E1E5EF"/>
<stop offset="1" stop-color="#E1E5EF"/>
</linearGradient>
</defs>
</svg>
