<svg width="432" height="322" viewBox="0 0 432 322" fill="none" xmlns="http://www.w3.org/2000/svg">
<path d="M430.999 237.012H194.031V239.2H430.999V237.012Z" fill="#0C3286"/>
<path d="M430.999 239.2H194.031V262.295H430.999V239.2Z" fill="#CAD2EA"/>
<path d="M431.004 237.011V0.0437012L194.036 0.0437012L194.036 237.011L431.004 237.011Z" fill="#CAD2EA"/>
<path d="M423.187 7.8562H201.846V229.198H423.187V7.8562Z" fill="#8296C9"/>
<path opacity="0.3" d="M406.503 61.094H219.941V229.202H406.503V61.094Z" fill="#0C3286"/>
<path d="M208.866 246.112H202.262C201.438 246.112 200.77 246.78 200.77 247.605V256.662C200.77 257.486 201.438 258.155 202.262 258.155H208.866C209.691 258.155 210.359 257.486 210.359 256.662V247.605C210.359 246.78 209.691 246.112 208.866 246.112Z" fill="#F9DD89"/>
<path d="M218.454 246.112H211.85C211.026 246.112 210.357 246.78 210.357 247.605V256.662C210.357 257.486 211.026 258.155 211.85 258.155H218.454C219.279 258.155 219.947 257.486 219.947 256.662V247.605C219.947 246.78 219.279 246.112 218.454 246.112Z" fill="#F9DD89"/>
<path d="M228.038 246.112H221.434C220.61 246.112 219.941 246.78 219.941 247.605V256.662C219.941 257.486 220.61 258.155 221.434 258.155H228.038C228.863 258.155 229.531 257.486 229.531 256.662V247.605C229.531 246.78 228.863 246.112 228.038 246.112Z" fill="#343766"/>
<path d="M210.944 247.603H209.771V256.654H210.944V247.603Z" fill="#F4C54E"/>
<path d="M416.173 258.147H422.777C423.601 258.147 424.27 257.479 424.27 256.655V247.597C424.27 246.773 423.601 246.105 422.777 246.105H416.173C415.348 246.105 414.68 246.773 414.68 247.597V256.655C414.68 257.479 415.348 258.147 416.173 258.147Z" fill="#F9DD89"/>
<path d="M406.577 258.147H413.181C414.006 258.147 414.674 257.479 414.674 256.655V247.597C414.674 246.773 414.006 246.105 413.181 246.105H406.577C405.753 246.105 405.084 246.773 405.084 247.597V256.655C405.084 257.479 405.753 258.147 406.577 258.147Z" fill="#F9DD89"/>
<path d="M396.995 258.147H403.599C404.424 258.147 405.092 257.479 405.092 256.655V247.597C405.092 246.773 404.424 246.105 403.599 246.105H396.995C396.171 246.105 395.502 246.773 395.502 247.597V256.655C395.502 257.479 396.171 258.147 396.995 258.147Z" fill="#343766"/>
<path d="M415.262 247.603H414.09V256.654H415.262V247.603Z" fill="#F4C54E"/>
<path d="M334.967 242.943H290.066C289.265 242.943 288.615 243.592 288.615 244.393V257.089C288.615 257.889 289.265 258.539 290.066 258.539H334.967C335.768 258.539 336.417 257.889 336.417 257.089V244.393C336.417 243.592 335.768 242.943 334.967 242.943Z" fill="#F2F3F7"/>
<path d="M201.846 262.294H237.363V315.818C237.363 319.19 234.626 321.933 231.248 321.933H207.961C204.589 321.933 201.846 319.196 201.846 315.818V262.294Z" fill="#343766"/>
<path d="M236.531 262.294H272.049V315.818C272.049 319.19 269.312 321.933 265.934 321.933H242.646C239.274 321.933 236.531 319.196 236.531 315.818V262.294Z" fill="#343766"/>
<path d="M237.708 262.294H235.363V315.818H237.708V262.294Z" fill="#1F1949"/>
<path d="M354.064 262.294H389.582V315.818C389.582 319.19 386.845 321.933 383.467 321.933H360.179C356.808 321.933 354.064 319.196 354.064 315.818V262.294Z" fill="#343766"/>
<path d="M388.75 262.294H424.268V315.818C424.268 319.19 421.53 321.933 418.153 321.933H394.865C391.493 321.933 388.75 319.196 388.75 315.818V262.294Z" fill="#343766"/>
<path d="M389.919 262.294H387.574V315.818H389.919V262.294Z" fill="#1F1949"/>
<path d="M354.063 262.293H272.049V279.412H298.708C299.3 286.524 305.252 292.113 312.515 292.113C319.778 292.113 325.736 286.524 326.322 279.412H354.063V262.293Z" fill="#8296C9"/>
<path d="M331.772 28.273H293.27C287.68 28.273 283.148 23.7411 283.148 18.1519H341.893C341.893 23.7411 337.361 28.273 331.772 28.273Z" fill="#CAD2EA"/>
<path d="M345.299 16.0981H279.744V21.5001H345.299V16.0981Z" fill="#343766"/>
<path d="M185.504 228.732V7.84912L61.2163 7.84912L61.2163 228.732H185.504Z" fill="#CAD2EA"/>
<path d="M194.034 24.5283H185.496V51.9551H194.034V24.5283Z" fill="#8296C9"/>
<path d="M194.034 184.656H185.496V212.083H194.034V184.656Z" fill="#8296C9"/>
<path d="M272.047 262.294H201.846V279.412H272.047V262.294Z" fill="#1F1949"/>
<path d="M424.262 262.294H354.061V279.412H424.262V262.294Z" fill="#1F1949"/>
<path d="M304.609 78.2109H253.713V128.563H304.609V78.2109Z" fill="#F1B873"/>
<path d="M283.975 78.2109H274.355V88.9846H283.975V78.2109Z" fill="#ED963E"/>
<path d="M355.501 78.2109H304.605V128.563H355.501V78.2109Z" fill="#F1CA89"/>
<path d="M334.868 78.2109H325.248V88.9846H334.868V78.2109Z" fill="#F1B873"/>
<path d="M406.407 78.2109H355.512V128.563H406.407V78.2109Z" fill="#F1CA89"/>
<path d="M385.768 78.2109H376.148V88.9846H385.768V78.2109Z" fill="#F1B873"/>
<path d="M305.227 78.2109H303.982V128.563H305.227V78.2109Z" fill="#F1B873"/>
<path d="M356.124 78.2109H354.879V128.563H356.124V78.2109Z" fill="#F1B873"/>
<path d="M304.609 128.437H253.713V178.789H304.609V128.437Z" fill="#F1CA89"/>
<path d="M283.975 128.437H274.355V139.211H283.975V128.437Z" fill="#F1B873"/>
<path d="M355.501 128.437H304.605V178.789H355.501V128.437Z" fill="#F1CA89"/>
<path d="M334.868 128.437H325.248V139.211H334.868V128.437Z" fill="#F1B873"/>
<path d="M406.407 128.437H355.512V178.789H406.407V128.437Z" fill="#F1CA89"/>
<path d="M385.768 128.437H376.148V139.211H385.768V128.437Z" fill="#F1B873"/>
<path d="M305.227 128.437H303.982V178.789H305.227V128.437Z" fill="#F1B873"/>
<path d="M356.124 128.437H354.879V178.789H356.124V128.437Z" fill="#F1B873"/>
<path d="M304.609 178.84H253.713V229.192H304.609V178.84Z" fill="#F1CA89"/>
<path d="M283.975 178.84H274.355V189.614H283.975V178.84Z" fill="#F1B873"/>
<path d="M355.501 178.84H304.605V229.192H355.501V178.84Z" fill="#F1CA89"/>
<path d="M334.868 178.84H325.248V189.614H334.868V178.84Z" fill="#F1B873"/>
<path d="M406.407 178.84H355.512V229.192H406.407V178.84Z" fill="#F1CA89"/>
<path d="M385.768 178.84H376.148V189.614H385.768V178.84Z" fill="#F1B873"/>
<path d="M305.227 178.84H303.982V229.192H305.227V178.84Z" fill="#F1B873"/>
<path d="M356.124 178.84H354.879V229.192H356.124V178.84Z" fill="#F1B873"/>
<path d="M406.405 127.813H304.607V129.057H406.405V127.813Z" fill="#F1B873"/>
<path d="M304.608 129.129H253.712C253.332 129.129 253.023 128.821 253.023 128.44C253.023 128.06 253.332 127.751 253.712 127.751H304.608C304.989 127.751 305.297 128.06 305.297 128.44C305.297 128.821 304.989 129.129 304.608 129.129Z" fill="#ED963E"/>
<path d="M406.406 178.165H253.713V179.41H406.406V178.165Z" fill="#F1B873"/>
<path d="M53.0995 201.966C53.7427 224.79 54.9733 248.853 55.0693 252.54C55.4646 268.154 46.0605 314.543 46.0605 314.543L40.8133 314.654C40.8133 314.654 31.8268 254.71 31.1714 252.649C30.991 253.459 30.8174 254.226 30.6648 254.928C27.3424 270.191 7.09322 313.251 7.09322 313.251L2.07282 311.892L7.68468 252.771C7.68468 252.771 5.39089 230.302 6.80045 216.878C7.90519 206.384 11.7648 198.004 11.7648 198.004L53.0924 201.966L53.0995 201.966Z" fill="#0C3286"/>
<path d="M31.1895 252.67L38.2099 222.383C38.2099 222.383 38.7631 246.359 39.1745 252.557C39.5858 258.755 35.8626 282.873 35.8626 282.873L31.1895 252.67Z" fill="#1F1949"/>
<path d="M1.47493 310.99L7.76515 312.38L6.76514 315.323C6.76514 315.323 13.5376 317.507 16.1189 321.932L0.0566406 318.762L1.47493 310.99Z" fill="#1F1949"/>
<path d="M40.0227 314.046L46.4618 313.904L46.1852 316.996C46.1852 316.996 53.0852 318.244 56.6451 321.932H40.4836L40.0156 314.046H40.0227Z" fill="#1F1949"/>
<path d="M32.8473 163.609C35.4924 168.076 42.3924 176.671 42.3924 176.671L35.9747 164.594C34.9039 162.58 33.6699 160.659 32.287 158.843L23.6426 147.532L32.5353 163.077C32.6275 163.24 32.7196 163.403 32.8189 163.58L32.8402 163.616L32.8473 163.609Z" fill="#F4C54E"/>
<path d="M53.4369 205.196L50.5577 166.094L58.3583 151.095L41.2822 133.962C30.801 126.764 18.8802 131.998 18.8802 131.998C0.08777 141.983 9.01599 165.463 9.01599 165.463L9.71804 197.594C9.71804 197.594 30.7016 211.77 53.4298 205.196H53.4369Z" fill="#F9DD89"/>
<mask id="mask0_382_11" style="mask-type:alpha" maskUnits="userSpaceOnUse" x="6" y="130" width="53" height="77">
<path d="M53.4388 205.196L50.5596 166.094L58.3602 151.095L41.2841 133.962C30.8029 126.764 18.8821 131.998 18.8821 131.998C0.0897231 141.983 9.01794 165.463 9.01794 165.463L9.71999 197.594C9.71999 197.594 30.7036 211.77 53.4317 205.196H53.4388Z" fill="#F9DD89"/>
</mask>
<g mask="url(#mask0_382_11)">
<path d="M9.02465 165.461L17.3571 173.836L18.8888 172.581L26.9519 182.303L22.8885 182.296L8.28711 176.893L9.02465 165.461Z" fill="#F4C54E"/>
</g>
<path d="M41.8984 134.783C41.8984 134.783 51.3017 147.533 53.0604 161.27C54.8191 175.006 53.0604 161.27 53.0604 161.27L49.9047 169.29L45.9194 148.235L41.8984 134.79" fill="#F4C54E"/>
<path d="M113.039 152.406H60.25V205.195H113.039V152.406Z" fill="#F1B873"/>
<path d="M76.0059 194.77C67.2124 193.826 40.1584 190.756 34.6129 188.33C27.9682 185.416 18.877 172.587 18.877 172.587L32.4004 162.844C32.4004 162.844 40.1584 174.58 42.3922 176.679C44.1225 178.31 67.6591 184.863 78.0765 187.699L76.0059 194.777V194.77Z" fill="#F3AF9F"/>
<mask id="mask1_382_11" style="mask-type:alpha" maskUnits="userSpaceOnUse" x="18" y="162" width="61" height="33">
<path d="M76.0059 194.77C67.2124 193.826 40.1584 190.756 34.6129 188.33C27.9682 185.416 18.877 172.587 18.877 172.587L32.4004 162.844C32.4004 162.844 40.1584 174.58 42.3922 176.679C44.1225 178.31 67.6591 184.863 78.0765 187.699L76.0059 194.777V194.77Z" fill="#DA8C8D"/>
</mask>
<g mask="url(#mask1_382_11)">
<path d="M24.8071 175.358C23.5164 176.273 21.9917 177.088 20.4386 176.812C18.1977 176.422 16.9 173.855 17.0418 171.578C17.1765 169.38 18.3042 167.331 19.8147 165.735C21.3251 164.139 23.2186 162.948 25.1404 161.884C26.6508 161.048 28.5088 160.182 30.2462 160.842C31.0121 161.133 31.6786 161.679 32.331 162.161C32.7707 162.48 33.2671 162.849 33.416 163.402C33.5933 164.054 33.2389 164.735 32.9836 165.317C32.6503 166.083 32.2744 166.827 31.856 167.55C31.0263 168.997 30.0547 170.366 28.9555 171.614C27.7216 173.018 26.3317 174.273 24.8071 175.351V175.358Z" fill="#DE8F7D"/>
</g>
<path d="M76.646 187.3C76.9225 187.378 82.5674 186.215 83.1135 186.576C83.6595 186.938 92.0203 190.916 91.7934 191.505C91.5665 192.093 88.4462 196.206 86.9144 196.164C85.3756 196.121 74.2988 194.59 74.2988 194.59L76.6531 187.307L76.646 187.3Z" fill="#F3AF9F"/>
<path d="M90.2548 152.406H81.5039V162.831H90.2548V152.406Z" fill="white"/>
<path d="M57.3329 153.045L60.2547 156.932V175.086L50.5605 166.094L57.3329 153.045Z" fill="#F3AF9F"/>
<mask id="mask2_382_11" style="mask-type:alpha" maskUnits="userSpaceOnUse" x="50" y="153" width="11" height="23">
<path d="M57.3349 153.045L60.2567 156.931V175.085L50.5625 166.093L57.3349 153.045Z" fill="#DA8C8D"/>
</mask>
<g mask="url(#mask2_382_11)">
<path d="M48.7841 166.09C49.6989 166.792 52.4363 168.884 52.4363 168.884C57.4713 167.147 58.3081 153.879 58.3081 153.879L54.9962 150.765L48.4863 165.863C48.4863 165.863 48.5997 165.948 48.7841 166.09Z" fill="#DE8F7D"/>
</g>
<path d="M34.0415 125.136C43.6788 122.824 33.0699 106.067 33.0699 106.067C26.8436 94.742 17.7665 102.521 16.5822 110.393C16.3837 111.726 16.483 113.102 16.8163 114.449L16.7808 114.435C16.7808 114.435 16.8233 114.556 16.9013 114.775C16.9935 115.109 17.1069 115.442 17.2275 115.775C18.2912 119.087 20.8726 128.008 20.7237 136C20.7237 136 28.6945 139.028 33.2898 137.539C35.8356 136.716 33.5451 130.696 30.9992 125.491C31.9991 125.491 33.0132 125.384 34.0415 125.136Z" fill="#F3AF9F"/>
<path d="M31.0084 125.495C31.0084 125.495 29.4482 125.516 25.0586 123.694C25.0586 123.694 26.6187 127.729 32.299 128.31C32.299 128.31 31.5119 126.516 31.0084 125.495Z" fill="#DE8F7D"/>
<path d="M22.1732 106.527L21.7263 113.136C21.6696 113.973 21.3009 114.753 20.691 115.328C20.691 115.328 20.3151 113.37 19.4287 113.427C18.5423 113.484 16.8048 117.093 20.8044 118.483L20.6342 121.852C20.5917 122.717 20.1378 123.504 19.4074 123.979C19.4074 123.979 14.5143 117.136 13.791 113.994C13.791 113.994 17.5283 109.477 22.1732 106.52V106.527Z" fill="#343766"/>
<path d="M35.2199 104.203C35.2199 104.203 36.2695 109.103 35.0782 109.699C35.0782 109.699 32.6033 104.948 31.3906 103.536C31.3906 103.536 33.6315 103.26 35.2199 104.196V104.203Z" fill="#343766"/>
<path d="M14.1283 114.918C14.1283 114.918 19.0923 104.43 35.2254 104.203C35.2254 104.203 38.991 100.395 35.2254 94.4733C35.2254 94.4733 26.8929 93.9556 26.3398 97.4162C26.3398 97.4162 18.2697 99.0047 15.2488 103.501C12.2278 107.997 13.0504 112.266 14.1354 114.918H14.1283Z" fill="#343766"/>
<path d="M20.5453 131.402C20.5453 131.402 19.8362 137.607 33.2958 137.543L31.3243 143.11C31.3243 143.11 15.0565 140.23 20.5453 131.402Z" fill="white"/>
<path d="M34.0383 136.991L38.0875 138.686C38.0875 138.686 38.1441 134.445 34.2864 130.828L33.2227 130.552C33.2227 130.552 34.3148 133.963 34.0383 136.991Z" fill="white"/>
<path d="M312.159 248.127H310.114L307.961 249.575L308.202 248.147H306.121L305.334 252.815H307.415L307.791 250.585L309.364 252.815H311.465L309.443 249.96L312.159 248.127Z" fill="#231815"/>
<path d="M297.287 253.897H297.193L295.49 247.976H295.585L297.287 253.897Z" fill="#0C3388"/>
<path d="M297.636 253.897H297.541L295.662 247.976H295.757L297.636 253.897Z" fill="#0C3388"/>
<path d="M295.411 248.039C295.387 248.039 295.362 248.035 295.339 248.027C295.316 248.018 295.295 248.005 295.277 247.988C295.259 247.971 295.245 247.95 295.235 247.928C295.225 247.905 295.219 247.881 295.219 247.856C295.219 247.828 295.226 247.8 295.24 247.774C295.253 247.749 295.273 247.728 295.296 247.711L295.308 247.703C295.382 247.657 295.463 247.624 295.548 247.606C295.612 247.591 295.678 247.585 295.743 247.587H295.754C295.778 247.587 295.803 247.591 295.826 247.599C295.849 247.608 295.87 247.621 295.888 247.638C295.906 247.655 295.921 247.675 295.931 247.698C295.941 247.72 295.947 247.745 295.947 247.769C295.946 247.799 295.939 247.827 295.925 247.853C295.911 247.878 295.891 247.9 295.867 247.917H295.859C295.72 248.002 295.558 248.042 295.395 248.033L295.411 248.039ZM295.454 247.926C295.505 247.926 295.555 247.92 295.604 247.909C295.658 247.896 295.71 247.878 295.759 247.853C295.774 247.846 295.787 247.835 295.797 247.822C295.807 247.808 295.814 247.793 295.816 247.776C295.816 247.727 295.768 247.688 295.7 247.692H295.693C295.651 247.693 295.608 247.699 295.567 247.708C295.512 247.72 295.458 247.739 295.408 247.765H295.4C295.385 247.772 295.372 247.783 295.363 247.796C295.353 247.809 295.347 247.824 295.344 247.84C295.344 247.89 295.394 247.928 295.46 247.925" fill="#0C3388"/>
<path d="M295.813 248.216L295.771 248.131C295.839 248.132 295.907 248.126 295.974 248.114C296.275 248.07 296.577 248.045 296.881 248.038C296.881 248.038 297.653 248.047 297.771 248.063C298.096 248.109 298.418 248.171 298.737 248.25C298.737 248.25 298.88 248.293 299.592 248.326C299.883 248.345 300.175 248.339 300.465 248.309C300.465 248.309 301.55 248.173 301.66 248.157C301.66 248.157 302.364 248.131 302.659 248.157C302.721 248.476 302.806 248.791 302.914 249.097C303.028 249.352 303.17 249.594 303.337 249.817C303.337 249.817 303.72 250.526 303.801 250.792C303.89 251.101 303.96 251.415 304.013 251.732C304.122 252.112 304.284 252.474 304.495 252.809C304.495 252.809 303.512 252.648 303.131 252.656C302.743 252.658 302.357 252.703 301.979 252.791C301.571 252.931 301.141 252.991 300.711 252.969C300.35 252.949 299.99 252.907 299.635 252.841C299.2 252.813 298.765 252.811 298.33 252.833C298.33 252.833 297.559 252.918 297.339 253.044L297.28 252.969L297.254 252.908L297.343 252.918C297.311 250.269 295.943 248.281 295.943 248.281C295.928 248.259 295.908 248.241 295.886 248.227C295.863 248.212 295.838 248.203 295.812 248.199L295.813 248.216ZM302.4 251.767L300.604 250.376L302.004 249.347H300.818L299.659 250.204L299.456 249.381H298.315L298.921 251.81H300.05L299.818 250.864L300.955 251.764L302.4 251.767Z" fill="#0C3388"/>
<path d="M317.487 248.088C316.003 248.088 314.91 249.1 314.91 250.49C314.91 251.887 316.003 252.919 317.487 252.919C318.972 252.919 320.065 251.88 320.065 250.49C320.065 249.107 318.972 248.088 317.487 248.088ZM317.508 249.262C318.128 249.262 318.628 249.782 318.628 250.497C318.628 251.212 318.128 251.745 317.508 251.745C316.887 251.745 316.347 251.212 316.347 250.497C316.347 249.782 316.88 249.262 317.508 249.262Z" fill="#231815"/>
<path d="M325.076 252.858V248.129H323.794V250.773L321.79 248.129H320.589V252.858H321.878V250.227L323.882 252.858H325.076Z" fill="#231815"/>
<path d="M329.74 249.208V248.129H325.874V252.858H329.807V251.779H327.277V251.03H329.51V249.95H327.277V249.208H329.74Z" fill="#231815"/>
<path fill-rule="evenodd" clip-rule="evenodd" d="M314.044 251.255H312.162V250.229H314.044V251.255Z" fill="#231815"/>
</svg>
