<svg width="654" height="382" viewBox="0 0 654 382" fill="none" xmlns="http://www.w3.org/2000/svg">
<path d="M553.702 0H76.85C67.3908 0 59.7227 7.66816 59.7227 17.1273V279.129C59.7227 288.588 67.3908 296.257 76.85 296.257H553.702C563.162 296.257 570.83 288.588 570.83 279.129V17.1273C570.83 7.66816 563.162 0 553.702 0Z" fill="#B4C0DF"/>
<path d="M553.986 19.3438H76.582V253.548H553.986V19.3438Z" fill="#F2F3F7"/>
<path d="M78.2195 47.4776H51.8789L75.4809 19.3477H99.3673L78.2195 47.4776Z" fill="#F9DD89"/>
<path d="M104.559 47.4776H78.2188L99.3665 19.3477H123.249L104.559 47.4776Z" fill="white"/>
<path d="M130.899 47.4776H104.559L123.248 19.3477H147.134L130.899 47.4776Z" fill="#F9DD89"/>
<path d="M157.243 47.4776H130.902L147.137 19.3477H171.019L157.243 47.4776Z" fill="white"/>
<path d="M183.579 47.4776H157.238L171.015 19.3477H194.896L183.579 47.4776Z" fill="#F9DD89"/>
<path d="M209.923 47.4776H183.582L194.9 19.3477H218.786L209.923 47.4776Z" fill="white"/>
<path d="M236.266 47.4776H209.926L218.789 19.3477H242.671L236.266 47.4776Z" fill="#F9DD89"/>
<path d="M262.606 47.4776H236.266L242.67 19.3477H266.557L262.606 47.4776Z" fill="white"/>
<path d="M288.942 47.4776H262.605L266.556 19.3477H290.438L288.942 47.4776Z" fill="#F9DD89"/>
<path d="M315.282 47.4776H288.941L290.438 19.3477H314.32L315.282 47.4776Z" fill="white"/>
<path d="M341.619 47.4776H315.279L314.316 19.3477H338.203L341.619 47.4776Z" fill="#F9DD89"/>
<path d="M367.96 47.4776H341.62L338.203 19.3477H362.085L367.96 47.4776Z" fill="white"/>
<path d="M394.302 47.4776H367.961L362.086 19.3477H385.968L394.302 47.4776Z" fill="#F9DD89"/>
<path d="M420.647 47.4776H394.307L385.973 19.3477H409.859L420.647 47.4776Z" fill="white"/>
<path d="M446.984 47.4776H420.644L409.855 19.3477H433.737L446.984 47.4776Z" fill="#F9DD89"/>
<path d="M473.326 47.4776H446.985L433.738 19.3477H457.625L473.326 47.4776Z" fill="white"/>
<path d="M499.667 47.4776H473.326L457.625 19.3477H481.507L499.667 47.4776Z" fill="#F9DD89"/>
<path d="M526 47.4776H499.664L481.504 19.3477H505.386L526 47.4776Z" fill="white"/>
<path d="M552.341 47.4776H526.001L505.387 19.3477H529.273L552.341 47.4776Z" fill="#F9DD89"/>
<path d="M578.682 47.4776H552.342L529.273 19.3477H553.155L578.682 47.4776Z" fill="white"/>
<path d="M65.0483 77.44C57.8124 77.44 51.9414 71.5734 51.9414 64.3331V47.4727H78.1508V64.3331C78.1508 71.569 72.2842 77.44 65.0439 77.44H65.0483Z" fill="#FFC702"/>
<path d="M78.2817 47.4727H104.491V64.3331C104.491 71.5646 98.6201 77.44 91.3842 77.44C84.1527 77.44 78.2773 71.569 78.2773 64.3331V47.4727H78.2817Z" fill="#E6E7E8"/>
<path d="M117.732 77.44C110.496 77.44 104.625 71.5734 104.625 64.3331V47.4727H130.834V64.3331C130.834 71.569 124.968 77.44 117.728 77.44H117.732Z" fill="#FFC702"/>
<path d="M130.965 47.4727H157.175V64.3331C157.175 71.5646 151.304 77.44 144.068 77.44C136.836 77.44 130.961 71.569 130.961 64.3331V47.4727H130.965Z" fill="#E6E7E8"/>
<path d="M170.408 77.44C163.172 77.44 157.301 71.5734 157.301 64.3331V47.4727H183.51V64.3331C183.51 71.569 177.644 77.44 170.403 77.44H170.408Z" fill="#FFC702"/>
<path d="M183.649 47.4727H209.858V64.3331C209.858 71.5646 203.987 77.44 196.751 77.44C189.52 77.44 183.645 71.569 183.645 64.3331V47.4727H183.649Z" fill="#E6E7E8"/>
<path d="M209.985 47.4727H236.194V64.3331C236.194 71.5646 230.323 77.44 223.087 77.44C215.856 77.44 209.98 71.569 209.98 64.3331V47.4727H209.985Z" fill="#FFC702"/>
<path d="M249.427 77.44C242.191 77.44 236.32 71.5734 236.32 64.3331V47.4727H262.53V64.3331C262.53 71.569 256.663 77.44 249.423 77.44H249.427Z" fill="#E6E7E8"/>
<path d="M262.665 47.4727H288.874V64.3331C288.874 71.5646 283.003 77.44 275.767 77.44C268.536 77.44 262.66 71.569 262.66 64.3331V47.4727H262.665Z" fill="#FFC702"/>
<path d="M302.111 77.44C294.875 77.44 289.004 71.5734 289.004 64.3331V47.4727H315.213V64.3331C315.213 71.569 309.347 77.44 302.106 77.44H302.111Z" fill="#E6E7E8"/>
<path d="M315.344 47.4727H341.554V64.3331C341.554 71.5646 335.683 77.44 328.447 77.44C321.215 77.44 315.34 71.569 315.34 64.3331V47.4727H315.344Z" fill="#FFC702"/>
<path d="M354.791 77.44C347.555 77.44 341.684 71.5734 341.684 64.3331V47.4727H367.893V64.3331C367.893 71.569 362.026 77.44 354.786 77.44H354.791Z" fill="#E6E7E8"/>
<path d="M368.024 47.4727H394.233V64.3331C394.233 71.5646 388.362 77.44 381.126 77.44C373.895 77.44 368.02 71.569 368.02 64.3331V47.4727H368.024Z" fill="#FFC702"/>
<path d="M407.466 77.44C400.23 77.44 394.359 71.5734 394.359 64.3331V47.4727H420.569V64.3331C420.569 71.569 414.702 77.44 407.462 77.44H407.466Z" fill="#E6E7E8"/>
<path d="M420.708 47.4727H446.917V64.3331C446.917 71.5646 441.046 77.44 433.81 77.44C426.579 77.44 420.703 71.569 420.703 64.3331V47.4727H420.708Z" fill="#FFC702"/>
<path d="M460.154 77.44C452.918 77.44 447.047 71.5734 447.047 64.3331V47.4727H473.256V64.3331C473.256 71.569 467.39 77.44 460.149 77.44H460.154Z" fill="#E6E7E8"/>
<path d="M473.387 47.4727H499.597V64.3331C499.597 71.5646 493.726 77.44 486.49 77.44C479.258 77.44 473.383 71.569 473.383 64.3331V47.4727H473.387Z" fill="#FFC702"/>
<path d="M499.723 47.4727H525.932V64.3331C525.932 71.5646 520.062 77.44 512.826 77.44C505.594 77.44 499.719 71.569 499.719 64.3331V47.4727H499.723Z" fill="#E6E7E8"/>
<path d="M526.063 47.4727H552.272V64.3331C552.272 71.5646 546.401 77.44 539.165 77.44C531.934 77.44 526.059 71.569 526.059 64.3331V47.4727H526.063Z" fill="#FFC702"/>
<path d="M552.403 47.4727H578.612V64.3331C578.612 71.5646 572.741 77.44 565.505 77.44C558.274 77.44 552.398 71.569 552.398 64.3331V47.4727H552.403Z" fill="#E6E7E8"/>
<path d="M439.714 96.0872H394.479C389.371 96.0872 385.23 100.228 385.23 105.335V150.571C385.23 155.679 389.371 159.819 394.479 159.819H439.714C444.822 159.819 448.962 155.679 448.962 150.571V105.335C448.962 100.228 444.822 96.0872 439.714 96.0872Z" fill="#E1E6F2"/>
<path d="M514.777 96.0872H469.541C464.434 96.0872 460.293 100.228 460.293 105.335V150.571C460.293 155.679 464.434 159.819 469.541 159.819H514.777C519.884 159.819 524.025 155.679 524.025 150.571V105.335C524.025 100.228 519.884 96.0872 514.777 96.0872Z" fill="#E1E6F2"/>
<path d="M439.718 173.233H394.474C389.369 173.233 385.23 177.371 385.23 182.477V227.721C385.23 232.826 389.369 236.965 394.474 236.965H439.718C444.824 236.965 448.962 232.826 448.962 227.721V182.477C448.962 177.371 444.824 173.233 439.718 173.233Z" fill="#E1E6F2"/>
<path d="M514.781 173.233H469.537C464.432 173.233 460.293 177.371 460.293 182.477V227.721C460.293 232.826 464.432 236.965 469.537 236.965H514.781C519.886 236.965 524.025 232.826 524.025 227.721V182.477C524.025 177.371 519.886 173.233 514.781 173.233Z" fill="#E1E6F2"/>
<path d="M365.066 95.5205H319.83C314.723 95.5205 310.582 99.6611 310.582 104.769V150.004C310.582 155.112 314.723 159.252 319.83 159.252H365.066C370.173 159.252 374.314 155.112 374.314 150.004V104.769C374.314 99.6611 370.173 95.5205 365.066 95.5205Z" fill="#E1E6F2"/>
<path d="M365.066 172.666H319.83C314.723 172.666 310.582 176.807 310.582 181.915V227.15C310.582 232.258 314.723 236.398 319.83 236.398H365.066C370.173 236.398 374.314 232.258 374.314 227.15V181.915C374.314 176.807 370.173 172.666 365.066 172.666Z" fill="#E1E6F2"/>
<path d="M289.209 95.5247H115.293C110.458 95.5247 106.539 99.4439 106.539 104.279V227.643C106.539 232.478 110.458 236.397 115.293 236.397H289.209C294.043 236.397 297.963 232.478 297.963 227.643V104.279C297.963 99.4439 294.043 95.5247 289.209 95.5247Z" fill="#E1E6F2"/>
<path d="M362.572 296.26H267.98V372.483H362.572V296.26Z" fill="#8296C9"/>
<path d="M373.936 372.479H256.626C255.351 372.479 254.316 373.514 254.316 374.789V379.545C254.316 380.821 255.351 381.855 256.626 381.855H373.936C375.212 381.855 376.246 380.821 376.246 379.545V374.789C376.246 373.514 375.212 372.479 373.936 372.479Z" fill="#B4C0DF"/>
<path d="M315.276 13.8161C317.869 13.8161 319.97 11.7144 319.97 9.12189C319.97 6.52938 317.869 4.42773 315.276 4.42773C312.684 4.42773 310.582 6.52938 310.582 9.12189C310.582 11.7144 312.684 13.8161 315.276 13.8161Z" fill="#8296C9"/>
<path d="M259.508 147.017C259.591 146.571 259.473 146.107 259.18 145.757C258.887 145.407 258.458 145.202 258.003 145.202H222.878V131.754C222.878 125.275 217.606 120.007 211.132 120.007H190.338C183.859 120.007 178.592 125.279 178.592 131.754V145.202H141.424C140.964 145.202 140.531 145.407 140.243 145.762C139.95 146.116 139.836 146.58 139.923 147.03L144.197 168.778L153.529 216.24C153.669 216.957 154.299 217.473 155.029 217.473H183.352C183.597 217.635 183.886 217.731 184.196 217.731C184.227 217.731 184.257 217.731 184.288 217.731C184.568 217.714 184.817 217.622 185.036 217.478H216.714C216.871 217.548 217.042 217.591 217.226 217.605C217.256 217.605 217.287 217.605 217.318 217.605C217.532 217.605 217.738 217.556 217.921 217.478H244.94C245.675 217.478 246.31 216.953 246.445 216.231L250.728 193.556L259.513 147.026L259.508 147.017ZM184.306 191.71L183.041 169.998H218.455L217.191 191.71H184.301H184.306ZM217.016 194.773L215.874 214.411H185.627L184.485 194.773H217.016ZM147.557 169.998H179.974L181.239 191.71H151.827L147.557 169.998ZM219.719 148.264L218.635 166.936H182.866L181.781 148.264H219.724H219.719ZM221.522 169.998H252.054L247.954 191.71H220.262L221.526 169.998H221.522ZM252.631 166.936H221.701L222.786 148.264H256.157L252.631 166.936ZM181.654 131.754C181.654 126.963 185.552 123.07 190.338 123.07H211.132C215.922 123.07 219.816 126.968 219.816 131.754V145.075H181.65V131.754H181.654ZM178.71 148.264L179.795 166.936H146.954L143.283 148.264H178.71ZM152.426 194.773H181.414L182.556 214.411H156.285L152.426 194.773ZM243.667 214.411H218.941L220.083 194.773H247.377L243.667 214.411Z" fill="white"/>
<path d="M258.376 161.767C267.021 161.767 274.029 154.759 274.029 146.114C274.029 137.469 267.021 130.461 258.376 130.461C249.731 130.461 242.723 137.469 242.723 146.114C242.723 154.759 249.731 161.767 258.376 161.767Z" fill="#8296C9"/>
<path d="M256.898 151.35L251.031 144.192C250.572 143.632 250.655 142.806 251.215 142.346C251.775 141.887 252.602 141.97 253.061 142.53L257.125 147.487L266.667 138.3C267.187 137.796 268.019 137.814 268.522 138.334C269.025 138.855 269.007 139.686 268.487 140.189L256.894 151.35H256.898Z" fill="white"/>
<path d="M641.686 254.098C638.354 251.019 633.986 249.314 629.451 249.314H496.355C488.82 249.314 482.147 254.181 479.83 261.361L467.494 299.594L464.004 310.408L465.241 341.557H635.726L633.491 314.453L646.466 273.479C648.897 266.644 647.017 259.017 641.686 254.102V254.098Z" fill="#8296C9"/>
<path d="M628.059 339.409L599.469 331.35L622.947 256.712C623.328 255.51 623.914 254.421 624.657 253.476C628.265 248.893 635.257 248.198 639.976 251.762L653.781 262.196L628.064 339.409H628.059Z" fill="#B4C0DF"/>
<path d="M413.354 306.357H465.283C469.945 306.357 473.732 310.144 473.732 314.805V381.777H403.812V315.903C403.812 310.633 408.089 306.357 413.359 306.357H413.354Z" fill="#CAD2EA"/>
<path d="M637.744 381.781H567.824V327.036C567.824 315.618 577.082 306.365 588.5 306.365H619.561C629.606 306.365 637.748 314.507 637.748 324.552V381.785L637.744 381.781Z" fill="#CAD2EA"/>
<path d="M595.682 306.365H577.04C571.95 306.365 567.822 310.493 567.822 315.583V341.558H440.879V315.583C440.879 310.493 436.751 306.365 431.661 306.365H413.019C407.929 306.365 403.801 310.493 403.801 315.583V381.785H604.887V315.583C604.887 310.493 600.759 306.365 595.669 306.365H595.682Z" fill="#B4C0DF"/>
<path d="M515.658 244.449C515.658 244.449 503.082 257.38 501.73 275.808L517.241 277.531C517.241 277.531 525.76 248.062 515.658 244.449V244.449Z" fill="#FFC702"/>
<path d="M542.708 236.293C542.708 236.293 561.197 243.893 563.537 252.206C565.876 260.519 559.08 308.329 559.08 308.329L516.497 310.034C516.497 310.034 508.218 261.49 511.594 253.96C514.97 246.429 526.292 234.671 542.704 236.297L542.708 236.293Z" fill="#F9DD89"/>
<path d="M527.13 198.289C525.796 199.234 525.052 200.777 524.112 202.111C521.152 206.322 515.895 208.955 514.295 213.844C513.132 217.403 514.225 221.33 513.49 225.003C513.005 227.43 511.754 229.621 510.779 231.895C509.804 234.169 509.091 236.719 509.764 239.102C510.482 241.66 512.651 243.532 514.863 244.997C517.435 246.698 520.907 248.053 523.461 246.33C525.708 244.813 526.058 241.721 527.151 239.242C528.739 235.634 532.102 233.107 534.034 229.674C535.972 226.228 536.33 222.126 536.343 218.168C536.356 214.137 536.05 210.105 535.438 206.121C535.132 204.131 534.747 202.15 534.288 200.187C534.039 199.12 533.986 197.589 532.688 197.323C530.917 196.955 528.621 197.231 527.134 198.289H527.13Z" fill="#343766"/>
<path d="M523.111 208.292C523.111 208.292 513.941 229.567 525.446 230.481C536.952 231.395 545.645 219.164 542.86 210.291C540.07 201.418 528.223 194.085 523.116 208.292H523.111Z" fill="#F3AF9F"/>
<path d="M543.356 214.996C543.356 214.996 541.109 226.856 542.32 237.749C542.521 239.546 541.319 240.88 539.924 242.026C537.921 243.666 532.914 245.441 529.359 244.877C523.805 243.993 532.494 220.511 532.494 220.511L543.356 214.996V214.996Z" fill="#F3AF9F"/>
<path d="M529.376 230.263C529.376 230.263 531.475 230.372 535.432 227.106C535.432 227.106 533.88 233.11 528.418 234.181C528.418 234.181 529.314 230.469 529.376 230.263V230.263Z" fill="#DE8F7D"/>
<path d="M532.468 205.451C531.484 207.458 529.319 208.683 527.119 209.094C524.92 209.509 522.659 209.234 520.438 208.954C521.71 206.728 523.328 204.703 525.217 202.972C526.302 201.979 527.495 201.069 528.851 200.501C530.058 199.994 531.418 199.762 532.712 200.011C533.005 200.068 533.067 200.12 533.088 200.413C533.115 200.746 533.128 201.078 533.137 201.406C533.154 202.062 533.141 202.718 533.058 203.365C532.966 204.082 532.782 204.795 532.459 205.447L532.468 205.451Z" fill="#343766"/>
<path d="M556.649 224.001C556.347 221.959 556.513 219.878 556.338 217.818C556.163 215.763 555.582 213.62 554.091 212.194C553.286 211.425 552.271 210.917 551.392 210.231C548.69 208.132 547.536 204.668 545.778 201.734C543.989 198.747 541.217 196.08 537.771 195.568C534.325 195.057 530.385 197.488 530.249 200.965C530.192 202.486 530.931 203.969 532.077 204.966C532.151 206.496 532.615 208.084 533.245 209.474C534.539 212.343 536.419 215.102 536.524 218.251C536.607 220.761 535.527 223.21 535.654 225.72C535.768 228.02 536.879 230.145 537.311 232.406C537.845 235.209 537.312 238.087 536.966 240.916C536.743 242.739 536.634 244.716 537.583 246.29C538.741 248.214 541.23 248.997 543.464 248.757C545.699 248.521 547.745 247.449 549.726 246.4C553.793 244.239 558.267 241.511 559.203 237.002C560.112 232.634 557.3 228.414 556.649 224.001Z" fill="#343766"/>
<path d="M562.607 250.106C562.607 250.106 569.224 260.938 566.521 279.654H551.343C551.343 279.654 547.879 258.611 562.607 250.106V250.106Z" fill="#F9DD89"/>
<path d="M546.817 278.937L546.314 264.887C546.314 264.887 541.722 277.529 542.286 283.468C542.85 289.406 553.415 300.658 553.415 300.658L554.469 279.121L546.817 278.942V278.937Z" fill="#FFC702"/>
<path d="M505.14 276.191L502.215 285.51L478.723 257.383L473.777 260.755C473.777 260.755 492.004 303.898 501.729 305.293C509.5 306.404 513.895 293.136 513.895 293.136L511.862 276.935L505.14 276.187V276.191Z" fill="#F3AF9F"/>
<mask id="mask0_387_17" style="mask-type:alpha" maskUnits="userSpaceOnUse" x="473" y="257" width="41" height="49">
<path d="M505.14 276.191L502.215 285.51L478.723 257.383L473.777 260.755C473.777 260.755 492.004 303.898 501.729 305.293C509.5 306.404 513.895 293.136 513.895 293.136L511.862 276.935L505.14 276.187V276.191Z" fill="#DA8C8D"/>
</mask>
<g mask="url(#mask0_387_17)">
<path d="M518.15 280.777C519.064 280.283 520.022 279.627 520.245 278.612C520.538 277.292 519.462 276.089 518.421 275.223C516.703 273.798 514.8 272.538 512.666 271.887C510.532 271.235 508.132 271.24 506.142 272.254C504.161 273.264 502.744 275.206 502.101 277.331C501.668 278.761 501.371 280.633 501.756 282.111C502.018 283.117 502.893 283.357 503.824 283.462C506.916 283.803 510.047 283.606 513.056 282.797C514.822 282.321 516.537 281.643 518.15 280.773V280.777Z" fill="#DE8F7D"/>
</g>
<path d="M481.199 259.992L472.773 259.205C471.715 259.104 470.529 258.133 470.132 257.031L463.165 237.948C462.763 236.846 463.297 236.037 464.355 236.133L472.782 236.92C473.84 237.021 475.025 237.992 475.423 239.094L482.389 258.177C482.791 259.279 482.258 260.088 481.199 259.992Z" fill="#343766"/>
<path d="M475.861 259.615C475.861 259.615 479.67 258.439 478.765 255.071C477.676 251.018 478.328 252.006 472.188 249.999C470.023 249.29 466.525 247.174 466.783 248.372C467.544 251.923 469.556 256.672 470.251 257.765C471.209 259.278 471.694 259.698 473.78 260.761C475.866 261.823 475.866 259.615 475.866 259.615H475.861Z" fill="#F3AF9F"/>
<path d="M478.043 246.304C478.043 246.304 481.804 245.333 482.01 245.936C482.215 246.54 481.572 249.242 479.36 249.994L478.039 246.308L478.043 246.304Z" fill="#F3AF9F"/>
<path d="M491.992 361.703L492.057 373.349C492.009 374.678 491.082 375.811 489.792 376.125L480.504 378.395C479.188 378.719 477.959 379.322 476.905 380.175L474.902 381.788H501.026L500.677 376.948C500.637 376.383 500.659 375.819 500.751 375.26L502.806 363.391L491.992 361.703V361.703Z" fill="#DE8F7D"/>
<path d="M465.972 357.641L464.647 373.34C464.599 374.669 463.672 375.802 462.382 376.117L453.094 378.386C451.778 378.71 450.549 379.313 449.495 380.166L447.492 381.78H473.616L473.266 376.939C473.24 376.563 473.24 376.187 473.271 375.811C473.301 375.434 473.385 375.067 473.476 374.704L477.897 359.499L465.972 357.641V357.641Z" fill="#DE8F7D"/>
<path d="M444.535 374.118C444.679 367.969 453.439 329.098 464.485 323.199C488.055 310.6 514.734 310.303 516.497 310.028C516.549 310.019 516.444 310.041 516.497 310.028C518.08 309.582 542.459 297.831 557.734 305.095C557.996 305.222 558.21 305.432 558.342 305.694C559.763 308.497 571.111 325.28 559.75 337.652C557.428 340.179 554.638 342.226 551.205 342.226L532.121 342.199C528.356 342.195 524.958 344.456 523.515 347.937C520.188 355.952 514.463 369.985 513.436 374.118H444.54H444.535Z" fill="#F9DD89"/>
<mask id="mask1_387_17" style="mask-type:alpha" maskUnits="userSpaceOnUse" x="444" y="302" width="121" height="73">
<path d="M444.535 374.118C444.679 367.969 453.439 329.098 464.485 323.199C488.055 310.6 514.734 310.303 516.497 310.028C516.549 310.019 516.444 310.041 516.497 310.028C518.08 309.582 542.459 297.831 557.734 305.095C557.996 305.222 558.21 305.432 558.342 305.694C559.763 308.497 571.111 325.28 559.75 337.652C557.428 340.179 554.638 342.226 551.205 342.226L532.121 342.199C528.356 342.195 524.958 344.456 523.515 347.937C520.188 355.952 514.463 369.985 513.436 374.118H444.54H444.535Z" fill="#F9DD89"/>
</mask>
<g mask="url(#mask1_387_17)">
<path d="M559.755 337.654C559.755 337.654 543.194 337.585 523.914 333.946C504.634 330.304 511.919 365.082 496.495 374.125C481.072 383.164 496.495 374.125 496.495 374.125C496.495 374.125 514.49 378.078 516.419 377.65C518.347 377.221 525.2 354.941 532.271 350.017C539.342 345.089 554.337 345.058 558.189 344.752C562.046 344.446 559.755 337.659 559.755 337.659" fill="#FFC702"/>
</g>
<path d="M516.496 310.03C516.496 310.03 538.374 317.018 547.501 317.294C547.501 317.294 519.658 306.882 513.895 293.133L516.496 310.026V310.03Z" fill="#FFC702"/>
<path d="M549.785 279.004C549.785 279.004 550.353 296.234 549.592 298.49C548.84 300.729 506.921 309.899 506.318 310.03C504.433 310.057 500.961 310.218 499.43 311.058C497.274 312.243 490.203 319.542 490.203 320.176C490.203 320.81 495.363 321.872 498.031 321.234C500.698 320.6 505.788 317.416 507.59 316.782C509.392 316.148 514.281 315.151 514.281 315.151C524.583 314.425 557.018 311.963 560.026 309.506C563.608 306.58 565.737 279.691 565.737 279.691L549.776 279.004H549.785Z" fill="#F3AF9F"/>
<mask id="mask2_387_17" style="mask-type:alpha" maskUnits="userSpaceOnUse" x="490" y="279" width="76" height="43">
<path d="M549.785 279.004C549.785 279.004 550.353 296.234 549.592 298.49C548.84 300.729 506.921 309.899 506.318 310.03C504.433 310.057 500.961 310.218 499.43 311.058C497.274 312.243 490.203 319.542 490.203 320.176C490.203 320.81 495.363 321.872 498.031 321.234C500.698 320.6 505.788 317.416 507.59 316.782C509.392 316.148 514.281 315.151 514.281 315.151C524.583 314.425 557.018 311.963 560.026 309.506C563.608 306.58 565.737 279.691 565.737 279.691L549.776 279.004H549.785Z" fill="#DA8C8D"/>
</mask>
<g mask="url(#mask2_387_17)">
<path d="M565.747 282.289C565.747 282.289 555.379 285.022 549.309 284.515L548.355 277.535L566.674 278.55L565.747 282.289Z" fill="#DE8F7D"/>
</g>
<path d="M99.1617 335.313H0.0078125V381.727H99.1617V335.313Z" fill="#C18244"/>
<path d="M50.881 381.727L0.0078125 381.851V335.313H50.881V381.727Z" fill="#F1B873"/>
<path d="M50.878 335.309L44.5803 341.182L38.2587 347.021C36.1531 348.974 34.0332 350.903 31.9181 352.842L25.5679 358.657L25.4389 358.777L25.31 358.657L18.9599 352.842C16.8447 350.903 14.7248 348.97 12.6192 347.021L6.29765 341.182L0 335.309L6.42179 341.039L12.8198 346.802C14.954 348.716 17.0739 350.655 19.1986 352.584L25.5679 358.371H25.31L31.6794 352.584C33.8041 350.655 35.924 348.721 38.0582 346.802L44.4562 341.039L50.878 335.305V335.309Z" fill="#E5A251"/>
<path d="M0.00390625 381.85L6.30162 375.853L12.6232 370.014C14.7288 368.061 16.8487 366.132 18.9638 364.194L25.314 358.378L25.4429 358.259L25.5718 358.378L31.9221 364.194C34.0372 366.132 36.1571 368.066 38.2627 370.014L44.5842 375.853L50.8819 381.726L44.4601 375.996L38.0622 370.233C35.9279 368.319 33.808 366.38 31.6833 364.451L25.314 358.665H25.5718L19.2026 364.451C17.0779 366.38 14.958 368.314 12.8237 370.233L6.42576 375.996L0.00390625 381.855V381.85Z" fill="#E5A251"/>
<path d="M28.6935 349.499H22.8398V368.177H28.6935V349.499Z" fill="white"/>
<path d="M111.705 288.906H12.5508V335.319H111.705V288.906Z" fill="#CE8E49"/>
<path d="M63.4288 288.906H12.5508V335.319H63.4288V288.906Z" fill="#F1B873"/>
<path d="M63.4288 288.902L57.1311 294.775L50.8095 300.614C48.7039 302.567 46.584 304.496 44.4689 306.434L38.1187 312.249L37.9898 312.369L37.8609 312.249L31.5107 306.434C29.3956 304.496 27.2756 302.562 25.17 300.614L18.8485 294.775L12.5508 288.902L18.9726 294.631L25.3705 300.394C27.5048 302.309 29.6247 304.247 31.7494 306.176L38.1187 311.963H37.8609L44.2301 306.176C46.3548 304.247 48.4748 302.314 50.609 300.394L57.0069 294.631L63.4288 288.897V288.902Z" fill="#E5A251"/>
<path d="M63.4288 335.31L57.0069 329.576L50.609 323.813C48.4748 321.898 46.3548 319.96 44.2301 318.031L37.8609 312.244H38.1187L31.7494 318.031C29.6247 319.96 27.5048 321.894 25.3705 323.813L18.9726 329.576L12.5508 335.305L18.8485 329.433L25.17 323.593C27.2756 321.641 29.3956 319.712 31.5107 317.773L37.8609 311.958L37.9898 311.838L38.1187 311.958L44.4689 317.773C46.584 319.712 48.7039 321.645 50.8095 323.593L57.1311 329.433L63.4288 335.305V335.31Z" fill="#E5A251"/>
<path d="M41.2482 303.087H35.3945V321.765H41.2482V303.087Z" fill="white"/>
<path d="M102.99 242.49H3.83594V288.903H102.99V242.49Z" fill="#E5A251"/>
<path d="M54.714 242.49H3.83594V288.903H54.714V242.49Z" fill="#F1B873"/>
<path d="M54.7131 242.49L48.4154 248.363L42.0938 254.202C39.9882 256.155 37.8683 258.084 35.7532 260.022L29.4078 265.838L29.2789 265.957L29.1499 265.838L22.7997 260.022C20.6846 258.084 18.5647 256.15 16.4591 254.202L10.1376 248.363L3.83984 242.49L10.2617 248.22L16.6596 253.983C18.7938 255.897 20.9137 257.836 23.0384 259.765L29.4078 265.551H29.1499L35.5192 259.765C37.6439 257.836 39.7638 255.902 41.898 253.983L48.296 248.22L54.7179 242.485L54.7131 242.49Z" fill="#E5A251"/>
<path d="M3.83681 288.907L10.1345 283.034L16.4561 277.195C18.5617 275.242 20.6816 273.313 22.7967 271.375L29.1421 265.559L29.271 265.44L29.4 265.559L35.7501 271.375C37.8653 273.313 39.9852 275.247 42.0908 277.195L48.4123 283.034L54.71 288.907L48.2882 283.177L41.8903 277.414C39.7561 275.5 37.6361 273.561 35.5114 271.632L29.1421 265.846H29.4L23.0307 271.632C20.906 273.561 18.786 275.495 16.6518 277.414L10.2539 283.177L3.83203 288.912L3.83681 288.907Z" fill="#E5A251"/>
<path d="M32.5294 256.679H26.6758V275.357H32.5294V256.679Z" fill="white"/>
<path opacity="0.49" d="M50.8794 335.313H12.5586L50.8794 341.64V335.313Z" fill="#E5A251"/>
<path opacity="0.49" d="M63.4318 288.901H12.5586L63.4318 297.013V288.901Z" fill="#E5A251"/>
<path d="M118.962 335.309H78.082V381.847H118.962V335.309Z" fill="#F1B873"/>
<path d="M157.292 335.309H118.957V381.66H157.292V335.309Z" fill="#CE8E49"/>
<path d="M101.413 335.309H97.4883V381.66H101.413V335.309Z" fill="white"/>
<path d="M140.089 335.309H136.164V381.66H140.089V335.309Z" fill="white"/>
<path opacity="0.47" d="M118.962 335.309H78.082V341.86L118.962 337.787V335.309Z" fill="#E5A251"/>
<path d="M314.318 268.633H308.742L302.869 272.581L303.527 268.687H297.853L295.707 281.415H301.381L302.408 275.334L306.697 281.415H312.424L306.912 273.63L314.318 268.633Z" fill="white"/>
<path d="M273.762 284.363H273.506L268.863 268.218H269.122L273.762 284.363Z" fill="white"/>
<path d="M274.711 284.363H274.452L269.328 268.218H269.587L274.711 284.363Z" fill="white"/>
<path d="M268.646 268.39C268.579 268.392 268.512 268.38 268.449 268.357C268.386 268.333 268.329 268.297 268.28 268.251C268.231 268.205 268.192 268.149 268.165 268.088C268.138 268.027 268.123 267.96 268.121 267.893C268.122 267.815 268.142 267.739 268.178 267.67C268.215 267.601 268.268 267.542 268.333 267.498L268.364 267.476C268.566 267.35 268.787 267.261 269.019 267.211C269.193 267.171 269.371 267.154 269.55 267.16H269.578C269.645 267.158 269.712 267.169 269.775 267.193C269.838 267.217 269.896 267.253 269.945 267.299C269.994 267.345 270.033 267.4 270.061 267.461C270.089 267.523 270.104 267.589 270.106 267.656C270.104 267.736 270.083 267.813 270.045 267.883C270.007 267.953 269.953 268.013 269.888 268.058H269.866C269.487 268.29 269.045 268.4 268.602 268.374L268.646 268.39ZM268.763 268.083C268.9 268.083 269.037 268.067 269.17 268.036C269.317 268.002 269.459 267.951 269.594 267.884V267.884C269.635 267.864 269.67 267.835 269.697 267.799C269.724 267.762 269.742 267.72 269.749 267.675C269.749 267.539 269.616 267.435 269.433 267.444H269.414C269.298 267.449 269.183 267.464 269.069 267.489C268.919 267.521 268.773 267.573 268.636 267.644H268.614C268.574 267.663 268.539 267.692 268.513 267.728C268.487 267.763 268.469 267.805 268.462 267.849C268.462 267.985 268.598 268.089 268.779 268.08" fill="white"/>
<path d="M269.743 268.874L269.629 268.643C269.814 268.644 269.999 268.628 270.182 268.596C271.001 268.477 271.826 268.407 272.654 268.387C272.654 268.387 274.759 268.412 275.081 268.457C275.967 268.581 276.846 268.751 277.714 268.966C277.714 268.966 278.106 269.083 280.047 269.174C280.84 269.224 281.636 269.208 282.427 269.127C282.427 269.127 285.385 268.757 285.686 268.713C285.686 268.713 287.604 268.643 288.41 268.713C288.577 269.584 288.81 270.44 289.106 271.276C289.415 271.972 289.802 272.63 290.259 273.239C290.259 273.239 291.302 275.173 291.524 275.897C291.765 276.74 291.958 277.596 292.102 278.461C292.399 279.497 292.842 280.485 293.417 281.397C293.417 281.397 290.737 280.958 289.697 280.98C288.639 280.985 287.585 281.109 286.555 281.35C285.444 281.731 284.27 281.895 283.097 281.833C282.113 281.78 281.133 281.664 280.164 281.485C278.979 281.409 277.791 281.402 276.605 281.463C276.605 281.463 274.503 281.694 273.902 282.039L273.741 281.833L273.672 281.669L273.915 281.694C273.826 274.472 270.097 269.051 270.097 269.051C270.055 268.992 270.002 268.941 269.941 268.902C269.88 268.864 269.811 268.838 269.74 268.827L269.743 268.874ZM287.702 278.555L282.806 274.763L286.624 271.959H283.391L280.23 274.295L279.677 272.051H276.564L278.217 278.672H281.295L280.663 276.093L283.764 278.549L287.702 278.555Z" fill="white"/>
<path d="M328.844 268.526C324.797 268.526 321.816 271.285 321.816 275.075C321.816 278.884 324.797 281.698 328.844 281.698C332.892 281.698 335.872 278.865 335.872 275.075C335.872 271.304 332.892 268.526 328.844 268.526ZM328.899 271.727C330.592 271.727 331.953 273.144 331.953 275.094C331.953 277.044 330.592 278.497 328.899 278.497C327.207 278.497 325.735 277.044 325.735 275.094C325.735 273.144 327.188 271.727 328.899 271.727Z" fill="white"/>
<path d="M349.537 281.533V268.636H346.041V275.848L340.577 268.636H337.302V281.533H340.816V274.358L346.28 281.533H349.537Z" fill="white"/>
<path d="M362.253 271.58V268.636H351.711V281.533H362.437V278.589H355.538V276.547H361.627V273.604H355.538V271.58H362.253Z" fill="white"/>
<path fill-rule="evenodd" clip-rule="evenodd" d="M319.447 277.162H314.316V274.363H319.447V277.162Z" fill="white"/>
</svg>
