<svg width="215" height="148" viewBox="0 0 215 148" fill="none" xmlns="http://www.w3.org/2000/svg">
<path d="M110.488 86.4934H78.3711V126.273H110.488V86.4934Z" fill="#F1CA89"/>
<path d="M135.157 86.4934H110.484V126.273H135.157V86.4934Z" fill="#EFA856"/>
<path d="M99.4923 86.4934H91.543V94.4428H99.4923V86.4934Z" fill="#F2F3F7"/>
<path d="M110.488 46.7161H78.3711V86.496H110.488V46.7161Z" fill="#F1CA89"/>
<path d="M135.157 46.7161H110.484V86.496H135.157V46.7161Z" fill="#F1B873"/>
<path d="M99.4923 46.7161H91.543V54.6654H99.4923V46.7161Z" fill="#F2F3F7"/>
<path d="M110.493 86.7184H80.7736C80.6537 86.7184 80.5547 86.6193 80.5547 86.4994C80.5547 86.3795 80.6537 86.2805 80.7736 86.2805H110.493C110.612 86.2805 110.712 86.3795 110.712 86.4994C110.712 86.6193 110.612 86.7184 110.493 86.7184Z" fill="#E5A251"/>
<path d="M135.165 86.7184H112.922C112.802 86.7184 112.703 86.6193 112.703 86.4994C112.703 86.3795 112.802 86.2805 112.922 86.2805H135.165C135.285 86.2805 135.384 86.3795 135.384 86.4994C135.384 86.6193 135.285 86.7184 135.165 86.7184Z" fill="#E5A251"/>
<path d="M167.234 86.4934H135.117V126.273H167.234V86.4934Z" fill="#F1CA89"/>
<path d="M191.899 86.4934H167.227V126.273H191.899V86.4934Z" fill="#F1B873"/>
<path d="M175.959 88.1787H168.922V98.3122H175.959V88.1787Z" fill="#EFA856"/>
<path d="M156.238 86.4934H148.289V94.4428H156.238V86.4934Z" fill="#F2F3F7"/>
<path d="M167.324 57.6013H143.996V86.4914H167.324V57.6013Z" fill="#F1CA89"/>
<path d="M185.246 57.6013H167.324V86.4914H185.246V57.6013Z" fill="#F1B873"/>
<path d="M159.333 57.6013H153.562V63.3718H159.333V57.6013Z" fill="#F2F3F7"/>
<path d="M167.239 86.7184H137.52C137.4 86.7184 137.301 86.6193 137.301 86.4994C137.301 86.3795 137.4 86.2805 137.52 86.2805H167.239C167.359 86.2805 167.458 86.3795 167.458 86.4994C167.458 86.6193 167.359 86.7184 167.239 86.7184Z" fill="#E5A251"/>
<path d="M191.916 86.7184H169.672C169.552 86.7184 169.453 86.6193 169.453 86.4994C169.453 86.3795 169.552 86.2805 169.672 86.2805H191.916C192.036 86.2805 192.135 86.3795 192.135 86.4994C192.135 86.6193 192.036 86.7184 191.916 86.7184Z" fill="#E5A251"/>
<path d="M140.572 65.0295H123.891V98.3194H140.572V65.0295Z" fill="#F1CA89"/>
<path d="M146.426 65.0295H137.246V98.3194H146.426V65.0295Z" fill="#F1B873"/>
<path d="M132.927 65.0295H129.352V69.9659H132.927V65.0295Z" fill="#F2F3F7"/>
<path d="M123.895 66.6086H122.18V98.3189H123.895V66.6086Z" fill="#EFA856"/>
<path d="M140.998 98.3887H117.691V126.278H140.998V98.3887Z" fill="#F1CA89"/>
<path d="M152.702 98.3152H141.004V126.277H152.702V98.3152Z" fill="#EFA856"/>
<path d="M138.364 98.5697H117.69C117.591 98.5697 117.508 98.4863 117.508 98.3873C117.508 98.2882 117.591 98.2048 117.69 98.2048H138.364C138.463 98.2048 138.546 98.2882 138.546 98.3873C138.546 98.4863 138.463 98.5697 138.364 98.5697Z" fill="#E5A251"/>
<path d="M131.577 98.5688H127.109V103.729H131.577V98.5688Z" fill="#F2F3F7"/>
<path d="M117.689 100.68H115.469V126.275H117.689V100.68Z" fill="#E5A251"/>
<path d="M214.246 126.275H63.4414V131.165H214.246V126.275Z" fill="#343766"/>
<path d="M93.601 140.469C93.601 136.347 90.259 133.005 86.1364 133.005C82.0139 133.005 78.6719 136.347 78.6719 140.469C78.6719 144.592 82.0139 147.934 86.1364 147.934C90.259 147.934 93.601 144.592 93.601 140.469Z" fill="#343766"/>
<path d="M89.8709 140.463C89.8709 142.522 88.1976 144.195 86.1386 144.195C84.0795 144.195 82.4062 142.522 82.4062 140.463C82.4062 138.404 84.0795 136.73 86.1386 136.73C88.1976 136.73 89.8709 138.404 89.8709 140.463Z" fill="#CAD2EA"/>
<path d="M82.9219 131.171H89.3595V138.599C89.3595 140.377 87.9157 141.815 86.1433 141.815C84.3658 141.815 82.9271 140.372 82.9271 138.599V131.171H82.9219Z" fill="#8296C9"/>
<path d="M198.968 140.429C198.968 136.306 195.626 132.964 191.504 132.964C187.381 132.964 184.039 136.306 184.039 140.429C184.039 144.551 187.381 147.893 191.504 147.893C195.626 147.893 198.968 144.551 198.968 140.429Z" fill="#343766"/>
<path d="M195.281 140.462C195.281 142.521 193.608 144.195 191.549 144.195C189.49 144.195 187.816 142.521 187.816 140.462C187.816 138.403 189.49 136.73 191.549 136.73C193.608 136.73 195.281 138.403 195.281 140.462Z" fill="#CAD2EA"/>
<path d="M191.544 141.811C189.767 141.811 188.328 140.372 188.328 138.595V131.167H194.766V138.595C194.766 140.372 193.327 141.811 191.55 141.811H191.544Z" fill="#8296C9"/>
<path d="M95.5057 129.045L71.3386 69.8473C70.9632 68.9194 70.0093 68.3043 68.9511 68.3043H46.1079C45.3729 68.3043 44.7734 67.7048 44.7734 66.9698C44.7734 66.2348 45.3729 65.6353 46.1079 65.6353H68.9511C71.1874 65.6353 73.2204 66.9489 74.0076 68.9038L98.1748 128.097L95.5057 129.045Z" fill="#343766"/>
<path d="M13.1537 50.6062L9.89057 53.2959C9.89057 53.2959 7.21123 48.6775 6.86719 46.0659C6.86719 46.0659 7.71691 53.7807 8.22254 57.1742C8.77508 60.8491 23.1777 60.6354 23.1777 60.6354C23.1777 60.6354 18.7886 58.4982 13.1485 50.6009L13.1537 50.6062Z" fill="#F4C54E"/>
<path d="M22.0518 44.8929C23.7355 47.7391 28.135 53.2176 28.135 53.2176L24.0483 45.5184C23.3654 44.2361 22.5783 43.0112 21.6974 41.8539L16.1875 34.6448L21.8537 44.5541C21.911 44.6584 21.9684 44.7626 22.0362 44.8721L22.0466 44.8929H22.0518Z" fill="#F4C54E"/>
<path d="M22.1919 8.20974C22.1919 8.20974 28.9528 18.8905 22.8122 20.3605C16.6717 21.8305 10.9325 15.9819 11.6883 10.9673C12.4442 5.95266 18.225 0.990157 22.1971 8.20974H22.1919Z" fill="#F3AF9F"/>
<path d="M11.8177 13.5496C11.8177 13.5496 14.4501 20.889 14.3302 27.2954C14.3302 27.2954 19.4074 29.2241 22.3369 28.2754C25.2664 27.3267 18.1563 15.5981 18.1563 15.5981L11.8125 13.5547L11.8177 13.5496Z" fill="#F3AF9F"/>
<path d="M20.8756 20.5989C20.8756 20.5989 19.8799 20.6094 17.0859 19.4521C17.0859 19.4521 18.0816 22.022 21.7044 22.3921C21.7044 22.3921 21.204 21.2505 20.8808 20.5989H20.8756Z" fill="#DE8F7D"/>
<path d="M15.2504 8.51392L14.9637 12.7258C14.9272 13.2575 14.6926 13.7579 14.3017 14.1228C14.3017 14.1228 14.0619 12.8717 13.4938 12.9134C12.9308 12.9551 11.8204 15.2487 14.3695 16.1401L14.2652 18.2877C14.2392 18.8403 13.9472 19.3407 13.4833 19.643C13.4833 19.643 10.5798 15.869 10.1211 13.8621C10.1211 13.8621 12.2844 10.3957 15.2504 8.51392Z" fill="#343766"/>
<path d="M23.5647 7.02971C23.5647 7.02971 24.232 10.1573 23.4761 10.5326C23.4761 10.5326 21.9019 7.50406 21.1252 6.60748C21.1252 6.60748 22.5535 6.43025 23.5647 7.02971Z" fill="#343766"/>
<path d="M10.1229 13.8632C10.1229 13.8632 15.3044 5.51248 23.0192 6.12758C23.0192 6.12758 22.0131 0.398834 14.5485 2.73933C7.08396 5.07462 10.1177 13.8684 10.1177 13.8684L10.1229 13.8632Z" fill="#F4C54E"/>
<path d="M14.3125 9.17797C14.3125 9.17797 18.1543 -0.00158465 24.8839 0.634364C28.246 0.952338 23.565 7.03556 23.565 7.03556C23.565 7.03556 19.9318 6.066 14.3125 9.18319V9.17797Z" fill="#F9DD89"/>
<path d="M13.1539 24.7431C13.1539 24.7431 20.7544 21.4068 27.4322 25.9942L37.5922 38.3072L33.3436 46.4759L30.8154 58.7888H7.56569L6.73157 43.567C6.73157 43.567 -1.39537 31.5251 13.1539 24.7431Z" fill="#F9DD89"/>
<path d="M27.8203 26.521C27.8203 26.521 33.8149 34.6424 34.9357 43.3997C36.0564 52.157 34.9357 43.3997 34.9357 43.3997L32.9235 48.5081L30.3849 35.0907L27.8255 26.521" fill="#F4C54E"/>
<path d="M27.8204 26.5187C27.3408 25.7419 26.6006 25.1581 25.7457 24.8401L25.2348 24.6472C25.2348 24.6472 29.0194 35.0835 29.7492 41.2035L25.1462 42.0063C25.1462 42.0063 16.8784 27.9991 12.1555 25.2311L9.85659 26.6125C9.85659 26.6125 23.0401 39.0923 22.7222 50.7692C22.4042 62.4462 7.12502 50.8839 7.12502 50.8839L5.01903 79.6907C3.87219 91.5449 4.96685 103.634 4.96685 103.634L1.20312 141.292L4.39866 142.173C4.39866 142.173 17.4415 114.795 19.6048 105.078C19.7039 104.629 19.8133 104.145 19.9332 103.628C20.3451 104.942 25.8812 143.174 25.8812 143.174L29.2279 143.116C29.2279 143.116 35.3687 113.58 35.1654 103.628C35.056 98.3686 37.5269 42.1679 27.8204 26.5187Z" fill="#0C3286"/>
<path d="M19.9333 103.629L24.406 84.3253C24.406 84.3253 24.7553 99.6045 25.0212 103.556C25.287 107.507 22.9099 122.875 22.9099 122.875L19.9333 103.629Z" fill="#1F1949"/>
<path d="M6.72656 43.5706L14.7228 55.591C14.7228 55.591 9.02009 52.2653 7.12789 50.8892L6.72656 43.5706Z" fill="#F4C54E"/>
<path d="M1.00335 140.956L5.01194 141.842L4.37601 143.719C4.37601 143.719 8.69209 145.111 10.3393 147.931L0.101562 145.913L1.00335 140.956Z" fill="#1F1949"/>
<path d="M25.5664 142.902L29.674 142.813L29.502 144.784C29.502 144.784 33.9015 145.581 36.1691 147.927H25.874L25.5768 142.902H25.5664Z" fill="#1F1949"/>
<path d="M24.4221 49.7323C24.4221 49.7323 25.5324 54.3457 25.8452 54.6428C26.158 54.94 51.6545 61.868 51.6545 61.868L50.0802 65.6369C50.0802 65.6369 19.9025 63.3224 18.568 61.6021C17.7912 60.596 12.375 51.7862 12.375 51.7862L24.4221 49.7271V49.7323Z" fill="#F3AF9F"/>
<mask id="mask0_301_7467" style="mask-type:alpha" maskUnits="userSpaceOnUse" x="12" y="49" width="40" height="17">
<path d="M24.4221 49.732C24.4221 49.732 25.5324 54.3455 25.8452 54.6426C26.158 54.9397 51.6545 61.8677 51.6545 61.8677L50.0802 65.6367C50.0802 65.6367 19.9025 63.3221 18.568 61.6019C17.7912 60.5958 12.375 51.7859 12.375 51.7859L24.4221 49.7268V49.732Z" fill="#DA8C8D"/>
</mask>
<g mask="url(#mask0_301_7467)">
<path d="M24.9309 50.1864L14.3022 57.359L11.0391 49.4879L24.3366 45.5054L24.9309 50.1864Z" fill="#DE8F7D"/>
</g>
<path d="M51.6623 61.8599L56.7082 64.5132C56.7082 64.5132 55.8845 68.2715 54.1852 68.2298C52.4859 68.1881 49.5199 67.3697 49.5199 67.3697L50.088 65.6287C50.088 65.6287 47.6433 62.1987 51.6623 61.8599Z" fill="#F3AF9F"/>
<path d="M25.3911 49.6823L11.3371 52.1115L6.72879 43.5727C6.72879 43.5727 0.905942 33.1208 9.85656 26.6203C15.6638 22.403 25.3911 49.6823 25.3911 49.6823Z" fill="#F9DD89"/>
<path d="M37.1518 39.1404L44.7732 49.3786L64.5146 65.6377H58.5145L40.3891 55.5872L33.8103 50.3326L33.3359 46.475L37.1518 39.1404Z" fill="#F3AF9F"/>
<mask id="mask1_301_7467" style="mask-type:alpha" maskUnits="userSpaceOnUse" x="33" y="39" width="32" height="27">
<path d="M37.1518 39.1404L44.7732 49.3786L64.5146 65.6377H58.5145L40.3891 55.5872L33.8103 50.3326L33.3359 46.475L37.1518 39.1404Z" fill="#DA8C8D"/>
</mask>
<g mask="url(#mask1_301_7467)">
<path d="M39.3796 41.1817L35.8507 53.2178L30.7422 48.9225L36.596 35.823L39.3796 41.1817Z" fill="#DE8F7D"/>
</g>
</svg>
