<svg width="195" height="85" viewBox="0 0 195 85" fill="none" xmlns="http://www.w3.org/2000/svg">
<rect x="0.0917969" y="0.2229" width="194.744" height="84.2021" rx="5" fill="white"/>
<path d="M9.64731 13.5308C10.9273 13.4428 11.9033 13.0908 12.3593 12.4828C12.8153 13.0908 13.8073 13.4428 15.0873 13.5308L15.3113 12.9148C13.9033 12.8348 13.0073 12.4348 12.8473 11.8668H14.9833V11.2508H12.7753V10.6188H11.9513V11.2508H9.75131V11.8668H11.8793C11.7193 12.4348 10.8313 12.8348 9.40731 12.9148L9.64731 13.5308ZM15.6313 14.4108V13.7948H9.11131V14.4108H11.9513V14.9708H9.87131V15.5788H14.0073V16.0828H9.88731V17.8108H15.0233V17.1948H10.7033V16.6508H14.8153V14.9708H12.7753V14.4108H15.6313ZM21.4547 12.0348C21.4547 12.8988 21.4547 13.9228 21.1747 15.3388L22.0067 15.4268C22.2867 13.9308 22.2867 12.9308 22.2867 12.0348V11.3228H17.1427V11.9948H21.4547V12.0348ZM19.7267 16.2508V13.7068H18.8947V16.2508H16.4627V16.9308H22.9907V16.2508H19.7267ZM24.9661 12.4028C24.9661 11.9068 25.3901 11.5868 25.9901 11.5868C26.5981 11.5868 27.0061 11.9068 27.0061 12.4028C27.0061 12.9068 26.5981 13.2268 25.9901 13.2268C25.3901 13.2268 24.9661 12.9068 24.9661 12.4028ZM28.2301 14.2668C27.6541 14.3548 27.0301 14.4028 26.4141 14.4428V13.8188C27.2301 13.6828 27.7741 13.1388 27.7741 12.4028C27.7741 11.5468 27.0381 10.9628 25.9901 10.9628C24.9421 10.9628 24.1981 11.5468 24.1981 12.4028C24.1981 13.1468 24.7581 13.6908 25.5901 13.8188V14.4748C24.9421 14.4988 24.3261 14.4988 23.8061 14.4988L23.9101 15.1708C25.1181 15.1708 26.7981 15.1468 28.2861 14.8668L28.2301 14.2668ZM25.6301 15.7068H24.8061V17.7308H29.7261V17.0668H25.6301V15.7068ZM29.4781 13.0188V10.6588H28.6541V16.1788H29.4781V13.6988H30.4701V13.0188H29.4781ZM33.7494 15.0988H35.2294V16.3468H33.7494V15.0988ZM36.0454 16.3468V15.0988H37.1094V14.4348H32.7814V13.4348H36.9494V11.1548H31.9574V11.8188H36.1334V12.7788H31.9734V15.0988H32.9334V16.3468H31.1814V17.0268H37.7254V16.3468H36.0454Z" fill="#0D0D0D"/>
<path d="M11.7641 44.2683H8.69531V52.9253H11.7641V44.2683Z" fill="#FFC702"/>
<path d="M17.7876 39.2487H14.7188V52.9252H17.7876V39.2487Z" fill="#52B36C"/>
<path d="M23.8129 43.0527H20.7441V52.9251H23.8129V43.0527Z" fill="#799DD2"/>
<path d="M12.1031 59.929H12.4391V58.305C12.4391 58.053 12.4111 57.697 12.3951 57.441H12.4111L12.6431 58.109L13.1991 59.633H13.4471L14.0031 58.109L14.2351 57.441H14.2511C14.2311 57.697 14.2031 58.053 14.2031 58.305V59.929H14.5511V56.997H14.1031L13.5431 58.565C13.4751 58.769 13.4111 58.973 13.3431 59.177H13.3231C13.2511 58.973 13.1831 58.769 13.1151 58.565L12.5511 56.997H12.1031V59.929ZM16.4332 59.981C17.1692 59.981 17.6852 59.393 17.6852 58.453C17.6852 57.513 17.1692 56.941 16.4332 56.941C15.6972 56.941 15.1812 57.513 15.1812 58.453C15.1812 59.393 15.6972 59.981 16.4332 59.981ZM16.4332 59.657C15.9052 59.657 15.5612 59.185 15.5612 58.453C15.5612 57.717 15.9052 57.265 16.4332 57.265C16.9572 57.265 17.3052 57.717 17.3052 58.453C17.3052 59.185 16.9572 59.657 16.4332 59.657ZM18.318 59.929H18.67V58.389C18.67 58.081 18.642 57.769 18.626 57.473H18.642L18.958 58.077L20.026 59.929H20.406V56.997H20.054V58.521C20.054 58.825 20.082 59.153 20.102 59.449H20.082L19.77 58.845L18.702 56.997H18.318V59.929Z" fill="#808080"/>
<circle cx="10.1953" cy="73.4246" r="1.5" fill="#FFC702"/>
<path d="M14.1753 73.0367C14.7793 72.9887 15.3113 72.8047 15.5313 72.4727C15.7513 72.8047 16.2793 72.9887 16.8793 73.0367L16.9793 72.7887C16.3113 72.7447 15.7713 72.5247 15.7153 72.1687H16.8193V71.9207H15.6953V71.5807H15.3673V71.9207H14.2393V72.1687H15.3473C15.2913 72.5247 14.7433 72.7447 14.0793 72.7887L14.1753 73.0367ZM17.1473 73.4487V73.1967H13.9113V73.4487H15.3633V73.7807H14.2953V74.0247H16.4113V74.3287H14.3073V75.1527H16.8433V74.9047H14.6273V74.5647H16.7353V73.7807H15.6953V73.4487H17.1473ZM20.119 72.3207C20.119 72.7527 20.119 73.2567 19.983 73.9447L20.311 73.9807C20.447 73.2567 20.447 72.7647 20.447 72.3207V71.9647H17.931V72.2327H20.119V72.3207ZM19.179 74.4207V73.1367H18.851V74.4207H17.591V74.6887H20.835V74.4207H19.179ZM21.9747 72.7687H23.8067V73.4287H21.9747V72.7687ZM23.0547 74.4647V73.6927H24.1267V71.8607H23.8067V72.5007H21.9747V71.8607H21.6507V73.6927H22.7227V74.4647H21.2667V74.7327H24.5187V74.4647H23.0547ZM27.4744 72.4207H25.3424V73.3727H27.8864V73.1087H25.6704V72.6687H27.8064V71.7447H25.3304V72.0087H27.4744V72.4207ZM28.1984 73.7447H24.9424V74.0087H25.7904V75.1967H26.1184V74.0087H27.0224V75.1967H27.3504V74.0087H28.1984V73.7447Z" fill="#808080"/>
<circle cx="34.1953" cy="73.4246" r="1.5" fill="#52B36C"/>
<path d="M38.1753 73.0367C38.7793 72.9887 39.3113 72.8047 39.5313 72.4727C39.7513 72.8047 40.2793 72.9887 40.8793 73.0367L40.9793 72.7887C40.3113 72.7447 39.7713 72.5247 39.7153 72.1687H40.8193V71.9207H39.6953V71.5807H39.3673V71.9207H38.2393V72.1687H39.3473C39.2913 72.5247 38.7433 72.7447 38.0793 72.7887L38.1753 73.0367ZM41.1473 73.4487V73.1967H37.9113V73.4487H39.3633V73.7807H38.2953V74.0247H40.4113V74.3287H38.3073V75.1527H40.8433V74.9047H38.6273V74.5647H40.7353V73.7807H39.6953V73.4487H41.1473ZM44.119 72.3207C44.119 72.7527 44.119 73.2567 43.983 73.9447L44.311 73.9807C44.447 73.2567 44.447 72.7647 44.447 72.3207V71.9647H41.931V72.2327H44.119V72.3207ZM43.179 74.4207V73.1367H42.851V74.4207H41.591V74.6887H44.835V74.4207H43.179ZM45.7187 72.3087H46.7307V72.0407H45.3947V74.3087H45.6307C46.1667 74.3087 46.5307 74.2927 46.9587 74.2007L46.9307 73.9287C46.5387 74.0127 46.1987 74.0327 45.7187 74.0367V72.3087ZM47.9987 71.6047V73.0447H47.4907V71.6847H47.1827V75.0127H47.4907V73.3127H47.9987V75.1927H48.3147V71.6047H47.9987ZM49.1584 71.9927V72.2567H50.5064C50.4384 73.1087 49.9584 73.7967 48.9944 74.2567L49.1704 74.5247C50.3624 73.9407 50.8384 73.0287 50.8384 71.9927H49.1584ZM51.5624 71.6047V75.1927H51.8904V71.6047H51.5624Z" fill="#808080"/>
<circle cx="58.1953" cy="73.4246" r="1.5" fill="#799DD2"/>
<path d="M62.1753 73.0367C62.7793 72.9887 63.3113 72.8047 63.5313 72.4727C63.7513 72.8047 64.2793 72.9887 64.8793 73.0367L64.9793 72.7887C64.3113 72.7447 63.7713 72.5247 63.7153 72.1687H64.8193V71.9207H63.6953V71.5807H63.3673V71.9207H62.2393V72.1687H63.3473C63.2913 72.5247 62.7433 72.7447 62.0793 72.7887L62.1753 73.0367ZM65.1473 73.4487V73.1967H61.9113V73.4487H63.3633V73.7807H62.2953V74.0247H64.4113V74.3287H62.3073V75.1527H64.8433V74.9047H62.6273V74.5647H64.7353V73.7807H63.6953V73.4487H65.1473ZM68.119 72.3207C68.119 72.7527 68.119 73.2567 67.983 73.9447L68.311 73.9807C68.447 73.2567 68.447 72.7647 68.447 72.3207V71.9647H65.931V72.2327H68.119V72.3207ZM67.179 74.4207V73.1367H66.851V74.4207H65.591V74.6887H68.835V74.4207H67.179ZM69.7747 72.4767C69.7747 72.2047 70.0107 72.0207 70.3547 72.0207C70.6907 72.0207 70.9307 72.2047 70.9307 72.4767C70.9307 72.7527 70.6907 72.9327 70.3547 72.9327C70.0107 72.9327 69.7747 72.7527 69.7747 72.4767ZM71.4947 73.4327C71.1867 73.4807 70.8547 73.5047 70.5227 73.5247V73.1727C70.9507 73.1207 71.2387 72.8567 71.2387 72.4767C71.2387 72.0567 70.8747 71.7727 70.3547 71.7727C69.8307 71.7727 69.4707 72.0567 69.4707 72.4767C69.4707 72.8607 69.7587 73.1247 70.1947 73.1767V73.5367C69.8627 73.5487 69.5387 73.5527 69.2627 73.5527L69.3067 73.8207C69.9187 73.8207 70.7707 73.8087 71.5187 73.6727L71.4947 73.4327ZM70.1067 74.1207H69.7787V75.1087H72.1747V74.8407H70.1067V74.1207ZM72.0467 72.8207V71.6087H71.7187V74.3527H72.0467V73.0927H72.5747V72.8207H72.0467ZM74.1784 73.8007H74.9984V74.4807H74.1784V73.8007ZM75.3224 74.4807V73.8007H75.8824V73.5327H73.6744V72.9567H75.7984V71.8687H73.3424V72.1367H75.4784V72.6927H73.3504V73.8007H73.8544V74.4807H72.9424V74.7487H76.2024V74.4807H75.3224Z" fill="#808080"/>
<path d="M38.8354 39.2486H35.7666V52.9251H38.8354V39.2486Z" fill="#FFC702"/>
<path d="M44.8608 34.887H41.792V52.928H44.8608V34.887Z" fill="#52B36C"/>
<path d="M50.8842 35.6971H47.8154V52.9279H50.8842V35.6971Z" fill="#799DD2"/>
<path d="M40.5227 59.929H40.8947V57.309H41.7827V56.997H39.6347V57.309H40.5227V59.929ZM43.3453 59.981C43.9453 59.981 44.4013 59.661 44.4013 58.717V56.997H44.0453V58.729C44.0453 59.437 43.7373 59.657 43.3453 59.657C42.9653 59.657 42.6653 59.437 42.6653 58.729V56.997H42.2933V58.717C42.2933 59.661 42.7493 59.981 43.3453 59.981ZM45.1881 59.929H46.9241V59.613H45.5601V58.545H46.6721V58.229H45.5601V57.309H46.8801V56.997H45.1881V59.929Z" fill="#808080"/>
<path d="M174.187 39.2486H171.118V52.9251H174.187V39.2486Z" fill="#FFC702"/>
<path d="M180.21 34.887H177.142V52.928H180.21V34.887Z" fill="#52B36C"/>
<path d="M186.235 35.6971H183.166V52.928H186.235V35.6971Z" fill="#799DD2"/>
<path d="M175.814 59.981C176.426 59.981 176.81 59.613 176.81 59.149C176.81 58.713 176.546 58.513 176.206 58.365L175.786 58.185C175.558 58.089 175.302 57.981 175.302 57.697C175.302 57.433 175.518 57.265 175.85 57.265C176.122 57.265 176.338 57.373 176.518 57.541L176.714 57.305C176.506 57.089 176.198 56.941 175.85 56.941C175.318 56.941 174.926 57.269 174.926 57.721C174.926 58.149 175.25 58.357 175.522 58.473L175.946 58.657C176.222 58.781 176.434 58.877 176.434 59.177C176.434 59.465 176.202 59.657 175.818 59.657C175.514 59.657 175.218 59.513 175.006 59.293L174.786 59.545C175.042 59.813 175.398 59.981 175.814 59.981ZM178.424 59.981C179.024 59.981 179.48 59.661 179.48 58.717V56.997H179.124V58.729C179.124 59.437 178.816 59.657 178.424 59.657C178.044 59.657 177.744 59.437 177.744 58.729V56.997H177.372V58.717C177.372 59.661 177.828 59.981 178.424 59.981ZM180.267 59.929H180.619V58.389C180.619 58.081 180.591 57.769 180.575 57.473H180.591L180.907 58.077L181.975 59.929H182.355V56.997H182.003V58.521C182.003 58.825 182.031 59.153 182.051 59.449H182.031L181.719 58.845L180.651 56.997H180.267V59.929Z" fill="#808080"/>
<path d="M65.9067 35.2917H62.8379V52.9277H65.9067V35.2917Z" fill="#FFC702"/>
<path d="M71.9301 41.6624H68.8613V52.9248H71.9301V41.6624Z" fill="#52B36C"/>
<path d="M77.9526 22.2588H74.8838V52.9274H77.9526V22.2588Z" fill="#799DD2"/>
<path d="M66.8148 59.929H67.2548L67.6908 58.161C67.7388 57.929 67.7908 57.717 67.8388 57.493H67.8548C67.9028 57.717 67.9468 57.929 67.9988 58.161L68.4428 59.929H68.8868L69.4948 56.997H69.1388L68.8308 58.593C68.7748 58.905 68.7188 59.221 68.6628 59.541H68.6428C68.5748 59.221 68.5068 58.905 68.4348 58.593L68.0228 56.997H67.6868L67.2828 58.593C67.2108 58.909 67.1388 59.225 67.0708 59.541H67.0548C66.9988 59.225 66.9388 58.909 66.8828 58.593L66.5748 56.997H66.1908L66.8148 59.929ZM70.0025 59.929H71.7385V59.613H70.3745V58.545H71.4865V58.229H70.3745V57.309H71.6945V56.997H70.0025V59.929ZM72.3541 59.929H73.1061C73.9901 59.929 74.4741 59.381 74.4741 58.453C74.4741 57.521 73.9901 56.997 73.0901 56.997H72.3541V59.929ZM72.7261 59.625V57.297H73.0581C73.7501 57.297 74.0901 57.709 74.0901 58.453C74.0901 59.193 73.7501 59.625 73.0581 59.625H72.7261Z" fill="#808080"/>
<path d="M92.976 41.6628H89.9072V52.9252H92.976V41.6628Z" fill="#FFC702"/>
<path d="M99.0024 31.6433H95.9336V52.928H99.0024V31.6433Z" fill="#52B36C"/>
<path d="M105.026 37.0872H101.957V52.9279H105.026V37.0872Z" fill="#799DD2"/>
<path d="M94.3841 59.929H94.7561V57.309H95.6441V56.997H93.4961V57.309H94.3841V59.929ZM96.1666 59.929H96.5386V58.545H97.9066V59.929H98.2746V56.997H97.9066V58.225H96.5386V56.997H96.1666V59.929ZM100.117 59.981C100.717 59.981 101.173 59.661 101.173 58.717V56.997H100.817V58.729C100.817 59.437 100.509 59.657 100.117 59.657C99.7368 59.657 99.4368 59.437 99.4368 58.729V56.997H99.0648V58.717C99.0648 59.661 99.5208 59.981 100.117 59.981Z" fill="#808080"/>
<path d="M120.048 35.2918H116.979V52.9277H120.048V35.2918Z" fill="#FFC702"/>
<path d="M126.072 26.718H123.003V52.925H126.072V26.718Z" fill="#52B36C"/>
<path d="M132.094 22.259H129.025V52.9277H132.094V22.259Z" fill="#799DD2"/>
<path d="M121.478 59.929H121.85V58.613H122.97V58.301H121.85V57.309H123.17V56.997H121.478V59.929ZM124.057 57.297H124.549C125.009 57.297 125.261 57.433 125.261 57.821C125.261 58.201 125.009 58.385 124.549 58.385H124.057V57.297ZM125.717 59.929L124.965 58.645C125.365 58.549 125.629 58.277 125.629 57.821C125.629 57.209 125.201 56.997 124.605 56.997H123.685V59.929H124.057V58.685H124.585L125.297 59.929H125.717ZM126.224 59.929H126.596V56.997H126.224V59.929Z" fill="#808080"/>
<path d="M147.118 30.9467H144.049V52.925H147.118V30.9467Z" fill="#FFC702"/>
<path d="M153.141 34.3652H150.072V52.9279H153.141V34.3652Z" fill="#52B36C"/>
<path d="M159.164 23.9573H156.095V52.9278H159.164V23.9573Z" fill="#799DD2"/>
<path d="M149.838 59.981C150.45 59.981 150.834 59.613 150.834 59.149C150.834 58.713 150.57 58.513 150.23 58.365L149.81 58.185C149.582 58.089 149.326 57.981 149.326 57.697C149.326 57.433 149.542 57.265 149.874 57.265C150.146 57.265 150.362 57.373 150.542 57.541L150.738 57.305C150.53 57.089 150.222 56.941 149.874 56.941C149.342 56.941 148.95 57.269 148.95 57.721C148.95 58.149 149.274 58.357 149.546 58.473L149.97 58.657C150.246 58.781 150.458 58.877 150.458 59.177C150.458 59.465 150.226 59.657 149.842 59.657C149.538 59.657 149.242 59.513 149.03 59.293L148.81 59.545C149.066 59.813 149.422 59.981 149.838 59.981ZM151.773 58.737L151.917 58.289C152.021 57.957 152.117 57.641 152.209 57.297H152.225C152.321 57.637 152.413 57.957 152.521 58.289L152.661 58.737H151.773ZM153.033 59.929H153.425L152.429 56.997H152.017L151.021 59.929H151.397L151.681 59.033H152.753L153.033 59.929ZM154.208 59.929H154.58V57.309H155.468V56.997H153.32V57.309H154.208V59.929Z" fill="#808080"/>
<path opacity="0.1" d="M8.69531 65.4128L186.234 65.4129" stroke="black" stroke-width="0.377948"/>
</svg>
