<svg width="251" height="79" viewBox="0 0 251 79" fill="none" xmlns="http://www.w3.org/2000/svg">
<rect x="0.015625" y="0.240601" width="250" height="60" rx="10" fill="#F5C341"/>
<path d="M34.918 78.4586V60.2406H51.1095L34.918 78.4586Z" fill="#F5C341"/>
<path d="M45.2756 28.9006C48.7156 28.7206 51.0356 27.8806 52.1756 26.5206C53.3356 27.8806 55.6556 28.7206 59.0756 28.9006L59.8156 26.9606C56.1156 26.8006 54.3156 25.9206 53.7956 24.8806H58.9156V22.9806H53.4956V21.5206H50.8556V22.9806H45.4756V24.8806H50.5556C50.0556 25.9206 48.2556 26.8006 44.5556 26.9606L45.2756 28.9006ZM60.4956 31.3006V29.3606H43.9156V31.3006H50.8756V32.4006H45.7756V34.3006H55.8956V35.1806H45.7956V39.8206H58.9756V37.9206H48.4156V36.9606H58.4956V32.4006H53.5156V31.3006H60.4956ZM76.6141 33.7006C77.3541 29.7806 77.3541 27.1806 77.3541 24.8806V23.1206H63.9741V25.2206H74.7141C74.7141 27.3606 74.6741 29.9206 73.9741 33.4006L76.6141 33.7006ZM70.8141 35.6206V29.2806H68.1741V35.6206H62.2941V37.7406H78.9541V35.6206H70.8141ZM92.7725 28.3006H85.1925V26.4006H92.7725V28.3006ZM95.3725 22.2406H92.7725V24.3406H85.1925V22.2406H82.5725V30.4006H95.3725V22.2406ZM97.3525 32.1406H80.6725V34.2406H87.6325V39.9806H90.2725V34.2406H97.3525V32.1406ZM102.531 30.2606H107.811V28.2006H102.531V25.2006H108.431V23.0806H99.9109V35.8206H101.411C104.511 35.8206 106.871 35.7606 109.531 35.3406L109.291 33.2206C107.031 33.5806 105.011 33.6806 102.531 33.7006V30.2606ZM111.891 21.5206V28.0206H108.731V30.1406H111.891V40.0006H114.531V21.5206H111.891ZM127.361 33.5006H125.001V29.3806H127.361V33.5006ZM127.361 27.3206H125.001V23.1606H122.521V35.6006H129.781V23.1606H127.361V27.3206ZM135.301 21.5206V28.5606H133.761V21.8206H131.301V39.1406H133.761V30.6806H135.301V39.9406H137.801V21.5206H135.301ZM156.139 27.1006C151.979 26.6006 150.039 24.5606 150.039 22.4206V21.8806H147.339V22.4206C147.339 24.5006 145.359 26.6006 141.239 27.1006L142.199 29.1606C145.279 28.7006 147.519 27.4006 148.679 25.6006C149.839 27.4206 152.079 28.7006 155.179 29.1606L156.139 27.1006ZM148.679 38.0006C146.199 38.0006 144.959 37.6006 144.959 36.7006C144.959 35.7806 146.199 35.4006 148.679 35.4006C151.159 35.4006 152.399 35.7806 152.399 36.7006C152.399 37.6006 151.159 38.0006 148.679 38.0006ZM148.679 33.4206C144.679 33.4206 142.299 34.6006 142.299 36.7006C142.299 38.8006 144.679 39.9606 148.679 39.9606C152.679 39.9606 155.079 38.8006 155.079 36.7006C155.079 34.6006 152.679 33.4206 148.679 33.4206ZM150.019 30.3206V28.0606H147.379V30.3206H140.399V32.4206H157.039V30.3206H150.019ZM159.238 23.4206V25.5406H161.718C161.578 29.2406 160.858 31.9006 158.418 34.6006L160.478 36.1006C163.758 32.4606 164.218 28.5006 164.218 23.4206H159.238ZM164.838 23.4206V25.5406H166.818C166.678 29.6406 166.018 32.7206 163.578 35.8006L165.658 37.2606C168.878 33.2806 169.298 28.7406 169.298 23.4206H164.838ZM175.818 28.7406H173.438V21.5206H170.778V39.9406H173.438V30.9206H175.818V28.7406ZM184.316 25.4806H188.116V23.3006H177.796V25.4806H181.636V26.5006C181.636 29.6406 180.136 33.0206 177.056 34.4006L178.556 36.5006C180.716 35.5206 182.196 33.5006 183.016 31.1006C183.836 33.3206 185.296 35.1206 187.436 36.0406L188.876 33.9606C185.796 32.6806 184.316 29.5006 184.316 26.5006V25.4806ZM189.816 21.5406V39.9606H192.456V21.5406H189.816ZM202.006 33.2006H203.926L204.346 25.8206L204.446 23.0406H201.486L201.586 25.8206L202.006 33.2006ZM202.966 38.5206C204.006 38.5206 204.806 37.6806 204.806 36.6006C204.806 35.5206 204.006 34.6806 202.966 34.6806C201.926 34.6806 201.146 35.5206 201.146 36.6006C201.146 37.6806 201.926 38.5206 202.966 38.5206Z" fill="white"/>
</svg>
