<svg width="98" height="89" viewBox="0 0 98 89" fill="none" xmlns="http://www.w3.org/2000/svg">
<path d="M86.3112 0H11.3318C5.0734 0 0 4.35658 0 9.7307V79.2663C0 84.6404 5.0734 88.997 11.3318 88.997H86.3112C92.5696 88.997 97.643 84.6404 97.643 79.2663V9.7307C97.643 4.35658 92.5696 0 86.3112 0Z" fill="white"/>
<path d="M97.643 40.8705H0V8.93735C0 4.0017 5.0738 0 11.3318 0H86.3112C92.5692 0 97.643 4.0017 97.643 8.93735V40.8705Z" fill="#F39369"/>
<path d="M8.63782 48.5661C9.65382 48.5661 10.3178 48.8621 10.3178 49.3741C10.3178 49.8861 9.65382 50.1821 8.63782 50.1821C7.61382 50.1821 6.94982 49.8861 6.94982 49.3741C6.94982 48.8621 7.61382 48.5661 8.63782 48.5661ZM8.63782 50.8461C10.1818 50.8461 11.1978 50.2781 11.1978 49.3741C11.1978 48.4701 10.1818 47.9021 8.63782 47.9021C7.08582 47.9021 6.07782 48.4701 6.07782 49.3741C6.07782 50.2781 7.08582 50.8461 8.63782 50.8461ZM7.00582 52.6941H6.17382V54.8301H11.1978V54.1581H7.00582V52.6941ZM5.36582 51.3341V52.0061H8.27782V53.3741H9.11782V52.0061H11.9178V51.3341H5.36582ZM18.8852 50.0301C17.4372 49.8381 16.4132 49.0381 16.4132 48.1341V47.8621H15.5652V48.1341C15.5652 49.0301 14.5252 49.8381 13.0932 50.0301L13.3972 50.6781C14.5732 50.5021 15.5252 49.9501 15.9812 49.1821C16.4452 49.9581 17.4132 50.4941 18.5732 50.6781L18.8852 50.0301ZM15.9812 54.3341C14.9172 54.3341 14.3332 54.1181 14.3332 53.7021C14.3332 53.2861 14.9172 53.0621 15.9812 53.0621C17.0452 53.0621 17.6372 53.2861 17.6372 53.7021C17.6372 54.1181 17.0452 54.3341 15.9812 54.3341ZM15.9812 52.4381C14.4292 52.4381 13.4932 52.8941 13.4932 53.7021C13.4932 54.5101 14.4292 54.9661 15.9812 54.9661C17.5412 54.9661 18.4692 54.5101 18.4692 53.7021C18.4692 52.8941 17.5412 52.4381 15.9812 52.4381ZM16.3972 51.2621V50.2781H15.5732V51.2621H12.7252V51.9261H19.2612V51.2621H16.3972ZM24.3326 51.1421C23.2286 50.7901 22.6286 49.9501 22.6286 49.0541V48.9181H24.1406V48.2541H20.2606V48.9181H21.7966V49.0621C21.7966 50.0461 21.1646 50.9741 20.0286 51.3661L20.4446 52.0141C21.3086 51.7181 21.9166 51.1021 22.2366 50.3341C22.5486 51.0061 23.1246 51.5261 23.9326 51.7821L24.3326 51.1421ZM23.4046 54.3181C22.3966 54.3181 21.8126 54.0621 21.8126 53.5981C21.8126 53.1261 22.3966 52.8781 23.4046 52.8781C24.4126 52.8781 24.9966 53.1261 24.9966 53.5981C24.9966 54.0621 24.4126 54.3181 23.4046 54.3181ZM23.4046 52.2301C21.9166 52.2301 20.9966 52.7341 20.9966 53.5981C20.9966 54.4541 21.9166 54.9661 23.4046 54.9661C24.8926 54.9661 25.8126 54.4541 25.8126 53.5981C25.8126 52.7341 24.8926 52.2301 23.4046 52.2301ZM25.7326 49.5021V47.7421H24.9086V52.0621H25.7326V50.1821H26.7566V49.5021H25.7326ZM29.7928 50.6221C31.0728 50.5341 32.0488 50.1821 32.5048 49.5741C32.9608 50.1821 33.9528 50.5341 35.2328 50.6221L35.4568 50.0061C34.0488 49.9261 33.1528 49.5261 32.9928 48.9581H35.1288V48.3421H32.9208V47.7101H32.0968V48.3421H29.8968V48.9581H32.0248C31.8648 49.5261 30.9768 49.9261 29.5528 50.0061L29.7928 50.6221ZM35.7768 51.5021V50.8861H29.2568V51.5021H32.0968V52.0621H30.0168V52.6701H34.1528V53.1741H30.0328V54.9021H35.1688V54.2861H30.8488V53.7421H34.9608V52.0621H32.9208V51.5021H35.7768ZM40.3602 51.0861C39.5762 51.2221 38.9122 51.2541 37.7042 51.2541V50.3181H40.0162V48.1581H36.8802V48.8221H39.2002V49.6861H36.8962V51.9261H37.4242C38.8402 51.9261 39.5762 51.9021 40.4482 51.7501L40.3602 51.0861ZM37.7042 53.2221H41.7682V54.9821H42.5922V52.5501H37.7042V53.2221ZM41.7682 47.7421V48.7821H40.4722V49.4461H41.7682V50.2941H40.4722V50.9581H41.7682V52.1901H42.5922V47.7421H41.7682Z" fill="#0D0D0D"/>
<path opacity="0.5" d="M7.07182 66.5947H5.94382V65.1727H7.07182V66.5947ZM7.07182 64.7827H5.94382V63.4687H5.47582V66.9907H7.53382V63.4687H7.07182V64.7827ZM9.38782 62.9587V65.0887H8.66182V63.0787H8.19982V68.0767H8.66182V65.4907H9.38782V68.3407H9.85582V62.9587H9.38782ZM15.3754 64.7287C14.4154 64.5967 13.4854 63.9967 13.4854 63.2827V63.0427H12.9814V63.2827C12.9814 63.9967 12.0574 64.5967 11.0974 64.7287L11.2834 65.1187C12.1054 64.9807 12.8974 64.5547 13.2334 63.9427C13.5754 64.5547 14.3674 64.9807 15.1894 65.1187L15.3754 64.7287ZM13.2334 67.9567C12.3814 67.9567 11.8894 67.7587 11.8894 67.4047C11.8894 67.0507 12.3814 66.8527 13.2334 66.8527C14.0854 66.8527 14.5774 67.0507 14.5774 67.4047C14.5774 67.7587 14.0854 67.9567 13.2334 67.9567ZM13.2334 66.4747C12.0814 66.4747 11.3914 66.8047 11.3914 67.4047C11.3914 68.0047 12.0814 68.3347 13.2334 68.3347C14.3854 68.3347 15.0754 68.0047 15.0754 67.4047C15.0754 66.8047 14.3854 66.4747 13.2334 66.4747ZM13.4794 65.6287V64.8367H12.9874V65.6287H10.8034V66.0247H15.6694V65.6287H13.4794ZM20.2349 62.9587V68.3527H20.7269V62.9587H20.2349ZM17.8889 63.3727C17.0909 63.3727 16.5209 64.1047 16.5209 65.2507C16.5209 66.3967 17.0909 67.1287 17.8889 67.1287C18.6869 67.1287 19.2569 66.3967 19.2569 65.2507C19.2569 64.1047 18.6869 63.3727 17.8889 63.3727ZM17.8889 63.8167C18.4109 63.8167 18.7829 64.3807 18.7829 65.2507C18.7829 66.1267 18.4109 66.6907 17.8889 66.6907C17.3609 66.6907 16.9889 66.1267 16.9889 65.2507C16.9889 64.3807 17.3609 63.8167 17.8889 63.8167ZM23.9462 64.2667C23.9462 63.8587 24.3002 63.5827 24.8162 63.5827C25.3202 63.5827 25.6802 63.8587 25.6802 64.2667C25.6802 64.6807 25.3202 64.9507 24.8162 64.9507C24.3002 64.9507 23.9462 64.6807 23.9462 64.2667ZM26.5262 65.7007C26.0642 65.7727 25.5662 65.8087 25.0682 65.8387V65.3107C25.7102 65.2327 26.1422 64.8367 26.1422 64.2667C26.1422 63.6367 25.5962 63.2107 24.8162 63.2107C24.0302 63.2107 23.4902 63.6367 23.4902 64.2667C23.4902 64.8427 23.9222 65.2387 24.5762 65.3167V65.8567C24.0782 65.8747 23.5922 65.8807 23.1782 65.8807L23.2442 66.2827C24.1622 66.2827 25.4402 66.2647 26.5622 66.0607L26.5262 65.7007ZM24.4442 66.7327H23.9522V68.2147H27.5462V67.8127H24.4442V66.7327ZM27.3542 64.7827V62.9647H26.8622V67.0807H27.3542V65.1907H28.1462V64.7827H27.3542ZM30.5517 66.2527H31.7817V67.2727H30.5517V66.2527ZM32.2677 67.2727V66.2527H33.1077V65.8507H29.7957V64.9867H32.9817V63.3547H29.2977V63.7567H32.5017V64.5907H29.3097V66.2527H30.0657V67.2727H28.6977V67.6747H33.5877V67.2727H32.2677ZM38.6273 62.9587H38.1353V66.9847H38.6273V62.9587ZM37.7033 65.7547C37.2413 65.8087 36.7553 65.8387 36.2573 65.8627V65.1187H37.3253V64.7227H35.2193V63.7087H37.2893V63.3067H34.7273V65.1187H35.7653V65.8807C35.2373 65.8987 34.7153 65.9047 34.2473 65.9047L34.3193 66.3067C35.3213 66.3067 36.5993 66.2707 37.7393 66.1087L37.7033 65.7547ZM35.6393 67.8187V66.7207H35.1473V68.2207H38.8073V67.8187H35.6393ZM44.1926 65.4907C43.4186 65.2267 42.8906 64.5547 42.8906 63.8287V63.2347H42.3986V63.7867C42.3986 64.6087 41.8766 65.3407 41.0606 65.6347L41.3186 66.0247C41.9486 65.7847 42.4286 65.2927 42.6506 64.6627C42.8906 65.2147 43.3526 65.6587 43.9346 65.8747L44.1926 65.4907ZM43.5506 67.9507C42.7526 67.9507 42.2666 67.7287 42.2666 67.3567C42.2666 66.9787 42.7526 66.7567 43.5506 66.7567C44.3426 66.7567 44.8286 66.9787 44.8286 67.3567C44.8286 67.7287 44.3426 67.9507 43.5506 67.9507ZM43.5506 66.3727C42.4526 66.3727 41.7746 66.7267 41.7746 67.3567C41.7746 67.9807 42.4526 68.3347 43.5506 68.3347C44.6426 68.3347 45.3206 67.9807 45.3206 67.3567C45.3206 66.7267 44.6426 66.3727 43.5506 66.3727ZM45.2606 64.3507V62.9647H44.7686V66.2227H45.2606V64.7587H46.0586V64.3507H45.2606ZM49.7001 64.6567H48.3621V63.5287H49.7001V64.6567ZM47.8701 64.6567H47.0781V65.0527H50.9841V64.6567H50.1921V63.5287H51.0081V63.1327H47.0601V63.5287H47.8701V64.6567ZM50.3961 67.8727H47.6841V66.9787H50.3961V67.8727ZM51.4701 65.9587V65.5627H46.6041V65.9587H48.7941V66.5887H47.2041V68.2687H50.8761V66.5887H49.2861V65.9587H51.4701ZM54.5537 63.4207C55.4357 63.4207 55.9397 63.6247 55.9397 63.9847C55.9397 64.3447 55.4357 64.5487 54.5537 64.5487C53.6717 64.5487 53.1677 64.3447 53.1677 63.9847C53.1677 63.6247 53.6717 63.4207 54.5537 63.4207ZM54.5537 64.9147C55.7357 64.9147 56.4437 64.5907 56.4437 63.9847C56.4437 63.3787 55.7357 63.0487 54.5537 63.0487C53.3717 63.0487 52.6637 63.3787 52.6637 63.9847C52.6637 64.5907 53.3717 64.9147 54.5537 64.9147ZM53.2037 67.3507H56.3657V66.1387H52.7057V66.5107H55.8797V66.9907H52.7237V68.2807H56.5277V67.8967H53.2037V67.3507ZM52.1177 65.2807V65.6767H56.9897V65.2807H52.1177ZM10.1558 74.6227H9.35782C9.50782 73.8487 9.50782 73.2787 9.50782 72.7747V72.3067H5.89582V72.7027H9.02782V72.7747C9.02782 73.2787 9.02782 73.8487 8.85982 74.6227H5.28982V75.0247H7.46182V77.3467H7.95982V75.0247H10.1558V74.6227ZM11.4574 72.9727H12.5854V75.5047H11.4574V72.9727ZM10.9954 75.8947H13.0414V72.5827H10.9954V75.8947ZM14.9074 71.9587V74.0887H14.1814V72.0787H13.7194V77.0707H14.1814V74.4907H14.9074V77.3347H15.3754V71.9587H14.9074ZM21.6007 73.1227V73.7647H20.1967V74.1487H21.6007V74.7067H22.0987V71.9587H21.6007V72.7387H20.3827C20.4187 72.5707 20.4367 72.4027 20.4367 72.2227H18.0307V72.6247H19.9027C19.8127 73.4767 19.0627 74.1187 17.7487 74.4247L17.9287 74.8267C19.1167 74.5447 19.9387 73.9687 20.2747 73.1227H21.6007ZM19.1287 76.8967V76.2727H22.0987V74.9527H18.6307V75.3487H21.6067V75.9007H18.6427V77.2867H22.2787V76.8967H19.1287ZM26.0582 73.3567V73.7587H27.1202V75.1687H27.6182V71.9647H27.1202V73.3567H26.0582ZM26.3582 74.5807C25.5782 74.3047 25.0502 73.6267 25.0502 72.9367V72.7507H26.2322V72.3547H23.3582V72.7507H24.5582V72.9367C24.5582 73.7107 24.0062 74.4367 23.2022 74.7307L23.4602 75.1207C24.0902 74.8807 24.5882 74.3767 24.8162 73.7527C25.0502 74.3047 25.5122 74.7487 26.1122 74.9647L26.3582 74.5807ZM25.8422 76.9567C25.0322 76.9567 24.5402 76.7287 24.5402 76.3387C24.5402 75.9487 25.0322 75.7147 25.8422 75.7147C26.6522 75.7147 27.1442 75.9487 27.1442 76.3387C27.1442 76.7287 26.6522 76.9567 25.8422 76.9567ZM25.8422 75.3367C24.7382 75.3367 24.0482 75.7027 24.0482 76.3387C24.0482 76.9747 24.7382 77.3407 25.8422 77.3407C26.9462 77.3407 27.6302 76.9747 27.6302 76.3387C27.6302 75.7027 26.9462 75.3367 25.8422 75.3367ZM31.8957 72.5107H30.5517V71.9047H30.0597V72.5107H28.7217V72.9067H31.8957V72.5107ZM29.4897 74.1007C29.4897 73.7527 29.8137 73.5307 30.3057 73.5307C30.7977 73.5307 31.1277 73.7527 31.1277 74.1007C31.1277 74.4547 30.7977 74.6707 30.3057 74.6707C29.8137 74.6707 29.4897 74.4547 29.4897 74.1007ZM31.5957 74.1007C31.5957 73.5307 31.0737 73.1647 30.3057 73.1647C29.5377 73.1647 29.0217 73.5307 29.0217 74.1007C29.0217 74.6767 29.5377 75.0427 30.3057 75.0427C31.0737 75.0427 31.5957 74.6767 31.5957 74.1007ZM32.3937 76.8727H29.9817V76.2787H32.3937V76.8727ZM32.3937 75.8947H29.9817V75.3247H29.4957V77.2687H32.8797V75.3247H32.3937V75.8947ZM33.6777 73.3267H32.8797V71.9587H32.3877V75.0847H32.8797V73.7407H33.6777V73.3267ZM35.0513 72.4807H34.5593V75.9487H35.0033C35.8613 75.9487 36.7073 75.8887 37.6433 75.6967L37.5893 75.2767C36.6953 75.4567 35.8613 75.5287 35.0513 75.5287V72.4807ZM38.1413 71.9587V77.3347H38.6333V71.9587H38.1413ZM40.4628 72.8827H42.4728V72.4747H39.9708V76.0087H40.3968C41.4108 76.0087 42.1188 75.9727 42.9408 75.8167L42.8868 75.4087C42.1068 75.5467 41.4168 75.5887 40.4628 75.5887V72.8827ZM44.7708 74.0827H43.8828V71.9587H43.3908V77.3527H43.8828V74.4907H44.7708V74.0827ZM45.7783 76.9747C45.9943 76.9747 46.1743 76.8067 46.1743 76.5607C46.1743 76.3147 45.9943 76.1347 45.7783 76.1347C45.5623 76.1347 45.3823 76.3147 45.3823 76.5607C45.3823 76.8067 45.5623 76.9747 45.7783 76.9747Z" fill="#0D0D0D"/>
<path d="M59.7208 26.6637H37.9211C37.491 26.6637 37.1426 27.0121 37.1426 27.4423V30.5565C37.1426 30.9867 37.491 31.3351 37.9211 31.3351H59.7208C60.151 31.3351 60.4994 30.9867 60.4994 30.5565V27.4423C60.4994 27.0121 60.151 26.6637 59.7208 26.6637ZM48.821 29.8558C48.348 29.8558 47.9646 29.4737 47.9646 28.9994C47.9646 28.5251 48.348 28.143 48.821 28.143C49.294 28.143 49.6774 28.5251 49.6774 28.9994C49.6774 29.4737 49.294 29.8558 48.821 29.8558ZM59.4691 22.2675L57.3851 18.1002V15.3752C57.3851 14.7303 56.8622 14.2074 56.2173 14.2074H54.2709V12.6503H55.828C56.2582 12.6503 56.6066 12.3019 56.6066 11.8717V10.314C56.6066 9.88381 56.2582 9.5354 55.828 9.5354H50.3781C49.9479 9.5354 49.5995 9.88381 49.5995 10.314V11.8711C49.5995 12.3012 49.9479 12.6496 50.3781 12.6496H51.9352V14.2068H47.2639V11.8711C47.2639 11.4409 46.9155 11.0925 46.4853 11.0925H42.5925C42.1623 11.0925 41.8139 11.4409 41.8139 11.8711V14.2068H41.4247C40.7798 14.2068 40.2568 14.7297 40.2568 15.3746V18.0996L38.1735 22.2668C38.0081 22.5983 37.9211 22.9643 37.9211 23.3341V25.8852H59.7208V23.3341C59.7208 22.9636 59.6352 22.5983 59.4691 22.2668V22.2675ZM42.5925 11.9879C42.5925 11.923 42.6451 11.8711 42.7093 11.8711H46.3679C46.4327 11.8711 46.4847 11.9236 46.4847 11.9879V17.321H42.5919V11.9879H42.5925ZM42.5166 22.7009C42.5043 22.7417 42.4666 22.7709 42.4225 22.7709H40.4015C40.3697 22.7709 40.3392 22.7547 40.3211 22.7281C40.3029 22.7009 40.299 22.6665 40.3107 22.6366L40.5442 22.0533C40.5585 22.0164 40.5955 21.9917 40.6344 21.9917H42.5957C42.6262 21.9917 42.6561 22.006 42.6742 22.0313C42.6931 22.0553 42.6983 22.0877 42.6905 22.1182L42.5172 22.7009H42.5166ZM42.9785 21.1437C42.9662 21.1846 42.9286 21.2138 42.8845 21.2138H41.025C40.9913 21.2138 40.9614 21.1976 40.9426 21.171C40.9244 21.1437 40.9212 21.1093 40.9335 21.0795L41.1664 20.4962C41.1814 20.4592 41.2183 20.4346 41.2579 20.4346H43.0583C43.0888 20.4346 43.1174 20.4489 43.1362 20.4742C43.155 20.4982 43.1602 20.5306 43.1524 20.5611L42.9798 21.1437H42.9785ZM43.4405 19.5866C43.4275 19.6275 43.3892 19.6567 43.3464 19.6567H41.6465C41.6148 19.6567 41.5843 19.6405 41.5661 19.6139C41.5479 19.5866 41.544 19.5522 41.5564 19.5224L41.7899 18.9391C41.8042 18.9021 41.8399 18.8775 41.8801 18.8775H43.5203C43.5508 18.8775 43.5793 18.8917 43.5981 18.917C43.617 18.9411 43.6221 18.9735 43.6144 19.004L43.4418 19.5866H43.4405ZM46.2232 22.6859C46.2173 22.7346 46.1758 22.7709 46.1259 22.7709H44.0646C44.0348 22.7709 44.0062 22.7573 43.9881 22.7346C43.9699 22.7112 43.9621 22.6807 43.9693 22.6509L44.1016 22.0683C44.1113 22.0242 44.1509 21.9924 44.1963 21.9924H46.1998C46.2277 21.9924 46.2543 22.0047 46.2738 22.0261C46.292 22.0475 46.301 22.0748 46.2965 22.1027L46.2238 22.6859H46.2232ZM46.4191 21.1288C46.4133 21.1775 46.3718 21.2138 46.3218 21.2138H44.4169C44.3871 21.2138 44.3585 21.2002 44.3404 21.1775C44.3222 21.1541 44.3144 21.1236 44.3216 21.0938L44.4539 20.5112C44.4636 20.467 44.5032 20.4352 44.5486 20.4352H46.3951C46.423 20.4352 46.4496 20.4476 46.4691 20.469C46.4872 20.4904 46.4963 20.5176 46.4918 20.5455L46.4191 21.1288ZM46.6151 19.5717C46.6092 19.6203 46.5677 19.6567 46.5177 19.6567H44.7705C44.74 19.6567 44.7121 19.6431 44.6927 19.6203C44.6745 19.597 44.6674 19.5665 44.6745 19.5367L44.8069 18.954C44.8159 18.9099 44.8555 18.8781 44.9016 18.8781H46.5911C46.619 18.8781 46.6456 18.8904 46.665 18.9119C46.6832 18.9333 46.6923 18.9605 46.6877 18.9884L46.6151 19.5717ZM47.8744 18.9715C47.8776 18.919 47.9198 18.8781 47.9724 18.8781H49.63C49.6819 18.8781 49.7241 18.9183 49.7274 18.9703L49.7624 19.5535C49.7637 19.5801 49.754 19.6067 49.7358 19.6262C49.7176 19.6457 49.6917 19.6567 49.6644 19.6567H47.9464C47.9191 19.6567 47.8938 19.6463 47.875 19.6262C47.8569 19.6067 47.8478 19.5808 47.8484 19.5548L47.875 18.9715H47.8744ZM47.803 20.5287C47.8063 20.4761 47.8484 20.4352 47.901 20.4352H49.7222C49.7741 20.4352 49.8162 20.4755 49.8195 20.5274L49.8545 21.1106C49.8558 21.1372 49.8461 21.1638 49.8279 21.1833C49.8098 21.2028 49.7838 21.2138 49.7565 21.2138H47.875C47.8478 21.2138 47.8218 21.2034 47.8037 21.1833C47.7855 21.1638 47.7758 21.1379 47.7771 21.1113L47.8037 20.5287H47.803ZM49.9194 22.7404C49.9012 22.7599 49.8753 22.7709 49.848 22.7709H47.8017C47.7751 22.7709 47.7492 22.7605 47.731 22.7404C47.7128 22.721 47.7018 22.695 47.7037 22.6691L47.731 22.0858C47.7323 22.0332 47.7758 21.9924 47.8283 21.9924H49.8136C49.8655 21.9924 49.9077 22.0326 49.911 22.0845L49.946 22.6678C49.9473 22.6944 49.9376 22.721 49.9194 22.7404ZM50.3768 17.2036V15.8807C50.3768 15.8158 50.4294 15.7639 50.4936 15.7639H55.7093C55.7742 15.7639 55.8261 15.8164 55.8261 15.8807V17.2036C55.8261 17.2684 55.7735 17.3204 55.7093 17.3204H50.4936C50.4287 17.3204 50.3768 17.2678 50.3768 17.2036ZM50.9977 19.5704L50.925 18.9878C50.9211 18.9599 50.9302 18.9313 50.9484 18.9112C50.9672 18.8898 50.9938 18.8775 51.0224 18.8775H52.7131C52.7585 18.8775 52.7981 18.9093 52.8092 18.9534L52.9409 19.5367C52.948 19.5658 52.9409 19.5957 52.922 19.6197C52.9039 19.6424 52.876 19.656 52.8461 19.656H51.0957C51.0464 19.656 51.0042 19.6197 50.9984 19.5704H50.9977ZM51.1917 21.1275L51.119 20.5449C51.1158 20.517 51.1242 20.4884 51.1424 20.4683C51.1612 20.4469 51.1878 20.4346 51.2164 20.4346H53.0661C53.1115 20.4346 53.1511 20.4664 53.1621 20.5105L53.2938 21.0938C53.3009 21.123 53.2938 21.1528 53.275 21.1768C53.2568 21.1995 53.2289 21.2132 53.1991 21.2132H51.2897C51.2404 21.2132 51.1982 21.1768 51.1923 21.1275H51.1917ZM53.6273 22.7339C53.6091 22.7566 53.5812 22.7703 53.5514 22.7703H51.4837C51.4343 22.7703 51.3922 22.7339 51.3863 22.6846L51.3137 22.102C51.3098 22.0741 51.3189 22.0456 51.337 22.0254C51.3558 22.004 51.3824 21.9917 51.411 21.9917H53.4197C53.4651 21.9917 53.5047 22.0235 53.5157 22.0676L53.6474 22.6509C53.6545 22.6801 53.6474 22.7099 53.6286 22.7339H53.6273ZM54.182 19.586L54.0055 19.0033C53.9965 18.9735 54.0023 18.9417 54.0205 18.9164C54.0386 18.8924 54.0685 18.8768 54.0996 18.8768H55.7599C55.7995 18.8768 55.8358 18.9015 55.8501 18.9385L56.0836 19.5217C56.096 19.5516 56.0921 19.5853 56.0739 19.6132C56.0558 19.6398 56.0253 19.656 55.9935 19.656H54.2761C54.2326 19.656 54.195 19.6281 54.182 19.586ZM54.655 21.1431L54.4779 20.5605C54.4694 20.5306 54.4746 20.4988 54.4928 20.4735C54.5116 20.4495 54.5408 20.4339 54.5719 20.4339H56.3827C56.4223 20.4339 56.4587 20.4586 56.4729 20.4956L56.7065 21.0789C56.7188 21.1087 56.7149 21.1424 56.6968 21.1703C56.6786 21.1969 56.6481 21.2132 56.6163 21.2132H54.7484C54.7056 21.2132 54.668 21.1853 54.655 21.1431ZM57.3196 22.7275C57.3014 22.7541 57.271 22.7703 57.2392 22.7703H55.2214C55.1779 22.7703 55.1403 22.7424 55.1273 22.7002L54.9508 22.1176C54.9418 22.0877 54.9476 22.0559 54.9658 22.0306C54.9839 22.0066 55.0138 21.9911 55.0449 21.9911H57.0056C57.0452 21.9911 57.0815 22.0157 57.0958 22.0527L57.3293 22.636C57.3417 22.6658 57.3378 22.6996 57.3196 22.7275ZM45.7067 14.7907C45.7067 14.8984 45.6198 14.9853 45.5121 14.9853H43.5657C43.458 14.9853 43.3711 14.8984 43.3711 14.7907V14.4014C43.3711 14.2937 43.458 14.2068 43.5657 14.2068H45.5121C45.6198 14.2068 45.7067 14.2937 45.7067 14.4014V14.7907ZM45.7067 13.2336C45.7067 13.3413 45.6198 13.4282 45.5121 13.4282H43.5657C43.458 13.4282 43.3711 13.3413 43.3711 13.2336V12.8443C43.3711 12.7366 43.458 12.6496 43.5657 12.6496H45.5121C45.6198 12.6496 45.7067 12.7366 45.7067 12.8443V13.2336ZM45.7067 16.3478C45.7067 16.4555 45.6198 16.5424 45.5121 16.5424H43.5657C43.458 16.5424 43.3711 16.4555 43.3711 16.3478V15.9585C43.3711 15.8508 43.458 15.7639 43.5657 15.7639H45.5121C45.6198 15.7639 45.7067 15.8508 45.7067 15.9585V16.3478Z" fill="#E1784A"/>
</svg>
