<svg width="518" height="198" viewBox="0 0 518 198" fill="none" xmlns="http://www.w3.org/2000/svg">
<path d="M413.141 168.056C412.74 168.53 412.257 168.948 411.678 169.296C409.018 170.89 405.728 170.837 402.628 170.794C367.992 170.328 332.82 175.216 298.302 177.872C269.115 180.113 239.929 182.355 210.743 184.601C199.299 185.481 187.855 186.36 176.407 187.239C169.938 187.735 161.189 190.021 154.773 188.902C149.127 187.914 149.788 188.279 149.135 180.61C148.052 167.903 147.168 155.175 146.18 142.461C146.18 103.746 141.039 65.0741 137.104 26.6116C136.934 24.9488 136.791 23.1511 137.639 21.7103C140.534 16.7914 168.741 17.9624 174.683 17.4574C188.917 16.256 203.16 15.1852 217.411 14.1623C245.331 12.1643 273.264 10.3839 301.17 8.27711C332.141 5.93958 363.112 3.53242 394.057 0.872781C396.347 0.6769 398.972 0.594187 400.582 2.23959C401.714 3.39747 402.015 5.10817 402.237 6.71005C406.842 40.0404 407.473 74.3938 409.959 107.955C411.003 122.063 412.048 136.171 413.097 150.278C413.445 154.971 416.723 163.803 413.145 168.056H413.141Z" fill="#D1D9EC"/>
<path d="M414.799 10.5447H149.279V179.421H414.799V10.5447Z" fill="white"/>
<path d="M415.179 179.803H148.893V10.1606H415.179V179.803ZM149.659 179.037H414.413V10.9268H149.659V179.041V179.037Z" fill="#D1D9EC"/>
<path d="M357.777 65.077C358.539 64.2281 359.305 63.375 359.91 62.4086C360.336 61.7252 360.702 60.9721 361.333 60.4672C361.964 59.9666 362.983 59.823 363.531 60.4193C364.158 61.1027 363.78 62.191 363.37 63.0224C362.556 64.6765 361.742 66.335 360.928 67.9891C360.55 68.7552 360.158 69.5431 359.518 70.109C358.878 70.6748 357.921 70.9708 357.15 70.6008C356.288 70.1873 356.005 69.2079 355.931 68.3329C355.905 68.0239 355.844 67.6844 355.918 67.3753C356.001 67.0314 356.262 66.7615 356.493 66.5047C356.919 66.0259 357.35 65.5514 357.777 65.077V65.077Z" fill="#F2F3F7"/>
<path d="M369.803 41.22C369.224 38.7519 366.943 36.9715 364.514 36.2359C362.085 35.5002 359.495 35.6178 356.957 35.6918C343.498 36.0966 329.999 35.1912 316.719 32.9842C313.123 32.3879 309.284 31.7219 305.954 33.2106C304.652 33.7895 303.512 34.6732 302.276 35.3784C299.677 36.8627 296.638 37.5548 293.652 37.3415C290.692 37.1326 287.328 35.5829 284.402 35.078C281.512 34.5774 278.513 34.4033 275.662 35.0911C272.811 35.7788 270.099 37.4112 268.562 39.9098C267.321 41.9208 266.86 44.4107 265.245 46.1301C263.291 48.2064 260.191 48.6113 257.601 49.8083C253.801 51.5625 250.976 55.2756 250.297 59.4065C250.223 59.8592 250.184 60.3598 250.445 60.7342C250.641 61.0171 250.972 61.1695 251.29 61.2913C255.264 62.8279 260.161 61.509 262.821 58.179C263.339 57.5304 263.787 56.8035 264.453 56.3072C266.177 55.0101 268.741 55.6978 270.39 57.0864C272.04 58.475 273.111 60.4207 274.543 62.0357C275.975 63.6506 278.069 64.9957 280.18 64.543C281.647 64.2296 282.909 63.0804 284.411 63.1152C284.851 63.1239 285.343 63.2806 285.534 63.6767C285.639 63.8944 285.634 64.1512 285.608 64.3906C285.277 67.072 282.422 68.7 279.784 69.2877C275.501 70.2453 270.586 71.0811 267.078 68.4432C265.798 67.4812 264.823 66.1187 263.4 65.3874C261.645 64.4864 259.482 64.7171 257.688 65.5311C255.895 66.3451 254.393 67.6814 252.935 69.0091C247.833 73.6537 242.527 79.221 242.384 86.1204C242.353 87.5438 242.571 89.0195 243.315 90.234C244.886 92.8022 248.273 93.5248 251.281 93.6467C254.289 93.7686 257.51 93.5901 260.074 95.1746C261.388 95.9886 262.407 97.203 263.295 98.4697C265.994 102.331 267.678 106.893 268.135 111.581C268.793 118.323 267.034 125.562 270.033 131.635C270.395 132.366 270.834 133.08 271.466 133.598C273.389 135.174 276.31 134.39 278.417 133.071C282.426 130.564 285.325 126.355 286.235 121.714C287.711 114.206 284.32 105.604 288.499 99.1923C290.636 95.9145 294.545 93.6945 295.433 89.8857C295.537 89.433 295.594 88.9324 295.385 88.5189C295.198 88.1446 294.828 87.8964 294.471 87.6788C292.582 86.5427 290.479 85.7983 288.607 84.6317C286.736 83.4652 285.042 81.7327 284.694 79.5562C287.158 79.4953 289.008 81.6718 291.158 82.8688C294.597 84.7798 299.324 83.9396 301.892 80.9622C302.524 80.2309 303.055 79.2907 302.881 78.3418C302.659 77.1229 301.418 76.4134 300.312 75.8606C298.893 75.1598 297.479 74.4546 296.06 73.7538C295.315 73.3838 294.532 72.9833 294.092 72.2825C293.648 71.5817 293.722 70.4847 294.453 70.093C295.041 69.7796 295.759 70.032 296.377 70.2888C300.182 71.8602 303.982 73.436 307.786 75.0074C309.366 75.6604 311.012 76.3612 312.087 77.6888C313.628 79.5867 313.628 82.2463 314.115 84.6448C314.603 87.0389 315.656 89.3199 317.163 91.2438C321.724 88.8193 322.386 82.5336 325.755 78.6204C326.038 78.2939 326.365 77.9674 326.791 77.876C327.549 77.7149 328.223 78.3505 328.737 78.9338C330.461 80.8795 332.18 82.8253 333.904 84.7754C335.001 86.016 336.137 87.3262 336.533 88.9412C336.873 90.3297 336.625 91.7967 336.838 93.2114C337.082 94.8046 337.935 96.2932 339.184 97.3075C336.672 96.8374 334.161 96.3716 331.649 95.9015C331.135 97.7689 333.212 99.2402 334.966 100.063C336.337 100.707 337.704 101.347 339.075 101.991C340.364 102.596 342.514 102.749 342.614 101.33C342.64 100.933 342.457 100.559 342.283 100.207C341.378 98.4131 340.472 96.6197 339.567 94.8263C338.47 92.6542 337.343 90.2166 338.009 87.8747C339.48 89.3982 341.835 91.0001 343.467 89.655C344.538 88.7714 344.495 87.1086 344.077 85.7853C343.306 83.3433 341.543 81.2278 339.28 80.022C340.002 78.5551 341.139 78.1198 342.771 78.2373C344.403 78.3548 346.049 78.838 347.65 78.5028C350.85 77.8325 352.561 74.0019 351.999 70.7851C351.438 67.5683 349.231 64.9043 346.98 62.5363C348.826 61.9051 350.671 61.2739 352.513 60.6384C354.785 59.8592 357.475 58.549 357.558 56.1462C357.597 54.9622 356.94 53.8739 356.213 52.9381C354.65 50.9314 352.656 49.2642 350.402 48.0889C349.923 47.8364 349.4 47.5796 349.144 47.1051C348.582 46.0648 349.609 44.9069 350.532 44.1756C351.76 43.2006 353.148 42.1689 354.715 42.2647C356.33 42.3605 357.601 43.6141 358.711 44.7894C359.961 46.1127 361.214 47.4316 362.464 48.7549C363.26 49.595 364.205 50.5048 365.363 50.4656C366.764 50.4221 367.7 49.0466 368.34 47.7973C369.389 45.7557 370.321 43.453 369.794 41.2156L369.803 41.22Z" fill="#F2F3F7"/>
<path d="M214.534 98.4259C211.474 96.4888 209.624 93.1284 206.89 90.7517C204.187 88.4011 200.413 87.0734 196.944 87.9527C194.832 88.4881 192.956 89.9725 191.898 91.8486C191.724 90.9954 191.246 90.1988 190.519 89.7157C189.591 89.0976 188.364 88.9409 187.611 88.1225C185.682 86.02 188.599 81.9283 186.505 79.9912C184.481 80.6311 182.174 80.8749 180.315 79.8519C178.457 78.829 177.425 76.1781 178.692 74.4761C180.102 72.5869 182.979 73.0222 185.291 73.4705C188.773 74.1496 193.291 73.8971 194.68 70.6324C195.159 69.5094 195.137 68.2253 195.572 67.0848C196.33 65.0999 198.315 63.8767 200.265 63.0235C202.881 61.883 205.658 61.143 208.231 59.9025C210.799 58.6662 213.232 56.8162 214.355 54.1914C215.474 51.5666 214.895 48.0886 212.501 46.539C210.094 44.985 206.903 45.7903 204.265 46.9046C203.39 47.2746 202.302 47.649 201.566 47.0439C200.413 46.095 200.926 43.8837 201.131 42.6431C201.331 41.4156 201.571 40.1227 201.262 38.8865C200.382 35.3693 195.189 35.7916 192.425 35.4695C186.749 34.8078 181.338 32.2526 175.566 32.3571C170.36 32.4529 165.254 34.995 162.033 39.0867C161.711 39.5003 161.389 40.0531 161.637 40.5145C161.802 40.8236 162.159 40.9629 162.49 41.0847C164.775 41.9074 167.087 42.8346 168.898 44.4539C170.708 46.0732 171.945 48.537 171.488 50.9224C171 53.4732 168.819 55.2796 167 57.1296C165.18 58.9796 163.517 61.5827 164.397 64.0247C165.315 66.5711 168.515 67.5593 169.873 69.9055C171.566 72.8307 169.842 76.7614 171.261 79.8302C173.277 84.1875 179.732 83.8349 183.445 86.8863C186.205 89.1498 187.715 93.4418 191.098 94.0817C191.002 94.6519 190.976 95.2352 191.045 95.8228C191.463 99.2921 190.889 102.866 192.264 106.078C193.64 109.291 196.112 112.142 199.368 113.409C200.448 113.827 201.762 114.24 202.071 115.354C202.332 116.295 201.71 117.217 201.323 118.114C199.738 121.792 202.115 125.91 202.245 129.911C202.315 132.026 201.745 134.116 201.697 136.231C201.588 141.341 204.861 146.36 209.58 148.319C209.763 148.393 209.985 148.463 210.146 148.345C210.255 148.267 210.298 148.132 210.324 148.001C210.699 146.308 209.667 144.671 208.914 143.109C208.161 141.546 207.504 139.091 208.975 138.177C210.773 137.062 211.765 135.008 212.335 132.971C212.906 130.934 213.154 128.801 213.929 126.833C215.034 124.021 217.141 121.74 219.222 119.546C221.302 117.352 223.448 115.128 224.672 112.364C225.895 109.6 226.021 106.139 224.18 103.745C221.916 100.798 217.663 100.406 214.525 98.4172L214.534 98.4259Z" fill="#F2F3F7"/>
<path d="M346.255 97.9775C346.22 98.5259 346.259 99.0962 346.512 99.5881C346.764 100.076 347.261 100.467 347.813 100.463C348.693 100.463 349.28 99.5489 349.537 98.7088C349.633 98.391 349.711 98.0602 349.903 97.7903C350.142 97.4551 350.521 97.2549 350.856 97.0155C352.284 95.9926 353.194 93.2546 351.257 92.175C350.495 91.7485 349.824 92.6103 349.28 93.0326C348.51 93.6333 347.8 94.173 347.261 95.0044C346.682 95.8881 346.325 96.9197 346.255 97.9775V97.9775Z" fill="#F2F3F7"/>
<path d="M345.683 104.278C345.056 103.999 344.347 103.903 343.668 104.003C343.568 104.017 343.459 104.043 343.385 104.112C343.241 104.252 343.306 104.495 343.398 104.674C343.968 105.801 345.265 106.519 346.519 106.398C346.741 106.376 346.972 106.328 347.137 106.176C347.459 105.88 347.368 105.314 347.059 105C346.75 104.687 346.31 104.561 345.888 104.447" fill="#F2F3F7"/>
<path d="M365.815 103.176C365.667 102.906 365.562 102.61 365.553 102.301C365.523 101.274 366.611 100.486 367.638 100.49C368.666 100.494 369.602 101.073 370.411 101.704C371.221 102.336 371.996 103.058 372.949 103.433C373.602 103.689 374.316 103.776 374.96 104.055C375.369 104.234 375.765 104.516 376.005 104.9C376.222 105.248 376.37 105.827 376.04 106.158C375.687 106.51 375.043 106.258 374.634 106.171C374.172 106.07 373.711 105.97 373.245 105.883C371.539 105.566 369.763 105.518 368.117 104.93C367.133 104.577 366.389 104.046 365.81 103.176H365.815Z" fill="#F2F3F7"/>
<path d="M368.348 111.671C368.179 112.032 367.965 112.428 367.582 112.541C366.886 112.75 366.381 111.923 365.963 111.327C365.084 110.073 363.434 109.416 361.932 109.721C360.317 110.047 359.094 111.314 357.784 112.315C355.233 114.261 352.125 115.288 349.239 116.685C346.353 118.083 343.498 120.05 342.301 123.023C341.887 124.055 341.713 125.308 342.348 126.223C342.701 126.732 343.254 127.063 343.811 127.328C346.105 128.434 348.782 128.721 351.259 128.129C352.421 127.851 353.531 127.389 354.68 127.063C356.186 126.632 357.762 126.436 359.329 126.475C359.647 126.484 359.978 126.506 360.256 126.662C360.757 126.945 360.931 127.572 361.079 128.129C361.527 129.814 362.324 131.625 363.943 132.278C365.288 132.817 366.855 132.382 368.053 131.564C369.25 130.745 370.168 129.596 371.147 128.53C372.31 127.267 373.581 126.109 374.948 125.073C375.805 124.425 376.745 123.754 377.098 122.736C377.442 121.743 377.133 120.646 376.702 119.684C376.097 118.339 375.248 117.099 374.212 116.05C373.607 115.44 372.932 114.879 372.492 114.139C371.988 113.29 371.848 112.28 371.544 111.34C371.322 110.656 370.978 109.964 370.416 109.503C370.198 109.325 369.885 109.085 369.602 109.259C369.315 109.433 369.18 109.912 369.045 110.195C368.814 110.683 368.584 111.17 368.348 111.658V111.671Z" fill="#F2F3F7"/>
<path d="M510.11 151.112H398.479C397.181 151.112 396.129 152.165 396.129 153.463V195.194C396.129 196.493 397.181 197.545 398.479 197.545H510.11C511.409 197.545 512.461 196.493 512.461 195.194V153.463C512.461 152.165 511.409 151.112 510.11 151.112Z" fill="#CAD2EA"/>
<path d="M514.785 144.468H403.481C402.091 144.468 400.965 145.594 400.965 146.984V190.348C400.965 191.737 402.091 192.864 403.481 192.864H514.785C516.175 192.864 517.301 191.737 517.301 190.348V146.984C517.301 145.594 516.175 144.468 514.785 144.468Z" fill="white"/>
<path d="M514.784 193.246H403.479C401.882 193.246 400.58 191.945 400.58 190.347V146.984C400.58 145.386 401.882 144.084 403.479 144.084H514.784C516.381 144.084 517.683 145.386 517.683 146.984V190.347C517.683 191.945 516.381 193.246 514.784 193.246ZM403.479 144.851C402.304 144.851 401.346 145.808 401.346 146.984V190.347C401.346 191.523 402.304 192.48 403.479 192.48H514.784C515.959 192.48 516.916 191.523 516.916 190.347V146.984C516.916 145.808 515.959 144.851 514.784 144.851H403.479Z" fill="#D1D9EC"/>
<path d="M438.919 173.06C440.8 165.091 435.865 157.106 427.895 155.225C419.926 153.344 411.941 158.279 410.06 166.249C408.179 174.218 413.115 182.203 421.084 184.084C429.053 185.965 437.038 181.029 438.919 173.06Z" fill="#CAD2EA"/>
<path d="M430.738 171.116H423.604V160.764C423.604 160.338 423.952 159.99 424.378 159.99C424.805 159.99 425.153 160.338 425.153 160.764V169.562H430.738C431.165 169.562 431.513 169.91 431.513 170.336C431.513 170.763 431.165 171.111 430.738 171.111V171.116Z" fill="white"/>
<path d="M506.897 156.517H448.668C447.766 156.517 447.035 157.248 447.035 158.149V161.379C447.035 162.281 447.766 163.011 448.668 163.011H506.897C507.798 163.011 508.529 162.281 508.529 161.379V158.149C508.529 157.248 507.798 156.517 506.897 156.517Z" fill="#F2F3F7"/>
<path d="M506.897 166.424H448.668C447.766 166.424 447.035 167.155 447.035 168.056V171.286C447.035 172.188 447.766 172.918 448.668 172.918H506.897C507.798 172.918 508.529 172.188 508.529 171.286V168.056C508.529 167.155 507.798 166.424 506.897 166.424Z" fill="#F2F3F7"/>
<path d="M483.608 176.33H448.315C447.608 176.33 447.035 176.903 447.035 177.61V181.545C447.035 182.252 447.608 182.825 448.315 182.825H483.608C484.315 182.825 484.888 182.252 484.888 181.545V177.61C484.888 176.903 484.315 176.33 483.608 176.33Z" fill="#F2F3F7"/>
<path d="M508.976 94.7854H397.345C396.047 94.7854 394.994 95.8378 394.994 97.136V138.868C394.994 140.166 396.047 141.218 397.345 141.218H508.976C510.274 141.218 511.326 140.166 511.326 138.868V97.136C511.326 95.8378 510.274 94.7854 508.976 94.7854Z" fill="#CAD2EA"/>
<path d="M513.658 88.1438H402.354C400.964 88.1438 399.838 89.2702 399.838 90.6598V134.024C399.838 135.413 400.964 136.54 402.354 136.54H513.658C515.048 136.54 516.174 135.413 516.174 134.024V90.6598C516.174 89.2702 515.048 88.1438 513.658 88.1438Z" fill="white"/>
<path d="M513.653 136.922H402.348C400.751 136.922 399.449 135.62 399.449 134.023V90.6591C399.449 89.0615 400.751 87.76 402.348 87.76H513.653C515.25 87.76 516.552 89.0615 516.552 90.6591V134.023C516.552 135.62 515.25 136.922 513.653 136.922ZM402.348 88.5261C401.173 88.5261 400.215 89.4838 400.215 90.6591V134.023C400.215 135.198 401.173 136.156 402.348 136.156H513.653C514.828 136.156 515.786 135.198 515.786 134.023V90.6591C515.786 89.4838 514.828 88.5261 513.653 88.5261H402.348V88.5261Z" fill="#D1D9EC"/>
<path d="M433.865 123.835C439.655 118.045 439.655 108.657 433.865 102.867C428.075 97.0775 418.688 97.0775 412.898 102.867C407.108 108.657 407.108 118.045 412.898 123.835C418.688 129.625 428.075 129.625 433.865 123.835Z" fill="#CAD2EA"/>
<path d="M423.086 121.876L423.361 122.851C423.4 122.99 423.6 122.99 423.635 122.851L423.887 121.872L425.363 122.124L426.904 122.39L427.518 122.494L427.509 121.859C427.509 121.693 427.417 121.536 427.278 121.449L424.44 119.73C424.558 119.26 424.619 118.785 424.61 118.302L424.545 112.761L425.106 112.809L432.484 113.449L433.816 113.562L433.808 112.696C433.808 112.53 433.703 112.387 433.546 112.334L430.486 111.277V110.75C430.478 110.659 430.404 110.585 430.312 110.585L429.729 110.593C429.637 110.593 429.563 110.672 429.563 110.763V110.963L428.323 110.532V110.127C428.319 110.036 428.24 109.962 428.149 109.962L427.565 109.971C427.474 109.971 427.4 110.049 427.4 110.141V110.219L424.501 109.218L424.444 104.334C424.44 103.829 424.318 103.337 424.087 102.889L423.613 101.957C423.465 101.665 423.043 101.67 422.899 101.966L422.446 102.91C422.229 103.363 422.116 103.859 422.124 104.364L422.181 109.248L419.304 110.319V110.241C419.304 110.149 419.225 110.075 419.134 110.075L418.551 110.084C418.459 110.084 418.385 110.162 418.385 110.254V110.659L417.153 111.116V110.915C417.153 110.824 417.075 110.75 416.983 110.75L416.4 110.759C416.309 110.759 416.235 110.837 416.235 110.928V111.455L413.209 112.583C413.057 112.639 412.957 112.787 412.957 112.948L412.966 113.814L420.601 112.974L421.654 112.857L422.216 112.796L422.281 118.337C422.285 118.816 422.355 119.295 422.486 119.756V119.765L419.678 121.541C419.539 121.632 419.452 121.785 419.456 121.954L419.465 122.59L423.086 121.876V121.876Z" fill="white"/>
<path d="M505.762 100.192H447.533C446.631 100.192 445.9 100.923 445.9 101.825V105.055C445.9 105.956 446.631 106.687 447.533 106.687H505.762C506.663 106.687 507.394 105.956 507.394 105.055V101.825C507.394 100.923 506.663 100.192 505.762 100.192Z" fill="#F2F3F7"/>
<path d="M505.762 110.099H447.533C446.631 110.099 445.9 110.83 445.9 111.731V114.961C445.9 115.863 446.631 116.594 447.533 116.594H505.762C506.663 116.594 507.394 115.863 507.394 114.961V111.731C507.394 110.83 506.663 110.099 505.762 110.099Z" fill="#F2F3F7"/>
<path d="M482.474 120.006H447.18C446.473 120.006 445.9 120.579 445.9 121.286V125.221C445.9 125.927 446.473 126.5 447.18 126.5H482.474C483.18 126.5 483.753 125.927 483.753 125.221V121.286C483.753 120.579 483.18 120.006 482.474 120.006Z" fill="#F2F3F7"/>
<path d="M114.602 104.633H3.84172C2.00262 104.633 0.511719 106.124 0.511719 107.963V143.914C0.511719 145.753 2.00262 147.244 3.84172 147.244H114.602C116.441 147.244 117.932 145.753 117.932 143.914V107.963C117.932 106.124 116.441 104.633 114.602 104.633Z" fill="#D1D9EC"/>
<path d="M7.53551 94.2573H118.84C120.229 94.2573 121.356 95.3847 121.356 96.7733V140.137C121.356 141.526 120.229 142.653 118.84 142.653H7.53551C6.14693 142.653 5.01953 141.526 5.01953 140.137V96.7733C5.01953 95.3847 6.14693 94.2573 7.53551 94.2573V94.2573Z" fill="white"/>
<path d="M118.838 143.036H7.53381C5.93628 143.036 4.63477 141.734 4.63477 140.136V96.7726C4.63477 95.1751 5.93628 93.8735 7.53381 93.8735H118.838C120.436 93.8735 121.737 95.1751 121.737 96.7726V140.136C121.737 141.734 120.436 143.036 118.838 143.036V143.036ZM7.53381 94.6397C6.35851 94.6397 5.40086 95.5973 5.40086 96.7726V140.136C5.40086 141.312 6.35851 142.269 7.53381 142.269H118.838C120.014 142.269 120.971 141.312 120.971 140.136V96.7726C120.971 95.5973 120.014 94.6397 118.838 94.6397H7.53381Z" fill="#D1D9EC"/>
<path d="M42.9099 123.171C44.9712 115.247 40.218 107.152 32.2935 105.091C24.369 103.029 16.2739 107.782 14.2127 115.707C12.1514 123.632 16.9046 131.727 24.8291 133.788C32.7536 135.849 40.8487 131.096 42.9099 123.171Z" fill="#CAD2EA"/>
<path d="M38.8445 117.169L29.2854 109.908C29.0591 109.738 28.75 109.73 28.5193 109.895L18.3161 117.16C18.0636 117.338 18.1898 117.739 18.5032 117.739H20.9539V126.053C20.9539 126.645 21.4327 127.128 22.0291 127.128H35.0879C35.6799 127.128 36.1631 126.649 36.1631 126.053V117.739H38.6616C38.9664 117.739 39.0969 117.351 38.8532 117.164L38.8445 117.169Z" fill="#F2F3F7"/>
<path d="M110.953 106.306H52.7241C51.8226 106.306 51.0918 107.037 51.0918 107.938V111.168C51.0918 112.07 51.8226 112.8 52.7241 112.8H110.953C111.855 112.8 112.586 112.07 112.586 111.168V107.938C112.586 107.037 111.855 106.306 110.953 106.306Z" fill="#F2F3F7"/>
<path d="M110.953 116.213H52.7241C51.8226 116.213 51.0918 116.944 51.0918 117.845V121.075C51.0918 121.977 51.8226 122.707 52.7241 122.707H110.953C111.855 122.707 112.586 121.977 112.586 121.075V117.845C112.586 116.944 111.855 116.213 110.953 116.213Z" fill="#F2F3F7"/>
<path d="M87.6651 126.119H52.3716C51.6648 126.119 51.0918 126.692 51.0918 127.399V131.334C51.0918 132.041 51.6648 132.614 52.3716 132.614H87.6651C88.3719 132.614 88.9449 132.041 88.9449 131.334V127.399C88.9449 126.692 88.3719 126.119 87.6651 126.119Z" fill="#F2F3F7"/>
<path d="M28.5704 114.432C26.9946 114.432 25.7148 115.712 25.7148 117.288C25.7148 120.352 28.5704 124.488 28.5704 124.488C28.5704 124.488 31.4259 120.352 31.4259 117.288C31.4259 115.712 30.1461 114.432 28.5704 114.432ZM28.5704 118.502C27.7868 118.502 27.1557 117.867 27.1557 117.088C27.1557 116.308 27.7912 115.673 28.5704 115.673C29.3495 115.673 29.9851 116.308 29.9851 117.088C29.9851 117.867 29.3495 118.502 28.5704 118.502Z" fill="#CAD2EA"/>
</svg>
