<svg width="799" height="420" viewBox="0 0 799 420" fill="none" xmlns="http://www.w3.org/2000/svg">
<g clip-path="url(#clip0_393_20)">
<g opacity="0.7">
<path d="M-832.243 2.32315L-1028.26 236.912L-1035.22 220.472L-1134.49 341.245L-1155.36 253.353L-953.015 2.32315H-832.243ZM-1102.24 2.32315V419.652H-1211V2.32315H-1102.24ZM-992.851 140.168L-824.655 419.652H-947.957L-1074.42 200.87L-992.851 140.168Z" fill="white" fill-opacity="0.1"/>
<path d="M-566.349 206.561V294.453H-797.777V206.561H-566.349Z" fill="white" fill-opacity="0.1"/>
<path d="M-281.604 -4C-239.45 -4 -203.197 4.64165 -172.846 21.925C-142.073 38.7867 -118.466 63.2363 -102.026 95.2736C-85.586 127.311 -77.3658 165.882 -77.3658 210.987C-77.3658 256.093 -85.586 294.664 -102.026 326.701C-118.466 358.739 -142.073 383.399 -172.846 400.682C-203.197 417.544 -239.45 425.975 -281.604 425.975C-323.758 425.975 -360.222 417.544 -390.995 400.682C-421.767 383.399 -445.374 358.739 -461.814 326.701C-478.254 294.664 -486.474 256.093 -486.474 210.987C-486.474 165.882 -478.254 127.311 -461.814 95.2736C-445.374 63.2363 -421.767 38.7867 -390.995 21.925C-360.222 4.64165 -323.758 -4 -281.604 -4ZM-281.604 81.3627C-301.838 81.3627 -318.911 86.2104 -332.822 95.9059C-346.733 105.601 -357.271 120.145 -364.437 139.536C-371.604 158.505 -375.187 182.322 -375.187 210.987C-375.187 239.231 -371.604 263.048 -364.437 282.439C-357.271 301.83 -346.733 316.373 -332.822 326.069C-318.911 335.765 -301.838 340.612 -281.604 340.612C-261.37 340.612 -244.508 335.765 -231.019 326.069C-217.108 316.373 -206.569 301.83 -199.403 282.439C-192.237 263.048 -188.654 239.231 -188.654 210.987C-188.654 182.322 -192.237 158.505 -199.403 139.536C-206.569 120.145 -217.108 105.601 -231.019 95.9059C-244.508 86.2104 -261.37 81.3627 -281.604 81.3627Z" fill="white" fill-opacity="0.1"/>
<path d="M373.668 2.32315V419.652H252.896L123.271 193.915L91.6552 131.948H91.0228L93.5521 209.091V419.652H-2.55994V2.32315H118.212L247.837 228.06L279.453 290.027H280.085L277.556 212.884V2.32315H373.668Z" fill="white" fill-opacity="0.1"/>
<path d="M466.12 419.652V2.32315H791.13V86.4212H574.878V171.152H746.868V250.191H574.878V335.554H799.35V419.652H466.12Z" fill="white" fill-opacity="0.1"/>
</g>
</g>
<defs>
<clipPath id="clip0_393_20">
<rect width="799" height="420" fill="white"/>
</clipPath>
</defs>
</svg>
