<svg width="288" height="210" viewBox="0 0 288 210" fill="none" xmlns="http://www.w3.org/2000/svg">
<path d="M52.419 56.0266L84.5497 92.6216L77.3835 92.589L48.392 72.167L47.5762 65.3271L52.419 56.0266Z" fill="#F3AF9F"/>
<mask id="mask0_301_544" style="mask-type:alpha" maskUnits="userSpaceOnUse" x="47" y="56" width="38" height="37">
<path d="M52.4209 56.0264L84.5517 92.6214L77.3854 92.5887L48.394 72.1668L47.5781 65.3269L52.4209 56.0264Z" fill="#DA8C8D"/>
</mask>
<g mask="url(#mask0_301_544)">
<path d="M53.6366 57.4023C53.6366 57.4023 52.4096 76.049 52.7359 77.1977L43.7422 71.4738L50.8563 52.7488L53.6366 57.4023Z" fill="#DE8F7D"/>
</g>
<mask id="mask1_301_544" style="mask-type:alpha" maskUnits="userSpaceOnUse" x="47" y="56" width="38" height="37">
<path d="M52.4209 56.0264L84.5517 92.6214L77.3854 92.5887L48.394 72.1668L47.5781 65.3269L52.4209 56.0264Z" fill="#DA8C8D"/>
</mask>
<g mask="url(#mask1_301_544)">
<path d="M61.877 82.866L84.5506 89.0598L86.0452 95.2732L62.6797 94.6727L61.877 82.866Z" fill="#DE8F7D"/>
</g>
<path d="M157.646 122.419H111.895V179.09H157.646V122.419Z" fill="#F1CA89"/>
<path d="M192.801 122.419H157.648V179.09H192.801V122.419Z" fill="#EFA856"/>
<path d="M141.988 122.419H130.664V133.743H141.988V122.419Z" fill="#F2F3F7"/>
<path d="M157.646 65.752H111.895V122.423H157.646V65.752Z" fill="#F1CA89"/>
<path d="M192.801 65.752H157.648V122.423H192.801V65.752Z" fill="#F1B873"/>
<path d="M141.988 65.752H130.664V77.0757H141.988V65.752Z" fill="#F2F3F7"/>
<path d="M157.642 122.736H115.304C115.134 122.736 114.99 122.599 114.99 122.423C114.99 122.246 115.127 122.109 115.304 122.109H157.642C157.812 122.109 157.955 122.246 157.955 122.423C157.955 122.599 157.818 122.736 157.642 122.736Z" fill="#E5A251"/>
<path d="M192.792 122.736H161.098C160.929 122.736 160.785 122.599 160.785 122.423C160.785 122.246 160.922 122.109 161.098 122.109H192.792C192.962 122.109 193.105 122.246 193.105 122.423C193.105 122.599 192.968 122.736 192.792 122.736Z" fill="#E5A251"/>
<path d="M238.502 122.42H192.75V179.091H238.502V122.42Z" fill="#F1CA89"/>
<path d="M273.653 122.42H238.5V179.091H273.653V122.42Z" fill="#F1B873"/>
<path d="M250.947 124.821H240.922V139.258H250.947V124.821Z" fill="#EFA856"/>
<path d="M222.835 122.42H211.512V133.744H222.835V122.42Z" fill="#F2F3F7"/>
<path d="M238.61 81.2642H205.383V122.421H238.61V81.2642Z" fill="#F1CA89"/>
<path d="M264.137 81.2642H238.611V122.421H264.137V81.2642Z" fill="#F1B873"/>
<path d="M227.243 81.2642H219.02V89.4877H227.243V81.2642Z" fill="#F2F3F7"/>
<path d="M238.499 122.736H196.161C195.991 122.736 195.848 122.599 195.848 122.423C195.848 122.246 195.985 122.109 196.161 122.109H238.499C238.669 122.109 238.813 122.246 238.813 122.423C238.813 122.599 238.676 122.736 238.499 122.736Z" fill="#E5A251"/>
<path d="M273.645 122.736H241.952C241.782 122.736 241.639 122.599 241.639 122.423C241.639 122.246 241.776 122.109 241.952 122.109H273.645C273.815 122.109 273.959 122.246 273.959 122.423C273.959 122.599 273.822 122.736 273.645 122.736Z" fill="#E5A251"/>
<path d="M200.51 91.835H176.746V139.264H200.51V91.835Z" fill="#F1CA89"/>
<path d="M208.851 91.835H195.771V139.264H208.851V91.835Z" fill="#F1B873"/>
<path d="M189.617 91.835H184.52V98.8641H189.617V91.835Z" fill="#F2F3F7"/>
<path d="M176.744 94.0862H174.303V139.264H176.744V94.0862Z" fill="#EFA856"/>
<path d="M201.119 139.36H167.918V179.094H201.119V139.36Z" fill="#F1CA89"/>
<path d="M217.784 139.26H201.115V179.092H217.784V139.26Z" fill="#EFA856"/>
<path d="M197.366 139.621H167.917C167.774 139.621 167.656 139.504 167.656 139.36C167.656 139.216 167.774 139.099 167.917 139.099H197.366C197.509 139.099 197.627 139.216 197.627 139.36C197.627 139.504 197.509 139.621 197.366 139.621Z" fill="#E5A251"/>
<path d="M187.704 139.62H181.334V146.976H187.704V139.62Z" fill="#F2F3F7"/>
<path d="M167.917 142.629H164.752V179.094H167.917V142.629Z" fill="#E5A251"/>
<path d="M287.353 179.092H102.074V186.056H287.353V179.092Z" fill="#343766"/>
<path d="M122.964 209.933C128.836 209.933 133.596 205.173 133.596 199.301C133.596 193.429 128.836 188.669 122.964 188.669C117.092 188.669 112.332 193.429 112.332 199.301C112.332 205.173 117.092 209.933 122.964 209.933Z" fill="#343766"/>
<path d="M122.964 204.622C125.902 204.622 128.283 202.24 128.283 199.302C128.283 196.365 125.902 193.983 122.964 193.983C120.026 193.983 117.645 196.365 117.645 199.302C117.645 202.24 120.026 204.622 122.964 204.622Z" fill="#CAD2EA"/>
<path d="M122.963 201.225C120.431 201.225 118.375 199.169 118.375 196.637V186.057H127.545V196.637C127.545 199.169 125.489 201.225 122.957 201.225H122.963Z" fill="#8296C9"/>
<path d="M273.124 209.932C278.996 209.932 283.756 205.172 283.756 199.3C283.756 193.429 278.996 188.668 273.124 188.668C267.252 188.668 262.492 193.429 262.492 199.3C262.492 205.172 267.252 209.932 273.124 209.932Z" fill="#343766"/>
<path d="M273.124 204.621C276.062 204.621 278.443 202.24 278.443 199.302C278.443 196.364 276.062 193.983 273.124 193.983C270.186 193.983 267.805 196.364 267.805 199.302C267.805 202.24 270.186 204.621 273.124 204.621Z" fill="#CAD2EA"/>
<path d="M268.54 186.057H277.71V196.637C277.71 199.169 275.654 201.225 273.121 201.225C270.589 201.225 268.533 199.169 268.533 196.637V186.057H268.54Z" fill="#8296C9"/>
<path d="M136.315 183.027L101.886 98.6894C101.351 97.371 99.9873 96.4899 98.4861 96.4899H65.9442C64.8934 96.4899 64.0449 95.6415 64.0449 94.5907C64.0449 93.5399 64.8934 92.6914 65.9442 92.6914H98.4861C101.671 92.6914 104.569 94.5646 105.692 97.3449L140.12 181.676L136.315 183.027Z" fill="#343766"/>
<path d="M18.9917 71.2772L14.3447 75.1084C14.3447 75.1084 10.5266 68.5295 10.0371 64.8093C10.0371 64.8093 11.2446 75.8002 11.9691 80.6365C12.7523 85.8709 33.2785 85.5706 33.2785 85.5706C33.2785 85.5706 27.026 82.5227 18.9917 71.2772Z" fill="#F4C54E"/>
<path d="M31.6718 63.1375C34.0737 67.1906 40.3393 74.9965 40.3393 74.9965L34.5175 64.0317C33.545 62.2042 32.4289 60.4551 31.1693 58.8104L23.3242 48.5439L31.3977 62.6611C31.476 62.8047 31.5674 62.9548 31.6588 63.1179L31.6784 63.1506L31.6718 63.1375Z" fill="#F4C54E"/>
<path d="M31.8766 10.8883C31.8766 10.8883 41.5099 26.1019 32.7576 28.2035C24.0054 30.2986 15.8275 21.964 16.9044 14.8173C17.9813 7.67064 26.2179 0.602298 31.87 10.8883H31.8766Z" fill="#F3AF9F"/>
<path d="M17.0918 18.4883C17.0918 18.4883 20.8381 28.944 20.6749 38.0683C20.6749 38.0683 27.913 40.816 32.0835 39.465C36.2541 38.114 26.1312 21.4057 26.1312 21.4057L17.0983 18.4948L17.0918 18.4883Z" fill="#F3AF9F"/>
<path d="M30.0056 28.5296C30.0056 28.5296 28.5894 28.5492 24.6016 26.8979C24.6016 26.8979 26.0178 30.5594 31.1804 31.0881C31.1804 31.0881 30.469 29.4629 30.0056 28.5296Z" fill="#DE8F7D"/>
<path d="M21.9824 11.303L21.5777 17.3075C21.5255 18.0646 21.1926 18.776 20.6379 19.2981C20.6379 19.2981 20.2919 17.5164 19.4892 17.5751C18.6864 17.6339 17.107 20.9037 20.7358 22.1699L20.5857 25.2244C20.5465 26.0076 20.1354 26.7255 19.4762 27.1563C19.4762 27.1563 15.3382 21.7783 14.6855 18.9262C14.6855 18.9262 17.7662 13.992 21.9889 11.3095L21.9824 11.303Z" fill="#343766"/>
<path d="M33.8264 9.19522C33.8264 9.19522 34.7793 13.6464 33.6958 14.1881C33.6958 14.1881 31.4507 9.87401 30.3477 8.59478C30.3477 8.59478 32.3775 8.34023 33.8199 9.19522H33.8264Z" fill="#343766"/>
<path d="M14.6791 18.9239C14.6791 18.9239 22.0608 7.02582 33.0582 7.9004C33.0582 7.9004 31.6223 -0.257944 20.9904 3.07065C10.3585 6.39925 14.6791 18.9239 14.6791 18.9239Z" fill="#F4C54E"/>
<path d="M20.6426 12.2466C20.6426 12.2466 26.112 -0.832806 35.6996 0.0743992C40.4902 0.524739 33.8265 9.19212 33.8265 9.19212C33.8265 9.19212 28.6508 7.815 20.6426 12.2531V12.2466Z" fill="#F9DD89"/>
<path d="M18.9932 34.4229C18.9932 34.4229 29.821 29.6715 39.3368 36.2047L53.813 53.7418L47.7562 65.3789L44.1535 82.9225H11.0307L9.84289 61.241C9.84289 61.241 -1.73547 44.0824 18.9932 34.4229Z" fill="#F9DD89"/>
<path d="M39.8887 36.9548C39.8887 36.9548 48.4256 48.5266 50.0246 61.0056C51.6236 73.4845 50.0246 61.0056 50.0246 61.0056L47.1594 68.2828L43.5436 49.1662L39.8952 36.9613" fill="#F4C54E"/>
<path d="M39.8919 36.959C39.2066 35.856 38.1558 35.0205 36.9353 34.5637L36.2043 34.2896C36.2043 34.2896 41.6019 49.1638 42.6396 57.8769L36.0803 59.0256C36.0803 59.0256 24.3062 39.0736 17.5707 35.1249L14.3009 37.0895C14.3009 37.0895 33.0846 54.8681 32.6277 71.5046C32.1773 88.141 10.411 71.6677 10.411 71.6677L7.40866 112.707C5.777 129.598 7.33688 146.816 7.33688 146.816L1.97852 200.465L6.52758 201.724C6.52758 201.724 25.1025 162.721 28.1896 148.878C28.3332 148.239 28.4898 147.547 28.6595 146.816C29.2469 148.689 37.1376 203.154 37.1376 203.154L41.9021 203.076C41.9021 203.076 50.6478 160.998 50.3607 146.822C50.204 139.33 53.7219 59.2605 39.8919 36.972V36.959Z" fill="#0C3388"/>
<path d="M28.666 146.807L35.036 119.303C35.036 119.303 35.5386 141.07 35.9106 146.702C36.2891 152.335 32.9083 174.225 32.9083 174.225L28.666 146.807Z" fill="#1F1949"/>
<path d="M9.83984 61.2456L21.2288 78.365C21.2288 78.365 13.1097 73.6267 10.4077 71.6687L9.83984 61.2456Z" fill="#F4C54E"/>
<path d="M1.6823 199.985L7.39313 201.251L6.48591 203.92C6.48591 203.92 12.634 205.905 14.9836 209.925L0.396484 207.047L1.6823 199.985Z" fill="#1F1949"/>
<path d="M36.6777 202.76L42.5256 202.629L42.2776 205.442C42.2776 205.442 48.5432 206.578 51.7739 209.926H37.1019L36.6777 202.766V202.76Z" fill="#1F1949"/>
<path d="M35.048 70.0242C35.048 70.0242 36.6274 76.5965 37.0712 77.0207C37.515 77.4384 73.8424 87.3133 73.8424 87.3133L71.5973 92.6847C71.5973 92.6847 28.6061 89.3888 26.7003 86.9413C25.5908 85.5119 17.8828 72.9612 17.8828 72.9612L35.0414 70.0307L35.048 70.0242Z" fill="#F3AF9F"/>
<mask id="mask2_301_544" style="mask-type:alpha" maskUnits="userSpaceOnUse" x="17" y="70" width="57" height="23">
<path d="M35.0499 70.0244C35.0499 70.0244 36.6293 76.5967 37.0732 77.021C37.517 77.4387 73.8443 87.3135 73.8443 87.3135L71.5992 92.685C71.5992 92.685 28.6081 89.389 26.7023 86.9415C25.5928 85.5122 17.8848 72.9614 17.8848 72.9614L35.0434 70.0309L35.0499 70.0244Z" fill="#DA8C8D"/>
</mask>
<g mask="url(#mask2_301_544)">
<path d="M35.7674 70.6769L20.6255 80.8911L15.9785 69.6783L34.9189 64.0066L35.7674 70.6769Z" fill="#DE8F7D"/>
</g>
<path d="M73.8451 87.3142L81.0309 91.0931C81.0309 91.0931 79.8561 96.4515 77.4413 96.3862C75.0199 96.3275 70.7971 95.1592 70.7971 95.1592L71.6064 92.6791C71.6064 92.6791 68.1212 87.7971 73.8516 87.3076L73.8451 87.3142Z" fill="#F3AF9F"/>
<path d="M36.4289 69.952L16.4051 73.4111L9.83928 61.2454C9.83928 61.2454 1.54387 46.3581 14.297 37.0902C22.5662 31.0792 36.4224 69.9454 36.4224 69.9454L36.4289 69.952Z" fill="#F9DD89"/>
</svg>
