<svg width="28" height="104" viewBox="0 0 28 104" fill="none" xmlns="http://www.w3.org/2000/svg">
<path d="M4.672 6.57788H8.80844V15.2185H4.672C4.672 10.885 2.15073 8.63954 0.141602 7.53649V6.57788H4.672Z" fill="#898885"/>
<path d="M4.672 17.7788H8.80844V26.4194H4.672C4.672 22.086 2.15073 19.8405 0.141602 18.7374V17.7788H4.672Z" fill="#898885"/>
<path d="M4.672 28.9668H8.80844V37.6074H4.672C4.672 33.274 2.15073 31.0285 0.141602 29.9254V28.9668H4.672V28.9668Z" fill="#898885"/>
<path d="M23.4109 6.57788H19.2744V15.2185H23.4109C23.4109 10.885 25.9321 8.63954 27.9413 7.53649V6.57788H23.4109Z" fill="#898885"/>
<path d="M23.4109 17.7788H19.2744V26.4194H23.4109C23.4109 22.086 25.9321 19.8405 27.9413 18.7374V17.7788H23.4109Z" fill="#898885"/>
<path d="M23.4109 28.9668H19.2744V37.6074H23.4109C23.4109 33.274 25.9321 31.0285 27.9413 29.9254V28.9668H23.4109V28.9668Z" fill="#898885"/>
<path d="M15.2176 41.2844H12.8408V99.0502H15.2176V41.2844Z" fill="#888783"/>
<path d="M18.8282 99.0371H9.24219V103.265H18.8282V99.0371Z" fill="#888783"/>
<path d="M18.8282 101.348H9.24219V103.278H18.8282V101.348Z" fill="#575654"/>
<path d="M15.2303 41.2844H12.8535V46.9441H15.2303V41.2844Z" fill="#575654"/>
<path d="M15.2303 96.2139H12.8535V99.0503H15.2303V96.2139Z" fill="#575654"/>
<path d="M21.3357 2.91406H6.7334V41.2714H21.3357V2.91406Z" fill="#6C6B68"/>
<path d="M18.3554 10.9109C18.3554 13.3008 16.4251 15.2312 14.0351 15.2312C11.6452 15.2312 9.71484 13.3008 9.71484 10.9109C9.71484 8.52092 11.6452 6.59058 14.0351 6.59058C16.4251 6.59058 18.3554 8.52092 18.3554 10.9109V10.9109Z" fill="#F0873A"/>
<path d="M14.0351 26.4194C16.4212 26.4194 18.3554 24.4851 18.3554 22.0991C18.3554 19.7131 16.4212 17.7788 14.0351 17.7788C11.6491 17.7788 9.71484 19.7131 9.71484 22.0991C9.71484 24.4851 11.6491 26.4194 14.0351 26.4194Z" fill="#FDD11D"/>
<path d="M18.3554 33.2871C18.3554 35.677 16.4251 37.6074 14.0351 37.6074C11.6452 37.6074 9.71484 35.677 9.71484 33.2871C9.71484 30.8971 11.6452 28.9668 14.0351 28.9668C16.4251 28.9668 18.3554 30.8971 18.3554 33.2871V33.2871Z" fill="#9DC641"/>
<g opacity="0.3">
<path d="M14.0352 6.57734C12.8403 6.57734 11.7635 7.06321 10.9756 7.83797L17.0949 13.9442C17.8828 13.1694 18.3555 12.0795 18.3555 10.8845C18.3555 8.49455 16.4252 6.56421 14.0352 6.56421V6.57734Z" fill="white"/>
</g>
<g opacity="0.3">
<path d="M14.0352 17.7917C12.8403 17.7917 11.7635 18.2776 10.9756 19.0524L17.0949 25.1717C17.8828 24.3838 18.3555 23.307 18.3555 22.112C18.3555 19.7221 16.4252 17.7917 14.0352 17.7917V17.7917Z" fill="white"/>
</g>
<g opacity="0.3">
<path d="M14.0352 28.9931C12.8403 28.9931 11.7635 29.479 10.9756 30.2537L17.0949 36.3599C17.8828 35.5852 18.3555 34.4952 18.3555 33.3003C18.3555 30.9103 16.4252 28.98 14.0352 28.98V28.9931Z" fill="white"/>
</g>
<path d="M22.9644 0.458252H5.10547V2.91386H22.9644V0.458252Z" fill="#575654"/>
<path d="M22.9643 6.57788H21.3359V15.2185H22.9643V6.57788Z" fill="#4C4B49"/>
<path d="M22.9643 17.7791H21.3359V26.4196H22.9643V17.7791Z" fill="#4C4B49"/>
<path d="M22.9643 28.9673H21.3359V37.6079H22.9643V28.9673Z" fill="#4C4B49"/>
<path d="M6.73378 6.57788H5.10547V15.2185H6.73378V6.57788Z" fill="#4C4B49"/>
<path d="M6.73378 17.7791H5.10547V26.4196H6.73378V17.7791Z" fill="#4C4B49"/>
<path d="M6.73378 28.9673H5.10547V37.6079H6.73378V28.9673Z" fill="#4C4B49"/>
</svg>
