<svg width="164" height="74" viewBox="0 0 164 74" fill="none" xmlns="http://www.w3.org/2000/svg">
<path d="M0.254227 0H119.12V49.4428H0.254227V0Z" fill="#CAD2EA"/>
<path d="M0.254227 49.4387H119.12V57.0182H0.254227V49.4387Z" fill="#343766"/>
<path d="M51.1475 63.7391C51.1801 63.3682 51.1973 62.992 51.1973 62.6125C51.1973 55.6959 45.5895 50.0881 38.673 50.0881C31.7564 50.0881 26.1487 55.6959 26.1487 62.6125C26.1487 62.992 26.1658 63.3682 26.1985 63.7391H51.1475Z" fill="#1F1949"/>
<path d="M27.7505 62.6778C27.7505 56.6448 32.6412 51.7542 38.6741 51.7542C44.707 51.7542 49.5977 56.6448 49.5977 62.6778C49.5977 68.7107 44.707 73.6013 38.6741 73.6013C32.6412 73.6013 27.7505 68.7107 27.7505 62.6778Z" fill="#343766"/>
<path d="M38.6712 67.1725C36.1888 67.1725 34.1764 65.1601 34.1764 62.6777C34.1764 60.1953 36.1888 58.1829 38.6712 58.1829C41.1536 58.1829 43.166 60.1953 43.166 62.6777C43.166 65.1601 41.1536 67.1725 38.6712 67.1725Z" fill="#CAD2EA"/>
<path d="M38.6693 60.1015C38.3298 60.1015 38.0545 59.8262 38.0545 59.4867C38.0545 59.1471 38.3298 58.8718 38.6693 58.8718C39.0089 58.8718 39.2842 59.1471 39.2842 59.4867C39.2842 59.8262 39.0089 60.1015 38.6693 60.1015Z" fill="#343766"/>
<path d="M38.6693 66.4848C38.3298 66.4848 38.0545 66.2095 38.0545 65.87C38.0545 65.5304 38.3298 65.2551 38.6693 65.2551C39.0089 65.2551 39.2842 65.5304 39.2842 65.87C39.2842 66.2095 39.0089 66.4848 38.6693 66.4848Z" fill="#343766"/>
<path d="M41.3607 60.8553C41.1202 61.0957 40.7321 61.0957 40.4916 60.8553C40.2512 60.6148 40.2512 60.2267 40.4916 59.9862C40.7321 59.7458 41.1202 59.7458 41.3607 59.9862C41.6011 60.2267 41.6011 60.6148 41.3607 60.8553Z" fill="#343766"/>
<path d="M36.849 65.3677C36.6085 65.6082 36.2204 65.6082 35.9799 65.3677C35.7395 65.1273 35.7395 64.7391 35.9799 64.4987C36.2204 64.2582 36.6085 64.2582 36.849 64.4987C37.0894 64.7391 37.0894 65.1273 36.849 65.3677Z" fill="#343766"/>
<path d="M41.2955 62.9136C41.1659 62.6007 41.3145 62.2421 41.6273 62.1125C41.9402 61.9829 42.2989 62.1314 42.4285 62.4443C42.558 62.7571 42.4095 63.1158 42.0966 63.2454C41.7838 63.375 41.4251 63.2264 41.2955 62.9136Z" fill="#343766"/>
<path d="M35.4818 63.2929C35.1423 63.2929 34.867 63.0177 34.867 62.6781C34.867 62.3385 35.1423 62.0632 35.4818 62.0632C35.8214 62.0632 36.0967 62.3385 36.0967 62.6781C36.0967 63.0177 35.8214 63.2929 35.4818 63.2929Z" fill="#343766"/>
<path d="M40.4946 65.3677C40.2541 65.1273 40.2541 64.7391 40.4946 64.4987C40.735 64.2582 41.1232 64.2582 41.3636 64.4987C41.6041 64.7391 41.6041 65.1273 41.3636 65.3677C41.1232 65.6082 40.735 65.6082 40.4946 65.3677Z" fill="#343766"/>
<path d="M35.9829 60.8555C35.7424 60.6151 35.7424 60.2269 35.9829 59.9865C36.2233 59.746 36.6114 59.746 36.8519 59.9865C37.0923 60.2269 37.0923 60.6151 36.8519 60.8555C36.6114 61.096 36.2233 61.096 35.9829 60.8555Z" fill="#343766"/>
<path d="M38.6726 64.3187C37.7658 64.3187 37.0307 63.5836 37.0307 62.6768C37.0307 61.77 37.7658 61.0349 38.6726 61.0349C39.5794 61.0349 40.3145 61.77 40.3145 62.6768C40.3145 63.5836 39.5794 64.3187 38.6726 64.3187Z" fill="#343766"/>
<path d="M56.9112 54.591V52.3066H115.115V54.591H106.072V59.4413H115.115V61.7256H56.9112V59.4413H65.9541V54.591H56.9112ZM105.114 59.4413V54.591H86.4924V59.4413H105.114ZM66.9124 59.4413H85.534V54.591H66.9124V59.4413Z" fill="#B2BFDF"/>
<path d="M2.75282 2.22241H116.859V46.8012H2.75282V2.22241Z" fill="#B2BFDF"/>
<path d="M112.122 2.22095H113.917V46.7997H112.122V2.22095Z" fill="#CAD2EA"/>
<path d="M107.685 2.22095H109.479V46.7997H107.685V2.22095Z" fill="#CAD2EA"/>
<path d="M103.246 2.22095H105.041V46.7997H103.246V2.22095Z" fill="#CAD2EA"/>
<path d="M98.8106 2.22095H100.605V46.7997H98.8106V2.22095Z" fill="#CAD2EA"/>
<path d="M94.3751 2.22095H96.1699V46.7997H94.3751V2.22095Z" fill="#CAD2EA"/>
<path d="M89.9356 2.22095H91.7305V46.7997H89.9356V2.22095Z" fill="#CAD2EA"/>
<path d="M85.5011 2.22095H87.2959V46.7997H85.5011V2.22095Z" fill="#CAD2EA"/>
<path d="M81.0636 2.22095H82.8584V46.7997H81.0636V2.22095Z" fill="#CAD2EA"/>
<path d="M76.627 2.22095H78.4219V46.7997H76.627V2.22095Z" fill="#CAD2EA"/>
<path d="M72.1886 2.22095H73.9834V46.7997H72.1886V2.22095Z" fill="#CAD2EA"/>
<path d="M67.754 2.22095H69.5488V46.7997H67.754V2.22095Z" fill="#CAD2EA"/>
<path d="M63.3145 2.22095H65.1094V46.7997H63.3145V2.22095Z" fill="#CAD2EA"/>
<path d="M58.879 2.22095H60.6738V46.7997H58.879V2.22095Z" fill="#CAD2EA"/>
<path d="M54.4415 2.22095H56.2363V46.7997H54.4415V2.22095Z" fill="#CAD2EA"/>
<path d="M50.004 2.22095H51.7988V46.7997H50.004V2.22095Z" fill="#CAD2EA"/>
<path d="M45.5675 2.22095H47.3623V46.7997H45.5675V2.22095Z" fill="#CAD2EA"/>
<path d="M41.13 2.22095H42.9248V46.7997H41.13V2.22095Z" fill="#CAD2EA"/>
<path d="M36.6934 2.22095H38.4883V46.7997H36.6934V2.22095Z" fill="#CAD2EA"/>
<path d="M32.256 2.22095H34.0508V46.7997H32.256V2.22095Z" fill="#CAD2EA"/>
<path d="M27.8204 2.22095H29.6152V46.7997H27.8204V2.22095Z" fill="#CAD2EA"/>
<path d="M23.3819 2.22095H25.1768V46.7997H23.3819V2.22095Z" fill="#CAD2EA"/>
<path d="M18.9464 2.22095H20.7412V46.7997H18.9464V2.22095Z" fill="#CAD2EA"/>
<path d="M14.5089 2.22095H16.3037V46.7997H14.5089V2.22095Z" fill="#CAD2EA"/>
<path d="M10.0723 2.22095H11.8672V46.7997H10.0723V2.22095Z" fill="#CAD2EA"/>
<path d="M5.63389 2.22095H7.42871V46.7997H5.63389V2.22095Z" fill="#CAD2EA"/>
<path d="M0.254039 54.591V52.3066H22.4258V54.591H16.9949V59.4413H22.4258V61.7256H0.254039V59.4413H3.91413V54.591H0.254039ZM15.8854 59.4413V54.591H5.02193V59.4413H15.8854Z" fill="#B2BFDF"/>
<path d="M119.121 49.2351H148.216V57.0156H119.121V49.2351Z" fill="#1F1949"/>
<path d="M119.121 49.466V25.137L120.222 14.0898C120.516 12.8841 121.653 12.0768 122.888 12.2005L145.082 14.3938C146.497 14.5329 147.768 15.3178 148.529 16.5201L159.31 33.5615C160.167 34.9167 160.622 36.4848 160.622 38.0873V58.7355C160.622 60.484 159.645 62.0865 158.09 62.8885C157.429 63.2286 156.696 63.4072 155.952 63.4072H145.011C145.011 55.6955 140.903 49.4436 133.193 49.4505L119.125 49.466H119.121Z" fill="#B2BFDF"/>
<path d="M139.87 53.8687H163.452V65.1649H139.87V53.8687Z" fill="#343766"/>
<path d="M157.476 53.866V57.1121C157.476 59.1045 155.862 60.719 153.87 60.719H141.929V65.4989H162.502V53.9123L157.475 53.8677L157.476 53.866Z" fill="#1F1949"/>
<path d="M148.527 16.5183C148.326 17.7395 148.595 18.9916 149.279 20.0238L156.613 31.0848C157.216 31.9951 158.236 32.543 159.328 32.543C159.328 32.543 149.499 16.7038 148.528 16.5183" fill="#CAD2EA"/>
<path d="M119.122 25.1372C120.114 27.2962 120.628 29.6423 120.628 32.0177V50.2442H117.519V25.1664L119.122 25.1372" fill="#343766"/>
<path d="M146.146 63.4093C146.178 63.0383 146.195 62.6622 146.195 62.2826C146.195 55.3661 140.588 49.7583 133.671 49.7583C126.754 49.7583 121.147 55.3661 121.147 62.2826C121.147 62.6622 121.164 63.0383 121.197 63.4093H146.146Z" fill="#1F1949"/>
<path d="M133.657 73.5918C127.624 73.5918 122.733 68.7011 122.733 62.6682C122.733 56.6353 127.624 51.7446 133.657 51.7446C139.689 51.7446 144.58 56.6353 144.58 62.6682C144.58 68.7011 139.689 73.5918 133.657 73.5918Z" fill="#343766"/>
<path d="M133.671 67.1712C131.189 67.1712 129.176 65.1589 129.176 62.6765C129.176 60.194 131.189 58.1816 133.671 58.1816C136.154 58.1816 138.166 60.194 138.166 62.6765C138.166 65.1589 136.154 67.1712 133.671 67.1712Z" fill="#CAD2EA"/>
<path d="M133.67 60.0993C133.331 60.0993 133.057 59.8248 133.057 59.4862C133.057 59.1475 133.331 58.873 133.67 58.873C134.009 58.873 134.283 59.1475 134.283 59.4862C134.283 59.8248 134.009 60.0993 133.67 60.0993Z" fill="#343766"/>
<path d="M133.67 66.4824C133.331 66.4824 133.057 66.2079 133.057 65.8692C133.057 65.5306 133.331 65.2561 133.67 65.2561C134.009 65.2561 134.283 65.5306 134.283 65.8692C134.283 66.2079 134.009 66.4824 133.67 66.4824Z" fill="#343766"/>
<path d="M136.362 60.8533C136.121 61.0938 135.733 61.0938 135.493 60.8533C135.252 60.6129 135.252 60.2247 135.493 59.9843C135.733 59.7438 136.121 59.7438 136.362 59.9843C136.602 60.2247 136.602 60.6129 136.362 60.8533Z" fill="#343766"/>
<path d="M131.85 65.3655C131.609 65.606 131.221 65.606 130.981 65.3655C130.74 65.1251 130.74 64.7369 130.981 64.4965C131.221 64.2561 131.609 64.2561 131.85 64.4965C132.09 64.7369 132.09 65.1251 131.85 65.3655Z" fill="#343766"/>
<path d="M136.861 63.2905C136.523 63.2905 136.248 63.016 136.248 62.6774C136.248 62.3387 136.523 62.0642 136.861 62.0642C137.2 62.0642 137.475 62.3387 137.475 62.6774C137.475 63.016 137.2 63.2905 136.861 63.2905Z" fill="#343766"/>
<path d="M130.48 63.2905C130.141 63.2905 129.867 63.016 129.867 62.6774C129.867 62.3387 130.141 62.0642 130.48 62.0642C130.818 62.0642 131.093 62.3387 131.093 62.6774C131.093 63.016 130.818 63.2905 130.48 63.2905Z" fill="#343766"/>
<path d="M135.494 65.3658C135.253 65.1253 135.253 64.7372 135.494 64.4967C135.734 64.2563 136.122 64.2563 136.363 64.4967C136.603 64.7372 136.603 65.1253 136.363 65.3658C136.122 65.6062 135.734 65.6062 135.494 65.3658Z" fill="#343766"/>
<path d="M130.98 60.8536C130.739 60.6131 130.739 60.225 130.98 59.9845C131.22 59.7441 131.609 59.7441 131.849 59.9845C132.089 60.225 132.089 60.6131 131.849 60.8536C131.609 61.094 131.22 61.094 130.98 60.8536Z" fill="#343766"/>
<path d="M133.672 64.3187C132.765 64.3187 132.03 63.5836 132.03 62.6768C132.03 61.77 132.765 61.0349 133.672 61.0349C134.578 61.0349 135.313 61.77 135.313 62.6768C135.313 63.5836 134.578 64.3187 133.672 64.3187Z" fill="#343766"/>
<path d="M161.34 45.9883H159.801C159.092 45.9883 158.517 46.5636 158.517 47.2729V50.9363C158.517 51.6456 159.092 52.2209 159.801 52.2209H161.34C161.538 52.2209 161.699 52.0595 161.699 51.862V46.3472C161.699 46.1497 161.538 45.9883 161.34 45.9883V45.9883Z" fill="white"/>
<path d="M125.133 17.8642C125.133 17.0191 125.866 16.3613 126.706 16.454L142.731 18.2008C143.908 18.3416 144.96 19.0012 145.599 20.0008L153.201 31.9068C153.643 32.5989 152.997 33.4714 152.207 33.2499L140.746 33.2619C140.174 33.2619 139.614 33.1005 139.129 32.7965L126.339 24.7326C125.59 24.2603 125.135 23.4358 125.135 22.5496V17.8642H125.133Z" fill="#CAD2EA"/>
<path d="M130.478 15.835L138.164 34.9993H145.675L139.241 17.1781L130.478 15.835Z" fill="url(#paint0_linear_301_2004)"/>
<path opacity="0.54" d="M125.134 17.8644L141.535 19.8344C142.612 19.9632 143.577 20.5575 144.178 21.4592L152.55 34.0161H155.054L144.276 17.6737L125.132 15.5869V17.8644" fill="#8296C9"/>
<path d="M146.097 52.3386H155.493C156.247 52.3386 156.86 51.7254 156.86 50.9714V34.2666C156.86 33.6019 156.665 32.9596 156.295 32.4082L147.082 18.6919C146.218 17.4055 144.839 16.5708 143.3 16.4007L124.603 14.3345C124.102 14.2796 123.597 14.441 123.221 14.7777C122.844 15.1143 122.628 15.5986 122.628 16.1036V46.0026C122.628 46.9455 123.396 47.7115 124.337 47.7115H132.353C136.131 47.7115 139.805 48.7953 142.977 50.8443L144.609 51.8989C145.054 52.1857 145.568 52.3368 146.097 52.3368V52.3386ZM124.406 14.5561C124.462 14.5561 124.519 14.5595 124.576 14.5647L143.273 16.6309C144.745 16.7941 146.062 17.591 146.888 18.8208L156.101 32.537C156.446 33.0506 156.628 33.6466 156.628 34.2649V50.9697C156.628 51.5949 156.12 52.105 155.493 52.105H146.097C145.612 52.105 145.142 51.9659 144.736 51.7031L143.105 50.6485C139.894 48.5737 136.176 47.4779 132.353 47.4779H124.337C123.523 47.4779 122.86 46.8149 122.86 46.0008V16.1019C122.86 15.6622 123.047 15.2431 123.375 14.9494C123.66 14.6935 124.03 14.5544 124.407 14.5544L124.406 14.5561Z" fill="#343766"/>
<path d="M128.479 36.2609H131.641C132.1 36.2609 132.471 36.0153 132.471 35.713V35.0002H126.13L126.563 35.5155C126.949 35.9758 127.682 36.2609 128.479 36.2609Z" fill="#CAD2EA"/>
<path d="M126.463 33.7063H132.138C132.322 33.7063 132.471 33.8555 132.471 34.0395V34.936C132.471 35.12 132.322 35.2692 132.138 35.2692H126.463C126.279 35.2692 126.13 35.12 126.13 34.936V34.0395C126.13 33.8555 126.279 33.7063 126.463 33.7063Z" fill="#343766"/>
<path d="M150.362 45.9883H153.383C153.905 45.9883 154.329 46.412 154.329 46.9346V47.1235C154.329 47.6462 153.905 48.0698 153.383 48.0698H150.362C149.839 48.0698 149.415 47.6462 149.415 47.1235V46.9346C149.415 46.412 149.839 45.9883 150.362 45.9883Z" fill="white"/>
<path d="M152.611 33.5119C152.001 33.5119 151.506 33.0175 151.506 32.4075C151.506 31.7976 152.001 31.3032 152.611 31.3032C153.22 31.3032 153.715 31.7976 153.715 32.4075C153.715 33.0175 153.22 33.5119 152.611 33.5119Z" fill="#1F1949"/>
<path d="M151.811 28.3447H151.27V36.4687H151.811C152.347 36.4687 152.781 36.0342 152.781 35.4983V29.3151C152.781 28.7793 152.347 28.3447 151.811 28.3447Z" fill="#343766"/>
<path d="M131.318 43.751H130.525L129.689 44.3128L129.783 43.7586H128.975L128.67 45.5699H129.477L129.623 44.7045L130.234 45.5699H131.049L130.264 44.4621L131.318 43.751Z" fill="white"/>
<path d="M125.546 45.9909H125.509L124.849 43.6934H124.886L125.546 45.9909Z" fill="white"/>
<path d="M125.681 45.9909H125.644L124.915 43.6934H124.952L125.681 45.9909Z" fill="white"/>
<path d="M124.819 43.7176C124.809 43.7179 124.8 43.7163 124.791 43.7129C124.782 43.7095 124.774 43.7044 124.767 43.6978C124.76 43.6913 124.754 43.6834 124.75 43.6747C124.746 43.6659 124.744 43.6565 124.744 43.647C124.744 43.6359 124.747 43.625 124.752 43.6152C124.758 43.6054 124.765 43.597 124.774 43.5908L124.779 43.5876C124.807 43.5697 124.839 43.557 124.872 43.5498C124.897 43.5442 124.922 43.5418 124.947 43.5426H124.951C124.961 43.5423 124.971 43.5439 124.98 43.5473C124.989 43.5507 124.997 43.5558 125.004 43.5624C125.011 43.5689 125.016 43.5768 125.02 43.5855C125.024 43.5943 125.026 43.6037 125.027 43.6133C125.026 43.6245 125.023 43.6356 125.018 43.6455C125.013 43.6554 125.005 43.664 124.996 43.6704H124.992C124.938 43.7034 124.876 43.7191 124.813 43.7154L124.819 43.7176ZM124.835 43.674C124.855 43.674 124.874 43.6717 124.893 43.6672C124.914 43.6624 124.935 43.6552 124.954 43.6456V43.6456C124.96 43.6429 124.965 43.6387 124.968 43.6335C124.972 43.6284 124.975 43.6223 124.976 43.6159C124.976 43.5966 124.957 43.5818 124.931 43.5831H124.928C124.912 43.5838 124.895 43.5859 124.879 43.5894C124.858 43.5941 124.837 43.6015 124.817 43.6115H124.814C124.809 43.6142 124.804 43.6183 124.8 43.6234C124.796 43.6285 124.794 43.6344 124.793 43.6407C124.793 43.66 124.812 43.6749 124.838 43.6735" fill="white"/>
<path d="M124.976 43.7868L124.96 43.754C124.986 43.7541 125.013 43.7518 125.039 43.7472C125.155 43.7303 125.273 43.7204 125.39 43.7175C125.39 43.7175 125.69 43.7211 125.736 43.7274C125.862 43.7451 125.987 43.7693 126.111 43.7998C126.111 43.7998 126.166 43.8165 126.442 43.8295C126.555 43.8366 126.669 43.8344 126.781 43.8228C126.781 43.8228 127.202 43.7702 127.245 43.7639C127.245 43.7639 127.518 43.754 127.633 43.7639C127.656 43.8878 127.689 44.0097 127.732 44.1286C127.776 44.2276 127.831 44.3213 127.896 44.408C127.896 44.408 128.044 44.6832 128.076 44.7862C128.11 44.9062 128.137 45.028 128.158 45.151C128.2 45.2985 128.263 45.4392 128.345 45.5689C128.345 45.5689 127.964 45.5064 127.816 45.5095C127.665 45.5102 127.515 45.5279 127.369 45.5621C127.211 45.6164 127.043 45.6397 126.877 45.6309C126.736 45.6234 126.597 45.6069 126.459 45.5815C126.291 45.5707 126.121 45.5696 125.953 45.5783C125.953 45.5783 125.654 45.6112 125.568 45.6602L125.545 45.6309L125.535 45.6076L125.57 45.6112C125.557 44.5834 125.027 43.812 125.027 43.812C125.021 43.8035 125.013 43.7963 125.004 43.7909C124.996 43.7854 124.986 43.7817 124.976 43.7801L124.976 43.7868ZM127.532 45.1645L126.835 44.6248L127.378 44.2258H126.918L126.469 44.5582L126.39 44.2388H125.947L126.182 45.1812H126.62L126.53 44.8141L126.971 45.1636L127.532 45.1645Z" fill="white"/>
<path d="M133.385 43.7349C132.809 43.7349 132.385 44.1276 132.385 44.6669C132.385 45.2088 132.809 45.6094 133.385 45.6094C133.961 45.6094 134.385 45.2062 134.385 44.6669C134.385 44.1302 133.961 43.7349 133.385 43.7349ZM133.393 44.1904C133.634 44.1904 133.827 44.392 133.827 44.6695C133.827 44.947 133.634 45.1538 133.393 45.1538C133.152 45.1538 132.942 44.947 132.942 44.6695C132.942 44.392 133.149 44.1904 133.393 44.1904Z" fill="white"/>
<path d="M136.329 45.5858V43.7506H135.832V44.7768L135.055 43.7506H134.588V45.5858H135.089V44.5648L135.866 45.5858H136.329Z" fill="white"/>
<path d="M138.139 44.1695V43.7506H136.639V45.5858H138.165V45.1669H137.183V44.8763H138.05V44.4574H137.183V44.1695H138.139Z" fill="white"/>
<path fill-rule="evenodd" clip-rule="evenodd" d="M132.048 44.9661H131.318V44.5679H132.048V44.9661Z" fill="white"/>
<defs>
<linearGradient id="paint0_linear_301_2004" x1="145.675" y1="25.4171" x2="130.478" y2="25.4171" gradientUnits="userSpaceOnUse">
<stop stop-color="#E1E5EF"/>
<stop offset="1" stop-color="#E1E5EF"/>
</linearGradient>
</defs>
</svg>
